G04 #@! TF.GenerationSoftware,KiCad,Pcbnew,(5.1.10)-1*
G04 #@! TF.CreationDate,2021-09-11T20:09:11+09:00*
G04 #@! TF.ProjectId,cc_proto_top,63635f70-726f-4746-9f5f-746f702e6b69,rev?*
G04 #@! TF.SameCoordinates,Original*
G04 #@! TF.FileFunction,Copper,L2,Bot*
G04 #@! TF.FilePolarity,Positive*
%FSLAX46Y46*%
G04 Gerber Fmt 4.6, Leading zero omitted, Abs format (unit mm)*
G04 Created by KiCad (PCBNEW (5.1.10)-1) date 2021-09-11 20:09:11*
%MOMM*%
%LPD*%
G01*
G04 APERTURE LIST*
G04 #@! TA.AperFunction,ComponentPad*
%ADD10C,2.300000*%
G04 #@! TD*
G04 #@! TA.AperFunction,NonConductor*
%ADD11C,0.254000*%
G04 #@! TD*
G04 #@! TA.AperFunction,NonConductor*
%ADD12C,0.100000*%
G04 #@! TD*
G04 APERTURE END LIST*
D10*
X115074500Y-80474600D03*
X153174500Y-80474600D03*
X115074500Y-118574600D03*
X172224500Y-118574600D03*
D11*
X169813040Y-60654702D02*
X169969394Y-60701908D01*
X170113596Y-60778582D01*
X170240163Y-60881807D01*
X170344269Y-61007651D01*
X170421947Y-61151311D01*
X170470242Y-61307329D01*
X170490500Y-61500073D01*
X170490501Y-98508019D01*
X170493318Y-98536618D01*
X170493253Y-98545888D01*
X170494152Y-98555060D01*
X170524752Y-98846205D01*
X170536783Y-98904817D01*
X170547989Y-98963563D01*
X170550653Y-98972384D01*
X170637221Y-99252040D01*
X170660399Y-99307178D01*
X170682811Y-99362650D01*
X170687138Y-99370786D01*
X170826377Y-99628302D01*
X170859804Y-99677859D01*
X170892580Y-99727947D01*
X170898405Y-99735088D01*
X171085010Y-99960656D01*
X171127465Y-100002815D01*
X171169309Y-100045545D01*
X171176409Y-100051419D01*
X171403273Y-100236445D01*
X171453066Y-100269527D01*
X171502455Y-100303345D01*
X171510561Y-100307727D01*
X171769042Y-100445164D01*
X171824336Y-100467955D01*
X171879329Y-100491525D01*
X171888132Y-100494250D01*
X172168387Y-100578864D01*
X172227064Y-100590482D01*
X172285579Y-100602920D01*
X172294742Y-100603883D01*
X172294744Y-100603883D01*
X172586096Y-100632450D01*
X172586098Y-100632450D01*
X172618081Y-100635600D01*
X190118223Y-100635600D01*
X190313040Y-100654702D01*
X190469394Y-100701908D01*
X190613596Y-100778582D01*
X190740163Y-100881807D01*
X190844269Y-101007651D01*
X190921947Y-101151311D01*
X190970242Y-101307329D01*
X190990500Y-101500073D01*
X190990501Y-137443312D01*
X190971398Y-137638140D01*
X190924192Y-137794495D01*
X190847518Y-137938696D01*
X190744292Y-138065264D01*
X190618451Y-138169368D01*
X190474789Y-138247047D01*
X190318771Y-138295342D01*
X190126027Y-138315600D01*
X97182777Y-138315600D01*
X96987960Y-138296498D01*
X96831605Y-138249292D01*
X96687404Y-138172618D01*
X96560836Y-138069392D01*
X96456732Y-137943551D01*
X96379053Y-137799889D01*
X96330758Y-137643871D01*
X96310500Y-137451127D01*
X96310500Y-121050500D01*
X97761894Y-121050500D01*
X97765451Y-121086615D01*
X97765450Y-135013855D01*
X97761894Y-135049960D01*
X97776085Y-135194045D01*
X97818113Y-135332593D01*
X97886363Y-135460280D01*
X97978212Y-135572198D01*
X98090130Y-135664047D01*
X98217817Y-135732297D01*
X98356365Y-135774325D01*
X98500450Y-135788516D01*
X98536555Y-135784960D01*
X112463895Y-135784960D01*
X112500000Y-135788516D01*
X112536105Y-135784960D01*
X112644085Y-135774325D01*
X112782633Y-135732297D01*
X112910320Y-135664047D01*
X113022238Y-135572198D01*
X113114087Y-135460280D01*
X113182337Y-135332593D01*
X113224365Y-135194045D01*
X113238556Y-135049960D01*
X113235000Y-135013855D01*
X113235000Y-121086605D01*
X113238556Y-121050500D01*
X116811894Y-121050500D01*
X116815451Y-121086615D01*
X116815450Y-135013855D01*
X116811894Y-135049960D01*
X116826085Y-135194045D01*
X116868113Y-135332593D01*
X116936363Y-135460280D01*
X117028212Y-135572198D01*
X117140130Y-135664047D01*
X117267817Y-135732297D01*
X117406365Y-135774325D01*
X117550450Y-135788516D01*
X117586555Y-135784960D01*
X131513895Y-135784960D01*
X131550000Y-135788516D01*
X131586105Y-135784960D01*
X131694085Y-135774325D01*
X131832633Y-135732297D01*
X131960320Y-135664047D01*
X132072238Y-135572198D01*
X132164087Y-135460280D01*
X132232337Y-135332593D01*
X132274365Y-135194045D01*
X132288556Y-135049960D01*
X132285000Y-135013855D01*
X132285000Y-121086605D01*
X132288556Y-121050500D01*
X135861894Y-121050500D01*
X135865451Y-121086615D01*
X135865450Y-135013855D01*
X135861894Y-135049960D01*
X135876085Y-135194045D01*
X135918113Y-135332593D01*
X135986363Y-135460280D01*
X136078212Y-135572198D01*
X136190130Y-135664047D01*
X136317817Y-135732297D01*
X136456365Y-135774325D01*
X136600450Y-135788516D01*
X136636555Y-135784960D01*
X150563895Y-135784960D01*
X150600000Y-135788516D01*
X150636105Y-135784960D01*
X150744085Y-135774325D01*
X150882633Y-135732297D01*
X151010320Y-135664047D01*
X151122238Y-135572198D01*
X151214087Y-135460280D01*
X151282337Y-135332593D01*
X151324365Y-135194045D01*
X151338556Y-135049960D01*
X151335000Y-135013855D01*
X151335000Y-121086605D01*
X151338556Y-121050500D01*
X154911894Y-121050500D01*
X154915451Y-121086615D01*
X154915450Y-135013855D01*
X154911894Y-135049960D01*
X154926085Y-135194045D01*
X154968113Y-135332593D01*
X155036363Y-135460280D01*
X155128212Y-135572198D01*
X155240130Y-135664047D01*
X155367817Y-135732297D01*
X155506365Y-135774325D01*
X155650450Y-135788516D01*
X155686555Y-135784960D01*
X169613895Y-135784960D01*
X169650000Y-135788516D01*
X169686105Y-135784960D01*
X169794085Y-135774325D01*
X169932633Y-135732297D01*
X170060320Y-135664047D01*
X170172238Y-135572198D01*
X170264087Y-135460280D01*
X170332337Y-135332593D01*
X170374365Y-135194045D01*
X170388556Y-135049960D01*
X170385000Y-135013855D01*
X170385000Y-121086605D01*
X170388556Y-121050500D01*
X173961894Y-121050500D01*
X173965451Y-121086615D01*
X173965450Y-135013855D01*
X173961894Y-135049960D01*
X173976085Y-135194045D01*
X174018113Y-135332593D01*
X174086363Y-135460280D01*
X174178212Y-135572198D01*
X174290130Y-135664047D01*
X174417817Y-135732297D01*
X174556365Y-135774325D01*
X174700450Y-135788516D01*
X174736555Y-135784960D01*
X188663895Y-135784960D01*
X188700000Y-135788516D01*
X188736105Y-135784960D01*
X188844085Y-135774325D01*
X188982633Y-135732297D01*
X189110320Y-135664047D01*
X189222238Y-135572198D01*
X189314087Y-135460280D01*
X189382337Y-135332593D01*
X189424365Y-135194045D01*
X189438556Y-135049960D01*
X189435000Y-135013855D01*
X189435000Y-121086605D01*
X189438556Y-121050500D01*
X189424365Y-120906415D01*
X189382337Y-120767867D01*
X189314087Y-120640180D01*
X189222238Y-120528262D01*
X189110320Y-120436413D01*
X188982633Y-120368163D01*
X188844085Y-120326135D01*
X188736105Y-120315500D01*
X188700000Y-120311944D01*
X188663895Y-120315500D01*
X174736555Y-120315500D01*
X174700450Y-120311944D01*
X174664345Y-120315500D01*
X174556365Y-120326135D01*
X174417817Y-120368163D01*
X174290130Y-120436413D01*
X174178212Y-120528262D01*
X174086363Y-120640180D01*
X174018113Y-120767867D01*
X173976085Y-120906415D01*
X173961894Y-121050500D01*
X170388556Y-121050500D01*
X170374365Y-120906415D01*
X170332337Y-120767867D01*
X170264087Y-120640180D01*
X170172238Y-120528262D01*
X170060320Y-120436413D01*
X169932633Y-120368163D01*
X169794085Y-120326135D01*
X169686105Y-120315500D01*
X169650000Y-120311944D01*
X169613895Y-120315500D01*
X155686555Y-120315500D01*
X155650450Y-120311944D01*
X155614345Y-120315500D01*
X155506365Y-120326135D01*
X155367817Y-120368163D01*
X155240130Y-120436413D01*
X155128212Y-120528262D01*
X155036363Y-120640180D01*
X154968113Y-120767867D01*
X154926085Y-120906415D01*
X154911894Y-121050500D01*
X151338556Y-121050500D01*
X151324365Y-120906415D01*
X151282337Y-120767867D01*
X151214087Y-120640180D01*
X151122238Y-120528262D01*
X151010320Y-120436413D01*
X150882633Y-120368163D01*
X150744085Y-120326135D01*
X150636105Y-120315500D01*
X150600000Y-120311944D01*
X150563895Y-120315500D01*
X136636555Y-120315500D01*
X136600450Y-120311944D01*
X136564345Y-120315500D01*
X136456365Y-120326135D01*
X136317817Y-120368163D01*
X136190130Y-120436413D01*
X136078212Y-120528262D01*
X135986363Y-120640180D01*
X135918113Y-120767867D01*
X135876085Y-120906415D01*
X135861894Y-121050500D01*
X132288556Y-121050500D01*
X132274365Y-120906415D01*
X132232337Y-120767867D01*
X132164087Y-120640180D01*
X132072238Y-120528262D01*
X131960320Y-120436413D01*
X131832633Y-120368163D01*
X131694085Y-120326135D01*
X131586105Y-120315500D01*
X131550000Y-120311944D01*
X131513895Y-120315500D01*
X117586555Y-120315500D01*
X117550450Y-120311944D01*
X117514345Y-120315500D01*
X117406365Y-120326135D01*
X117267817Y-120368163D01*
X117140130Y-120436413D01*
X117028212Y-120528262D01*
X116936363Y-120640180D01*
X116868113Y-120767867D01*
X116826085Y-120906415D01*
X116811894Y-121050500D01*
X113238556Y-121050500D01*
X113224365Y-120906415D01*
X113182337Y-120767867D01*
X113114087Y-120640180D01*
X113022238Y-120528262D01*
X112910320Y-120436413D01*
X112782633Y-120368163D01*
X112644085Y-120326135D01*
X112536105Y-120315500D01*
X112500000Y-120311944D01*
X112463895Y-120315500D01*
X98536555Y-120315500D01*
X98500450Y-120311944D01*
X98464345Y-120315500D01*
X98356365Y-120326135D01*
X98217817Y-120368163D01*
X98090130Y-120436413D01*
X97978212Y-120528262D01*
X97886363Y-120640180D01*
X97818113Y-120767867D01*
X97776085Y-120906415D01*
X97761894Y-121050500D01*
X96310500Y-121050500D01*
X96310500Y-118398793D01*
X113289500Y-118398793D01*
X113289500Y-118750407D01*
X113358096Y-119095265D01*
X113492653Y-119420115D01*
X113688000Y-119712471D01*
X113936629Y-119961100D01*
X114228985Y-120156447D01*
X114553835Y-120291004D01*
X114898693Y-120359600D01*
X115250307Y-120359600D01*
X115595165Y-120291004D01*
X115920015Y-120156447D01*
X116212371Y-119961100D01*
X116461000Y-119712471D01*
X116656347Y-119420115D01*
X116790904Y-119095265D01*
X116859500Y-118750407D01*
X116859500Y-118398793D01*
X170439500Y-118398793D01*
X170439500Y-118750407D01*
X170508096Y-119095265D01*
X170642653Y-119420115D01*
X170838000Y-119712471D01*
X171086629Y-119961100D01*
X171378985Y-120156447D01*
X171703835Y-120291004D01*
X172048693Y-120359600D01*
X172400307Y-120359600D01*
X172745165Y-120291004D01*
X173070015Y-120156447D01*
X173362371Y-119961100D01*
X173611000Y-119712471D01*
X173806347Y-119420115D01*
X173940904Y-119095265D01*
X174009500Y-118750407D01*
X174009500Y-118398793D01*
X173940904Y-118053935D01*
X173806347Y-117729085D01*
X173611000Y-117436729D01*
X173362371Y-117188100D01*
X173070015Y-116992753D01*
X172745165Y-116858196D01*
X172400307Y-116789600D01*
X172048693Y-116789600D01*
X171703835Y-116858196D01*
X171378985Y-116992753D01*
X171086629Y-117188100D01*
X170838000Y-117436729D01*
X170642653Y-117729085D01*
X170508096Y-118053935D01*
X170439500Y-118398793D01*
X116859500Y-118398793D01*
X116790904Y-118053935D01*
X116656347Y-117729085D01*
X116461000Y-117436729D01*
X116212371Y-117188100D01*
X115920015Y-116992753D01*
X115595165Y-116858196D01*
X115250307Y-116789600D01*
X114898693Y-116789600D01*
X114553835Y-116858196D01*
X114228985Y-116992753D01*
X113936629Y-117188100D01*
X113688000Y-117436729D01*
X113492653Y-117729085D01*
X113358096Y-118053935D01*
X113289500Y-118398793D01*
X96310500Y-118398793D01*
X96310500Y-102000500D01*
X97761894Y-102000500D01*
X97765451Y-102036615D01*
X97765450Y-115963855D01*
X97761894Y-115999960D01*
X97776085Y-116144045D01*
X97818113Y-116282593D01*
X97886363Y-116410280D01*
X97978212Y-116522198D01*
X98090130Y-116614047D01*
X98217817Y-116682297D01*
X98356365Y-116724325D01*
X98500450Y-116738516D01*
X98536555Y-116734960D01*
X112463895Y-116734960D01*
X112500000Y-116738516D01*
X112536105Y-116734960D01*
X112644085Y-116724325D01*
X112782633Y-116682297D01*
X112910320Y-116614047D01*
X113022238Y-116522198D01*
X113114087Y-116410280D01*
X113182337Y-116282593D01*
X113224365Y-116144045D01*
X113238556Y-115999960D01*
X113235000Y-115963855D01*
X113235000Y-102036605D01*
X113238556Y-102000500D01*
X116811894Y-102000500D01*
X116815451Y-102036615D01*
X116815450Y-115963855D01*
X116811894Y-115999960D01*
X116826085Y-116144045D01*
X116868113Y-116282593D01*
X116936363Y-116410280D01*
X117028212Y-116522198D01*
X117140130Y-116614047D01*
X117267817Y-116682297D01*
X117406365Y-116724325D01*
X117550450Y-116738516D01*
X117586555Y-116734960D01*
X131513895Y-116734960D01*
X131550000Y-116738516D01*
X131586105Y-116734960D01*
X131694085Y-116724325D01*
X131832633Y-116682297D01*
X131960320Y-116614047D01*
X132072238Y-116522198D01*
X132164087Y-116410280D01*
X132232337Y-116282593D01*
X132274365Y-116144045D01*
X132288556Y-115999960D01*
X132285000Y-115963855D01*
X132285000Y-102036605D01*
X132288556Y-102000500D01*
X135861894Y-102000500D01*
X135865451Y-102036615D01*
X135865450Y-115963855D01*
X135861894Y-115999960D01*
X135876085Y-116144045D01*
X135918113Y-116282593D01*
X135986363Y-116410280D01*
X136078212Y-116522198D01*
X136190130Y-116614047D01*
X136317817Y-116682297D01*
X136456365Y-116724325D01*
X136600450Y-116738516D01*
X136636555Y-116734960D01*
X150563895Y-116734960D01*
X150600000Y-116738516D01*
X150636105Y-116734960D01*
X150744085Y-116724325D01*
X150882633Y-116682297D01*
X151010320Y-116614047D01*
X151122238Y-116522198D01*
X151214087Y-116410280D01*
X151282337Y-116282593D01*
X151324365Y-116144045D01*
X151338556Y-115999960D01*
X151335000Y-115963855D01*
X151335000Y-102036605D01*
X151338556Y-102000500D01*
X154911894Y-102000500D01*
X154915451Y-102036615D01*
X154915450Y-115963855D01*
X154911894Y-115999960D01*
X154926085Y-116144045D01*
X154968113Y-116282593D01*
X155036363Y-116410280D01*
X155128212Y-116522198D01*
X155240130Y-116614047D01*
X155367817Y-116682297D01*
X155506365Y-116724325D01*
X155650450Y-116738516D01*
X155686555Y-116734960D01*
X169613895Y-116734960D01*
X169650000Y-116738516D01*
X169686105Y-116734960D01*
X169794085Y-116724325D01*
X169932633Y-116682297D01*
X170060320Y-116614047D01*
X170172238Y-116522198D01*
X170264087Y-116410280D01*
X170332337Y-116282593D01*
X170374365Y-116144045D01*
X170388556Y-115999960D01*
X170385000Y-115963855D01*
X170385000Y-102036605D01*
X170388556Y-102000500D01*
X173961894Y-102000500D01*
X173965451Y-102036615D01*
X173965450Y-115963855D01*
X173961894Y-115999960D01*
X173976085Y-116144045D01*
X174018113Y-116282593D01*
X174086363Y-116410280D01*
X174178212Y-116522198D01*
X174290130Y-116614047D01*
X174417817Y-116682297D01*
X174556365Y-116724325D01*
X174700450Y-116738516D01*
X174736555Y-116734960D01*
X188663895Y-116734960D01*
X188700000Y-116738516D01*
X188736105Y-116734960D01*
X188844085Y-116724325D01*
X188982633Y-116682297D01*
X189110320Y-116614047D01*
X189222238Y-116522198D01*
X189314087Y-116410280D01*
X189382337Y-116282593D01*
X189424365Y-116144045D01*
X189438556Y-115999960D01*
X189435000Y-115963855D01*
X189435000Y-102036605D01*
X189438556Y-102000500D01*
X189424365Y-101856415D01*
X189382337Y-101717867D01*
X189314087Y-101590180D01*
X189222238Y-101478262D01*
X189110320Y-101386413D01*
X188982633Y-101318163D01*
X188844085Y-101276135D01*
X188736105Y-101265500D01*
X188700000Y-101261944D01*
X188663895Y-101265500D01*
X174736555Y-101265500D01*
X174700450Y-101261944D01*
X174664345Y-101265500D01*
X174556365Y-101276135D01*
X174417817Y-101318163D01*
X174290130Y-101386413D01*
X174178212Y-101478262D01*
X174086363Y-101590180D01*
X174018113Y-101717867D01*
X173976085Y-101856415D01*
X173961894Y-102000500D01*
X170388556Y-102000500D01*
X170374365Y-101856415D01*
X170332337Y-101717867D01*
X170264087Y-101590180D01*
X170172238Y-101478262D01*
X170060320Y-101386413D01*
X169932633Y-101318163D01*
X169794085Y-101276135D01*
X169686105Y-101265500D01*
X169650000Y-101261944D01*
X169613895Y-101265500D01*
X155686555Y-101265500D01*
X155650450Y-101261944D01*
X155614345Y-101265500D01*
X155506365Y-101276135D01*
X155367817Y-101318163D01*
X155240130Y-101386413D01*
X155128212Y-101478262D01*
X155036363Y-101590180D01*
X154968113Y-101717867D01*
X154926085Y-101856415D01*
X154911894Y-102000500D01*
X151338556Y-102000500D01*
X151324365Y-101856415D01*
X151282337Y-101717867D01*
X151214087Y-101590180D01*
X151122238Y-101478262D01*
X151010320Y-101386413D01*
X150882633Y-101318163D01*
X150744085Y-101276135D01*
X150636105Y-101265500D01*
X150600000Y-101261944D01*
X150563895Y-101265500D01*
X136636555Y-101265500D01*
X136600450Y-101261944D01*
X136564345Y-101265500D01*
X136456365Y-101276135D01*
X136317817Y-101318163D01*
X136190130Y-101386413D01*
X136078212Y-101478262D01*
X135986363Y-101590180D01*
X135918113Y-101717867D01*
X135876085Y-101856415D01*
X135861894Y-102000500D01*
X132288556Y-102000500D01*
X132274365Y-101856415D01*
X132232337Y-101717867D01*
X132164087Y-101590180D01*
X132072238Y-101478262D01*
X131960320Y-101386413D01*
X131832633Y-101318163D01*
X131694085Y-101276135D01*
X131586105Y-101265500D01*
X131550000Y-101261944D01*
X131513895Y-101265500D01*
X117586555Y-101265500D01*
X117550450Y-101261944D01*
X117514345Y-101265500D01*
X117406365Y-101276135D01*
X117267817Y-101318163D01*
X117140130Y-101386413D01*
X117028212Y-101478262D01*
X116936363Y-101590180D01*
X116868113Y-101717867D01*
X116826085Y-101856415D01*
X116811894Y-102000500D01*
X113238556Y-102000500D01*
X113224365Y-101856415D01*
X113182337Y-101717867D01*
X113114087Y-101590180D01*
X113022238Y-101478262D01*
X112910320Y-101386413D01*
X112782633Y-101318163D01*
X112644085Y-101276135D01*
X112536105Y-101265500D01*
X112500000Y-101261944D01*
X112463895Y-101265500D01*
X98536555Y-101265500D01*
X98500450Y-101261944D01*
X98464345Y-101265500D01*
X98356365Y-101276135D01*
X98217817Y-101318163D01*
X98090130Y-101386413D01*
X97978212Y-101478262D01*
X97886363Y-101590180D01*
X97818113Y-101717867D01*
X97776085Y-101856415D01*
X97761894Y-102000500D01*
X96310500Y-102000500D01*
X96310500Y-82950500D01*
X97761894Y-82950500D01*
X97765451Y-82986615D01*
X97765450Y-96913855D01*
X97761894Y-96949960D01*
X97776085Y-97094045D01*
X97818113Y-97232593D01*
X97886363Y-97360280D01*
X97978212Y-97472198D01*
X98090130Y-97564047D01*
X98217817Y-97632297D01*
X98356365Y-97674325D01*
X98500450Y-97688516D01*
X98536555Y-97684960D01*
X112463895Y-97684960D01*
X112500000Y-97688516D01*
X112536105Y-97684960D01*
X112644085Y-97674325D01*
X112782633Y-97632297D01*
X112910320Y-97564047D01*
X113022238Y-97472198D01*
X113114087Y-97360280D01*
X113182337Y-97232593D01*
X113224365Y-97094045D01*
X113238556Y-96949960D01*
X113235000Y-96913855D01*
X113235000Y-82986605D01*
X113238556Y-82950500D01*
X116811894Y-82950500D01*
X116815451Y-82986615D01*
X116815450Y-96913855D01*
X116811894Y-96949960D01*
X116826085Y-97094045D01*
X116868113Y-97232593D01*
X116936363Y-97360280D01*
X117028212Y-97472198D01*
X117140130Y-97564047D01*
X117267817Y-97632297D01*
X117406365Y-97674325D01*
X117550450Y-97688516D01*
X117586555Y-97684960D01*
X131513895Y-97684960D01*
X131550000Y-97688516D01*
X131586105Y-97684960D01*
X131694085Y-97674325D01*
X131832633Y-97632297D01*
X131960320Y-97564047D01*
X132072238Y-97472198D01*
X132164087Y-97360280D01*
X132232337Y-97232593D01*
X132274365Y-97094045D01*
X132288556Y-96949960D01*
X132285000Y-96913855D01*
X132285000Y-82986605D01*
X132288556Y-82950500D01*
X135861894Y-82950500D01*
X135865451Y-82986615D01*
X135865450Y-96913855D01*
X135861894Y-96949960D01*
X135876085Y-97094045D01*
X135918113Y-97232593D01*
X135986363Y-97360280D01*
X136078212Y-97472198D01*
X136190130Y-97564047D01*
X136317817Y-97632297D01*
X136456365Y-97674325D01*
X136600450Y-97688516D01*
X136636555Y-97684960D01*
X150563895Y-97684960D01*
X150600000Y-97688516D01*
X150636105Y-97684960D01*
X150744085Y-97674325D01*
X150882633Y-97632297D01*
X151010320Y-97564047D01*
X151122238Y-97472198D01*
X151214087Y-97360280D01*
X151282337Y-97232593D01*
X151324365Y-97094045D01*
X151338556Y-96949960D01*
X151335000Y-96913855D01*
X151335000Y-82986605D01*
X151338556Y-82950500D01*
X154911894Y-82950500D01*
X154915451Y-82986615D01*
X154915450Y-96913855D01*
X154911894Y-96949960D01*
X154926085Y-97094045D01*
X154968113Y-97232593D01*
X155036363Y-97360280D01*
X155128212Y-97472198D01*
X155240130Y-97564047D01*
X155367817Y-97632297D01*
X155506365Y-97674325D01*
X155650450Y-97688516D01*
X155686555Y-97684960D01*
X169613895Y-97684960D01*
X169650000Y-97688516D01*
X169686105Y-97684960D01*
X169794085Y-97674325D01*
X169932633Y-97632297D01*
X170060320Y-97564047D01*
X170172238Y-97472198D01*
X170264087Y-97360280D01*
X170332337Y-97232593D01*
X170374365Y-97094045D01*
X170388556Y-96949960D01*
X170385000Y-96913855D01*
X170385000Y-82986605D01*
X170388556Y-82950500D01*
X170374365Y-82806415D01*
X170332337Y-82667867D01*
X170264087Y-82540180D01*
X170172238Y-82428262D01*
X170060320Y-82336413D01*
X169932633Y-82268163D01*
X169794085Y-82226135D01*
X169686105Y-82215500D01*
X169650000Y-82211944D01*
X169613895Y-82215500D01*
X155686555Y-82215500D01*
X155650450Y-82211944D01*
X155614345Y-82215500D01*
X155506365Y-82226135D01*
X155367817Y-82268163D01*
X155240130Y-82336413D01*
X155128212Y-82428262D01*
X155036363Y-82540180D01*
X154968113Y-82667867D01*
X154926085Y-82806415D01*
X154911894Y-82950500D01*
X151338556Y-82950500D01*
X151324365Y-82806415D01*
X151282337Y-82667867D01*
X151214087Y-82540180D01*
X151122238Y-82428262D01*
X151010320Y-82336413D01*
X150882633Y-82268163D01*
X150744085Y-82226135D01*
X150636105Y-82215500D01*
X150600000Y-82211944D01*
X150563895Y-82215500D01*
X136636555Y-82215500D01*
X136600450Y-82211944D01*
X136564345Y-82215500D01*
X136456365Y-82226135D01*
X136317817Y-82268163D01*
X136190130Y-82336413D01*
X136078212Y-82428262D01*
X135986363Y-82540180D01*
X135918113Y-82667867D01*
X135876085Y-82806415D01*
X135861894Y-82950500D01*
X132288556Y-82950500D01*
X132274365Y-82806415D01*
X132232337Y-82667867D01*
X132164087Y-82540180D01*
X132072238Y-82428262D01*
X131960320Y-82336413D01*
X131832633Y-82268163D01*
X131694085Y-82226135D01*
X131586105Y-82215500D01*
X131550000Y-82211944D01*
X131513895Y-82215500D01*
X117586555Y-82215500D01*
X117550450Y-82211944D01*
X117514345Y-82215500D01*
X117406365Y-82226135D01*
X117267817Y-82268163D01*
X117140130Y-82336413D01*
X117028212Y-82428262D01*
X116936363Y-82540180D01*
X116868113Y-82667867D01*
X116826085Y-82806415D01*
X116811894Y-82950500D01*
X113238556Y-82950500D01*
X113224365Y-82806415D01*
X113182337Y-82667867D01*
X113114087Y-82540180D01*
X113022238Y-82428262D01*
X112910320Y-82336413D01*
X112782633Y-82268163D01*
X112644085Y-82226135D01*
X112536105Y-82215500D01*
X112500000Y-82211944D01*
X112463895Y-82215500D01*
X98536555Y-82215500D01*
X98500450Y-82211944D01*
X98464345Y-82215500D01*
X98356365Y-82226135D01*
X98217817Y-82268163D01*
X98090130Y-82336413D01*
X97978212Y-82428262D01*
X97886363Y-82540180D01*
X97818113Y-82667867D01*
X97776085Y-82806415D01*
X97761894Y-82950500D01*
X96310500Y-82950500D01*
X96310500Y-80298793D01*
X113289500Y-80298793D01*
X113289500Y-80650407D01*
X113358096Y-80995265D01*
X113492653Y-81320115D01*
X113688000Y-81612471D01*
X113936629Y-81861100D01*
X114228985Y-82056447D01*
X114553835Y-82191004D01*
X114898693Y-82259600D01*
X115250307Y-82259600D01*
X115595165Y-82191004D01*
X115920015Y-82056447D01*
X116212371Y-81861100D01*
X116461000Y-81612471D01*
X116656347Y-81320115D01*
X116790904Y-80995265D01*
X116859500Y-80650407D01*
X116859500Y-80298793D01*
X151389500Y-80298793D01*
X151389500Y-80650407D01*
X151458096Y-80995265D01*
X151592653Y-81320115D01*
X151788000Y-81612471D01*
X152036629Y-81861100D01*
X152328985Y-82056447D01*
X152653835Y-82191004D01*
X152998693Y-82259600D01*
X153350307Y-82259600D01*
X153695165Y-82191004D01*
X154020015Y-82056447D01*
X154312371Y-81861100D01*
X154561000Y-81612471D01*
X154756347Y-81320115D01*
X154890904Y-80995265D01*
X154959500Y-80650407D01*
X154959500Y-80298793D01*
X154890904Y-79953935D01*
X154756347Y-79629085D01*
X154561000Y-79336729D01*
X154312371Y-79088100D01*
X154020015Y-78892753D01*
X153695165Y-78758196D01*
X153350307Y-78689600D01*
X152998693Y-78689600D01*
X152653835Y-78758196D01*
X152328985Y-78892753D01*
X152036629Y-79088100D01*
X151788000Y-79336729D01*
X151592653Y-79629085D01*
X151458096Y-79953935D01*
X151389500Y-80298793D01*
X116859500Y-80298793D01*
X116790904Y-79953935D01*
X116656347Y-79629085D01*
X116461000Y-79336729D01*
X116212371Y-79088100D01*
X115920015Y-78892753D01*
X115595165Y-78758196D01*
X115250307Y-78689600D01*
X114898693Y-78689600D01*
X114553835Y-78758196D01*
X114228985Y-78892753D01*
X113936629Y-79088100D01*
X113688000Y-79336729D01*
X113492653Y-79629085D01*
X113358096Y-79953935D01*
X113289500Y-80298793D01*
X96310500Y-80298793D01*
X96310500Y-63900500D01*
X97761894Y-63900500D01*
X97765451Y-63936615D01*
X97765450Y-77863855D01*
X97761894Y-77899960D01*
X97776085Y-78044045D01*
X97818113Y-78182593D01*
X97886363Y-78310280D01*
X97978212Y-78422198D01*
X98090130Y-78514047D01*
X98217817Y-78582297D01*
X98356365Y-78624325D01*
X98500450Y-78638516D01*
X98536555Y-78634960D01*
X112463895Y-78634960D01*
X112500000Y-78638516D01*
X112536105Y-78634960D01*
X112644085Y-78624325D01*
X112782633Y-78582297D01*
X112910320Y-78514047D01*
X113022238Y-78422198D01*
X113114087Y-78310280D01*
X113182337Y-78182593D01*
X113224365Y-78044045D01*
X113238556Y-77899960D01*
X113235000Y-77863855D01*
X113235000Y-63936605D01*
X113238556Y-63900500D01*
X116811894Y-63900500D01*
X116815451Y-63936615D01*
X116815450Y-77863855D01*
X116811894Y-77899960D01*
X116826085Y-78044045D01*
X116868113Y-78182593D01*
X116936363Y-78310280D01*
X117028212Y-78422198D01*
X117140130Y-78514047D01*
X117267817Y-78582297D01*
X117406365Y-78624325D01*
X117550450Y-78638516D01*
X117586555Y-78634960D01*
X131513895Y-78634960D01*
X131550000Y-78638516D01*
X131586105Y-78634960D01*
X131694085Y-78624325D01*
X131832633Y-78582297D01*
X131960320Y-78514047D01*
X132072238Y-78422198D01*
X132164087Y-78310280D01*
X132232337Y-78182593D01*
X132274365Y-78044045D01*
X132288556Y-77899960D01*
X132285000Y-77863855D01*
X132285000Y-63936605D01*
X132288556Y-63900500D01*
X135861894Y-63900500D01*
X135865451Y-63936615D01*
X135865450Y-77863855D01*
X135861894Y-77899960D01*
X135876085Y-78044045D01*
X135918113Y-78182593D01*
X135986363Y-78310280D01*
X136078212Y-78422198D01*
X136190130Y-78514047D01*
X136317817Y-78582297D01*
X136456365Y-78624325D01*
X136600450Y-78638516D01*
X136636555Y-78634960D01*
X150563895Y-78634960D01*
X150600000Y-78638516D01*
X150636105Y-78634960D01*
X150744085Y-78624325D01*
X150882633Y-78582297D01*
X151010320Y-78514047D01*
X151122238Y-78422198D01*
X151214087Y-78310280D01*
X151282337Y-78182593D01*
X151324365Y-78044045D01*
X151338556Y-77899960D01*
X151335000Y-77863855D01*
X151335000Y-63936605D01*
X151338556Y-63900500D01*
X154911894Y-63900500D01*
X154915451Y-63936615D01*
X154915450Y-77863855D01*
X154911894Y-77899960D01*
X154926085Y-78044045D01*
X154968113Y-78182593D01*
X155036363Y-78310280D01*
X155128212Y-78422198D01*
X155240130Y-78514047D01*
X155367817Y-78582297D01*
X155506365Y-78624325D01*
X155650450Y-78638516D01*
X155686555Y-78634960D01*
X169613895Y-78634960D01*
X169650000Y-78638516D01*
X169686105Y-78634960D01*
X169794085Y-78624325D01*
X169932633Y-78582297D01*
X170060320Y-78514047D01*
X170172238Y-78422198D01*
X170264087Y-78310280D01*
X170332337Y-78182593D01*
X170374365Y-78044045D01*
X170388556Y-77899960D01*
X170385000Y-77863855D01*
X170385000Y-63936605D01*
X170388556Y-63900500D01*
X170374365Y-63756415D01*
X170332337Y-63617867D01*
X170264087Y-63490180D01*
X170172238Y-63378262D01*
X170060320Y-63286413D01*
X169932633Y-63218163D01*
X169794085Y-63176135D01*
X169686105Y-63165500D01*
X169650000Y-63161944D01*
X169613895Y-63165500D01*
X155686555Y-63165500D01*
X155650450Y-63161944D01*
X155614345Y-63165500D01*
X155506365Y-63176135D01*
X155367817Y-63218163D01*
X155240130Y-63286413D01*
X155128212Y-63378262D01*
X155036363Y-63490180D01*
X154968113Y-63617867D01*
X154926085Y-63756415D01*
X154911894Y-63900500D01*
X151338556Y-63900500D01*
X151324365Y-63756415D01*
X151282337Y-63617867D01*
X151214087Y-63490180D01*
X151122238Y-63378262D01*
X151010320Y-63286413D01*
X150882633Y-63218163D01*
X150744085Y-63176135D01*
X150636105Y-63165500D01*
X150600000Y-63161944D01*
X150563895Y-63165500D01*
X136636555Y-63165500D01*
X136600450Y-63161944D01*
X136564345Y-63165500D01*
X136456365Y-63176135D01*
X136317817Y-63218163D01*
X136190130Y-63286413D01*
X136078212Y-63378262D01*
X135986363Y-63490180D01*
X135918113Y-63617867D01*
X135876085Y-63756415D01*
X135861894Y-63900500D01*
X132288556Y-63900500D01*
X132274365Y-63756415D01*
X132232337Y-63617867D01*
X132164087Y-63490180D01*
X132072238Y-63378262D01*
X131960320Y-63286413D01*
X131832633Y-63218163D01*
X131694085Y-63176135D01*
X131586105Y-63165500D01*
X131550000Y-63161944D01*
X131513895Y-63165500D01*
X117586555Y-63165500D01*
X117550450Y-63161944D01*
X117514345Y-63165500D01*
X117406365Y-63176135D01*
X117267817Y-63218163D01*
X117140130Y-63286413D01*
X117028212Y-63378262D01*
X116936363Y-63490180D01*
X116868113Y-63617867D01*
X116826085Y-63756415D01*
X116811894Y-63900500D01*
X113238556Y-63900500D01*
X113224365Y-63756415D01*
X113182337Y-63617867D01*
X113114087Y-63490180D01*
X113022238Y-63378262D01*
X112910320Y-63286413D01*
X112782633Y-63218163D01*
X112644085Y-63176135D01*
X112536105Y-63165500D01*
X112500000Y-63161944D01*
X112463895Y-63165500D01*
X98536555Y-63165500D01*
X98500450Y-63161944D01*
X98464345Y-63165500D01*
X98356365Y-63176135D01*
X98217817Y-63218163D01*
X98090130Y-63286413D01*
X97978212Y-63378262D01*
X97886363Y-63490180D01*
X97818113Y-63617867D01*
X97776085Y-63756415D01*
X97761894Y-63900500D01*
X96310500Y-63900500D01*
X96310500Y-61507877D01*
X96329602Y-61313060D01*
X96376808Y-61156706D01*
X96453482Y-61012504D01*
X96556707Y-60885937D01*
X96682551Y-60781831D01*
X96826211Y-60704153D01*
X96982229Y-60655858D01*
X97174973Y-60635600D01*
X169618223Y-60635600D01*
X169813040Y-60654702D01*
G04 #@! TA.AperFunction,NonConductor*
D12*
G36*
X169813040Y-60654702D02*
G01*
X169969394Y-60701908D01*
X170113596Y-60778582D01*
X170240163Y-60881807D01*
X170344269Y-61007651D01*
X170421947Y-61151311D01*
X170470242Y-61307329D01*
X170490500Y-61500073D01*
X170490501Y-98508019D01*
X170493318Y-98536618D01*
X170493253Y-98545888D01*
X170494152Y-98555060D01*
X170524752Y-98846205D01*
X170536783Y-98904817D01*
X170547989Y-98963563D01*
X170550653Y-98972384D01*
X170637221Y-99252040D01*
X170660399Y-99307178D01*
X170682811Y-99362650D01*
X170687138Y-99370786D01*
X170826377Y-99628302D01*
X170859804Y-99677859D01*
X170892580Y-99727947D01*
X170898405Y-99735088D01*
X171085010Y-99960656D01*
X171127465Y-100002815D01*
X171169309Y-100045545D01*
X171176409Y-100051419D01*
X171403273Y-100236445D01*
X171453066Y-100269527D01*
X171502455Y-100303345D01*
X171510561Y-100307727D01*
X171769042Y-100445164D01*
X171824336Y-100467955D01*
X171879329Y-100491525D01*
X171888132Y-100494250D01*
X172168387Y-100578864D01*
X172227064Y-100590482D01*
X172285579Y-100602920D01*
X172294742Y-100603883D01*
X172294744Y-100603883D01*
X172586096Y-100632450D01*
X172586098Y-100632450D01*
X172618081Y-100635600D01*
X190118223Y-100635600D01*
X190313040Y-100654702D01*
X190469394Y-100701908D01*
X190613596Y-100778582D01*
X190740163Y-100881807D01*
X190844269Y-101007651D01*
X190921947Y-101151311D01*
X190970242Y-101307329D01*
X190990500Y-101500073D01*
X190990501Y-137443312D01*
X190971398Y-137638140D01*
X190924192Y-137794495D01*
X190847518Y-137938696D01*
X190744292Y-138065264D01*
X190618451Y-138169368D01*
X190474789Y-138247047D01*
X190318771Y-138295342D01*
X190126027Y-138315600D01*
X97182777Y-138315600D01*
X96987960Y-138296498D01*
X96831605Y-138249292D01*
X96687404Y-138172618D01*
X96560836Y-138069392D01*
X96456732Y-137943551D01*
X96379053Y-137799889D01*
X96330758Y-137643871D01*
X96310500Y-137451127D01*
X96310500Y-121050500D01*
X97761894Y-121050500D01*
X97765451Y-121086615D01*
X97765450Y-135013855D01*
X97761894Y-135049960D01*
X97776085Y-135194045D01*
X97818113Y-135332593D01*
X97886363Y-135460280D01*
X97978212Y-135572198D01*
X98090130Y-135664047D01*
X98217817Y-135732297D01*
X98356365Y-135774325D01*
X98500450Y-135788516D01*
X98536555Y-135784960D01*
X112463895Y-135784960D01*
X112500000Y-135788516D01*
X112536105Y-135784960D01*
X112644085Y-135774325D01*
X112782633Y-135732297D01*
X112910320Y-135664047D01*
X113022238Y-135572198D01*
X113114087Y-135460280D01*
X113182337Y-135332593D01*
X113224365Y-135194045D01*
X113238556Y-135049960D01*
X113235000Y-135013855D01*
X113235000Y-121086605D01*
X113238556Y-121050500D01*
X116811894Y-121050500D01*
X116815451Y-121086615D01*
X116815450Y-135013855D01*
X116811894Y-135049960D01*
X116826085Y-135194045D01*
X116868113Y-135332593D01*
X116936363Y-135460280D01*
X117028212Y-135572198D01*
X117140130Y-135664047D01*
X117267817Y-135732297D01*
X117406365Y-135774325D01*
X117550450Y-135788516D01*
X117586555Y-135784960D01*
X131513895Y-135784960D01*
X131550000Y-135788516D01*
X131586105Y-135784960D01*
X131694085Y-135774325D01*
X131832633Y-135732297D01*
X131960320Y-135664047D01*
X132072238Y-135572198D01*
X132164087Y-135460280D01*
X132232337Y-135332593D01*
X132274365Y-135194045D01*
X132288556Y-135049960D01*
X132285000Y-135013855D01*
X132285000Y-121086605D01*
X132288556Y-121050500D01*
X135861894Y-121050500D01*
X135865451Y-121086615D01*
X135865450Y-135013855D01*
X135861894Y-135049960D01*
X135876085Y-135194045D01*
X135918113Y-135332593D01*
X135986363Y-135460280D01*
X136078212Y-135572198D01*
X136190130Y-135664047D01*
X136317817Y-135732297D01*
X136456365Y-135774325D01*
X136600450Y-135788516D01*
X136636555Y-135784960D01*
X150563895Y-135784960D01*
X150600000Y-135788516D01*
X150636105Y-135784960D01*
X150744085Y-135774325D01*
X150882633Y-135732297D01*
X151010320Y-135664047D01*
X151122238Y-135572198D01*
X151214087Y-135460280D01*
X151282337Y-135332593D01*
X151324365Y-135194045D01*
X151338556Y-135049960D01*
X151335000Y-135013855D01*
X151335000Y-121086605D01*
X151338556Y-121050500D01*
X154911894Y-121050500D01*
X154915451Y-121086615D01*
X154915450Y-135013855D01*
X154911894Y-135049960D01*
X154926085Y-135194045D01*
X154968113Y-135332593D01*
X155036363Y-135460280D01*
X155128212Y-135572198D01*
X155240130Y-135664047D01*
X155367817Y-135732297D01*
X155506365Y-135774325D01*
X155650450Y-135788516D01*
X155686555Y-135784960D01*
X169613895Y-135784960D01*
X169650000Y-135788516D01*
X169686105Y-135784960D01*
X169794085Y-135774325D01*
X169932633Y-135732297D01*
X170060320Y-135664047D01*
X170172238Y-135572198D01*
X170264087Y-135460280D01*
X170332337Y-135332593D01*
X170374365Y-135194045D01*
X170388556Y-135049960D01*
X170385000Y-135013855D01*
X170385000Y-121086605D01*
X170388556Y-121050500D01*
X173961894Y-121050500D01*
X173965451Y-121086615D01*
X173965450Y-135013855D01*
X173961894Y-135049960D01*
X173976085Y-135194045D01*
X174018113Y-135332593D01*
X174086363Y-135460280D01*
X174178212Y-135572198D01*
X174290130Y-135664047D01*
X174417817Y-135732297D01*
X174556365Y-135774325D01*
X174700450Y-135788516D01*
X174736555Y-135784960D01*
X188663895Y-135784960D01*
X188700000Y-135788516D01*
X188736105Y-135784960D01*
X188844085Y-135774325D01*
X188982633Y-135732297D01*
X189110320Y-135664047D01*
X189222238Y-135572198D01*
X189314087Y-135460280D01*
X189382337Y-135332593D01*
X189424365Y-135194045D01*
X189438556Y-135049960D01*
X189435000Y-135013855D01*
X189435000Y-121086605D01*
X189438556Y-121050500D01*
X189424365Y-120906415D01*
X189382337Y-120767867D01*
X189314087Y-120640180D01*
X189222238Y-120528262D01*
X189110320Y-120436413D01*
X188982633Y-120368163D01*
X188844085Y-120326135D01*
X188736105Y-120315500D01*
X188700000Y-120311944D01*
X188663895Y-120315500D01*
X174736555Y-120315500D01*
X174700450Y-120311944D01*
X174664345Y-120315500D01*
X174556365Y-120326135D01*
X174417817Y-120368163D01*
X174290130Y-120436413D01*
X174178212Y-120528262D01*
X174086363Y-120640180D01*
X174018113Y-120767867D01*
X173976085Y-120906415D01*
X173961894Y-121050500D01*
X170388556Y-121050500D01*
X170374365Y-120906415D01*
X170332337Y-120767867D01*
X170264087Y-120640180D01*
X170172238Y-120528262D01*
X170060320Y-120436413D01*
X169932633Y-120368163D01*
X169794085Y-120326135D01*
X169686105Y-120315500D01*
X169650000Y-120311944D01*
X169613895Y-120315500D01*
X155686555Y-120315500D01*
X155650450Y-120311944D01*
X155614345Y-120315500D01*
X155506365Y-120326135D01*
X155367817Y-120368163D01*
X155240130Y-120436413D01*
X155128212Y-120528262D01*
X155036363Y-120640180D01*
X154968113Y-120767867D01*
X154926085Y-120906415D01*
X154911894Y-121050500D01*
X151338556Y-121050500D01*
X151324365Y-120906415D01*
X151282337Y-120767867D01*
X151214087Y-120640180D01*
X151122238Y-120528262D01*
X151010320Y-120436413D01*
X150882633Y-120368163D01*
X150744085Y-120326135D01*
X150636105Y-120315500D01*
X150600000Y-120311944D01*
X150563895Y-120315500D01*
X136636555Y-120315500D01*
X136600450Y-120311944D01*
X136564345Y-120315500D01*
X136456365Y-120326135D01*
X136317817Y-120368163D01*
X136190130Y-120436413D01*
X136078212Y-120528262D01*
X135986363Y-120640180D01*
X135918113Y-120767867D01*
X135876085Y-120906415D01*
X135861894Y-121050500D01*
X132288556Y-121050500D01*
X132274365Y-120906415D01*
X132232337Y-120767867D01*
X132164087Y-120640180D01*
X132072238Y-120528262D01*
X131960320Y-120436413D01*
X131832633Y-120368163D01*
X131694085Y-120326135D01*
X131586105Y-120315500D01*
X131550000Y-120311944D01*
X131513895Y-120315500D01*
X117586555Y-120315500D01*
X117550450Y-120311944D01*
X117514345Y-120315500D01*
X117406365Y-120326135D01*
X117267817Y-120368163D01*
X117140130Y-120436413D01*
X117028212Y-120528262D01*
X116936363Y-120640180D01*
X116868113Y-120767867D01*
X116826085Y-120906415D01*
X116811894Y-121050500D01*
X113238556Y-121050500D01*
X113224365Y-120906415D01*
X113182337Y-120767867D01*
X113114087Y-120640180D01*
X113022238Y-120528262D01*
X112910320Y-120436413D01*
X112782633Y-120368163D01*
X112644085Y-120326135D01*
X112536105Y-120315500D01*
X112500000Y-120311944D01*
X112463895Y-120315500D01*
X98536555Y-120315500D01*
X98500450Y-120311944D01*
X98464345Y-120315500D01*
X98356365Y-120326135D01*
X98217817Y-120368163D01*
X98090130Y-120436413D01*
X97978212Y-120528262D01*
X97886363Y-120640180D01*
X97818113Y-120767867D01*
X97776085Y-120906415D01*
X97761894Y-121050500D01*
X96310500Y-121050500D01*
X96310500Y-118398793D01*
X113289500Y-118398793D01*
X113289500Y-118750407D01*
X113358096Y-119095265D01*
X113492653Y-119420115D01*
X113688000Y-119712471D01*
X113936629Y-119961100D01*
X114228985Y-120156447D01*
X114553835Y-120291004D01*
X114898693Y-120359600D01*
X115250307Y-120359600D01*
X115595165Y-120291004D01*
X115920015Y-120156447D01*
X116212371Y-119961100D01*
X116461000Y-119712471D01*
X116656347Y-119420115D01*
X116790904Y-119095265D01*
X116859500Y-118750407D01*
X116859500Y-118398793D01*
X170439500Y-118398793D01*
X170439500Y-118750407D01*
X170508096Y-119095265D01*
X170642653Y-119420115D01*
X170838000Y-119712471D01*
X171086629Y-119961100D01*
X171378985Y-120156447D01*
X171703835Y-120291004D01*
X172048693Y-120359600D01*
X172400307Y-120359600D01*
X172745165Y-120291004D01*
X173070015Y-120156447D01*
X173362371Y-119961100D01*
X173611000Y-119712471D01*
X173806347Y-119420115D01*
X173940904Y-119095265D01*
X174009500Y-118750407D01*
X174009500Y-118398793D01*
X173940904Y-118053935D01*
X173806347Y-117729085D01*
X173611000Y-117436729D01*
X173362371Y-117188100D01*
X173070015Y-116992753D01*
X172745165Y-116858196D01*
X172400307Y-116789600D01*
X172048693Y-116789600D01*
X171703835Y-116858196D01*
X171378985Y-116992753D01*
X171086629Y-117188100D01*
X170838000Y-117436729D01*
X170642653Y-117729085D01*
X170508096Y-118053935D01*
X170439500Y-118398793D01*
X116859500Y-118398793D01*
X116790904Y-118053935D01*
X116656347Y-117729085D01*
X116461000Y-117436729D01*
X116212371Y-117188100D01*
X115920015Y-116992753D01*
X115595165Y-116858196D01*
X115250307Y-116789600D01*
X114898693Y-116789600D01*
X114553835Y-116858196D01*
X114228985Y-116992753D01*
X113936629Y-117188100D01*
X113688000Y-117436729D01*
X113492653Y-117729085D01*
X113358096Y-118053935D01*
X113289500Y-118398793D01*
X96310500Y-118398793D01*
X96310500Y-102000500D01*
X97761894Y-102000500D01*
X97765451Y-102036615D01*
X97765450Y-115963855D01*
X97761894Y-115999960D01*
X97776085Y-116144045D01*
X97818113Y-116282593D01*
X97886363Y-116410280D01*
X97978212Y-116522198D01*
X98090130Y-116614047D01*
X98217817Y-116682297D01*
X98356365Y-116724325D01*
X98500450Y-116738516D01*
X98536555Y-116734960D01*
X112463895Y-116734960D01*
X112500000Y-116738516D01*
X112536105Y-116734960D01*
X112644085Y-116724325D01*
X112782633Y-116682297D01*
X112910320Y-116614047D01*
X113022238Y-116522198D01*
X113114087Y-116410280D01*
X113182337Y-116282593D01*
X113224365Y-116144045D01*
X113238556Y-115999960D01*
X113235000Y-115963855D01*
X113235000Y-102036605D01*
X113238556Y-102000500D01*
X116811894Y-102000500D01*
X116815451Y-102036615D01*
X116815450Y-115963855D01*
X116811894Y-115999960D01*
X116826085Y-116144045D01*
X116868113Y-116282593D01*
X116936363Y-116410280D01*
X117028212Y-116522198D01*
X117140130Y-116614047D01*
X117267817Y-116682297D01*
X117406365Y-116724325D01*
X117550450Y-116738516D01*
X117586555Y-116734960D01*
X131513895Y-116734960D01*
X131550000Y-116738516D01*
X131586105Y-116734960D01*
X131694085Y-116724325D01*
X131832633Y-116682297D01*
X131960320Y-116614047D01*
X132072238Y-116522198D01*
X132164087Y-116410280D01*
X132232337Y-116282593D01*
X132274365Y-116144045D01*
X132288556Y-115999960D01*
X132285000Y-115963855D01*
X132285000Y-102036605D01*
X132288556Y-102000500D01*
X135861894Y-102000500D01*
X135865451Y-102036615D01*
X135865450Y-115963855D01*
X135861894Y-115999960D01*
X135876085Y-116144045D01*
X135918113Y-116282593D01*
X135986363Y-116410280D01*
X136078212Y-116522198D01*
X136190130Y-116614047D01*
X136317817Y-116682297D01*
X136456365Y-116724325D01*
X136600450Y-116738516D01*
X136636555Y-116734960D01*
X150563895Y-116734960D01*
X150600000Y-116738516D01*
X150636105Y-116734960D01*
X150744085Y-116724325D01*
X150882633Y-116682297D01*
X151010320Y-116614047D01*
X151122238Y-116522198D01*
X151214087Y-116410280D01*
X151282337Y-116282593D01*
X151324365Y-116144045D01*
X151338556Y-115999960D01*
X151335000Y-115963855D01*
X151335000Y-102036605D01*
X151338556Y-102000500D01*
X154911894Y-102000500D01*
X154915451Y-102036615D01*
X154915450Y-115963855D01*
X154911894Y-115999960D01*
X154926085Y-116144045D01*
X154968113Y-116282593D01*
X155036363Y-116410280D01*
X155128212Y-116522198D01*
X155240130Y-116614047D01*
X155367817Y-116682297D01*
X155506365Y-116724325D01*
X155650450Y-116738516D01*
X155686555Y-116734960D01*
X169613895Y-116734960D01*
X169650000Y-116738516D01*
X169686105Y-116734960D01*
X169794085Y-116724325D01*
X169932633Y-116682297D01*
X170060320Y-116614047D01*
X170172238Y-116522198D01*
X170264087Y-116410280D01*
X170332337Y-116282593D01*
X170374365Y-116144045D01*
X170388556Y-115999960D01*
X170385000Y-115963855D01*
X170385000Y-102036605D01*
X170388556Y-102000500D01*
X173961894Y-102000500D01*
X173965451Y-102036615D01*
X173965450Y-115963855D01*
X173961894Y-115999960D01*
X173976085Y-116144045D01*
X174018113Y-116282593D01*
X174086363Y-116410280D01*
X174178212Y-116522198D01*
X174290130Y-116614047D01*
X174417817Y-116682297D01*
X174556365Y-116724325D01*
X174700450Y-116738516D01*
X174736555Y-116734960D01*
X188663895Y-116734960D01*
X188700000Y-116738516D01*
X188736105Y-116734960D01*
X188844085Y-116724325D01*
X188982633Y-116682297D01*
X189110320Y-116614047D01*
X189222238Y-116522198D01*
X189314087Y-116410280D01*
X189382337Y-116282593D01*
X189424365Y-116144045D01*
X189438556Y-115999960D01*
X189435000Y-115963855D01*
X189435000Y-102036605D01*
X189438556Y-102000500D01*
X189424365Y-101856415D01*
X189382337Y-101717867D01*
X189314087Y-101590180D01*
X189222238Y-101478262D01*
X189110320Y-101386413D01*
X188982633Y-101318163D01*
X188844085Y-101276135D01*
X188736105Y-101265500D01*
X188700000Y-101261944D01*
X188663895Y-101265500D01*
X174736555Y-101265500D01*
X174700450Y-101261944D01*
X174664345Y-101265500D01*
X174556365Y-101276135D01*
X174417817Y-101318163D01*
X174290130Y-101386413D01*
X174178212Y-101478262D01*
X174086363Y-101590180D01*
X174018113Y-101717867D01*
X173976085Y-101856415D01*
X173961894Y-102000500D01*
X170388556Y-102000500D01*
X170374365Y-101856415D01*
X170332337Y-101717867D01*
X170264087Y-101590180D01*
X170172238Y-101478262D01*
X170060320Y-101386413D01*
X169932633Y-101318163D01*
X169794085Y-101276135D01*
X169686105Y-101265500D01*
X169650000Y-101261944D01*
X169613895Y-101265500D01*
X155686555Y-101265500D01*
X155650450Y-101261944D01*
X155614345Y-101265500D01*
X155506365Y-101276135D01*
X155367817Y-101318163D01*
X155240130Y-101386413D01*
X155128212Y-101478262D01*
X155036363Y-101590180D01*
X154968113Y-101717867D01*
X154926085Y-101856415D01*
X154911894Y-102000500D01*
X151338556Y-102000500D01*
X151324365Y-101856415D01*
X151282337Y-101717867D01*
X151214087Y-101590180D01*
X151122238Y-101478262D01*
X151010320Y-101386413D01*
X150882633Y-101318163D01*
X150744085Y-101276135D01*
X150636105Y-101265500D01*
X150600000Y-101261944D01*
X150563895Y-101265500D01*
X136636555Y-101265500D01*
X136600450Y-101261944D01*
X136564345Y-101265500D01*
X136456365Y-101276135D01*
X136317817Y-101318163D01*
X136190130Y-101386413D01*
X136078212Y-101478262D01*
X135986363Y-101590180D01*
X135918113Y-101717867D01*
X135876085Y-101856415D01*
X135861894Y-102000500D01*
X132288556Y-102000500D01*
X132274365Y-101856415D01*
X132232337Y-101717867D01*
X132164087Y-101590180D01*
X132072238Y-101478262D01*
X131960320Y-101386413D01*
X131832633Y-101318163D01*
X131694085Y-101276135D01*
X131586105Y-101265500D01*
X131550000Y-101261944D01*
X131513895Y-101265500D01*
X117586555Y-101265500D01*
X117550450Y-101261944D01*
X117514345Y-101265500D01*
X117406365Y-101276135D01*
X117267817Y-101318163D01*
X117140130Y-101386413D01*
X117028212Y-101478262D01*
X116936363Y-101590180D01*
X116868113Y-101717867D01*
X116826085Y-101856415D01*
X116811894Y-102000500D01*
X113238556Y-102000500D01*
X113224365Y-101856415D01*
X113182337Y-101717867D01*
X113114087Y-101590180D01*
X113022238Y-101478262D01*
X112910320Y-101386413D01*
X112782633Y-101318163D01*
X112644085Y-101276135D01*
X112536105Y-101265500D01*
X112500000Y-101261944D01*
X112463895Y-101265500D01*
X98536555Y-101265500D01*
X98500450Y-101261944D01*
X98464345Y-101265500D01*
X98356365Y-101276135D01*
X98217817Y-101318163D01*
X98090130Y-101386413D01*
X97978212Y-101478262D01*
X97886363Y-101590180D01*
X97818113Y-101717867D01*
X97776085Y-101856415D01*
X97761894Y-102000500D01*
X96310500Y-102000500D01*
X96310500Y-82950500D01*
X97761894Y-82950500D01*
X97765451Y-82986615D01*
X97765450Y-96913855D01*
X97761894Y-96949960D01*
X97776085Y-97094045D01*
X97818113Y-97232593D01*
X97886363Y-97360280D01*
X97978212Y-97472198D01*
X98090130Y-97564047D01*
X98217817Y-97632297D01*
X98356365Y-97674325D01*
X98500450Y-97688516D01*
X98536555Y-97684960D01*
X112463895Y-97684960D01*
X112500000Y-97688516D01*
X112536105Y-97684960D01*
X112644085Y-97674325D01*
X112782633Y-97632297D01*
X112910320Y-97564047D01*
X113022238Y-97472198D01*
X113114087Y-97360280D01*
X113182337Y-97232593D01*
X113224365Y-97094045D01*
X113238556Y-96949960D01*
X113235000Y-96913855D01*
X113235000Y-82986605D01*
X113238556Y-82950500D01*
X116811894Y-82950500D01*
X116815451Y-82986615D01*
X116815450Y-96913855D01*
X116811894Y-96949960D01*
X116826085Y-97094045D01*
X116868113Y-97232593D01*
X116936363Y-97360280D01*
X117028212Y-97472198D01*
X117140130Y-97564047D01*
X117267817Y-97632297D01*
X117406365Y-97674325D01*
X117550450Y-97688516D01*
X117586555Y-97684960D01*
X131513895Y-97684960D01*
X131550000Y-97688516D01*
X131586105Y-97684960D01*
X131694085Y-97674325D01*
X131832633Y-97632297D01*
X131960320Y-97564047D01*
X132072238Y-97472198D01*
X132164087Y-97360280D01*
X132232337Y-97232593D01*
X132274365Y-97094045D01*
X132288556Y-96949960D01*
X132285000Y-96913855D01*
X132285000Y-82986605D01*
X132288556Y-82950500D01*
X135861894Y-82950500D01*
X135865451Y-82986615D01*
X135865450Y-96913855D01*
X135861894Y-96949960D01*
X135876085Y-97094045D01*
X135918113Y-97232593D01*
X135986363Y-97360280D01*
X136078212Y-97472198D01*
X136190130Y-97564047D01*
X136317817Y-97632297D01*
X136456365Y-97674325D01*
X136600450Y-97688516D01*
X136636555Y-97684960D01*
X150563895Y-97684960D01*
X150600000Y-97688516D01*
X150636105Y-97684960D01*
X150744085Y-97674325D01*
X150882633Y-97632297D01*
X151010320Y-97564047D01*
X151122238Y-97472198D01*
X151214087Y-97360280D01*
X151282337Y-97232593D01*
X151324365Y-97094045D01*
X151338556Y-96949960D01*
X151335000Y-96913855D01*
X151335000Y-82986605D01*
X151338556Y-82950500D01*
X154911894Y-82950500D01*
X154915451Y-82986615D01*
X154915450Y-96913855D01*
X154911894Y-96949960D01*
X154926085Y-97094045D01*
X154968113Y-97232593D01*
X155036363Y-97360280D01*
X155128212Y-97472198D01*
X155240130Y-97564047D01*
X155367817Y-97632297D01*
X155506365Y-97674325D01*
X155650450Y-97688516D01*
X155686555Y-97684960D01*
X169613895Y-97684960D01*
X169650000Y-97688516D01*
X169686105Y-97684960D01*
X169794085Y-97674325D01*
X169932633Y-97632297D01*
X170060320Y-97564047D01*
X170172238Y-97472198D01*
X170264087Y-97360280D01*
X170332337Y-97232593D01*
X170374365Y-97094045D01*
X170388556Y-96949960D01*
X170385000Y-96913855D01*
X170385000Y-82986605D01*
X170388556Y-82950500D01*
X170374365Y-82806415D01*
X170332337Y-82667867D01*
X170264087Y-82540180D01*
X170172238Y-82428262D01*
X170060320Y-82336413D01*
X169932633Y-82268163D01*
X169794085Y-82226135D01*
X169686105Y-82215500D01*
X169650000Y-82211944D01*
X169613895Y-82215500D01*
X155686555Y-82215500D01*
X155650450Y-82211944D01*
X155614345Y-82215500D01*
X155506365Y-82226135D01*
X155367817Y-82268163D01*
X155240130Y-82336413D01*
X155128212Y-82428262D01*
X155036363Y-82540180D01*
X154968113Y-82667867D01*
X154926085Y-82806415D01*
X154911894Y-82950500D01*
X151338556Y-82950500D01*
X151324365Y-82806415D01*
X151282337Y-82667867D01*
X151214087Y-82540180D01*
X151122238Y-82428262D01*
X151010320Y-82336413D01*
X150882633Y-82268163D01*
X150744085Y-82226135D01*
X150636105Y-82215500D01*
X150600000Y-82211944D01*
X150563895Y-82215500D01*
X136636555Y-82215500D01*
X136600450Y-82211944D01*
X136564345Y-82215500D01*
X136456365Y-82226135D01*
X136317817Y-82268163D01*
X136190130Y-82336413D01*
X136078212Y-82428262D01*
X135986363Y-82540180D01*
X135918113Y-82667867D01*
X135876085Y-82806415D01*
X135861894Y-82950500D01*
X132288556Y-82950500D01*
X132274365Y-82806415D01*
X132232337Y-82667867D01*
X132164087Y-82540180D01*
X132072238Y-82428262D01*
X131960320Y-82336413D01*
X131832633Y-82268163D01*
X131694085Y-82226135D01*
X131586105Y-82215500D01*
X131550000Y-82211944D01*
X131513895Y-82215500D01*
X117586555Y-82215500D01*
X117550450Y-82211944D01*
X117514345Y-82215500D01*
X117406365Y-82226135D01*
X117267817Y-82268163D01*
X117140130Y-82336413D01*
X117028212Y-82428262D01*
X116936363Y-82540180D01*
X116868113Y-82667867D01*
X116826085Y-82806415D01*
X116811894Y-82950500D01*
X113238556Y-82950500D01*
X113224365Y-82806415D01*
X113182337Y-82667867D01*
X113114087Y-82540180D01*
X113022238Y-82428262D01*
X112910320Y-82336413D01*
X112782633Y-82268163D01*
X112644085Y-82226135D01*
X112536105Y-82215500D01*
X112500000Y-82211944D01*
X112463895Y-82215500D01*
X98536555Y-82215500D01*
X98500450Y-82211944D01*
X98464345Y-82215500D01*
X98356365Y-82226135D01*
X98217817Y-82268163D01*
X98090130Y-82336413D01*
X97978212Y-82428262D01*
X97886363Y-82540180D01*
X97818113Y-82667867D01*
X97776085Y-82806415D01*
X97761894Y-82950500D01*
X96310500Y-82950500D01*
X96310500Y-80298793D01*
X113289500Y-80298793D01*
X113289500Y-80650407D01*
X113358096Y-80995265D01*
X113492653Y-81320115D01*
X113688000Y-81612471D01*
X113936629Y-81861100D01*
X114228985Y-82056447D01*
X114553835Y-82191004D01*
X114898693Y-82259600D01*
X115250307Y-82259600D01*
X115595165Y-82191004D01*
X115920015Y-82056447D01*
X116212371Y-81861100D01*
X116461000Y-81612471D01*
X116656347Y-81320115D01*
X116790904Y-80995265D01*
X116859500Y-80650407D01*
X116859500Y-80298793D01*
X151389500Y-80298793D01*
X151389500Y-80650407D01*
X151458096Y-80995265D01*
X151592653Y-81320115D01*
X151788000Y-81612471D01*
X152036629Y-81861100D01*
X152328985Y-82056447D01*
X152653835Y-82191004D01*
X152998693Y-82259600D01*
X153350307Y-82259600D01*
X153695165Y-82191004D01*
X154020015Y-82056447D01*
X154312371Y-81861100D01*
X154561000Y-81612471D01*
X154756347Y-81320115D01*
X154890904Y-80995265D01*
X154959500Y-80650407D01*
X154959500Y-80298793D01*
X154890904Y-79953935D01*
X154756347Y-79629085D01*
X154561000Y-79336729D01*
X154312371Y-79088100D01*
X154020015Y-78892753D01*
X153695165Y-78758196D01*
X153350307Y-78689600D01*
X152998693Y-78689600D01*
X152653835Y-78758196D01*
X152328985Y-78892753D01*
X152036629Y-79088100D01*
X151788000Y-79336729D01*
X151592653Y-79629085D01*
X151458096Y-79953935D01*
X151389500Y-80298793D01*
X116859500Y-80298793D01*
X116790904Y-79953935D01*
X116656347Y-79629085D01*
X116461000Y-79336729D01*
X116212371Y-79088100D01*
X115920015Y-78892753D01*
X115595165Y-78758196D01*
X115250307Y-78689600D01*
X114898693Y-78689600D01*
X114553835Y-78758196D01*
X114228985Y-78892753D01*
X113936629Y-79088100D01*
X113688000Y-79336729D01*
X113492653Y-79629085D01*
X113358096Y-79953935D01*
X113289500Y-80298793D01*
X96310500Y-80298793D01*
X96310500Y-63900500D01*
X97761894Y-63900500D01*
X97765451Y-63936615D01*
X97765450Y-77863855D01*
X97761894Y-77899960D01*
X97776085Y-78044045D01*
X97818113Y-78182593D01*
X97886363Y-78310280D01*
X97978212Y-78422198D01*
X98090130Y-78514047D01*
X98217817Y-78582297D01*
X98356365Y-78624325D01*
X98500450Y-78638516D01*
X98536555Y-78634960D01*
X112463895Y-78634960D01*
X112500000Y-78638516D01*
X112536105Y-78634960D01*
X112644085Y-78624325D01*
X112782633Y-78582297D01*
X112910320Y-78514047D01*
X113022238Y-78422198D01*
X113114087Y-78310280D01*
X113182337Y-78182593D01*
X113224365Y-78044045D01*
X113238556Y-77899960D01*
X113235000Y-77863855D01*
X113235000Y-63936605D01*
X113238556Y-63900500D01*
X116811894Y-63900500D01*
X116815451Y-63936615D01*
X116815450Y-77863855D01*
X116811894Y-77899960D01*
X116826085Y-78044045D01*
X116868113Y-78182593D01*
X116936363Y-78310280D01*
X117028212Y-78422198D01*
X117140130Y-78514047D01*
X117267817Y-78582297D01*
X117406365Y-78624325D01*
X117550450Y-78638516D01*
X117586555Y-78634960D01*
X131513895Y-78634960D01*
X131550000Y-78638516D01*
X131586105Y-78634960D01*
X131694085Y-78624325D01*
X131832633Y-78582297D01*
X131960320Y-78514047D01*
X132072238Y-78422198D01*
X132164087Y-78310280D01*
X132232337Y-78182593D01*
X132274365Y-78044045D01*
X132288556Y-77899960D01*
X132285000Y-77863855D01*
X132285000Y-63936605D01*
X132288556Y-63900500D01*
X135861894Y-63900500D01*
X135865451Y-63936615D01*
X135865450Y-77863855D01*
X135861894Y-77899960D01*
X135876085Y-78044045D01*
X135918113Y-78182593D01*
X135986363Y-78310280D01*
X136078212Y-78422198D01*
X136190130Y-78514047D01*
X136317817Y-78582297D01*
X136456365Y-78624325D01*
X136600450Y-78638516D01*
X136636555Y-78634960D01*
X150563895Y-78634960D01*
X150600000Y-78638516D01*
X150636105Y-78634960D01*
X150744085Y-78624325D01*
X150882633Y-78582297D01*
X151010320Y-78514047D01*
X151122238Y-78422198D01*
X151214087Y-78310280D01*
X151282337Y-78182593D01*
X151324365Y-78044045D01*
X151338556Y-77899960D01*
X151335000Y-77863855D01*
X151335000Y-63936605D01*
X151338556Y-63900500D01*
X154911894Y-63900500D01*
X154915451Y-63936615D01*
X154915450Y-77863855D01*
X154911894Y-77899960D01*
X154926085Y-78044045D01*
X154968113Y-78182593D01*
X155036363Y-78310280D01*
X155128212Y-78422198D01*
X155240130Y-78514047D01*
X155367817Y-78582297D01*
X155506365Y-78624325D01*
X155650450Y-78638516D01*
X155686555Y-78634960D01*
X169613895Y-78634960D01*
X169650000Y-78638516D01*
X169686105Y-78634960D01*
X169794085Y-78624325D01*
X169932633Y-78582297D01*
X170060320Y-78514047D01*
X170172238Y-78422198D01*
X170264087Y-78310280D01*
X170332337Y-78182593D01*
X170374365Y-78044045D01*
X170388556Y-77899960D01*
X170385000Y-77863855D01*
X170385000Y-63936605D01*
X170388556Y-63900500D01*
X170374365Y-63756415D01*
X170332337Y-63617867D01*
X170264087Y-63490180D01*
X170172238Y-63378262D01*
X170060320Y-63286413D01*
X169932633Y-63218163D01*
X169794085Y-63176135D01*
X169686105Y-63165500D01*
X169650000Y-63161944D01*
X169613895Y-63165500D01*
X155686555Y-63165500D01*
X155650450Y-63161944D01*
X155614345Y-63165500D01*
X155506365Y-63176135D01*
X155367817Y-63218163D01*
X155240130Y-63286413D01*
X155128212Y-63378262D01*
X155036363Y-63490180D01*
X154968113Y-63617867D01*
X154926085Y-63756415D01*
X154911894Y-63900500D01*
X151338556Y-63900500D01*
X151324365Y-63756415D01*
X151282337Y-63617867D01*
X151214087Y-63490180D01*
X151122238Y-63378262D01*
X151010320Y-63286413D01*
X150882633Y-63218163D01*
X150744085Y-63176135D01*
X150636105Y-63165500D01*
X150600000Y-63161944D01*
X150563895Y-63165500D01*
X136636555Y-63165500D01*
X136600450Y-63161944D01*
X136564345Y-63165500D01*
X136456365Y-63176135D01*
X136317817Y-63218163D01*
X136190130Y-63286413D01*
X136078212Y-63378262D01*
X135986363Y-63490180D01*
X135918113Y-63617867D01*
X135876085Y-63756415D01*
X135861894Y-63900500D01*
X132288556Y-63900500D01*
X132274365Y-63756415D01*
X132232337Y-63617867D01*
X132164087Y-63490180D01*
X132072238Y-63378262D01*
X131960320Y-63286413D01*
X131832633Y-63218163D01*
X131694085Y-63176135D01*
X131586105Y-63165500D01*
X131550000Y-63161944D01*
X131513895Y-63165500D01*
X117586555Y-63165500D01*
X117550450Y-63161944D01*
X117514345Y-63165500D01*
X117406365Y-63176135D01*
X117267817Y-63218163D01*
X117140130Y-63286413D01*
X117028212Y-63378262D01*
X116936363Y-63490180D01*
X116868113Y-63617867D01*
X116826085Y-63756415D01*
X116811894Y-63900500D01*
X113238556Y-63900500D01*
X113224365Y-63756415D01*
X113182337Y-63617867D01*
X113114087Y-63490180D01*
X113022238Y-63378262D01*
X112910320Y-63286413D01*
X112782633Y-63218163D01*
X112644085Y-63176135D01*
X112536105Y-63165500D01*
X112500000Y-63161944D01*
X112463895Y-63165500D01*
X98536555Y-63165500D01*
X98500450Y-63161944D01*
X98464345Y-63165500D01*
X98356365Y-63176135D01*
X98217817Y-63218163D01*
X98090130Y-63286413D01*
X97978212Y-63378262D01*
X97886363Y-63490180D01*
X97818113Y-63617867D01*
X97776085Y-63756415D01*
X97761894Y-63900500D01*
X96310500Y-63900500D01*
X96310500Y-61507877D01*
X96329602Y-61313060D01*
X96376808Y-61156706D01*
X96453482Y-61012504D01*
X96556707Y-60885937D01*
X96682551Y-60781831D01*
X96826211Y-60704153D01*
X96982229Y-60655858D01*
X97174973Y-60635600D01*
X169618223Y-60635600D01*
X169813040Y-60654702D01*
G37*
G04 #@! TD.AperFunction*
M02*
