G04 #@! TF.GenerationSoftware,KiCad,Pcbnew,(5.1.10)-1*
G04 #@! TF.CreationDate,2021-08-15T11:08:44+09:00*
G04 #@! TF.ProjectId,cc_proto,63635f70-726f-4746-9f2e-6b696361645f,3*
G04 #@! TF.SameCoordinates,Original*
G04 #@! TF.FileFunction,Legend,Bot*
G04 #@! TF.FilePolarity,Positive*
%FSLAX46Y46*%
G04 Gerber Fmt 4.6, Leading zero omitted, Abs format (unit mm)*
G04 Created by KiCad (PCBNEW (5.1.10)-1) date 2021-08-15 11:08:44*
%MOMM*%
%LPD*%
G01*
G04 APERTURE LIST*
%ADD10C,0.125000*%
%ADD11C,0.300000*%
%ADD12C,0.150000*%
G04 APERTURE END LIST*
D10*
X114856642Y-114938885D02*
X114820928Y-114974600D01*
X114785214Y-115081742D01*
X114785214Y-115153171D01*
X114820928Y-115260314D01*
X114892357Y-115331742D01*
X114963785Y-115367457D01*
X115106642Y-115403171D01*
X115213785Y-115403171D01*
X115356642Y-115367457D01*
X115428071Y-115331742D01*
X115499500Y-115260314D01*
X115535214Y-115153171D01*
X115535214Y-115081742D01*
X115499500Y-114974600D01*
X115463785Y-114938885D01*
X114856642Y-114188885D02*
X114820928Y-114224600D01*
X114785214Y-114331742D01*
X114785214Y-114403171D01*
X114820928Y-114510314D01*
X114892357Y-114581742D01*
X114963785Y-114617457D01*
X115106642Y-114653171D01*
X115213785Y-114653171D01*
X115356642Y-114617457D01*
X115428071Y-114581742D01*
X115499500Y-114510314D01*
X115535214Y-114403171D01*
X115535214Y-114331742D01*
X115499500Y-114224600D01*
X115463785Y-114188885D01*
X114785214Y-113296028D02*
X115535214Y-113296028D01*
X115535214Y-113010314D01*
X115499500Y-112938885D01*
X115463785Y-112903171D01*
X115392357Y-112867457D01*
X115285214Y-112867457D01*
X115213785Y-112903171D01*
X115178071Y-112938885D01*
X115142357Y-113010314D01*
X115142357Y-113296028D01*
X114785214Y-112546028D02*
X115285214Y-112546028D01*
X115142357Y-112546028D02*
X115213785Y-112510314D01*
X115249500Y-112474600D01*
X115285214Y-112403171D01*
X115285214Y-112331742D01*
X114785214Y-111974600D02*
X114820928Y-112046028D01*
X114856642Y-112081742D01*
X114928071Y-112117457D01*
X115142357Y-112117457D01*
X115213785Y-112081742D01*
X115249500Y-112046028D01*
X115285214Y-111974600D01*
X115285214Y-111867457D01*
X115249500Y-111796028D01*
X115213785Y-111760314D01*
X115142357Y-111724600D01*
X114928071Y-111724600D01*
X114856642Y-111760314D01*
X114820928Y-111796028D01*
X114785214Y-111867457D01*
X114785214Y-111974600D01*
X115285214Y-111510314D02*
X115285214Y-111224600D01*
X115535214Y-111403171D02*
X114892357Y-111403171D01*
X114820928Y-111367457D01*
X114785214Y-111296028D01*
X114785214Y-111224600D01*
X114785214Y-110867457D02*
X114820928Y-110938885D01*
X114856642Y-110974600D01*
X114928071Y-111010314D01*
X115142357Y-111010314D01*
X115213785Y-110974600D01*
X115249500Y-110938885D01*
X115285214Y-110867457D01*
X115285214Y-110760314D01*
X115249500Y-110688885D01*
X115213785Y-110653171D01*
X115142357Y-110617457D01*
X114928071Y-110617457D01*
X114856642Y-110653171D01*
X114820928Y-110688885D01*
X114785214Y-110760314D01*
X114785214Y-110867457D01*
X114785214Y-109296028D02*
X115142357Y-109546028D01*
X114785214Y-109724600D02*
X115535214Y-109724600D01*
X115535214Y-109438885D01*
X115499500Y-109367457D01*
X115463785Y-109331742D01*
X115392357Y-109296028D01*
X115285214Y-109296028D01*
X115213785Y-109331742D01*
X115178071Y-109367457D01*
X115142357Y-109438885D01*
X115142357Y-109724600D01*
X114820928Y-108688885D02*
X114785214Y-108760314D01*
X114785214Y-108903171D01*
X114820928Y-108974600D01*
X114892357Y-109010314D01*
X115178071Y-109010314D01*
X115249500Y-108974600D01*
X115285214Y-108903171D01*
X115285214Y-108760314D01*
X115249500Y-108688885D01*
X115178071Y-108653171D01*
X115106642Y-108653171D01*
X115035214Y-109010314D01*
X115285214Y-108403171D02*
X114785214Y-108224600D01*
X115285214Y-108046028D01*
X114856642Y-107760314D02*
X114820928Y-107724600D01*
X114785214Y-107760314D01*
X114820928Y-107796028D01*
X114856642Y-107760314D01*
X114785214Y-107760314D01*
X115285214Y-107081742D02*
X114785214Y-107081742D01*
X115570928Y-107260314D02*
X115035214Y-107438885D01*
X115035214Y-106974600D01*
X114785214Y-106117457D02*
X115535214Y-106117457D01*
X115249500Y-106117457D02*
X115285214Y-106046028D01*
X115285214Y-105903171D01*
X115249500Y-105831742D01*
X115213785Y-105796028D01*
X115142357Y-105760314D01*
X114928071Y-105760314D01*
X114856642Y-105796028D01*
X114820928Y-105831742D01*
X114785214Y-105903171D01*
X114785214Y-106046028D01*
X114820928Y-106117457D01*
X115285214Y-105510314D02*
X114785214Y-105331742D01*
X115285214Y-105153171D02*
X114785214Y-105331742D01*
X114606642Y-105403171D01*
X114570928Y-105438885D01*
X114535214Y-105510314D01*
X114856642Y-103867457D02*
X114820928Y-103903171D01*
X114785214Y-104010314D01*
X114785214Y-104081742D01*
X114820928Y-104188885D01*
X114892357Y-104260314D01*
X114963785Y-104296028D01*
X115106642Y-104331742D01*
X115213785Y-104331742D01*
X115356642Y-104296028D01*
X115428071Y-104260314D01*
X115499500Y-104188885D01*
X115535214Y-104081742D01*
X115535214Y-104010314D01*
X115499500Y-103903171D01*
X115463785Y-103867457D01*
X114785214Y-103546028D02*
X115535214Y-103546028D01*
X114785214Y-103224600D02*
X115178071Y-103224600D01*
X115249500Y-103260314D01*
X115285214Y-103331742D01*
X115285214Y-103438885D01*
X115249500Y-103510314D01*
X115213785Y-103546028D01*
X114785214Y-102867457D02*
X115285214Y-102867457D01*
X115535214Y-102867457D02*
X115499500Y-102903171D01*
X115463785Y-102867457D01*
X115499500Y-102831742D01*
X115535214Y-102867457D01*
X115463785Y-102867457D01*
X115285214Y-102510314D02*
X114785214Y-102510314D01*
X115213785Y-102510314D02*
X115249500Y-102474600D01*
X115285214Y-102403171D01*
X115285214Y-102296028D01*
X115249500Y-102224600D01*
X115178071Y-102188885D01*
X114785214Y-102188885D01*
X114785214Y-101510314D02*
X115178071Y-101510314D01*
X115249500Y-101546028D01*
X115285214Y-101617457D01*
X115285214Y-101760314D01*
X115249500Y-101831742D01*
X114820928Y-101510314D02*
X114785214Y-101581742D01*
X114785214Y-101760314D01*
X114820928Y-101831742D01*
X114892357Y-101867457D01*
X114963785Y-101867457D01*
X115035214Y-101831742D01*
X115070928Y-101760314D01*
X115070928Y-101581742D01*
X115106642Y-101510314D01*
X115285214Y-101260314D02*
X115285214Y-100974600D01*
X115535214Y-101153171D02*
X114892357Y-101153171D01*
X114820928Y-101117457D01*
X114785214Y-101046028D01*
X114785214Y-100974600D01*
X114820928Y-100760314D02*
X114785214Y-100688885D01*
X114785214Y-100546028D01*
X114820928Y-100474600D01*
X114892357Y-100438885D01*
X114928071Y-100438885D01*
X114999500Y-100474600D01*
X115035214Y-100546028D01*
X115035214Y-100653171D01*
X115070928Y-100724600D01*
X115142357Y-100760314D01*
X115178071Y-100760314D01*
X115249500Y-100724600D01*
X115285214Y-100653171D01*
X115285214Y-100546028D01*
X115249500Y-100474600D01*
X115285214Y-99796028D02*
X114785214Y-99796028D01*
X115285214Y-100117457D02*
X114892357Y-100117457D01*
X114820928Y-100081742D01*
X114785214Y-100010314D01*
X114785214Y-99903171D01*
X114820928Y-99831742D01*
X114856642Y-99796028D01*
X114856642Y-98438885D02*
X114820928Y-98474600D01*
X114785214Y-98581742D01*
X114785214Y-98653171D01*
X114820928Y-98760314D01*
X114892357Y-98831742D01*
X114963785Y-98867457D01*
X115106642Y-98903171D01*
X115213785Y-98903171D01*
X115356642Y-98867457D01*
X115428071Y-98831742D01*
X115499500Y-98760314D01*
X115535214Y-98653171D01*
X115535214Y-98581742D01*
X115499500Y-98474600D01*
X115463785Y-98438885D01*
X114785214Y-98117457D02*
X115535214Y-98117457D01*
X114785214Y-97796028D02*
X115178071Y-97796028D01*
X115249500Y-97831742D01*
X115285214Y-97903171D01*
X115285214Y-98010314D01*
X115249500Y-98081742D01*
X115213785Y-98117457D01*
X114785214Y-97438885D02*
X115285214Y-97438885D01*
X115535214Y-97438885D02*
X115499500Y-97474600D01*
X115463785Y-97438885D01*
X115499500Y-97403171D01*
X115535214Y-97438885D01*
X115463785Y-97438885D01*
X114785214Y-97081742D02*
X115535214Y-97081742D01*
X115249500Y-97081742D02*
X115285214Y-97010314D01*
X115285214Y-96867457D01*
X115249500Y-96796028D01*
X115213785Y-96760314D01*
X115142357Y-96724600D01*
X114928071Y-96724600D01*
X114856642Y-96760314D01*
X114820928Y-96796028D01*
X114785214Y-96867457D01*
X114785214Y-97010314D01*
X114820928Y-97081742D01*
X114785214Y-96081742D02*
X115178071Y-96081742D01*
X115249500Y-96117457D01*
X115285214Y-96188885D01*
X115285214Y-96331742D01*
X115249500Y-96403171D01*
X114820928Y-96081742D02*
X114785214Y-96153171D01*
X114785214Y-96331742D01*
X114820928Y-96403171D01*
X114892357Y-96438885D01*
X114963785Y-96438885D01*
X115035214Y-96403171D01*
X115070928Y-96331742D01*
X115070928Y-96153171D01*
X115106642Y-96081742D01*
X114499500Y-94938885D02*
X114535214Y-94974600D01*
X114642357Y-95046028D01*
X114713785Y-95081742D01*
X114820928Y-95117457D01*
X114999500Y-95153171D01*
X115142357Y-95153171D01*
X115320928Y-95117457D01*
X115428071Y-95081742D01*
X115499500Y-95046028D01*
X115606642Y-94974600D01*
X115642357Y-94938885D01*
X114785214Y-94331742D02*
X115178071Y-94331742D01*
X115249500Y-94367457D01*
X115285214Y-94438885D01*
X115285214Y-94581742D01*
X115249500Y-94653171D01*
X114820928Y-94331742D02*
X114785214Y-94403171D01*
X114785214Y-94581742D01*
X114820928Y-94653171D01*
X114892357Y-94688885D01*
X114963785Y-94688885D01*
X115035214Y-94653171D01*
X115070928Y-94581742D01*
X115070928Y-94403171D01*
X115106642Y-94331742D01*
X115285214Y-94046028D02*
X115285214Y-93653171D01*
X114785214Y-94046028D01*
X114785214Y-93653171D01*
X115285214Y-93046028D02*
X114785214Y-93046028D01*
X115285214Y-93367457D02*
X114892357Y-93367457D01*
X114820928Y-93331742D01*
X114785214Y-93260314D01*
X114785214Y-93153171D01*
X114820928Y-93081742D01*
X114856642Y-93046028D01*
X114785214Y-92581742D02*
X114820928Y-92653171D01*
X114892357Y-92688885D01*
X115535214Y-92688885D01*
X114820928Y-92010314D02*
X114785214Y-92081742D01*
X114785214Y-92224600D01*
X114820928Y-92296028D01*
X114892357Y-92331742D01*
X115178071Y-92331742D01*
X115249500Y-92296028D01*
X115285214Y-92224600D01*
X115285214Y-92081742D01*
X115249500Y-92010314D01*
X115178071Y-91974600D01*
X115106642Y-91974600D01*
X115035214Y-92331742D01*
X114820928Y-91367457D02*
X114785214Y-91438885D01*
X114785214Y-91581742D01*
X114820928Y-91653171D01*
X114892357Y-91688885D01*
X115178071Y-91688885D01*
X115249500Y-91653171D01*
X115285214Y-91581742D01*
X115285214Y-91438885D01*
X115249500Y-91367457D01*
X115178071Y-91331742D01*
X115106642Y-91331742D01*
X115035214Y-91688885D01*
X115570928Y-89903171D02*
X114606642Y-90546028D01*
X114785214Y-89081742D02*
X115285214Y-89081742D01*
X115213785Y-89081742D02*
X115249500Y-89046028D01*
X115285214Y-88974600D01*
X115285214Y-88867457D01*
X115249500Y-88796028D01*
X115178071Y-88760314D01*
X114785214Y-88760314D01*
X115178071Y-88760314D02*
X115249500Y-88724600D01*
X115285214Y-88653171D01*
X115285214Y-88546028D01*
X115249500Y-88474600D01*
X115178071Y-88438885D01*
X114785214Y-88438885D01*
X114785214Y-87974600D02*
X114820928Y-88046028D01*
X114856642Y-88081742D01*
X114928071Y-88117457D01*
X115142357Y-88117457D01*
X115213785Y-88081742D01*
X115249500Y-88046028D01*
X115285214Y-87974600D01*
X115285214Y-87867457D01*
X115249500Y-87796028D01*
X115213785Y-87760314D01*
X115142357Y-87724600D01*
X114928071Y-87724600D01*
X114856642Y-87760314D01*
X114820928Y-87796028D01*
X114785214Y-87867457D01*
X114785214Y-87974600D01*
X114785214Y-87403171D02*
X115535214Y-87403171D01*
X115070928Y-87331742D02*
X114785214Y-87117457D01*
X115285214Y-87117457D02*
X114999500Y-87403171D01*
X114820928Y-86510314D02*
X114785214Y-86581742D01*
X114785214Y-86724600D01*
X114820928Y-86796028D01*
X114892357Y-86831742D01*
X115178071Y-86831742D01*
X115249500Y-86796028D01*
X115285214Y-86724600D01*
X115285214Y-86581742D01*
X115249500Y-86510314D01*
X115178071Y-86474600D01*
X115106642Y-86474600D01*
X115035214Y-86831742D01*
X114820928Y-86188885D02*
X114785214Y-86117457D01*
X114785214Y-85974600D01*
X114820928Y-85903171D01*
X114892357Y-85867457D01*
X114928071Y-85867457D01*
X114999500Y-85903171D01*
X115035214Y-85974600D01*
X115035214Y-86081742D01*
X115070928Y-86153171D01*
X115142357Y-86188885D01*
X115178071Y-86188885D01*
X115249500Y-86153171D01*
X115285214Y-86081742D01*
X115285214Y-85974600D01*
X115249500Y-85903171D01*
X115285214Y-85224600D02*
X114785214Y-85224600D01*
X115285214Y-85546028D02*
X114892357Y-85546028D01*
X114820928Y-85510314D01*
X114785214Y-85438885D01*
X114785214Y-85331742D01*
X114820928Y-85260314D01*
X114856642Y-85224600D01*
X114785214Y-84867457D02*
X115285214Y-84867457D01*
X115142357Y-84867457D02*
X115213785Y-84831742D01*
X115249500Y-84796028D01*
X115285214Y-84724600D01*
X115285214Y-84653171D01*
X114785214Y-84081742D02*
X115178071Y-84081742D01*
X115249500Y-84117457D01*
X115285214Y-84188885D01*
X115285214Y-84331742D01*
X115249500Y-84403171D01*
X114820928Y-84081742D02*
X114785214Y-84153171D01*
X114785214Y-84331742D01*
X114820928Y-84403171D01*
X114892357Y-84438885D01*
X114963785Y-84438885D01*
X115035214Y-84403171D01*
X115070928Y-84331742D01*
X115070928Y-84153171D01*
X115106642Y-84081742D01*
X114499500Y-83796028D02*
X114535214Y-83760314D01*
X114642357Y-83688885D01*
X114713785Y-83653171D01*
X114820928Y-83617457D01*
X114999500Y-83581742D01*
X115142357Y-83581742D01*
X115320928Y-83617457D01*
X115428071Y-83653171D01*
X115499500Y-83688885D01*
X115606642Y-83760314D01*
X115642357Y-83796028D01*
D11*
X152947357Y-122405600D02*
X152947357Y-121262742D01*
X152375928Y-121834171D02*
X153518785Y-121834171D01*
X152947357Y-120548457D02*
X152947357Y-119405600D01*
X152375928Y-119977028D02*
X153518785Y-119977028D01*
X152375928Y-116834171D02*
X152375928Y-117548457D01*
X153875928Y-117548457D01*
X152447357Y-115762742D02*
X152375928Y-115905600D01*
X152375928Y-116191314D01*
X152447357Y-116334171D01*
X152590214Y-116405600D01*
X153161642Y-116405600D01*
X153304500Y-116334171D01*
X153375928Y-116191314D01*
X153375928Y-115905600D01*
X153304500Y-115762742D01*
X153161642Y-115691314D01*
X153018785Y-115691314D01*
X152875928Y-116405600D01*
X153375928Y-115262742D02*
X153375928Y-114691314D01*
X152375928Y-115048457D02*
X153661642Y-115048457D01*
X153804500Y-114977028D01*
X153875928Y-114834171D01*
X153875928Y-114691314D01*
X153375928Y-114405600D02*
X153375928Y-113834171D01*
X153875928Y-114191314D02*
X152590214Y-114191314D01*
X152447357Y-114119885D01*
X152375928Y-113977028D01*
X152375928Y-113834171D01*
X152375928Y-112191314D02*
X153875928Y-112191314D01*
X153161642Y-112191314D02*
X153161642Y-111334171D01*
X152375928Y-111334171D02*
X153875928Y-111334171D01*
X152375928Y-109977028D02*
X153161642Y-109977028D01*
X153304500Y-110048457D01*
X153375928Y-110191314D01*
X153375928Y-110477028D01*
X153304500Y-110619885D01*
X152447357Y-109977028D02*
X152375928Y-110119885D01*
X152375928Y-110477028D01*
X152447357Y-110619885D01*
X152590214Y-110691314D01*
X152733071Y-110691314D01*
X152875928Y-110619885D01*
X152947357Y-110477028D01*
X152947357Y-110119885D01*
X153018785Y-109977028D01*
X153375928Y-109262742D02*
X152375928Y-109262742D01*
X153233071Y-109262742D02*
X153304500Y-109191314D01*
X153375928Y-109048457D01*
X153375928Y-108834171D01*
X153304500Y-108691314D01*
X153161642Y-108619885D01*
X152375928Y-108619885D01*
X152375928Y-107262742D02*
X153875928Y-107262742D01*
X152447357Y-107262742D02*
X152375928Y-107405600D01*
X152375928Y-107691314D01*
X152447357Y-107834171D01*
X152518785Y-107905600D01*
X152661642Y-107977028D01*
X153090214Y-107977028D01*
X153233071Y-107905600D01*
X153304500Y-107834171D01*
X153375928Y-107691314D01*
X153375928Y-107405600D01*
X153304500Y-107262742D01*
X153875928Y-105619885D02*
X153875928Y-104762742D01*
X152375928Y-105191314D02*
X153875928Y-105191314D01*
X153375928Y-104405600D02*
X152375928Y-104048457D01*
X153375928Y-103691314D02*
X152375928Y-104048457D01*
X152018785Y-104191314D01*
X151947357Y-104262742D01*
X151875928Y-104405600D01*
X153375928Y-103119885D02*
X151875928Y-103119885D01*
X153304500Y-103119885D02*
X153375928Y-102977028D01*
X153375928Y-102691314D01*
X153304500Y-102548457D01*
X153233071Y-102477028D01*
X153090214Y-102405600D01*
X152661642Y-102405600D01*
X152518785Y-102477028D01*
X152447357Y-102548457D01*
X152375928Y-102691314D01*
X152375928Y-102977028D01*
X152447357Y-103119885D01*
X152447357Y-101191314D02*
X152375928Y-101334171D01*
X152375928Y-101619885D01*
X152447357Y-101762742D01*
X152590214Y-101834171D01*
X153161642Y-101834171D01*
X153304500Y-101762742D01*
X153375928Y-101619885D01*
X153375928Y-101334171D01*
X153304500Y-101191314D01*
X153161642Y-101119885D01*
X153018785Y-101119885D01*
X152875928Y-101834171D01*
X152947357Y-99334171D02*
X152947357Y-98191314D01*
X152375928Y-98762742D02*
X153518785Y-98762742D01*
X152947357Y-97477028D02*
X152947357Y-96334171D01*
X152375928Y-96905600D02*
X153518785Y-96905600D01*
X153161642Y-93977028D02*
X153090214Y-93762742D01*
X153018785Y-93691314D01*
X152875928Y-93619885D01*
X152661642Y-93619885D01*
X152518785Y-93691314D01*
X152447357Y-93762742D01*
X152375928Y-93905600D01*
X152375928Y-94477028D01*
X153875928Y-94477028D01*
X153875928Y-93977028D01*
X153804500Y-93834171D01*
X153733071Y-93762742D01*
X153590214Y-93691314D01*
X153447357Y-93691314D01*
X153304500Y-93762742D01*
X153233071Y-93834171D01*
X153161642Y-93977028D01*
X153161642Y-94477028D01*
X152375928Y-92334171D02*
X153161642Y-92334171D01*
X153304500Y-92405600D01*
X153375928Y-92548457D01*
X153375928Y-92834171D01*
X153304500Y-92977028D01*
X152447357Y-92334171D02*
X152375928Y-92477028D01*
X152375928Y-92834171D01*
X152447357Y-92977028D01*
X152590214Y-93048457D01*
X152733071Y-93048457D01*
X152875928Y-92977028D01*
X152947357Y-92834171D01*
X152947357Y-92477028D01*
X153018785Y-92334171D01*
X152447357Y-90977028D02*
X152375928Y-91119885D01*
X152375928Y-91405600D01*
X152447357Y-91548457D01*
X152518785Y-91619885D01*
X152661642Y-91691314D01*
X153090214Y-91691314D01*
X153233071Y-91619885D01*
X153304500Y-91548457D01*
X153375928Y-91405600D01*
X153375928Y-91119885D01*
X153304500Y-90977028D01*
X152375928Y-90334171D02*
X153875928Y-90334171D01*
X152947357Y-90191314D02*
X152375928Y-89762742D01*
X153375928Y-89762742D02*
X152804500Y-90334171D01*
X152447357Y-88048457D02*
X152375928Y-87834171D01*
X152375928Y-87477028D01*
X152447357Y-87334171D01*
X152518785Y-87262742D01*
X152661642Y-87191314D01*
X152804500Y-87191314D01*
X152947357Y-87262742D01*
X153018785Y-87334171D01*
X153090214Y-87477028D01*
X153161642Y-87762742D01*
X153233071Y-87905600D01*
X153304500Y-87977028D01*
X153447357Y-88048457D01*
X153590214Y-88048457D01*
X153733071Y-87977028D01*
X153804500Y-87905600D01*
X153875928Y-87762742D01*
X153875928Y-87405600D01*
X153804500Y-87191314D01*
X152375928Y-86548457D02*
X153375928Y-86548457D01*
X153875928Y-86548457D02*
X153804500Y-86619885D01*
X153733071Y-86548457D01*
X153804500Y-86477028D01*
X153875928Y-86548457D01*
X153733071Y-86548457D01*
X152375928Y-85191314D02*
X153875928Y-85191314D01*
X152447357Y-85191314D02*
X152375928Y-85334171D01*
X152375928Y-85619885D01*
X152447357Y-85762742D01*
X152518785Y-85834171D01*
X152661642Y-85905600D01*
X153090214Y-85905600D01*
X153233071Y-85834171D01*
X153304500Y-85762742D01*
X153375928Y-85619885D01*
X153375928Y-85334171D01*
X153304500Y-85191314D01*
X152447357Y-83905599D02*
X152375928Y-84048457D01*
X152375928Y-84334171D01*
X152447357Y-84477028D01*
X152590214Y-84548457D01*
X153161642Y-84548457D01*
X153304500Y-84477028D01*
X153375928Y-84334171D01*
X153375928Y-84048457D01*
X153304500Y-83905599D01*
X153161642Y-83834171D01*
X153018785Y-83834171D01*
X152875928Y-84548457D01*
D12*
X175600500Y-127154600D02*
X179210500Y-127154600D01*
X175600500Y-123200600D02*
X175600500Y-127145600D01*
X186500500Y-121246600D02*
X177875500Y-121246600D01*
X186500500Y-125154600D02*
X186500500Y-121246600D01*
X186500500Y-125200600D02*
X181450500Y-125246600D01*
X179215500Y-127130600D02*
G75*
G02*
X181475500Y-125250600I2070000J-190000D01*
G01*
X175611500Y-123130600D02*
G75*
G02*
X177875500Y-121246600I2074000J-190000D01*
G01*
X175600500Y-108104600D02*
X179210500Y-108104600D01*
X175600500Y-104150600D02*
X175600500Y-108095600D01*
X186500500Y-102196600D02*
X177875500Y-102196600D01*
X186500500Y-106104600D02*
X186500500Y-102196600D01*
X186500500Y-106150600D02*
X181450500Y-106196600D01*
X179215500Y-108080600D02*
G75*
G02*
X181475500Y-106200600I2070000J-190000D01*
G01*
X175611500Y-104080600D02*
G75*
G02*
X177875500Y-102196600I2074000J-190000D01*
G01*
X156550500Y-127154600D02*
X160160500Y-127154600D01*
X156550500Y-123200600D02*
X156550500Y-127145600D01*
X167450500Y-121246600D02*
X158825500Y-121246600D01*
X167450500Y-125154600D02*
X167450500Y-121246600D01*
X167450500Y-125200600D02*
X162400500Y-125246600D01*
X160165500Y-127130600D02*
G75*
G02*
X162425500Y-125250600I2070000J-190000D01*
G01*
X156561500Y-123130600D02*
G75*
G02*
X158825500Y-121246600I2074000J-190000D01*
G01*
X156550500Y-108104600D02*
X160160500Y-108104600D01*
X156550500Y-104150600D02*
X156550500Y-108095600D01*
X167450500Y-102196600D02*
X158825500Y-102196600D01*
X167450500Y-106104600D02*
X167450500Y-102196600D01*
X167450500Y-106150600D02*
X162400500Y-106196600D01*
X160165500Y-108080600D02*
G75*
G02*
X162425500Y-106200600I2070000J-190000D01*
G01*
X156561500Y-104080600D02*
G75*
G02*
X158825500Y-102196600I2074000J-190000D01*
G01*
X156550500Y-89054600D02*
X160160500Y-89054600D01*
X156550500Y-85100600D02*
X156550500Y-89045600D01*
X167450500Y-83146600D02*
X158825500Y-83146600D01*
X167450500Y-87054600D02*
X167450500Y-83146600D01*
X167450500Y-87100600D02*
X162400500Y-87146600D01*
X160165500Y-89030600D02*
G75*
G02*
X162425500Y-87150600I2070000J-190000D01*
G01*
X156561500Y-85030600D02*
G75*
G02*
X158825500Y-83146600I2074000J-190000D01*
G01*
X156550500Y-70004600D02*
X160160500Y-70004600D01*
X156550500Y-66050600D02*
X156550500Y-69995600D01*
X167450500Y-64096600D02*
X158825500Y-64096600D01*
X167450500Y-68004600D02*
X167450500Y-64096600D01*
X167450500Y-68050600D02*
X162400500Y-68096600D01*
X160165500Y-69980600D02*
G75*
G02*
X162425500Y-68100600I2070000J-190000D01*
G01*
X156561500Y-65980600D02*
G75*
G02*
X158825500Y-64096600I2074000J-190000D01*
G01*
X137500500Y-127154600D02*
X141110500Y-127154600D01*
X137500500Y-123200600D02*
X137500500Y-127145600D01*
X148400500Y-121246600D02*
X139775500Y-121246600D01*
X148400500Y-125154600D02*
X148400500Y-121246600D01*
X148400500Y-125200600D02*
X143350500Y-125246600D01*
X141115500Y-127130600D02*
G75*
G02*
X143375500Y-125250600I2070000J-190000D01*
G01*
X137511500Y-123130600D02*
G75*
G02*
X139775500Y-121246600I2074000J-190000D01*
G01*
X137500500Y-108104600D02*
X141110500Y-108104600D01*
X137500500Y-104150600D02*
X137500500Y-108095600D01*
X148400500Y-102196600D02*
X139775500Y-102196600D01*
X148400500Y-106104600D02*
X148400500Y-102196600D01*
X148400500Y-106150600D02*
X143350500Y-106196600D01*
X141115500Y-108080600D02*
G75*
G02*
X143375500Y-106200600I2070000J-190000D01*
G01*
X137511500Y-104080600D02*
G75*
G02*
X139775500Y-102196600I2074000J-190000D01*
G01*
X137500500Y-89054600D02*
X141110500Y-89054600D01*
X137500500Y-85100600D02*
X137500500Y-89045600D01*
X148400500Y-83146600D02*
X139775500Y-83146600D01*
X148400500Y-87054600D02*
X148400500Y-83146600D01*
X148400500Y-87100600D02*
X143350500Y-87146600D01*
X141115500Y-89030600D02*
G75*
G02*
X143375500Y-87150600I2070000J-190000D01*
G01*
X137511500Y-85030600D02*
G75*
G02*
X139775500Y-83146600I2074000J-190000D01*
G01*
X137500500Y-70004600D02*
X141110500Y-70004600D01*
X137500500Y-66050600D02*
X137500500Y-69995600D01*
X148400500Y-64096600D02*
X139775500Y-64096600D01*
X148400500Y-68004600D02*
X148400500Y-64096600D01*
X148400500Y-68050600D02*
X143350500Y-68096600D01*
X141115500Y-69980600D02*
G75*
G02*
X143375500Y-68100600I2070000J-190000D01*
G01*
X137511500Y-65980600D02*
G75*
G02*
X139775500Y-64096600I2074000J-190000D01*
G01*
X118450500Y-127154600D02*
X122060500Y-127154600D01*
X118450500Y-123200600D02*
X118450500Y-127145600D01*
X129350500Y-121246600D02*
X120725500Y-121246600D01*
X129350500Y-125154600D02*
X129350500Y-121246600D01*
X129350500Y-125200600D02*
X124300500Y-125246600D01*
X122065500Y-127130600D02*
G75*
G02*
X124325500Y-125250600I2070000J-190000D01*
G01*
X118461500Y-123130600D02*
G75*
G02*
X120725500Y-121246600I2074000J-190000D01*
G01*
X118450500Y-108104600D02*
X122060500Y-108104600D01*
X118450500Y-104150600D02*
X118450500Y-108095600D01*
X129350500Y-102196600D02*
X120725500Y-102196600D01*
X129350500Y-106104600D02*
X129350500Y-102196600D01*
X129350500Y-106150600D02*
X124300500Y-106196600D01*
X122065500Y-108080600D02*
G75*
G02*
X124325500Y-106200600I2070000J-190000D01*
G01*
X118461500Y-104080600D02*
G75*
G02*
X120725500Y-102196600I2074000J-190000D01*
G01*
X118450500Y-89054600D02*
X122060500Y-89054600D01*
X118450500Y-85100600D02*
X118450500Y-89045600D01*
X129350500Y-83146600D02*
X120725500Y-83146600D01*
X129350500Y-87054600D02*
X129350500Y-83146600D01*
X129350500Y-87100600D02*
X124300500Y-87146600D01*
X122065500Y-89030600D02*
G75*
G02*
X124325500Y-87150600I2070000J-190000D01*
G01*
X118461500Y-85030600D02*
G75*
G02*
X120725500Y-83146600I2074000J-190000D01*
G01*
X118450500Y-70004600D02*
X122060500Y-70004600D01*
X118450500Y-66050600D02*
X118450500Y-69995600D01*
X129350500Y-64096600D02*
X120725500Y-64096600D01*
X129350500Y-68004600D02*
X129350500Y-64096600D01*
X129350500Y-68050600D02*
X124300500Y-68096600D01*
X122065500Y-69980600D02*
G75*
G02*
X124325500Y-68100600I2070000J-190000D01*
G01*
X118461500Y-65980600D02*
G75*
G02*
X120725500Y-64096600I2074000J-190000D01*
G01*
X99400500Y-127154600D02*
X103010500Y-127154600D01*
X99400500Y-123200600D02*
X99400500Y-127145600D01*
X110300500Y-121246600D02*
X101675500Y-121246600D01*
X110300500Y-125154600D02*
X110300500Y-121246600D01*
X110300500Y-125200600D02*
X105250500Y-125246600D01*
X103015500Y-127130600D02*
G75*
G02*
X105275500Y-125250600I2070000J-190000D01*
G01*
X99411500Y-123130600D02*
G75*
G02*
X101675500Y-121246600I2074000J-190000D01*
G01*
X99400500Y-108104600D02*
X103010500Y-108104600D01*
X99400500Y-104150600D02*
X99400500Y-108095600D01*
X110300500Y-102196600D02*
X101675500Y-102196600D01*
X110300500Y-106104600D02*
X110300500Y-102196600D01*
X110300500Y-106150600D02*
X105250500Y-106196600D01*
X103015500Y-108080600D02*
G75*
G02*
X105275500Y-106200600I2070000J-190000D01*
G01*
X99411500Y-104080600D02*
G75*
G02*
X101675500Y-102196600I2074000J-190000D01*
G01*
X99400500Y-89054600D02*
X103010500Y-89054600D01*
X99400500Y-85100600D02*
X99400500Y-89045600D01*
X110300500Y-83146600D02*
X101675500Y-83146600D01*
X110300500Y-87054600D02*
X110300500Y-83146600D01*
X110300500Y-87100600D02*
X105250500Y-87146600D01*
X103015500Y-89030600D02*
G75*
G02*
X105275500Y-87150600I2070000J-190000D01*
G01*
X99411500Y-85030600D02*
G75*
G02*
X101675500Y-83146600I2074000J-190000D01*
G01*
X99400500Y-70004600D02*
X103010500Y-70004600D01*
X99400500Y-66050600D02*
X99400500Y-69995600D01*
X110300500Y-64096600D02*
X101675500Y-64096600D01*
X110300500Y-68004600D02*
X110300500Y-64096600D01*
X110300500Y-68050600D02*
X105250500Y-68096600D01*
X103015500Y-69980600D02*
G75*
G02*
X105275500Y-68100600I2070000J-190000D01*
G01*
X99411500Y-65980600D02*
G75*
G02*
X101675500Y-64096600I2074000J-190000D01*
G01*
X172440500Y-94502600D02*
X172440500Y-64022600D01*
X174980500Y-94502600D02*
X172440500Y-94502600D01*
X174980500Y-64022600D02*
X174980500Y-94502600D01*
X172440500Y-64022600D02*
X174980500Y-64022600D01*
X187680500Y-94502600D02*
X187680500Y-64022600D01*
X190220500Y-94502600D02*
X187680500Y-94502600D01*
X190220500Y-64022600D02*
X190220500Y-94502600D01*
X187680500Y-64022600D02*
X190220500Y-64022600D01*
D11*
X176040500Y-98913600D02*
X173990500Y-98913600D01*
X176040500Y-97463600D02*
X176040500Y-98913600D01*
X173990500Y-97463600D02*
X176040500Y-97463600D01*
X173990500Y-98913600D02*
X173990500Y-97463600D01*
D12*
X184400500Y-137800600D02*
X184400500Y-136300600D01*
X179000500Y-137800600D02*
X184400500Y-137800600D01*
X179000500Y-136300600D02*
X179000500Y-137800600D01*
X184400500Y-136300600D02*
X179000500Y-136300600D01*
X181200500Y-136550600D02*
X181200500Y-137550600D01*
X182200500Y-137550600D02*
X181300500Y-137050600D01*
X182200500Y-136550600D02*
X182200500Y-137550600D01*
X181300500Y-137050600D02*
X182200500Y-136550600D01*
X184400500Y-119275600D02*
X184400500Y-117775600D01*
X179000500Y-119275600D02*
X184400500Y-119275600D01*
X179000500Y-117775600D02*
X179000500Y-119275600D01*
X184400500Y-117775600D02*
X179000500Y-117775600D01*
X181200500Y-118025600D02*
X181200500Y-119025600D01*
X182200500Y-119025600D02*
X181300500Y-118525600D01*
X182200500Y-118025600D02*
X182200500Y-119025600D01*
X181300500Y-118525600D02*
X182200500Y-118025600D01*
X165350500Y-137800600D02*
X165350500Y-136300600D01*
X159950500Y-137800600D02*
X165350500Y-137800600D01*
X159950500Y-136300600D02*
X159950500Y-137800600D01*
X165350500Y-136300600D02*
X159950500Y-136300600D01*
X162150500Y-136550600D02*
X162150500Y-137550600D01*
X163150500Y-137550600D02*
X162250500Y-137050600D01*
X163150500Y-136550600D02*
X163150500Y-137550600D01*
X162250500Y-137050600D02*
X163150500Y-136550600D01*
X165350500Y-119275600D02*
X165350500Y-117775600D01*
X159950500Y-119275600D02*
X165350500Y-119275600D01*
X159950500Y-117775600D02*
X159950500Y-119275600D01*
X165350500Y-117775600D02*
X159950500Y-117775600D01*
X162150500Y-118025600D02*
X162150500Y-119025600D01*
X163150500Y-119025600D02*
X162250500Y-118525600D01*
X163150500Y-118025600D02*
X163150500Y-119025600D01*
X162250500Y-118525600D02*
X163150500Y-118025600D01*
X165350500Y-100225600D02*
X165350500Y-98725600D01*
X159950500Y-100225600D02*
X165350500Y-100225600D01*
X159950500Y-98725600D02*
X159950500Y-100225600D01*
X165350500Y-98725600D02*
X159950500Y-98725600D01*
X162150500Y-98975600D02*
X162150500Y-99975600D01*
X163150500Y-99975600D02*
X162250500Y-99475600D01*
X163150500Y-98975600D02*
X163150500Y-99975600D01*
X162250500Y-99475600D02*
X163150500Y-98975600D01*
X165350500Y-81175600D02*
X165350500Y-79675600D01*
X159950500Y-81175600D02*
X165350500Y-81175600D01*
X159950500Y-79675600D02*
X159950500Y-81175600D01*
X165350500Y-79675600D02*
X159950500Y-79675600D01*
X162150500Y-79925600D02*
X162150500Y-80925600D01*
X163150500Y-80925600D02*
X162250500Y-80425600D01*
X163150500Y-79925600D02*
X163150500Y-80925600D01*
X162250500Y-80425600D02*
X163150500Y-79925600D01*
X146300500Y-137800600D02*
X146300500Y-136300600D01*
X140900500Y-137800600D02*
X146300500Y-137800600D01*
X140900500Y-136300600D02*
X140900500Y-137800600D01*
X146300500Y-136300600D02*
X140900500Y-136300600D01*
X143100500Y-136550600D02*
X143100500Y-137550600D01*
X144100500Y-137550600D02*
X143200500Y-137050600D01*
X144100500Y-136550600D02*
X144100500Y-137550600D01*
X143200500Y-137050600D02*
X144100500Y-136550600D01*
X146300500Y-119275600D02*
X146300500Y-117775600D01*
X140900500Y-119275600D02*
X146300500Y-119275600D01*
X140900500Y-117775600D02*
X140900500Y-119275600D01*
X146300500Y-117775600D02*
X140900500Y-117775600D01*
X143100500Y-118025600D02*
X143100500Y-119025600D01*
X144100500Y-119025600D02*
X143200500Y-118525600D01*
X144100500Y-118025600D02*
X144100500Y-119025600D01*
X143200500Y-118525600D02*
X144100500Y-118025600D01*
X146300500Y-100225600D02*
X146300500Y-98725600D01*
X140900500Y-100225600D02*
X146300500Y-100225600D01*
X140900500Y-98725600D02*
X140900500Y-100225600D01*
X146300500Y-98725600D02*
X140900500Y-98725600D01*
X143100500Y-98975600D02*
X143100500Y-99975600D01*
X144100500Y-99975600D02*
X143200500Y-99475600D01*
X144100500Y-98975600D02*
X144100500Y-99975600D01*
X143200500Y-99475600D02*
X144100500Y-98975600D01*
X146300500Y-81175600D02*
X146300500Y-79675600D01*
X140900500Y-81175600D02*
X146300500Y-81175600D01*
X140900500Y-79675600D02*
X140900500Y-81175600D01*
X146300500Y-79675600D02*
X140900500Y-79675600D01*
X143100500Y-79925600D02*
X143100500Y-80925600D01*
X144100500Y-80925600D02*
X143200500Y-80425600D01*
X144100500Y-79925600D02*
X144100500Y-80925600D01*
X143200500Y-80425600D02*
X144100500Y-79925600D01*
X127250500Y-137800600D02*
X127250500Y-136300600D01*
X121850500Y-137800600D02*
X127250500Y-137800600D01*
X121850500Y-136300600D02*
X121850500Y-137800600D01*
X127250500Y-136300600D02*
X121850500Y-136300600D01*
X124050500Y-136550600D02*
X124050500Y-137550600D01*
X125050500Y-137550600D02*
X124150500Y-137050600D01*
X125050500Y-136550600D02*
X125050500Y-137550600D01*
X124150500Y-137050600D02*
X125050500Y-136550600D01*
X127250500Y-119275600D02*
X127250500Y-117775600D01*
X121850500Y-119275600D02*
X127250500Y-119275600D01*
X121850500Y-117775600D02*
X121850500Y-119275600D01*
X127250500Y-117775600D02*
X121850500Y-117775600D01*
X124050500Y-118025600D02*
X124050500Y-119025600D01*
X125050500Y-119025600D02*
X124150500Y-118525600D01*
X125050500Y-118025600D02*
X125050500Y-119025600D01*
X124150500Y-118525600D02*
X125050500Y-118025600D01*
X127250500Y-100225600D02*
X127250500Y-98725600D01*
X121850500Y-100225600D02*
X127250500Y-100225600D01*
X121850500Y-98725600D02*
X121850500Y-100225600D01*
X127250500Y-98725600D02*
X121850500Y-98725600D01*
X124050500Y-98975600D02*
X124050500Y-99975600D01*
X125050500Y-99975600D02*
X124150500Y-99475600D01*
X125050500Y-98975600D02*
X125050500Y-99975600D01*
X124150500Y-99475600D02*
X125050500Y-98975600D01*
X127250500Y-81175600D02*
X127250500Y-79675600D01*
X121850500Y-81175600D02*
X127250500Y-81175600D01*
X121850500Y-79675600D02*
X121850500Y-81175600D01*
X127250500Y-79675600D02*
X121850500Y-79675600D01*
X124050500Y-79925600D02*
X124050500Y-80925600D01*
X125050500Y-80925600D02*
X124150500Y-80425600D01*
X125050500Y-79925600D02*
X125050500Y-80925600D01*
X124150500Y-80425600D02*
X125050500Y-79925600D01*
X108200500Y-137800600D02*
X108200500Y-136300600D01*
X102800500Y-137800600D02*
X108200500Y-137800600D01*
X102800500Y-136300600D02*
X102800500Y-137800600D01*
X108200500Y-136300600D02*
X102800500Y-136300600D01*
X105000500Y-136550600D02*
X105000500Y-137550600D01*
X106000500Y-137550600D02*
X105100500Y-137050600D01*
X106000500Y-136550600D02*
X106000500Y-137550600D01*
X105100500Y-137050600D02*
X106000500Y-136550600D01*
X108200500Y-119275600D02*
X108200500Y-117775600D01*
X102800500Y-119275600D02*
X108200500Y-119275600D01*
X102800500Y-117775600D02*
X102800500Y-119275600D01*
X108200500Y-117775600D02*
X102800500Y-117775600D01*
X105000500Y-118025600D02*
X105000500Y-119025600D01*
X106000500Y-119025600D02*
X105100500Y-118525600D01*
X106000500Y-118025600D02*
X106000500Y-119025600D01*
X105100500Y-118525600D02*
X106000500Y-118025600D01*
X108200500Y-100225600D02*
X108200500Y-98725600D01*
X102800500Y-100225600D02*
X108200500Y-100225600D01*
X102800500Y-98725600D02*
X102800500Y-100225600D01*
X108200500Y-98725600D02*
X102800500Y-98725600D01*
X105000500Y-98975600D02*
X105000500Y-99975600D01*
X106000500Y-99975600D02*
X105100500Y-99475600D01*
X106000500Y-98975600D02*
X106000500Y-99975600D01*
X105100500Y-99475600D02*
X106000500Y-98975600D01*
X108391000Y-81225600D02*
X108391000Y-79725600D01*
X102991000Y-81225600D02*
X108391000Y-81225600D01*
X102991000Y-79725600D02*
X102991000Y-81225600D01*
X108391000Y-79725600D02*
X102991000Y-79725600D01*
X105191000Y-79975600D02*
X105191000Y-80975600D01*
X106191000Y-80975600D02*
X105291000Y-80475600D01*
X106191000Y-79975600D02*
X106191000Y-80975600D01*
X105291000Y-80475600D02*
X106191000Y-79975600D01*
X183836500Y-95559600D02*
X183836500Y-95309600D01*
X183836500Y-95309600D02*
X189836500Y-95309600D01*
X189836500Y-95309600D02*
X189836500Y-95559600D01*
X189836500Y-98559600D02*
X189836500Y-98809600D01*
X189836500Y-98809600D02*
X183836500Y-98809600D01*
X183836500Y-98809600D02*
X183836500Y-98559600D01*
X177612523Y-134455361D02*
X177469666Y-134502980D01*
X177231571Y-134502980D01*
X177136333Y-134455361D01*
X177088714Y-134407742D01*
X177041095Y-134312504D01*
X177041095Y-134217266D01*
X177088714Y-134122028D01*
X177136333Y-134074409D01*
X177231571Y-134026790D01*
X177422047Y-133979171D01*
X177517285Y-133931552D01*
X177564904Y-133883933D01*
X177612523Y-133788695D01*
X177612523Y-133693457D01*
X177564904Y-133598219D01*
X177517285Y-133550600D01*
X177422047Y-133502980D01*
X177183952Y-133502980D01*
X177041095Y-133550600D01*
X176707761Y-133502980D02*
X176469666Y-134502980D01*
X176279190Y-133788695D01*
X176088714Y-134502980D01*
X175850619Y-133502980D01*
X174945857Y-134502980D02*
X175517285Y-134502980D01*
X175231571Y-134502980D02*
X175231571Y-133502980D01*
X175326809Y-133645838D01*
X175422047Y-133741076D01*
X175517285Y-133788695D01*
X174374428Y-133931552D02*
X174469666Y-133883933D01*
X174517285Y-133836314D01*
X174564904Y-133741076D01*
X174564904Y-133693457D01*
X174517285Y-133598219D01*
X174469666Y-133550600D01*
X174374428Y-133502980D01*
X174183952Y-133502980D01*
X174088714Y-133550600D01*
X174041095Y-133598219D01*
X173993476Y-133693457D01*
X173993476Y-133741076D01*
X174041095Y-133836314D01*
X174088714Y-133883933D01*
X174183952Y-133931552D01*
X174374428Y-133931552D01*
X174469666Y-133979171D01*
X174517285Y-134026790D01*
X174564904Y-134122028D01*
X174564904Y-134312504D01*
X174517285Y-134407742D01*
X174469666Y-134455361D01*
X174374428Y-134502980D01*
X174183952Y-134502980D01*
X174088714Y-134455361D01*
X174041095Y-134407742D01*
X173993476Y-134312504D01*
X173993476Y-134122028D01*
X174041095Y-134026790D01*
X174088714Y-133979171D01*
X174183952Y-133931552D01*
X177612523Y-115405361D02*
X177469666Y-115452980D01*
X177231571Y-115452980D01*
X177136333Y-115405361D01*
X177088714Y-115357742D01*
X177041095Y-115262504D01*
X177041095Y-115167266D01*
X177088714Y-115072028D01*
X177136333Y-115024409D01*
X177231571Y-114976790D01*
X177422047Y-114929171D01*
X177517285Y-114881552D01*
X177564904Y-114833933D01*
X177612523Y-114738695D01*
X177612523Y-114643457D01*
X177564904Y-114548219D01*
X177517285Y-114500600D01*
X177422047Y-114452980D01*
X177183952Y-114452980D01*
X177041095Y-114500600D01*
X176707761Y-114452980D02*
X176469666Y-115452980D01*
X176279190Y-114738695D01*
X176088714Y-115452980D01*
X175850619Y-114452980D01*
X174945857Y-115452980D02*
X175517285Y-115452980D01*
X175231571Y-115452980D02*
X175231571Y-114452980D01*
X175326809Y-114595838D01*
X175422047Y-114691076D01*
X175517285Y-114738695D01*
X174612523Y-114452980D02*
X173945857Y-114452980D01*
X174374428Y-115452980D01*
X158562523Y-134455361D02*
X158419666Y-134502980D01*
X158181571Y-134502980D01*
X158086333Y-134455361D01*
X158038714Y-134407742D01*
X157991095Y-134312504D01*
X157991095Y-134217266D01*
X158038714Y-134122028D01*
X158086333Y-134074409D01*
X158181571Y-134026790D01*
X158372047Y-133979171D01*
X158467285Y-133931552D01*
X158514904Y-133883933D01*
X158562523Y-133788695D01*
X158562523Y-133693457D01*
X158514904Y-133598219D01*
X158467285Y-133550600D01*
X158372047Y-133502980D01*
X158133952Y-133502980D01*
X157991095Y-133550600D01*
X157657761Y-133502980D02*
X157419666Y-134502980D01*
X157229190Y-133788695D01*
X157038714Y-134502980D01*
X156800619Y-133502980D01*
X155895857Y-134502980D02*
X156467285Y-134502980D01*
X156181571Y-134502980D02*
X156181571Y-133502980D01*
X156276809Y-133645838D01*
X156372047Y-133741076D01*
X156467285Y-133788695D01*
X155038714Y-133502980D02*
X155229190Y-133502980D01*
X155324428Y-133550600D01*
X155372047Y-133598219D01*
X155467285Y-133741076D01*
X155514904Y-133931552D01*
X155514904Y-134312504D01*
X155467285Y-134407742D01*
X155419666Y-134455361D01*
X155324428Y-134502980D01*
X155133952Y-134502980D01*
X155038714Y-134455361D01*
X154991095Y-134407742D01*
X154943476Y-134312504D01*
X154943476Y-134074409D01*
X154991095Y-133979171D01*
X155038714Y-133931552D01*
X155133952Y-133883933D01*
X155324428Y-133883933D01*
X155419666Y-133931552D01*
X155467285Y-133979171D01*
X155514904Y-134074409D01*
X158562523Y-115405361D02*
X158419666Y-115452980D01*
X158181571Y-115452980D01*
X158086333Y-115405361D01*
X158038714Y-115357742D01*
X157991095Y-115262504D01*
X157991095Y-115167266D01*
X158038714Y-115072028D01*
X158086333Y-115024409D01*
X158181571Y-114976790D01*
X158372047Y-114929171D01*
X158467285Y-114881552D01*
X158514904Y-114833933D01*
X158562523Y-114738695D01*
X158562523Y-114643457D01*
X158514904Y-114548219D01*
X158467285Y-114500600D01*
X158372047Y-114452980D01*
X158133952Y-114452980D01*
X157991095Y-114500600D01*
X157657761Y-114452980D02*
X157419666Y-115452980D01*
X157229190Y-114738695D01*
X157038714Y-115452980D01*
X156800619Y-114452980D01*
X155895857Y-115452980D02*
X156467285Y-115452980D01*
X156181571Y-115452980D02*
X156181571Y-114452980D01*
X156276809Y-114595838D01*
X156372047Y-114691076D01*
X156467285Y-114738695D01*
X154991095Y-114452980D02*
X155467285Y-114452980D01*
X155514904Y-114929171D01*
X155467285Y-114881552D01*
X155372047Y-114833933D01*
X155133952Y-114833933D01*
X155038714Y-114881552D01*
X154991095Y-114929171D01*
X154943476Y-115024409D01*
X154943476Y-115262504D01*
X154991095Y-115357742D01*
X155038714Y-115405361D01*
X155133952Y-115452980D01*
X155372047Y-115452980D01*
X155467285Y-115405361D01*
X155514904Y-115357742D01*
X158562523Y-96355361D02*
X158419666Y-96402980D01*
X158181571Y-96402980D01*
X158086333Y-96355361D01*
X158038714Y-96307742D01*
X157991095Y-96212504D01*
X157991095Y-96117266D01*
X158038714Y-96022028D01*
X158086333Y-95974409D01*
X158181571Y-95926790D01*
X158372047Y-95879171D01*
X158467285Y-95831552D01*
X158514904Y-95783933D01*
X158562523Y-95688695D01*
X158562523Y-95593457D01*
X158514904Y-95498219D01*
X158467285Y-95450600D01*
X158372047Y-95402980D01*
X158133952Y-95402980D01*
X157991095Y-95450600D01*
X157657761Y-95402980D02*
X157419666Y-96402980D01*
X157229190Y-95688695D01*
X157038714Y-96402980D01*
X156800619Y-95402980D01*
X155895857Y-96402980D02*
X156467285Y-96402980D01*
X156181571Y-96402980D02*
X156181571Y-95402980D01*
X156276809Y-95545838D01*
X156372047Y-95641076D01*
X156467285Y-95688695D01*
X155038714Y-95736314D02*
X155038714Y-96402980D01*
X155276809Y-95355361D02*
X155514904Y-96069647D01*
X154895857Y-96069647D01*
X158562523Y-77305361D02*
X158419666Y-77352980D01*
X158181571Y-77352980D01*
X158086333Y-77305361D01*
X158038714Y-77257742D01*
X157991095Y-77162504D01*
X157991095Y-77067266D01*
X158038714Y-76972028D01*
X158086333Y-76924409D01*
X158181571Y-76876790D01*
X158372047Y-76829171D01*
X158467285Y-76781552D01*
X158514904Y-76733933D01*
X158562523Y-76638695D01*
X158562523Y-76543457D01*
X158514904Y-76448219D01*
X158467285Y-76400600D01*
X158372047Y-76352980D01*
X158133952Y-76352980D01*
X157991095Y-76400600D01*
X157657761Y-76352980D02*
X157419666Y-77352980D01*
X157229190Y-76638695D01*
X157038714Y-77352980D01*
X156800619Y-76352980D01*
X155895857Y-77352980D02*
X156467285Y-77352980D01*
X156181571Y-77352980D02*
X156181571Y-76352980D01*
X156276809Y-76495838D01*
X156372047Y-76591076D01*
X156467285Y-76638695D01*
X155562523Y-76352980D02*
X154943476Y-76352980D01*
X155276809Y-76733933D01*
X155133952Y-76733933D01*
X155038714Y-76781552D01*
X154991095Y-76829171D01*
X154943476Y-76924409D01*
X154943476Y-77162504D01*
X154991095Y-77257742D01*
X155038714Y-77305361D01*
X155133952Y-77352980D01*
X155419666Y-77352980D01*
X155514904Y-77305361D01*
X155562523Y-77257742D01*
X139512523Y-134455361D02*
X139369666Y-134502980D01*
X139131571Y-134502980D01*
X139036333Y-134455361D01*
X138988714Y-134407742D01*
X138941095Y-134312504D01*
X138941095Y-134217266D01*
X138988714Y-134122028D01*
X139036333Y-134074409D01*
X139131571Y-134026790D01*
X139322047Y-133979171D01*
X139417285Y-133931552D01*
X139464904Y-133883933D01*
X139512523Y-133788695D01*
X139512523Y-133693457D01*
X139464904Y-133598219D01*
X139417285Y-133550600D01*
X139322047Y-133502980D01*
X139083952Y-133502980D01*
X138941095Y-133550600D01*
X138607761Y-133502980D02*
X138369666Y-134502980D01*
X138179190Y-133788695D01*
X137988714Y-134502980D01*
X137750619Y-133502980D01*
X136845857Y-134502980D02*
X137417285Y-134502980D01*
X137131571Y-134502980D02*
X137131571Y-133502980D01*
X137226809Y-133645838D01*
X137322047Y-133741076D01*
X137417285Y-133788695D01*
X136464904Y-133598219D02*
X136417285Y-133550600D01*
X136322047Y-133502980D01*
X136083952Y-133502980D01*
X135988714Y-133550600D01*
X135941095Y-133598219D01*
X135893476Y-133693457D01*
X135893476Y-133788695D01*
X135941095Y-133931552D01*
X136512523Y-134502980D01*
X135893476Y-134502980D01*
X139512523Y-115405361D02*
X139369666Y-115452980D01*
X139131571Y-115452980D01*
X139036333Y-115405361D01*
X138988714Y-115357742D01*
X138941095Y-115262504D01*
X138941095Y-115167266D01*
X138988714Y-115072028D01*
X139036333Y-115024409D01*
X139131571Y-114976790D01*
X139322047Y-114929171D01*
X139417285Y-114881552D01*
X139464904Y-114833933D01*
X139512523Y-114738695D01*
X139512523Y-114643457D01*
X139464904Y-114548219D01*
X139417285Y-114500600D01*
X139322047Y-114452980D01*
X139083952Y-114452980D01*
X138941095Y-114500600D01*
X138607761Y-114452980D02*
X138369666Y-115452980D01*
X138179190Y-114738695D01*
X137988714Y-115452980D01*
X137750619Y-114452980D01*
X136845857Y-115452980D02*
X137417285Y-115452980D01*
X137131571Y-115452980D02*
X137131571Y-114452980D01*
X137226809Y-114595838D01*
X137322047Y-114691076D01*
X137417285Y-114738695D01*
X135893476Y-115452980D02*
X136464904Y-115452980D01*
X136179190Y-115452980D02*
X136179190Y-114452980D01*
X136274428Y-114595838D01*
X136369666Y-114691076D01*
X136464904Y-114738695D01*
X139512523Y-96355361D02*
X139369666Y-96402980D01*
X139131571Y-96402980D01*
X139036333Y-96355361D01*
X138988714Y-96307742D01*
X138941095Y-96212504D01*
X138941095Y-96117266D01*
X138988714Y-96022028D01*
X139036333Y-95974409D01*
X139131571Y-95926790D01*
X139322047Y-95879171D01*
X139417285Y-95831552D01*
X139464904Y-95783933D01*
X139512523Y-95688695D01*
X139512523Y-95593457D01*
X139464904Y-95498219D01*
X139417285Y-95450600D01*
X139322047Y-95402980D01*
X139083952Y-95402980D01*
X138941095Y-95450600D01*
X138607761Y-95402980D02*
X138369666Y-96402980D01*
X138179190Y-95688695D01*
X137988714Y-96402980D01*
X137750619Y-95402980D01*
X136845857Y-96402980D02*
X137417285Y-96402980D01*
X137131571Y-96402980D02*
X137131571Y-95402980D01*
X137226809Y-95545838D01*
X137322047Y-95641076D01*
X137417285Y-95688695D01*
X136226809Y-95402980D02*
X136131571Y-95402980D01*
X136036333Y-95450600D01*
X135988714Y-95498219D01*
X135941095Y-95593457D01*
X135893476Y-95783933D01*
X135893476Y-96022028D01*
X135941095Y-96212504D01*
X135988714Y-96307742D01*
X136036333Y-96355361D01*
X136131571Y-96402980D01*
X136226809Y-96402980D01*
X136322047Y-96355361D01*
X136369666Y-96307742D01*
X136417285Y-96212504D01*
X136464904Y-96022028D01*
X136464904Y-95783933D01*
X136417285Y-95593457D01*
X136369666Y-95498219D01*
X136322047Y-95450600D01*
X136226809Y-95402980D01*
X139512523Y-77305361D02*
X139369666Y-77352980D01*
X139131571Y-77352980D01*
X139036333Y-77305361D01*
X138988714Y-77257742D01*
X138941095Y-77162504D01*
X138941095Y-77067266D01*
X138988714Y-76972028D01*
X139036333Y-76924409D01*
X139131571Y-76876790D01*
X139322047Y-76829171D01*
X139417285Y-76781552D01*
X139464904Y-76733933D01*
X139512523Y-76638695D01*
X139512523Y-76543457D01*
X139464904Y-76448219D01*
X139417285Y-76400600D01*
X139322047Y-76352980D01*
X139083952Y-76352980D01*
X138941095Y-76400600D01*
X138607761Y-76352980D02*
X138369666Y-77352980D01*
X138179190Y-76638695D01*
X137988714Y-77352980D01*
X137750619Y-76352980D01*
X137322047Y-77352980D02*
X137131571Y-77352980D01*
X137036333Y-77305361D01*
X136988714Y-77257742D01*
X136893476Y-77114885D01*
X136845857Y-76924409D01*
X136845857Y-76543457D01*
X136893476Y-76448219D01*
X136941095Y-76400600D01*
X137036333Y-76352980D01*
X137226809Y-76352980D01*
X137322047Y-76400600D01*
X137369666Y-76448219D01*
X137417285Y-76543457D01*
X137417285Y-76781552D01*
X137369666Y-76876790D01*
X137322047Y-76924409D01*
X137226809Y-76972028D01*
X137036333Y-76972028D01*
X136941095Y-76924409D01*
X136893476Y-76876790D01*
X136845857Y-76781552D01*
X120462523Y-134455361D02*
X120319666Y-134502980D01*
X120081571Y-134502980D01*
X119986333Y-134455361D01*
X119938714Y-134407742D01*
X119891095Y-134312504D01*
X119891095Y-134217266D01*
X119938714Y-134122028D01*
X119986333Y-134074409D01*
X120081571Y-134026790D01*
X120272047Y-133979171D01*
X120367285Y-133931552D01*
X120414904Y-133883933D01*
X120462523Y-133788695D01*
X120462523Y-133693457D01*
X120414904Y-133598219D01*
X120367285Y-133550600D01*
X120272047Y-133502980D01*
X120033952Y-133502980D01*
X119891095Y-133550600D01*
X119557761Y-133502980D02*
X119319666Y-134502980D01*
X119129190Y-133788695D01*
X118938714Y-134502980D01*
X118700619Y-133502980D01*
X118176809Y-133931552D02*
X118272047Y-133883933D01*
X118319666Y-133836314D01*
X118367285Y-133741076D01*
X118367285Y-133693457D01*
X118319666Y-133598219D01*
X118272047Y-133550600D01*
X118176809Y-133502980D01*
X117986333Y-133502980D01*
X117891095Y-133550600D01*
X117843476Y-133598219D01*
X117795857Y-133693457D01*
X117795857Y-133741076D01*
X117843476Y-133836314D01*
X117891095Y-133883933D01*
X117986333Y-133931552D01*
X118176809Y-133931552D01*
X118272047Y-133979171D01*
X118319666Y-134026790D01*
X118367285Y-134122028D01*
X118367285Y-134312504D01*
X118319666Y-134407742D01*
X118272047Y-134455361D01*
X118176809Y-134502980D01*
X117986333Y-134502980D01*
X117891095Y-134455361D01*
X117843476Y-134407742D01*
X117795857Y-134312504D01*
X117795857Y-134122028D01*
X117843476Y-134026790D01*
X117891095Y-133979171D01*
X117986333Y-133931552D01*
X120462523Y-115405361D02*
X120319666Y-115452980D01*
X120081571Y-115452980D01*
X119986333Y-115405361D01*
X119938714Y-115357742D01*
X119891095Y-115262504D01*
X119891095Y-115167266D01*
X119938714Y-115072028D01*
X119986333Y-115024409D01*
X120081571Y-114976790D01*
X120272047Y-114929171D01*
X120367285Y-114881552D01*
X120414904Y-114833933D01*
X120462523Y-114738695D01*
X120462523Y-114643457D01*
X120414904Y-114548219D01*
X120367285Y-114500600D01*
X120272047Y-114452980D01*
X120033952Y-114452980D01*
X119891095Y-114500600D01*
X119557761Y-114452980D02*
X119319666Y-115452980D01*
X119129190Y-114738695D01*
X118938714Y-115452980D01*
X118700619Y-114452980D01*
X118414904Y-114452980D02*
X117748238Y-114452980D01*
X118176809Y-115452980D01*
X120462523Y-96355361D02*
X120319666Y-96402980D01*
X120081571Y-96402980D01*
X119986333Y-96355361D01*
X119938714Y-96307742D01*
X119891095Y-96212504D01*
X119891095Y-96117266D01*
X119938714Y-96022028D01*
X119986333Y-95974409D01*
X120081571Y-95926790D01*
X120272047Y-95879171D01*
X120367285Y-95831552D01*
X120414904Y-95783933D01*
X120462523Y-95688695D01*
X120462523Y-95593457D01*
X120414904Y-95498219D01*
X120367285Y-95450600D01*
X120272047Y-95402980D01*
X120033952Y-95402980D01*
X119891095Y-95450600D01*
X119557761Y-95402980D02*
X119319666Y-96402980D01*
X119129190Y-95688695D01*
X118938714Y-96402980D01*
X118700619Y-95402980D01*
X117891095Y-95402980D02*
X118081571Y-95402980D01*
X118176809Y-95450600D01*
X118224428Y-95498219D01*
X118319666Y-95641076D01*
X118367285Y-95831552D01*
X118367285Y-96212504D01*
X118319666Y-96307742D01*
X118272047Y-96355361D01*
X118176809Y-96402980D01*
X117986333Y-96402980D01*
X117891095Y-96355361D01*
X117843476Y-96307742D01*
X117795857Y-96212504D01*
X117795857Y-95974409D01*
X117843476Y-95879171D01*
X117891095Y-95831552D01*
X117986333Y-95783933D01*
X118176809Y-95783933D01*
X118272047Y-95831552D01*
X118319666Y-95879171D01*
X118367285Y-95974409D01*
X120462523Y-77305361D02*
X120319666Y-77352980D01*
X120081571Y-77352980D01*
X119986333Y-77305361D01*
X119938714Y-77257742D01*
X119891095Y-77162504D01*
X119891095Y-77067266D01*
X119938714Y-76972028D01*
X119986333Y-76924409D01*
X120081571Y-76876790D01*
X120272047Y-76829171D01*
X120367285Y-76781552D01*
X120414904Y-76733933D01*
X120462523Y-76638695D01*
X120462523Y-76543457D01*
X120414904Y-76448219D01*
X120367285Y-76400600D01*
X120272047Y-76352980D01*
X120033952Y-76352980D01*
X119891095Y-76400600D01*
X119557761Y-76352980D02*
X119319666Y-77352980D01*
X119129190Y-76638695D01*
X118938714Y-77352980D01*
X118700619Y-76352980D01*
X117843476Y-76352980D02*
X118319666Y-76352980D01*
X118367285Y-76829171D01*
X118319666Y-76781552D01*
X118224428Y-76733933D01*
X117986333Y-76733933D01*
X117891095Y-76781552D01*
X117843476Y-76829171D01*
X117795857Y-76924409D01*
X117795857Y-77162504D01*
X117843476Y-77257742D01*
X117891095Y-77305361D01*
X117986333Y-77352980D01*
X118224428Y-77352980D01*
X118319666Y-77305361D01*
X118367285Y-77257742D01*
X101412523Y-134455361D02*
X101269666Y-134502980D01*
X101031571Y-134502980D01*
X100936333Y-134455361D01*
X100888714Y-134407742D01*
X100841095Y-134312504D01*
X100841095Y-134217266D01*
X100888714Y-134122028D01*
X100936333Y-134074409D01*
X101031571Y-134026790D01*
X101222047Y-133979171D01*
X101317285Y-133931552D01*
X101364904Y-133883933D01*
X101412523Y-133788695D01*
X101412523Y-133693457D01*
X101364904Y-133598219D01*
X101317285Y-133550600D01*
X101222047Y-133502980D01*
X100983952Y-133502980D01*
X100841095Y-133550600D01*
X100507761Y-133502980D02*
X100269666Y-134502980D01*
X100079190Y-133788695D01*
X99888714Y-134502980D01*
X99650619Y-133502980D01*
X98841095Y-133836314D02*
X98841095Y-134502980D01*
X99079190Y-133455361D02*
X99317285Y-134169647D01*
X98698238Y-134169647D01*
X101412523Y-115405361D02*
X101269666Y-115452980D01*
X101031571Y-115452980D01*
X100936333Y-115405361D01*
X100888714Y-115357742D01*
X100841095Y-115262504D01*
X100841095Y-115167266D01*
X100888714Y-115072028D01*
X100936333Y-115024409D01*
X101031571Y-114976790D01*
X101222047Y-114929171D01*
X101317285Y-114881552D01*
X101364904Y-114833933D01*
X101412523Y-114738695D01*
X101412523Y-114643457D01*
X101364904Y-114548219D01*
X101317285Y-114500600D01*
X101222047Y-114452980D01*
X100983952Y-114452980D01*
X100841095Y-114500600D01*
X100507761Y-114452980D02*
X100269666Y-115452980D01*
X100079190Y-114738695D01*
X99888714Y-115452980D01*
X99650619Y-114452980D01*
X99364904Y-114452980D02*
X98745857Y-114452980D01*
X99079190Y-114833933D01*
X98936333Y-114833933D01*
X98841095Y-114881552D01*
X98793476Y-114929171D01*
X98745857Y-115024409D01*
X98745857Y-115262504D01*
X98793476Y-115357742D01*
X98841095Y-115405361D01*
X98936333Y-115452980D01*
X99222047Y-115452980D01*
X99317285Y-115405361D01*
X99364904Y-115357742D01*
X101412523Y-96355361D02*
X101269666Y-96402980D01*
X101031571Y-96402980D01*
X100936333Y-96355361D01*
X100888714Y-96307742D01*
X100841095Y-96212504D01*
X100841095Y-96117266D01*
X100888714Y-96022028D01*
X100936333Y-95974409D01*
X101031571Y-95926790D01*
X101222047Y-95879171D01*
X101317285Y-95831552D01*
X101364904Y-95783933D01*
X101412523Y-95688695D01*
X101412523Y-95593457D01*
X101364904Y-95498219D01*
X101317285Y-95450600D01*
X101222047Y-95402980D01*
X100983952Y-95402980D01*
X100841095Y-95450600D01*
X100507761Y-95402980D02*
X100269666Y-96402980D01*
X100079190Y-95688695D01*
X99888714Y-96402980D01*
X99650619Y-95402980D01*
X99317285Y-95498219D02*
X99269666Y-95450600D01*
X99174428Y-95402980D01*
X98936333Y-95402980D01*
X98841095Y-95450600D01*
X98793476Y-95498219D01*
X98745857Y-95593457D01*
X98745857Y-95688695D01*
X98793476Y-95831552D01*
X99364904Y-96402980D01*
X98745857Y-96402980D01*
X101412523Y-77305361D02*
X101269666Y-77352980D01*
X101031571Y-77352980D01*
X100936333Y-77305361D01*
X100888714Y-77257742D01*
X100841095Y-77162504D01*
X100841095Y-77067266D01*
X100888714Y-76972028D01*
X100936333Y-76924409D01*
X101031571Y-76876790D01*
X101222047Y-76829171D01*
X101317285Y-76781552D01*
X101364904Y-76733933D01*
X101412523Y-76638695D01*
X101412523Y-76543457D01*
X101364904Y-76448219D01*
X101317285Y-76400600D01*
X101222047Y-76352980D01*
X100983952Y-76352980D01*
X100841095Y-76400600D01*
X100507761Y-76352980D02*
X100269666Y-77352980D01*
X100079190Y-76638695D01*
X99888714Y-77352980D01*
X99650619Y-76352980D01*
X98745857Y-77352980D02*
X99317285Y-77352980D01*
X99031571Y-77352980D02*
X99031571Y-76352980D01*
X99126809Y-76495838D01*
X99222047Y-76591076D01*
X99317285Y-76638695D01*
D10*
X172143921Y-64594085D02*
X171715350Y-64594085D01*
X171929635Y-65344085D02*
X171929635Y-64594085D01*
X171536778Y-64594085D02*
X171036778Y-65344085D01*
X171036778Y-64594085D02*
X171536778Y-65344085D01*
X170608207Y-64594085D02*
X170536778Y-64594085D01*
X170465350Y-64629800D01*
X170429635Y-64665514D01*
X170393921Y-64736942D01*
X170358207Y-64879800D01*
X170358207Y-65058371D01*
X170393921Y-65201228D01*
X170429635Y-65272657D01*
X170465350Y-65308371D01*
X170536778Y-65344085D01*
X170608207Y-65344085D01*
X170679635Y-65308371D01*
X170715350Y-65272657D01*
X170751064Y-65201228D01*
X170786778Y-65058371D01*
X170786778Y-64879800D01*
X170751064Y-64736942D01*
X170715350Y-64665514D01*
X170679635Y-64629800D01*
X170608207Y-64594085D01*
X171606078Y-94068028D02*
X171498935Y-94103742D01*
X171463221Y-94139457D01*
X171427507Y-94210885D01*
X171427507Y-94318028D01*
X171463221Y-94389457D01*
X171498935Y-94425171D01*
X171570364Y-94460885D01*
X171856078Y-94460885D01*
X171856078Y-93710885D01*
X171606078Y-93710885D01*
X171534650Y-93746600D01*
X171498935Y-93782314D01*
X171463221Y-93853742D01*
X171463221Y-93925171D01*
X171498935Y-93996600D01*
X171534650Y-94032314D01*
X171606078Y-94068028D01*
X171856078Y-94068028D01*
X170748935Y-93710885D02*
X171106078Y-93710885D01*
X171141792Y-94068028D01*
X171106078Y-94032314D01*
X171034650Y-93996600D01*
X170856078Y-93996600D01*
X170784650Y-94032314D01*
X170748935Y-94068028D01*
X170713221Y-94139457D01*
X170713221Y-94318028D01*
X170748935Y-94389457D01*
X170784650Y-94425171D01*
X170856078Y-94460885D01*
X171034650Y-94460885D01*
X171106078Y-94425171D01*
X171141792Y-94389457D01*
X169856078Y-93675171D02*
X170498935Y-94639457D01*
X169570364Y-94460885D02*
X169427507Y-94460885D01*
X169356078Y-94425171D01*
X169320364Y-94389457D01*
X169248935Y-94282314D01*
X169213221Y-94139457D01*
X169213221Y-93853742D01*
X169248935Y-93782314D01*
X169284650Y-93746600D01*
X169356078Y-93710885D01*
X169498935Y-93710885D01*
X169570364Y-93746600D01*
X169606078Y-93782314D01*
X169641792Y-93853742D01*
X169641792Y-94032314D01*
X169606078Y-94103742D01*
X169570364Y-94139457D01*
X169498935Y-94175171D01*
X169356078Y-94175171D01*
X169284650Y-94139457D01*
X169248935Y-94103742D01*
X169213221Y-94032314D01*
X177361035Y-70116500D02*
X177432464Y-70080785D01*
X177539607Y-70080785D01*
X177646750Y-70116500D01*
X177718178Y-70187928D01*
X177753892Y-70259357D01*
X177789607Y-70402214D01*
X177789607Y-70509357D01*
X177753892Y-70652214D01*
X177718178Y-70723642D01*
X177646750Y-70795071D01*
X177539607Y-70830785D01*
X177468178Y-70830785D01*
X177361035Y-70795071D01*
X177325321Y-70759357D01*
X177325321Y-70509357D01*
X177468178Y-70509357D01*
X177003892Y-70830785D02*
X177003892Y-70080785D01*
X176575321Y-70830785D01*
X176575321Y-70080785D01*
X176218178Y-70830785D02*
X176218178Y-70080785D01*
X176039607Y-70080785D01*
X175932464Y-70116500D01*
X175861035Y-70187928D01*
X175825321Y-70259357D01*
X175789607Y-70402214D01*
X175789607Y-70509357D01*
X175825321Y-70652214D01*
X175861035Y-70723642D01*
X175932464Y-70795071D01*
X176039607Y-70830785D01*
X176218178Y-70830785D01*
X181325321Y-78351571D02*
X181218178Y-78387285D01*
X181039607Y-78387285D01*
X180968178Y-78351571D01*
X180932464Y-78315857D01*
X180896750Y-78244428D01*
X180896750Y-78173000D01*
X180932464Y-78101571D01*
X180968178Y-78065857D01*
X181039607Y-78030142D01*
X181182464Y-77994428D01*
X181253892Y-77958714D01*
X181289607Y-77923000D01*
X181325321Y-77851571D01*
X181325321Y-77780142D01*
X181289607Y-77708714D01*
X181253892Y-77673000D01*
X181182464Y-77637285D01*
X181003892Y-77637285D01*
X180896750Y-77673000D01*
X180146750Y-78315857D02*
X180182464Y-78351571D01*
X180289607Y-78387285D01*
X180361035Y-78387285D01*
X180468178Y-78351571D01*
X180539607Y-78280142D01*
X180575321Y-78208714D01*
X180611035Y-78065857D01*
X180611035Y-77958714D01*
X180575321Y-77815857D01*
X180539607Y-77744428D01*
X180468178Y-77673000D01*
X180361035Y-77637285D01*
X180289607Y-77637285D01*
X180182464Y-77673000D01*
X180146750Y-77708714D01*
X179468178Y-78387285D02*
X179825321Y-78387285D01*
X179825321Y-77637285D01*
X178682464Y-77601571D02*
X179325321Y-78565857D01*
X178432464Y-78387285D02*
X178432464Y-77637285D01*
X178253892Y-77637285D01*
X178146750Y-77673000D01*
X178075321Y-77744428D01*
X178039607Y-77815857D01*
X178003892Y-77958714D01*
X178003892Y-78065857D01*
X178039607Y-78208714D01*
X178075321Y-78280142D01*
X178146750Y-78351571D01*
X178253892Y-78387285D01*
X178432464Y-78387285D01*
X177539607Y-77637285D02*
X177468178Y-77637285D01*
X177396750Y-77673000D01*
X177361035Y-77708714D01*
X177325321Y-77780142D01*
X177289607Y-77923000D01*
X177289607Y-78101571D01*
X177325321Y-78244428D01*
X177361035Y-78315857D01*
X177396750Y-78351571D01*
X177468178Y-78387285D01*
X177539607Y-78387285D01*
X177611035Y-78351571D01*
X177646750Y-78315857D01*
X177682464Y-78244428D01*
X177718178Y-78101571D01*
X177718178Y-77923000D01*
X177682464Y-77780142D01*
X177646750Y-77708714D01*
X177611035Y-77673000D01*
X177539607Y-77637285D01*
X176432464Y-77601571D02*
X177075321Y-78565857D01*
X176253892Y-77637285D02*
X175789607Y-77637285D01*
X176039607Y-77923000D01*
X175932464Y-77923000D01*
X175861035Y-77958714D01*
X175825321Y-77994428D01*
X175789607Y-78065857D01*
X175789607Y-78244428D01*
X175825321Y-78315857D01*
X175861035Y-78351571D01*
X175932464Y-78387285D01*
X176146750Y-78387285D01*
X176218178Y-78351571D01*
X176253892Y-78315857D01*
X178323535Y-88217928D02*
X178073535Y-88217928D01*
X177966392Y-88610785D02*
X178323535Y-88610785D01*
X178323535Y-87860785D01*
X177966392Y-87860785D01*
X177323535Y-87860785D02*
X177466392Y-87860785D01*
X177537821Y-87896500D01*
X177573535Y-87932214D01*
X177644964Y-88039357D01*
X177680678Y-88182214D01*
X177680678Y-88467928D01*
X177644964Y-88539357D01*
X177609249Y-88575071D01*
X177537821Y-88610785D01*
X177394964Y-88610785D01*
X177323535Y-88575071D01*
X177287821Y-88539357D01*
X177252107Y-88467928D01*
X177252107Y-88289357D01*
X177287821Y-88217928D01*
X177323535Y-88182214D01*
X177394964Y-88146500D01*
X177537821Y-88146500D01*
X177609249Y-88182214D01*
X177644964Y-88217928D01*
X177680678Y-88289357D01*
X176394964Y-87825071D02*
X177037821Y-88789357D01*
X176216392Y-87860785D02*
X175716392Y-87860785D01*
X176037821Y-88610785D01*
X177361035Y-72656500D02*
X177432464Y-72620785D01*
X177539607Y-72620785D01*
X177646750Y-72656500D01*
X177718178Y-72727928D01*
X177753892Y-72799357D01*
X177789607Y-72942214D01*
X177789607Y-73049357D01*
X177753892Y-73192214D01*
X177718178Y-73263642D01*
X177646750Y-73335071D01*
X177539607Y-73370785D01*
X177468178Y-73370785D01*
X177361035Y-73335071D01*
X177325321Y-73299357D01*
X177325321Y-73049357D01*
X177468178Y-73049357D01*
X177003892Y-73370785D02*
X177003892Y-72620785D01*
X176575321Y-73370785D01*
X176575321Y-72620785D01*
X176218178Y-73370785D02*
X176218178Y-72620785D01*
X176039607Y-72620785D01*
X175932464Y-72656500D01*
X175861035Y-72727928D01*
X175825321Y-72799357D01*
X175789607Y-72942214D01*
X175789607Y-73049357D01*
X175825321Y-73192214D01*
X175861035Y-73263642D01*
X175932464Y-73335071D01*
X176039607Y-73370785D01*
X176218178Y-73370785D01*
X179896750Y-68215285D02*
X179896750Y-67465285D01*
X179718178Y-67465285D01*
X179611035Y-67501000D01*
X179539607Y-67572428D01*
X179503892Y-67643857D01*
X179468178Y-67786714D01*
X179468178Y-67893857D01*
X179503892Y-68036714D01*
X179539607Y-68108142D01*
X179611035Y-68179571D01*
X179718178Y-68215285D01*
X179896750Y-68215285D01*
X179182464Y-67536714D02*
X179146750Y-67501000D01*
X179075321Y-67465285D01*
X178896750Y-67465285D01*
X178825321Y-67501000D01*
X178789607Y-67536714D01*
X178753892Y-67608142D01*
X178753892Y-67679571D01*
X178789607Y-67786714D01*
X179218178Y-68215285D01*
X178753892Y-68215285D01*
X177896750Y-67429571D02*
X178539607Y-68393857D01*
X177218178Y-68215285D02*
X177468178Y-67858142D01*
X177646750Y-68215285D02*
X177646750Y-67465285D01*
X177361035Y-67465285D01*
X177289607Y-67501000D01*
X177253892Y-67536714D01*
X177218178Y-67608142D01*
X177218178Y-67715285D01*
X177253892Y-67786714D01*
X177289607Y-67822428D01*
X177361035Y-67858142D01*
X177646750Y-67858142D01*
X176968178Y-67465285D02*
X176468178Y-68215285D01*
X176468178Y-67465285D02*
X176968178Y-68215285D01*
X175789607Y-68215285D02*
X176218178Y-68215285D01*
X176003892Y-68215285D02*
X176003892Y-67465285D01*
X176075321Y-67572428D01*
X176146750Y-67643857D01*
X176218178Y-67679571D01*
X178144964Y-90694428D02*
X178037821Y-90730142D01*
X178002107Y-90765857D01*
X177966393Y-90837285D01*
X177966393Y-90944428D01*
X178002107Y-91015857D01*
X178037821Y-91051571D01*
X178109250Y-91087285D01*
X178394964Y-91087285D01*
X178394964Y-90337285D01*
X178144964Y-90337285D01*
X178073536Y-90373000D01*
X178037821Y-90408714D01*
X178002107Y-90480142D01*
X178002107Y-90551571D01*
X178037821Y-90623000D01*
X178073536Y-90658714D01*
X178144964Y-90694428D01*
X178394964Y-90694428D01*
X177323536Y-90587285D02*
X177323536Y-91087285D01*
X177502107Y-90301571D02*
X177680678Y-90837285D01*
X177216393Y-90837285D01*
X176394964Y-90301571D02*
X177037821Y-91265857D01*
X176037821Y-90658714D02*
X176109250Y-90623000D01*
X176144964Y-90587285D01*
X176180678Y-90515857D01*
X176180678Y-90480142D01*
X176144964Y-90408714D01*
X176109250Y-90373000D01*
X176037821Y-90337285D01*
X175894964Y-90337285D01*
X175823536Y-90373000D01*
X175787821Y-90408714D01*
X175752107Y-90480142D01*
X175752107Y-90515857D01*
X175787821Y-90587285D01*
X175823536Y-90623000D01*
X175894964Y-90658714D01*
X176037821Y-90658714D01*
X176109250Y-90694428D01*
X176144964Y-90730142D01*
X176180678Y-90801571D01*
X176180678Y-90944428D01*
X176144964Y-91015857D01*
X176109250Y-91051571D01*
X176037821Y-91087285D01*
X175894964Y-91087285D01*
X175823536Y-91051571D01*
X175787821Y-91015857D01*
X175752107Y-90944428D01*
X175752107Y-90801571D01*
X175787821Y-90730142D01*
X175823536Y-90694428D01*
X175894964Y-90658714D01*
X181361035Y-75811571D02*
X181253892Y-75847285D01*
X181075321Y-75847285D01*
X181003892Y-75811571D01*
X180968178Y-75775857D01*
X180932464Y-75704428D01*
X180932464Y-75633000D01*
X180968178Y-75561571D01*
X181003892Y-75525857D01*
X181075321Y-75490142D01*
X181218178Y-75454428D01*
X181289607Y-75418714D01*
X181325321Y-75383000D01*
X181361035Y-75311571D01*
X181361035Y-75240142D01*
X181325321Y-75168714D01*
X181289607Y-75133000D01*
X181218178Y-75097285D01*
X181039607Y-75097285D01*
X180932464Y-75133000D01*
X180611035Y-75847285D02*
X180611035Y-75097285D01*
X180432464Y-75097285D01*
X180325321Y-75133000D01*
X180253892Y-75204428D01*
X180218178Y-75275857D01*
X180182464Y-75418714D01*
X180182464Y-75525857D01*
X180218178Y-75668714D01*
X180253892Y-75740142D01*
X180325321Y-75811571D01*
X180432464Y-75847285D01*
X180611035Y-75847285D01*
X179896750Y-75633000D02*
X179539607Y-75633000D01*
X179968178Y-75847285D02*
X179718178Y-75097285D01*
X179468178Y-75847285D01*
X178682464Y-75061571D02*
X179325321Y-76025857D01*
X178432464Y-75847285D02*
X178432464Y-75097285D01*
X178253892Y-75097285D01*
X178146750Y-75133000D01*
X178075321Y-75204428D01*
X178039607Y-75275857D01*
X178003892Y-75418714D01*
X178003892Y-75525857D01*
X178039607Y-75668714D01*
X178075321Y-75740142D01*
X178146750Y-75811571D01*
X178253892Y-75847285D01*
X178432464Y-75847285D01*
X177289607Y-75847285D02*
X177718178Y-75847285D01*
X177503892Y-75847285D02*
X177503892Y-75097285D01*
X177575321Y-75204428D01*
X177646750Y-75275857D01*
X177718178Y-75311571D01*
X176432464Y-75061571D02*
X177075321Y-76025857D01*
X176218178Y-75168714D02*
X176182464Y-75133000D01*
X176111035Y-75097285D01*
X175932464Y-75097285D01*
X175861035Y-75133000D01*
X175825321Y-75168714D01*
X175789607Y-75240142D01*
X175789607Y-75311571D01*
X175825321Y-75418714D01*
X176253892Y-75847285D01*
X175789607Y-75847285D01*
X178394964Y-80965285D02*
X178394964Y-80215285D01*
X178216393Y-80215285D01*
X178109250Y-80251000D01*
X178037821Y-80322428D01*
X178002107Y-80393857D01*
X177966393Y-80536714D01*
X177966393Y-80643857D01*
X178002107Y-80786714D01*
X178037821Y-80858142D01*
X178109250Y-80929571D01*
X178216393Y-80965285D01*
X178394964Y-80965285D01*
X177323536Y-80465285D02*
X177323536Y-80965285D01*
X177502107Y-80179571D02*
X177680678Y-80715285D01*
X177216393Y-80715285D01*
X176394964Y-80179571D02*
X177037821Y-81143857D01*
X175823536Y-80465285D02*
X175823536Y-80965285D01*
X176002107Y-80179571D02*
X176180678Y-80715285D01*
X175716393Y-80715285D01*
X177966393Y-83395857D02*
X178002107Y-83431571D01*
X178109250Y-83467285D01*
X178180678Y-83467285D01*
X178287821Y-83431571D01*
X178359250Y-83360142D01*
X178394964Y-83288714D01*
X178430678Y-83145857D01*
X178430678Y-83038714D01*
X178394964Y-82895857D01*
X178359250Y-82824428D01*
X178287821Y-82753000D01*
X178180678Y-82717285D01*
X178109250Y-82717285D01*
X178002107Y-82753000D01*
X177966393Y-82788714D01*
X177323536Y-82717285D02*
X177466393Y-82717285D01*
X177537821Y-82753000D01*
X177573536Y-82788714D01*
X177644964Y-82895857D01*
X177680678Y-83038714D01*
X177680678Y-83324428D01*
X177644964Y-83395857D01*
X177609250Y-83431571D01*
X177537821Y-83467285D01*
X177394964Y-83467285D01*
X177323536Y-83431571D01*
X177287821Y-83395857D01*
X177252107Y-83324428D01*
X177252107Y-83145857D01*
X177287821Y-83074428D01*
X177323536Y-83038714D01*
X177394964Y-83003000D01*
X177537821Y-83003000D01*
X177609250Y-83038714D01*
X177644964Y-83074428D01*
X177680678Y-83145857D01*
X176394964Y-82681571D02*
X177037821Y-83645857D01*
X175787821Y-82717285D02*
X176144964Y-82717285D01*
X176180678Y-83074428D01*
X176144964Y-83038714D01*
X176073536Y-83003000D01*
X175894964Y-83003000D01*
X175823536Y-83038714D01*
X175787821Y-83074428D01*
X175752107Y-83145857D01*
X175752107Y-83324428D01*
X175787821Y-83395857D01*
X175823536Y-83431571D01*
X175894964Y-83467285D01*
X176073536Y-83467285D01*
X176144964Y-83431571D01*
X176180678Y-83395857D01*
X178144964Y-93297928D02*
X178037821Y-93333642D01*
X178002107Y-93369357D01*
X177966393Y-93440785D01*
X177966393Y-93547928D01*
X178002107Y-93619357D01*
X178037821Y-93655071D01*
X178109250Y-93690785D01*
X178394964Y-93690785D01*
X178394964Y-92940785D01*
X178144964Y-92940785D01*
X178073536Y-92976500D01*
X178037821Y-93012214D01*
X178002107Y-93083642D01*
X178002107Y-93155071D01*
X178037821Y-93226500D01*
X178073536Y-93262214D01*
X178144964Y-93297928D01*
X178394964Y-93297928D01*
X177287821Y-92940785D02*
X177644964Y-92940785D01*
X177680678Y-93297928D01*
X177644964Y-93262214D01*
X177573536Y-93226500D01*
X177394964Y-93226500D01*
X177323536Y-93262214D01*
X177287821Y-93297928D01*
X177252107Y-93369357D01*
X177252107Y-93547928D01*
X177287821Y-93619357D01*
X177323536Y-93655071D01*
X177394964Y-93690785D01*
X177573536Y-93690785D01*
X177644964Y-93655071D01*
X177680678Y-93619357D01*
X176394964Y-92905071D02*
X177037821Y-93869357D01*
X176109250Y-93690785D02*
X175966393Y-93690785D01*
X175894964Y-93655071D01*
X175859250Y-93619357D01*
X175787821Y-93512214D01*
X175752107Y-93369357D01*
X175752107Y-93083642D01*
X175787821Y-93012214D01*
X175823536Y-92976500D01*
X175894964Y-92940785D01*
X176037821Y-92940785D01*
X176109250Y-92976500D01*
X176144964Y-93012214D01*
X176180678Y-93083642D01*
X176180678Y-93262214D01*
X176144964Y-93333642D01*
X176109250Y-93369357D01*
X176037821Y-93405071D01*
X175894964Y-93405071D01*
X175823536Y-93369357D01*
X175787821Y-93333642D01*
X175752107Y-93262214D01*
X179718178Y-65687285D02*
X179718178Y-64937285D01*
X179539607Y-64937285D01*
X179432464Y-64973000D01*
X179361035Y-65044428D01*
X179325321Y-65115857D01*
X179289607Y-65258714D01*
X179289607Y-65365857D01*
X179325321Y-65508714D01*
X179361035Y-65580142D01*
X179432464Y-65651571D01*
X179539607Y-65687285D01*
X179718178Y-65687285D01*
X179039607Y-64937285D02*
X178575321Y-64937285D01*
X178825321Y-65223000D01*
X178718178Y-65223000D01*
X178646750Y-65258714D01*
X178611035Y-65294428D01*
X178575321Y-65365857D01*
X178575321Y-65544428D01*
X178611035Y-65615857D01*
X178646750Y-65651571D01*
X178718178Y-65687285D01*
X178932464Y-65687285D01*
X179003892Y-65651571D01*
X179039607Y-65615857D01*
X177718178Y-64901571D02*
X178361035Y-65865857D01*
X177575321Y-64937285D02*
X177146750Y-64937285D01*
X177361035Y-65687285D02*
X177361035Y-64937285D01*
X176968178Y-64937285D02*
X176468178Y-65687285D01*
X176468178Y-64937285D02*
X176968178Y-65687285D01*
X176039607Y-64937285D02*
X175968178Y-64937285D01*
X175896750Y-64973000D01*
X175861035Y-65008714D01*
X175825321Y-65080142D01*
X175789607Y-65223000D01*
X175789607Y-65401571D01*
X175825321Y-65544428D01*
X175861035Y-65615857D01*
X175896750Y-65651571D01*
X175968178Y-65687285D01*
X176039607Y-65687285D01*
X176111035Y-65651571D01*
X176146750Y-65615857D01*
X176182464Y-65544428D01*
X176218178Y-65401571D01*
X176218178Y-65223000D01*
X176182464Y-65080142D01*
X176146750Y-65008714D01*
X176111035Y-64973000D01*
X176039607Y-64937285D01*
X178394964Y-86015285D02*
X178394964Y-85265285D01*
X178216393Y-85265285D01*
X178109250Y-85301000D01*
X178037821Y-85372428D01*
X178002107Y-85443857D01*
X177966393Y-85586714D01*
X177966393Y-85693857D01*
X178002107Y-85836714D01*
X178037821Y-85908142D01*
X178109250Y-85979571D01*
X178216393Y-86015285D01*
X178394964Y-86015285D01*
X177716393Y-85265285D02*
X177216393Y-85265285D01*
X177537821Y-86015285D01*
X176394964Y-85229571D02*
X177037821Y-86193857D01*
X175823536Y-85265285D02*
X175966393Y-85265285D01*
X176037821Y-85301000D01*
X176073536Y-85336714D01*
X176144964Y-85443857D01*
X176180678Y-85586714D01*
X176180678Y-85872428D01*
X176144964Y-85943857D01*
X176109250Y-85979571D01*
X176037821Y-86015285D01*
X175894964Y-86015285D01*
X175823536Y-85979571D01*
X175787821Y-85943857D01*
X175752107Y-85872428D01*
X175752107Y-85693857D01*
X175787821Y-85622428D01*
X175823536Y-85586714D01*
X175894964Y-85551000D01*
X176037821Y-85551000D01*
X176109250Y-85586714D01*
X176144964Y-85622428D01*
X176180678Y-85693857D01*
X186949211Y-91164485D02*
X187377783Y-91164485D01*
X187163497Y-91164485D02*
X187163497Y-90414485D01*
X187234926Y-90521628D01*
X187306354Y-90593057D01*
X187377783Y-90628771D01*
X186306354Y-90414485D02*
X186449211Y-90414485D01*
X186520640Y-90450200D01*
X186556354Y-90485914D01*
X186627783Y-90593057D01*
X186663497Y-90735914D01*
X186663497Y-91021628D01*
X186627783Y-91093057D01*
X186592069Y-91128771D01*
X186520640Y-91164485D01*
X186377783Y-91164485D01*
X186306354Y-91128771D01*
X186270640Y-91093057D01*
X186234926Y-91021628D01*
X186234926Y-90843057D01*
X186270640Y-90771628D01*
X186306354Y-90735914D01*
X186377783Y-90700200D01*
X186520640Y-90700200D01*
X186592069Y-90735914D01*
X186627783Y-90771628D01*
X186663497Y-90843057D01*
X185377783Y-90378771D02*
X186020640Y-91343057D01*
X184877783Y-90771628D02*
X184770640Y-90807342D01*
X184734926Y-90843057D01*
X184699211Y-90914485D01*
X184699211Y-91021628D01*
X184734926Y-91093057D01*
X184770640Y-91128771D01*
X184842069Y-91164485D01*
X185127783Y-91164485D01*
X185127783Y-90414485D01*
X184877783Y-90414485D01*
X184806354Y-90450200D01*
X184770640Y-90485914D01*
X184734926Y-90557342D01*
X184734926Y-90628771D01*
X184770640Y-90700200D01*
X184806354Y-90735914D01*
X184877783Y-90771628D01*
X185127783Y-90771628D01*
X184413497Y-90485914D02*
X184377783Y-90450200D01*
X184306354Y-90414485D01*
X184127783Y-90414485D01*
X184056354Y-90450200D01*
X184020640Y-90485914D01*
X183984926Y-90557342D01*
X183984926Y-90628771D01*
X184020640Y-90735914D01*
X184449211Y-91164485D01*
X183984926Y-91164485D01*
X186949211Y-93714485D02*
X187377783Y-93714485D01*
X187163497Y-93714485D02*
X187163497Y-92964485D01*
X187234926Y-93071628D01*
X187306354Y-93143057D01*
X187377783Y-93178771D01*
X186484926Y-92964485D02*
X186413497Y-92964485D01*
X186342069Y-93000200D01*
X186306354Y-93035914D01*
X186270640Y-93107342D01*
X186234926Y-93250200D01*
X186234926Y-93428771D01*
X186270640Y-93571628D01*
X186306354Y-93643057D01*
X186342069Y-93678771D01*
X186413497Y-93714485D01*
X186484926Y-93714485D01*
X186556354Y-93678771D01*
X186592069Y-93643057D01*
X186627783Y-93571628D01*
X186663497Y-93428771D01*
X186663497Y-93250200D01*
X186627783Y-93107342D01*
X186592069Y-93035914D01*
X186556354Y-93000200D01*
X186484926Y-92964485D01*
X185377783Y-92928771D02*
X186020640Y-93893057D01*
X184877783Y-93321628D02*
X184770640Y-93357342D01*
X184734926Y-93393057D01*
X184699211Y-93464485D01*
X184699211Y-93571628D01*
X184734926Y-93643057D01*
X184770640Y-93678771D01*
X184842069Y-93714485D01*
X185127783Y-93714485D01*
X185127783Y-92964485D01*
X184877783Y-92964485D01*
X184806354Y-93000200D01*
X184770640Y-93035914D01*
X184734926Y-93107342D01*
X184734926Y-93178771D01*
X184770640Y-93250200D01*
X184806354Y-93285914D01*
X184877783Y-93321628D01*
X185127783Y-93321628D01*
X184056354Y-92964485D02*
X184199211Y-92964485D01*
X184270640Y-93000200D01*
X184306354Y-93035914D01*
X184377783Y-93143057D01*
X184413497Y-93285914D01*
X184413497Y-93571628D01*
X184377783Y-93643057D01*
X184342069Y-93678771D01*
X184270640Y-93714485D01*
X184127783Y-93714485D01*
X184056354Y-93678771D01*
X184020640Y-93643057D01*
X183984926Y-93571628D01*
X183984926Y-93393057D01*
X184020640Y-93321628D01*
X184056354Y-93285914D01*
X184127783Y-93250200D01*
X184270640Y-93250200D01*
X184342069Y-93285914D01*
X184377783Y-93321628D01*
X184413497Y-93393057D01*
X187377782Y-75700200D02*
X187020640Y-75700200D01*
X187449211Y-75914485D02*
X187199211Y-75164485D01*
X186949211Y-75914485D01*
X186770640Y-75164485D02*
X186306354Y-75164485D01*
X186556354Y-75450200D01*
X186449211Y-75450200D01*
X186377782Y-75485914D01*
X186342068Y-75521628D01*
X186306354Y-75593057D01*
X186306354Y-75771628D01*
X186342068Y-75843057D01*
X186377782Y-75878771D01*
X186449211Y-75914485D01*
X186663497Y-75914485D01*
X186734925Y-75878771D01*
X186770640Y-75843057D01*
X185449211Y-75128771D02*
X186092068Y-76093057D01*
X184949211Y-75521628D02*
X185199211Y-75521628D01*
X185199211Y-75914485D02*
X185199211Y-75164485D01*
X184842068Y-75164485D01*
X184234925Y-75414485D02*
X184234925Y-75914485D01*
X184413497Y-75128771D02*
X184592068Y-75664485D01*
X184127782Y-75664485D01*
X187377782Y-78222200D02*
X187020640Y-78222200D01*
X187449211Y-78436485D02*
X187199211Y-77686485D01*
X186949211Y-78436485D01*
X186734925Y-77757914D02*
X186699211Y-77722200D01*
X186627782Y-77686485D01*
X186449211Y-77686485D01*
X186377782Y-77722200D01*
X186342068Y-77757914D01*
X186306354Y-77829342D01*
X186306354Y-77900771D01*
X186342068Y-78007914D01*
X186770640Y-78436485D01*
X186306354Y-78436485D01*
X185449211Y-77650771D02*
X186092068Y-78615057D01*
X184949211Y-78043628D02*
X185199211Y-78043628D01*
X185199211Y-78436485D02*
X185199211Y-77686485D01*
X184842068Y-77686485D01*
X184199211Y-77686485D02*
X184556354Y-77686485D01*
X184592068Y-78043628D01*
X184556354Y-78007914D01*
X184484925Y-77972200D01*
X184306354Y-77972200D01*
X184234925Y-78007914D01*
X184199211Y-78043628D01*
X184163497Y-78115057D01*
X184163497Y-78293628D01*
X184199211Y-78365057D01*
X184234925Y-78400771D01*
X184306354Y-78436485D01*
X184484925Y-78436485D01*
X184556354Y-78400771D01*
X184592068Y-78365057D01*
X186913497Y-70879985D02*
X187163497Y-70522842D01*
X187342068Y-70879985D02*
X187342068Y-70129985D01*
X187056354Y-70129985D01*
X186984926Y-70165700D01*
X186949211Y-70201414D01*
X186913497Y-70272842D01*
X186913497Y-70379985D01*
X186949211Y-70451414D01*
X186984926Y-70487128D01*
X187056354Y-70522842D01*
X187342068Y-70522842D01*
X186627783Y-70844271D02*
X186520640Y-70879985D01*
X186342068Y-70879985D01*
X186270640Y-70844271D01*
X186234926Y-70808557D01*
X186199211Y-70737128D01*
X186199211Y-70665700D01*
X186234926Y-70594271D01*
X186270640Y-70558557D01*
X186342068Y-70522842D01*
X186484926Y-70487128D01*
X186556354Y-70451414D01*
X186592068Y-70415700D01*
X186627783Y-70344271D01*
X186627783Y-70272842D01*
X186592068Y-70201414D01*
X186556354Y-70165700D01*
X186484926Y-70129985D01*
X186306354Y-70129985D01*
X186199211Y-70165700D01*
X185984926Y-70129985D02*
X185556354Y-70129985D01*
X185770640Y-70879985D02*
X185770640Y-70129985D01*
X187377782Y-80762200D02*
X187020640Y-80762200D01*
X187449211Y-80976485D02*
X187199211Y-80226485D01*
X186949211Y-80976485D01*
X186306354Y-80976485D02*
X186734925Y-80976485D01*
X186520640Y-80976485D02*
X186520640Y-80226485D01*
X186592068Y-80333628D01*
X186663497Y-80405057D01*
X186734925Y-80440771D01*
X185449211Y-80190771D02*
X186092068Y-81155057D01*
X184949211Y-80583628D02*
X185199211Y-80583628D01*
X185199211Y-80976485D02*
X185199211Y-80226485D01*
X184842068Y-80226485D01*
X184234925Y-80226485D02*
X184377782Y-80226485D01*
X184449211Y-80262200D01*
X184484925Y-80297914D01*
X184556354Y-80405057D01*
X184592068Y-80547914D01*
X184592068Y-80833628D01*
X184556354Y-80905057D01*
X184520640Y-80940771D01*
X184449211Y-80976485D01*
X184306354Y-80976485D01*
X184234925Y-80940771D01*
X184199211Y-80905057D01*
X184163497Y-80833628D01*
X184163497Y-80655057D01*
X184199211Y-80583628D01*
X184234925Y-80547914D01*
X184306354Y-80512200D01*
X184449211Y-80512200D01*
X184520640Y-80547914D01*
X184556354Y-80583628D01*
X184592068Y-80655057D01*
X186949211Y-67562200D02*
X187020640Y-67526485D01*
X187127783Y-67526485D01*
X187234926Y-67562200D01*
X187306354Y-67633628D01*
X187342068Y-67705057D01*
X187377783Y-67847914D01*
X187377783Y-67955057D01*
X187342068Y-68097914D01*
X187306354Y-68169342D01*
X187234926Y-68240771D01*
X187127783Y-68276485D01*
X187056354Y-68276485D01*
X186949211Y-68240771D01*
X186913497Y-68205057D01*
X186913497Y-67955057D01*
X187056354Y-67955057D01*
X186592068Y-68276485D02*
X186592068Y-67526485D01*
X186163497Y-68276485D01*
X186163497Y-67526485D01*
X185806354Y-68276485D02*
X185806354Y-67526485D01*
X185627783Y-67526485D01*
X185520640Y-67562200D01*
X185449211Y-67633628D01*
X185413497Y-67705057D01*
X185377783Y-67847914D01*
X185377783Y-67955057D01*
X185413497Y-68097914D01*
X185449211Y-68169342D01*
X185520640Y-68240771D01*
X185627783Y-68276485D01*
X185806354Y-68276485D01*
X186949211Y-86064485D02*
X187377783Y-86064485D01*
X187163497Y-86064485D02*
X187163497Y-85314485D01*
X187234926Y-85421628D01*
X187306354Y-85493057D01*
X187377783Y-85528771D01*
X186270640Y-85314485D02*
X186627783Y-85314485D01*
X186663497Y-85671628D01*
X186627783Y-85635914D01*
X186556354Y-85600200D01*
X186377783Y-85600200D01*
X186306354Y-85635914D01*
X186270640Y-85671628D01*
X186234926Y-85743057D01*
X186234926Y-85921628D01*
X186270640Y-85993057D01*
X186306354Y-86028771D01*
X186377783Y-86064485D01*
X186556354Y-86064485D01*
X186627783Y-86028771D01*
X186663497Y-85993057D01*
X185377783Y-85278771D02*
X186020640Y-86243057D01*
X184877783Y-85671628D02*
X184770640Y-85707342D01*
X184734926Y-85743057D01*
X184699211Y-85814485D01*
X184699211Y-85921628D01*
X184734926Y-85993057D01*
X184770640Y-86028771D01*
X184842069Y-86064485D01*
X185127783Y-86064485D01*
X185127783Y-85314485D01*
X184877783Y-85314485D01*
X184806354Y-85350200D01*
X184770640Y-85385914D01*
X184734926Y-85457342D01*
X184734926Y-85528771D01*
X184770640Y-85600200D01*
X184806354Y-85635914D01*
X184877783Y-85671628D01*
X185127783Y-85671628D01*
X183984926Y-86064485D02*
X184413497Y-86064485D01*
X184199211Y-86064485D02*
X184199211Y-85314485D01*
X184270640Y-85421628D01*
X184342069Y-85493057D01*
X184413497Y-85528771D01*
X187377782Y-83350200D02*
X187020640Y-83350200D01*
X187449211Y-83564485D02*
X187199211Y-82814485D01*
X186949211Y-83564485D01*
X186556354Y-82814485D02*
X186484925Y-82814485D01*
X186413497Y-82850200D01*
X186377782Y-82885914D01*
X186342068Y-82957342D01*
X186306354Y-83100200D01*
X186306354Y-83278771D01*
X186342068Y-83421628D01*
X186377782Y-83493057D01*
X186413497Y-83528771D01*
X186484925Y-83564485D01*
X186556354Y-83564485D01*
X186627782Y-83528771D01*
X186663497Y-83493057D01*
X186699211Y-83421628D01*
X186734925Y-83278771D01*
X186734925Y-83100200D01*
X186699211Y-82957342D01*
X186663497Y-82885914D01*
X186627782Y-82850200D01*
X186556354Y-82814485D01*
X185449211Y-82778771D02*
X186092068Y-83743057D01*
X184949211Y-83171628D02*
X185199211Y-83171628D01*
X185199211Y-83564485D02*
X185199211Y-82814485D01*
X184842068Y-82814485D01*
X184627782Y-82814485D02*
X184127782Y-82814485D01*
X184449211Y-83564485D01*
X187449211Y-72606485D02*
X187199211Y-73356485D01*
X186949211Y-72606485D01*
X186270640Y-73285057D02*
X186306354Y-73320771D01*
X186413497Y-73356485D01*
X186484925Y-73356485D01*
X186592068Y-73320771D01*
X186663497Y-73249342D01*
X186699211Y-73177914D01*
X186734925Y-73035057D01*
X186734925Y-72927914D01*
X186699211Y-72785057D01*
X186663497Y-72713628D01*
X186592068Y-72642200D01*
X186484925Y-72606485D01*
X186413497Y-72606485D01*
X186306354Y-72642200D01*
X186270640Y-72677914D01*
X185520640Y-73285057D02*
X185556354Y-73320771D01*
X185663497Y-73356485D01*
X185734925Y-73356485D01*
X185842068Y-73320771D01*
X185913497Y-73249342D01*
X185949211Y-73177914D01*
X185984925Y-73035057D01*
X185984925Y-72927914D01*
X185949211Y-72785057D01*
X185913497Y-72713628D01*
X185842068Y-72642200D01*
X185734925Y-72606485D01*
X185663497Y-72606485D01*
X185556354Y-72642200D01*
X185520640Y-72677914D01*
X186949211Y-88659985D02*
X187377783Y-88659985D01*
X187163497Y-88659985D02*
X187163497Y-87909985D01*
X187234926Y-88017128D01*
X187306354Y-88088557D01*
X187377783Y-88124271D01*
X186306354Y-88159985D02*
X186306354Y-88659985D01*
X186484926Y-87874271D02*
X186663497Y-88409985D01*
X186199211Y-88409985D01*
X185377783Y-87874271D02*
X186020640Y-88838557D01*
X184877783Y-88267128D02*
X184770640Y-88302842D01*
X184734926Y-88338557D01*
X184699211Y-88409985D01*
X184699211Y-88517128D01*
X184734926Y-88588557D01*
X184770640Y-88624271D01*
X184842069Y-88659985D01*
X185127783Y-88659985D01*
X185127783Y-87909985D01*
X184877783Y-87909985D01*
X184806354Y-87945700D01*
X184770640Y-87981414D01*
X184734926Y-88052842D01*
X184734926Y-88124271D01*
X184770640Y-88195700D01*
X184806354Y-88231414D01*
X184877783Y-88267128D01*
X185127783Y-88267128D01*
X184449211Y-87909985D02*
X183984926Y-87909985D01*
X184234926Y-88195700D01*
X184127783Y-88195700D01*
X184056354Y-88231414D01*
X184020640Y-88267128D01*
X183984926Y-88338557D01*
X183984926Y-88517128D01*
X184020640Y-88588557D01*
X184056354Y-88624271D01*
X184127783Y-88659985D01*
X184342069Y-88659985D01*
X184413497Y-88624271D01*
X184449211Y-88588557D01*
X186913497Y-65736485D02*
X187163497Y-65379342D01*
X187342068Y-65736485D02*
X187342068Y-64986485D01*
X187056354Y-64986485D01*
X186984925Y-65022200D01*
X186949211Y-65057914D01*
X186913497Y-65129342D01*
X186913497Y-65236485D01*
X186949211Y-65307914D01*
X186984925Y-65343628D01*
X187056354Y-65379342D01*
X187342068Y-65379342D01*
X186627782Y-65522200D02*
X186270640Y-65522200D01*
X186699211Y-65736485D02*
X186449211Y-64986485D01*
X186199211Y-65736485D01*
X186020640Y-64986485D02*
X185842068Y-65736485D01*
X185699211Y-65200771D01*
X185556354Y-65736485D01*
X185377782Y-64986485D01*
D12*
X178539547Y-100965980D02*
X179015738Y-100965980D01*
X179015738Y-99965980D01*
X178206214Y-100442171D02*
X177872880Y-100442171D01*
X177730023Y-100965980D02*
X178206214Y-100965980D01*
X178206214Y-99965980D01*
X177730023Y-99965980D01*
X177301452Y-100965980D02*
X177301452Y-99965980D01*
X177063357Y-99965980D01*
X176920500Y-100013600D01*
X176825261Y-100108838D01*
X176777642Y-100204076D01*
X176730023Y-100394552D01*
X176730023Y-100537409D01*
X176777642Y-100727885D01*
X176825261Y-100823123D01*
X176920500Y-100918361D01*
X177063357Y-100965980D01*
X177301452Y-100965980D01*
X175777642Y-100965980D02*
X176349071Y-100965980D01*
X176063357Y-100965980D02*
X176063357Y-99965980D01*
X176158595Y-100108838D01*
X176253833Y-100204076D01*
X176349071Y-100251695D01*
X186064904Y-136002980D02*
X186064904Y-135002980D01*
X185826809Y-135002980D01*
X185683952Y-135050600D01*
X185588714Y-135145838D01*
X185541095Y-135241076D01*
X185493476Y-135431552D01*
X185493476Y-135574409D01*
X185541095Y-135764885D01*
X185588714Y-135860123D01*
X185683952Y-135955361D01*
X185826809Y-136002980D01*
X186064904Y-136002980D01*
X184541095Y-136002980D02*
X185112523Y-136002980D01*
X184826809Y-136002980D02*
X184826809Y-135002980D01*
X184922047Y-135145838D01*
X185017285Y-135241076D01*
X185112523Y-135288695D01*
X183969666Y-135431552D02*
X184064904Y-135383933D01*
X184112523Y-135336314D01*
X184160142Y-135241076D01*
X184160142Y-135193457D01*
X184112523Y-135098219D01*
X184064904Y-135050600D01*
X183969666Y-135002980D01*
X183779190Y-135002980D01*
X183683952Y-135050600D01*
X183636333Y-135098219D01*
X183588714Y-135193457D01*
X183588714Y-135241076D01*
X183636333Y-135336314D01*
X183683952Y-135383933D01*
X183779190Y-135431552D01*
X183969666Y-135431552D01*
X184064904Y-135479171D01*
X184112523Y-135526790D01*
X184160142Y-135622028D01*
X184160142Y-135812504D01*
X184112523Y-135907742D01*
X184064904Y-135955361D01*
X183969666Y-136002980D01*
X183779190Y-136002980D01*
X183683952Y-135955361D01*
X183636333Y-135907742D01*
X183588714Y-135812504D01*
X183588714Y-135622028D01*
X183636333Y-135526790D01*
X183683952Y-135479171D01*
X183779190Y-135431552D01*
X186064904Y-117477980D02*
X186064904Y-116477980D01*
X185826809Y-116477980D01*
X185683952Y-116525600D01*
X185588714Y-116620838D01*
X185541095Y-116716076D01*
X185493476Y-116906552D01*
X185493476Y-117049409D01*
X185541095Y-117239885D01*
X185588714Y-117335123D01*
X185683952Y-117430361D01*
X185826809Y-117477980D01*
X186064904Y-117477980D01*
X184541095Y-117477980D02*
X185112523Y-117477980D01*
X184826809Y-117477980D02*
X184826809Y-116477980D01*
X184922047Y-116620838D01*
X185017285Y-116716076D01*
X185112523Y-116763695D01*
X184207761Y-116477980D02*
X183541095Y-116477980D01*
X183969666Y-117477980D01*
X167014904Y-136002980D02*
X167014904Y-135002980D01*
X166776809Y-135002980D01*
X166633952Y-135050600D01*
X166538714Y-135145838D01*
X166491095Y-135241076D01*
X166443476Y-135431552D01*
X166443476Y-135574409D01*
X166491095Y-135764885D01*
X166538714Y-135860123D01*
X166633952Y-135955361D01*
X166776809Y-136002980D01*
X167014904Y-136002980D01*
X165491095Y-136002980D02*
X166062523Y-136002980D01*
X165776809Y-136002980D02*
X165776809Y-135002980D01*
X165872047Y-135145838D01*
X165967285Y-135241076D01*
X166062523Y-135288695D01*
X164633952Y-135002980D02*
X164824428Y-135002980D01*
X164919666Y-135050600D01*
X164967285Y-135098219D01*
X165062523Y-135241076D01*
X165110142Y-135431552D01*
X165110142Y-135812504D01*
X165062523Y-135907742D01*
X165014904Y-135955361D01*
X164919666Y-136002980D01*
X164729190Y-136002980D01*
X164633952Y-135955361D01*
X164586333Y-135907742D01*
X164538714Y-135812504D01*
X164538714Y-135574409D01*
X164586333Y-135479171D01*
X164633952Y-135431552D01*
X164729190Y-135383933D01*
X164919666Y-135383933D01*
X165014904Y-135431552D01*
X165062523Y-135479171D01*
X165110142Y-135574409D01*
X167014904Y-117477980D02*
X167014904Y-116477980D01*
X166776809Y-116477980D01*
X166633952Y-116525600D01*
X166538714Y-116620838D01*
X166491095Y-116716076D01*
X166443476Y-116906552D01*
X166443476Y-117049409D01*
X166491095Y-117239885D01*
X166538714Y-117335123D01*
X166633952Y-117430361D01*
X166776809Y-117477980D01*
X167014904Y-117477980D01*
X165491095Y-117477980D02*
X166062523Y-117477980D01*
X165776809Y-117477980D02*
X165776809Y-116477980D01*
X165872047Y-116620838D01*
X165967285Y-116716076D01*
X166062523Y-116763695D01*
X164586333Y-116477980D02*
X165062523Y-116477980D01*
X165110142Y-116954171D01*
X165062523Y-116906552D01*
X164967285Y-116858933D01*
X164729190Y-116858933D01*
X164633952Y-116906552D01*
X164586333Y-116954171D01*
X164538714Y-117049409D01*
X164538714Y-117287504D01*
X164586333Y-117382742D01*
X164633952Y-117430361D01*
X164729190Y-117477980D01*
X164967285Y-117477980D01*
X165062523Y-117430361D01*
X165110142Y-117382742D01*
X167014904Y-98427980D02*
X167014904Y-97427980D01*
X166776809Y-97427980D01*
X166633952Y-97475600D01*
X166538714Y-97570838D01*
X166491095Y-97666076D01*
X166443476Y-97856552D01*
X166443476Y-97999409D01*
X166491095Y-98189885D01*
X166538714Y-98285123D01*
X166633952Y-98380361D01*
X166776809Y-98427980D01*
X167014904Y-98427980D01*
X165491095Y-98427980D02*
X166062523Y-98427980D01*
X165776809Y-98427980D02*
X165776809Y-97427980D01*
X165872047Y-97570838D01*
X165967285Y-97666076D01*
X166062523Y-97713695D01*
X164633952Y-97761314D02*
X164633952Y-98427980D01*
X164872047Y-97380361D02*
X165110142Y-98094647D01*
X164491095Y-98094647D01*
X167014904Y-79377980D02*
X167014904Y-78377980D01*
X166776809Y-78377980D01*
X166633952Y-78425600D01*
X166538714Y-78520838D01*
X166491095Y-78616076D01*
X166443476Y-78806552D01*
X166443476Y-78949409D01*
X166491095Y-79139885D01*
X166538714Y-79235123D01*
X166633952Y-79330361D01*
X166776809Y-79377980D01*
X167014904Y-79377980D01*
X165491095Y-79377980D02*
X166062523Y-79377980D01*
X165776809Y-79377980D02*
X165776809Y-78377980D01*
X165872047Y-78520838D01*
X165967285Y-78616076D01*
X166062523Y-78663695D01*
X165157761Y-78377980D02*
X164538714Y-78377980D01*
X164872047Y-78758933D01*
X164729190Y-78758933D01*
X164633952Y-78806552D01*
X164586333Y-78854171D01*
X164538714Y-78949409D01*
X164538714Y-79187504D01*
X164586333Y-79282742D01*
X164633952Y-79330361D01*
X164729190Y-79377980D01*
X165014904Y-79377980D01*
X165110142Y-79330361D01*
X165157761Y-79282742D01*
X147964904Y-136002980D02*
X147964904Y-135002980D01*
X147726809Y-135002980D01*
X147583952Y-135050600D01*
X147488714Y-135145838D01*
X147441095Y-135241076D01*
X147393476Y-135431552D01*
X147393476Y-135574409D01*
X147441095Y-135764885D01*
X147488714Y-135860123D01*
X147583952Y-135955361D01*
X147726809Y-136002980D01*
X147964904Y-136002980D01*
X146441095Y-136002980D02*
X147012523Y-136002980D01*
X146726809Y-136002980D02*
X146726809Y-135002980D01*
X146822047Y-135145838D01*
X146917285Y-135241076D01*
X147012523Y-135288695D01*
X146060142Y-135098219D02*
X146012523Y-135050600D01*
X145917285Y-135002980D01*
X145679190Y-135002980D01*
X145583952Y-135050600D01*
X145536333Y-135098219D01*
X145488714Y-135193457D01*
X145488714Y-135288695D01*
X145536333Y-135431552D01*
X146107761Y-136002980D01*
X145488714Y-136002980D01*
X147964904Y-117477980D02*
X147964904Y-116477980D01*
X147726809Y-116477980D01*
X147583952Y-116525600D01*
X147488714Y-116620838D01*
X147441095Y-116716076D01*
X147393476Y-116906552D01*
X147393476Y-117049409D01*
X147441095Y-117239885D01*
X147488714Y-117335123D01*
X147583952Y-117430361D01*
X147726809Y-117477980D01*
X147964904Y-117477980D01*
X146441095Y-117477980D02*
X147012523Y-117477980D01*
X146726809Y-117477980D02*
X146726809Y-116477980D01*
X146822047Y-116620838D01*
X146917285Y-116716076D01*
X147012523Y-116763695D01*
X145488714Y-117477980D02*
X146060142Y-117477980D01*
X145774428Y-117477980D02*
X145774428Y-116477980D01*
X145869666Y-116620838D01*
X145964904Y-116716076D01*
X146060142Y-116763695D01*
X147964904Y-98427980D02*
X147964904Y-97427980D01*
X147726809Y-97427980D01*
X147583952Y-97475600D01*
X147488714Y-97570838D01*
X147441095Y-97666076D01*
X147393476Y-97856552D01*
X147393476Y-97999409D01*
X147441095Y-98189885D01*
X147488714Y-98285123D01*
X147583952Y-98380361D01*
X147726809Y-98427980D01*
X147964904Y-98427980D01*
X146441095Y-98427980D02*
X147012523Y-98427980D01*
X146726809Y-98427980D02*
X146726809Y-97427980D01*
X146822047Y-97570838D01*
X146917285Y-97666076D01*
X147012523Y-97713695D01*
X145822047Y-97427980D02*
X145726809Y-97427980D01*
X145631571Y-97475600D01*
X145583952Y-97523219D01*
X145536333Y-97618457D01*
X145488714Y-97808933D01*
X145488714Y-98047028D01*
X145536333Y-98237504D01*
X145583952Y-98332742D01*
X145631571Y-98380361D01*
X145726809Y-98427980D01*
X145822047Y-98427980D01*
X145917285Y-98380361D01*
X145964904Y-98332742D01*
X146012523Y-98237504D01*
X146060142Y-98047028D01*
X146060142Y-97808933D01*
X146012523Y-97618457D01*
X145964904Y-97523219D01*
X145917285Y-97475600D01*
X145822047Y-97427980D01*
X147964904Y-79377980D02*
X147964904Y-78377980D01*
X147726809Y-78377980D01*
X147583952Y-78425600D01*
X147488714Y-78520838D01*
X147441095Y-78616076D01*
X147393476Y-78806552D01*
X147393476Y-78949409D01*
X147441095Y-79139885D01*
X147488714Y-79235123D01*
X147583952Y-79330361D01*
X147726809Y-79377980D01*
X147964904Y-79377980D01*
X146917285Y-79377980D02*
X146726809Y-79377980D01*
X146631571Y-79330361D01*
X146583952Y-79282742D01*
X146488714Y-79139885D01*
X146441095Y-78949409D01*
X146441095Y-78568457D01*
X146488714Y-78473219D01*
X146536333Y-78425600D01*
X146631571Y-78377980D01*
X146822047Y-78377980D01*
X146917285Y-78425600D01*
X146964904Y-78473219D01*
X147012523Y-78568457D01*
X147012523Y-78806552D01*
X146964904Y-78901790D01*
X146917285Y-78949409D01*
X146822047Y-78997028D01*
X146631571Y-78997028D01*
X146536333Y-78949409D01*
X146488714Y-78901790D01*
X146441095Y-78806552D01*
X128914904Y-136002980D02*
X128914904Y-135002980D01*
X128676809Y-135002980D01*
X128533952Y-135050600D01*
X128438714Y-135145838D01*
X128391095Y-135241076D01*
X128343476Y-135431552D01*
X128343476Y-135574409D01*
X128391095Y-135764885D01*
X128438714Y-135860123D01*
X128533952Y-135955361D01*
X128676809Y-136002980D01*
X128914904Y-136002980D01*
X127772047Y-135431552D02*
X127867285Y-135383933D01*
X127914904Y-135336314D01*
X127962523Y-135241076D01*
X127962523Y-135193457D01*
X127914904Y-135098219D01*
X127867285Y-135050600D01*
X127772047Y-135002980D01*
X127581571Y-135002980D01*
X127486333Y-135050600D01*
X127438714Y-135098219D01*
X127391095Y-135193457D01*
X127391095Y-135241076D01*
X127438714Y-135336314D01*
X127486333Y-135383933D01*
X127581571Y-135431552D01*
X127772047Y-135431552D01*
X127867285Y-135479171D01*
X127914904Y-135526790D01*
X127962523Y-135622028D01*
X127962523Y-135812504D01*
X127914904Y-135907742D01*
X127867285Y-135955361D01*
X127772047Y-136002980D01*
X127581571Y-136002980D01*
X127486333Y-135955361D01*
X127438714Y-135907742D01*
X127391095Y-135812504D01*
X127391095Y-135622028D01*
X127438714Y-135526790D01*
X127486333Y-135479171D01*
X127581571Y-135431552D01*
X128914904Y-117477980D02*
X128914904Y-116477980D01*
X128676809Y-116477980D01*
X128533952Y-116525600D01*
X128438714Y-116620838D01*
X128391095Y-116716076D01*
X128343476Y-116906552D01*
X128343476Y-117049409D01*
X128391095Y-117239885D01*
X128438714Y-117335123D01*
X128533952Y-117430361D01*
X128676809Y-117477980D01*
X128914904Y-117477980D01*
X128010142Y-116477980D02*
X127343476Y-116477980D01*
X127772047Y-117477980D01*
X128914904Y-98427980D02*
X128914904Y-97427980D01*
X128676809Y-97427980D01*
X128533952Y-97475600D01*
X128438714Y-97570838D01*
X128391095Y-97666076D01*
X128343476Y-97856552D01*
X128343476Y-97999409D01*
X128391095Y-98189885D01*
X128438714Y-98285123D01*
X128533952Y-98380361D01*
X128676809Y-98427980D01*
X128914904Y-98427980D01*
X127486333Y-97427980D02*
X127676809Y-97427980D01*
X127772047Y-97475600D01*
X127819666Y-97523219D01*
X127914904Y-97666076D01*
X127962523Y-97856552D01*
X127962523Y-98237504D01*
X127914904Y-98332742D01*
X127867285Y-98380361D01*
X127772047Y-98427980D01*
X127581571Y-98427980D01*
X127486333Y-98380361D01*
X127438714Y-98332742D01*
X127391095Y-98237504D01*
X127391095Y-97999409D01*
X127438714Y-97904171D01*
X127486333Y-97856552D01*
X127581571Y-97808933D01*
X127772047Y-97808933D01*
X127867285Y-97856552D01*
X127914904Y-97904171D01*
X127962523Y-97999409D01*
X128914904Y-79377980D02*
X128914904Y-78377980D01*
X128676809Y-78377980D01*
X128533952Y-78425600D01*
X128438714Y-78520838D01*
X128391095Y-78616076D01*
X128343476Y-78806552D01*
X128343476Y-78949409D01*
X128391095Y-79139885D01*
X128438714Y-79235123D01*
X128533952Y-79330361D01*
X128676809Y-79377980D01*
X128914904Y-79377980D01*
X127438714Y-78377980D02*
X127914904Y-78377980D01*
X127962523Y-78854171D01*
X127914904Y-78806552D01*
X127819666Y-78758933D01*
X127581571Y-78758933D01*
X127486333Y-78806552D01*
X127438714Y-78854171D01*
X127391095Y-78949409D01*
X127391095Y-79187504D01*
X127438714Y-79282742D01*
X127486333Y-79330361D01*
X127581571Y-79377980D01*
X127819666Y-79377980D01*
X127914904Y-79330361D01*
X127962523Y-79282742D01*
X109864904Y-136002980D02*
X109864904Y-135002980D01*
X109626809Y-135002980D01*
X109483952Y-135050600D01*
X109388714Y-135145838D01*
X109341095Y-135241076D01*
X109293476Y-135431552D01*
X109293476Y-135574409D01*
X109341095Y-135764885D01*
X109388714Y-135860123D01*
X109483952Y-135955361D01*
X109626809Y-136002980D01*
X109864904Y-136002980D01*
X108436333Y-135336314D02*
X108436333Y-136002980D01*
X108674428Y-134955361D02*
X108912523Y-135669647D01*
X108293476Y-135669647D01*
X109864904Y-117477980D02*
X109864904Y-116477980D01*
X109626809Y-116477980D01*
X109483952Y-116525600D01*
X109388714Y-116620838D01*
X109341095Y-116716076D01*
X109293476Y-116906552D01*
X109293476Y-117049409D01*
X109341095Y-117239885D01*
X109388714Y-117335123D01*
X109483952Y-117430361D01*
X109626809Y-117477980D01*
X109864904Y-117477980D01*
X108960142Y-116477980D02*
X108341095Y-116477980D01*
X108674428Y-116858933D01*
X108531571Y-116858933D01*
X108436333Y-116906552D01*
X108388714Y-116954171D01*
X108341095Y-117049409D01*
X108341095Y-117287504D01*
X108388714Y-117382742D01*
X108436333Y-117430361D01*
X108531571Y-117477980D01*
X108817285Y-117477980D01*
X108912523Y-117430361D01*
X108960142Y-117382742D01*
X109864904Y-98427980D02*
X109864904Y-97427980D01*
X109626809Y-97427980D01*
X109483952Y-97475600D01*
X109388714Y-97570838D01*
X109341095Y-97666076D01*
X109293476Y-97856552D01*
X109293476Y-97999409D01*
X109341095Y-98189885D01*
X109388714Y-98285123D01*
X109483952Y-98380361D01*
X109626809Y-98427980D01*
X109864904Y-98427980D01*
X108912523Y-97523219D02*
X108864904Y-97475600D01*
X108769666Y-97427980D01*
X108531571Y-97427980D01*
X108436333Y-97475600D01*
X108388714Y-97523219D01*
X108341095Y-97618457D01*
X108341095Y-97713695D01*
X108388714Y-97856552D01*
X108960142Y-98427980D01*
X108341095Y-98427980D01*
X110055404Y-79427980D02*
X110055404Y-78427980D01*
X109817309Y-78427980D01*
X109674452Y-78475600D01*
X109579214Y-78570838D01*
X109531595Y-78666076D01*
X109483976Y-78856552D01*
X109483976Y-78999409D01*
X109531595Y-79189885D01*
X109579214Y-79285123D01*
X109674452Y-79380361D01*
X109817309Y-79427980D01*
X110055404Y-79427980D01*
X108531595Y-79427980D02*
X109103023Y-79427980D01*
X108817309Y-79427980D02*
X108817309Y-78427980D01*
X108912547Y-78570838D01*
X109007785Y-78666076D01*
X109103023Y-78713695D01*
D10*
X172036778Y-64174485D02*
X172036778Y-63424485D01*
X171858207Y-63424485D01*
X171751064Y-63460200D01*
X171679635Y-63531628D01*
X171643921Y-63603057D01*
X171608207Y-63745914D01*
X171608207Y-63853057D01*
X171643921Y-63995914D01*
X171679635Y-64067342D01*
X171751064Y-64138771D01*
X171858207Y-64174485D01*
X172036778Y-64174485D01*
X171358207Y-63424485D02*
X170893921Y-63424485D01*
X171143921Y-63710200D01*
X171036778Y-63710200D01*
X170965350Y-63745914D01*
X170929635Y-63781628D01*
X170893921Y-63853057D01*
X170893921Y-64031628D01*
X170929635Y-64103057D01*
X170965350Y-64138771D01*
X171036778Y-64174485D01*
X171251064Y-64174485D01*
X171322492Y-64138771D01*
X171358207Y-64103057D01*
X170036778Y-63388771D02*
X170679635Y-64353057D01*
D12*
X188161880Y-97511980D02*
X188495214Y-97035790D01*
X188733309Y-97511980D02*
X188733309Y-96511980D01*
X188352357Y-96511980D01*
X188257119Y-96559600D01*
X188209500Y-96607219D01*
X188161880Y-96702457D01*
X188161880Y-96845314D01*
X188209500Y-96940552D01*
X188257119Y-96988171D01*
X188352357Y-97035790D01*
X188733309Y-97035790D01*
X187733309Y-96988171D02*
X187399976Y-96988171D01*
X187257119Y-97511980D02*
X187733309Y-97511980D01*
X187733309Y-96511980D01*
X187257119Y-96511980D01*
X186876166Y-97464361D02*
X186733309Y-97511980D01*
X186495214Y-97511980D01*
X186399976Y-97464361D01*
X186352357Y-97416742D01*
X186304738Y-97321504D01*
X186304738Y-97226266D01*
X186352357Y-97131028D01*
X186399976Y-97083409D01*
X186495214Y-97035790D01*
X186685690Y-96988171D01*
X186780928Y-96940552D01*
X186828547Y-96892933D01*
X186876166Y-96797695D01*
X186876166Y-96702457D01*
X186828547Y-96607219D01*
X186780928Y-96559600D01*
X186685690Y-96511980D01*
X186447595Y-96511980D01*
X186304738Y-96559600D01*
X185876166Y-96988171D02*
X185542833Y-96988171D01*
X185399976Y-97511980D02*
X185876166Y-97511980D01*
X185876166Y-96511980D01*
X185399976Y-96511980D01*
X185114261Y-96511980D02*
X184542833Y-96511980D01*
X184828547Y-97511980D02*
X184828547Y-96511980D01*
M02*
