M48
; DRILL file {KiCad (5.1.10)-1} date 07/22/21 10:00:54
; FORMAT={-:-/ absolute / metric / decimal}
; #@! TF.CreationDate,2021-07-22T10:00:54+09:00
; #@! TF.GenerationSoftware,Kicad,Pcbnew,(5.1.10)-1
; #@! TF.FileFunction,Plated,1,2,PTH
FMAT,2
METRIC
T1C0.400
T2C0.813
T3C1.200
T4C1.300
T5C1.500
T6C2.300
%
G90
G05
T1
X112.978Y-65.861
X113.178Y-85.061
X113.178Y-122.961
X113.278Y-103.961
X131.996Y-103.943
X132.178Y-65.861
X132.279Y-122.961
X132.578Y-84.961
X151.166Y-84.961
X151.219Y-103.921
X151.478Y-65.761
X151.478Y-122.961
X170.067Y-84.872
X170.278Y-65.961
X170.278Y-123.461
X170.518Y-103.921
X170.879Y-81.861
X171.605Y-95.144
X172.934Y-97.164
X173.564Y-94.587
X179.69Y-85.163
X180.978Y-101.161
X181.181Y-100.161
X181.29Y-87.776
X182.078Y-74.161
X182.078Y-76.761
X183.09Y-87.776
X183.278Y-84.361
X183.478Y-79.261
X183.878Y-81.463
X184.879Y-89.461
X189.178Y-104.361
X189.268Y-122.971
T2
X101.691Y-99.476
X101.691Y-118.526
X101.691Y-137.051
X101.881Y-80.476
X109.31Y-99.476
X109.31Y-118.526
X109.31Y-137.051
X109.501Y-80.476
X120.74Y-80.426
X120.74Y-99.476
X120.74Y-118.526
X120.74Y-137.051
X128.361Y-80.426
X128.361Y-99.476
X128.361Y-118.526
X128.361Y-137.051
X139.79Y-80.426
X139.79Y-99.476
X139.79Y-118.526
X139.79Y-137.051
X147.41Y-80.426
X147.41Y-99.476
X147.41Y-118.526
X147.41Y-137.051
X158.84Y-80.426
X158.84Y-99.476
X158.84Y-118.526
X158.84Y-137.051
X166.46Y-80.426
X166.46Y-99.476
X166.46Y-118.526
X166.46Y-137.051
X173.71Y-65.293
X173.71Y-67.833
X173.71Y-70.373
X173.71Y-72.913
X173.71Y-75.453
X173.71Y-77.993
X173.71Y-80.533
X173.71Y-83.073
X173.71Y-85.613
X173.71Y-88.153
X173.71Y-90.693
X173.71Y-93.233
X175.037Y-64.023
X175.037Y-66.563
X175.037Y-69.103
X175.037Y-71.643
X175.037Y-74.183
X175.037Y-76.723
X175.037Y-79.263
X175.037Y-81.803
X175.037Y-84.343
X175.037Y-86.883
X175.037Y-89.423
X175.037Y-91.963
X177.891Y-118.526
X177.891Y-137.051
X185.51Y-118.526
X185.51Y-137.051
X188.951Y-65.293
X188.951Y-67.833
X188.951Y-70.373
X188.951Y-72.913
X188.951Y-75.453
X188.951Y-77.993
X188.951Y-80.533
X188.951Y-83.073
X188.951Y-85.613
X188.951Y-88.153
X188.951Y-90.693
X188.951Y-93.233
X190.257Y-64.023
X190.257Y-66.563
X190.257Y-69.103
X190.257Y-71.643
X190.257Y-74.183
X190.257Y-76.723
X190.257Y-79.263
X190.257Y-81.803
X190.257Y-84.343
X190.257Y-86.883
X190.257Y-89.423
X190.257Y-91.963
T3
X100.4Y-74.801
X100.4Y-93.851
X100.4Y-112.901
X100.4Y-131.951
X105.5Y-76.801
X105.5Y-95.851
X105.5Y-114.901
X105.5Y-133.951
X110.6Y-74.801
X110.6Y-93.851
X110.6Y-112.901
X110.6Y-131.951
X119.45Y-74.801
X119.45Y-93.851
X119.45Y-112.901
X119.45Y-131.951
X124.55Y-76.801
X124.55Y-95.851
X124.55Y-114.901
X124.55Y-133.951
X129.65Y-74.801
X129.65Y-93.851
X129.65Y-112.901
X129.65Y-131.951
X138.5Y-74.801
X138.5Y-93.851
X138.5Y-112.901
X138.5Y-131.951
X143.6Y-76.801
X143.6Y-95.851
X143.6Y-114.901
X143.6Y-133.951
X148.701Y-74.801
X148.701Y-93.851
X148.701Y-112.901
X148.701Y-131.951
X157.55Y-74.801
X157.55Y-93.851
X157.55Y-112.901
X157.55Y-131.951
X162.65Y-76.801
X162.65Y-95.851
X162.65Y-114.901
X162.65Y-133.951
X167.75Y-74.801
X167.75Y-93.851
X167.75Y-112.901
X167.75Y-131.951
X176.6Y-112.901
X176.6Y-131.951
X181.701Y-114.901
X181.701Y-133.951
X186.8Y-112.901
X186.8Y-131.951
T4
X183.587Y-97.06
X190.087Y-97.06
T5
X101.691Y-73.441
X101.691Y-92.491
X101.691Y-111.541
X101.691Y-130.591
X102.96Y-74.901
X102.96Y-75.401
X102.96Y-75.981
X102.96Y-93.951
X102.96Y-94.451
X102.96Y-95.031
X102.96Y-113.001
X102.96Y-113.501
X102.96Y-114.081
X102.96Y-132.051
X102.96Y-132.551
X102.96Y-133.131
X108.04Y-74.901
X108.04Y-75.401
X108.04Y-75.981
X108.04Y-93.951
X108.04Y-94.451
X108.04Y-95.031
X108.04Y-113.001
X108.04Y-113.501
X108.04Y-114.081
X108.04Y-132.051
X108.04Y-132.551
X108.04Y-133.131
X109.31Y-73.441
X109.31Y-92.491
X109.31Y-111.541
X109.31Y-130.591
X120.74Y-73.441
X120.74Y-92.491
X120.74Y-111.541
X120.74Y-130.591
X122.01Y-74.901
X122.01Y-75.401
X122.01Y-75.981
X122.01Y-93.951
X122.01Y-94.451
X122.01Y-95.031
X122.01Y-113.001
X122.01Y-113.501
X122.01Y-114.081
X122.01Y-132.051
X122.01Y-132.551
X122.01Y-133.131
X127.09Y-74.901
X127.09Y-75.401
X127.09Y-75.981
X127.09Y-93.951
X127.09Y-94.451
X127.09Y-95.031
X127.09Y-113.001
X127.09Y-113.501
X127.09Y-114.081
X127.09Y-132.051
X127.09Y-132.551
X127.09Y-133.131
X128.361Y-73.441
X128.361Y-92.491
X128.361Y-111.541
X128.361Y-130.591
X139.79Y-73.441
X139.79Y-92.491
X139.79Y-111.541
X139.79Y-130.591
X141.06Y-74.901
X141.06Y-75.401
X141.06Y-75.981
X141.06Y-93.951
X141.06Y-94.451
X141.06Y-95.031
X141.06Y-113.001
X141.06Y-113.501
X141.06Y-114.081
X141.06Y-132.051
X141.06Y-132.551
X141.06Y-133.131
X146.141Y-74.901
X146.141Y-75.401
X146.141Y-75.981
X146.141Y-93.951
X146.141Y-94.451
X146.141Y-95.031
X146.141Y-113.001
X146.141Y-113.501
X146.141Y-114.081
X146.141Y-132.051
X146.141Y-132.551
X146.141Y-133.131
X147.41Y-73.441
X147.41Y-92.491
X147.41Y-111.541
X147.41Y-130.591
X158.84Y-73.441
X158.84Y-92.491
X158.84Y-111.541
X158.84Y-130.591
X160.111Y-74.901
X160.111Y-75.401
X160.111Y-75.981
X160.111Y-93.951
X160.111Y-94.451
X160.111Y-95.031
X160.111Y-113.001
X160.111Y-113.501
X160.111Y-114.081
X160.111Y-132.051
X160.111Y-132.551
X160.111Y-133.131
X165.19Y-74.901
X165.19Y-75.401
X165.19Y-75.981
X165.19Y-93.951
X165.19Y-94.451
X165.19Y-95.031
X165.19Y-113.001
X165.19Y-113.501
X165.19Y-114.081
X165.19Y-132.051
X165.19Y-132.551
X165.19Y-133.131
X166.46Y-73.441
X166.46Y-92.491
X166.46Y-111.541
X166.46Y-130.591
X177.891Y-111.541
X177.891Y-130.591
X179.16Y-113.001
X179.16Y-113.501
X179.16Y-114.081
X179.16Y-132.051
X179.16Y-132.551
X179.16Y-133.131
X184.24Y-113.001
X184.24Y-113.501
X184.24Y-114.081
X184.24Y-132.051
X184.24Y-132.551
X184.24Y-133.131
X185.51Y-111.541
X185.51Y-130.591
T6
X115.075Y-80.475
X115.075Y-118.575
X134.124Y-99.525
X153.174Y-80.475
X172.225Y-118.575
T0
M30
