G04 #@! TF.GenerationSoftware,KiCad,Pcbnew,(5.1.10)-1*
G04 #@! TF.CreationDate,2021-07-22T10:00:34+09:00*
G04 #@! TF.ProjectId,cc_proto_rev3,63635f70-726f-4746-9f5f-726576332e6b,3*
G04 #@! TF.SameCoordinates,Original*
G04 #@! TF.FileFunction,Legend,Top*
G04 #@! TF.FilePolarity,Positive*
%FSLAX46Y46*%
G04 Gerber Fmt 4.6, Leading zero omitted, Abs format (unit mm)*
G04 Created by KiCad (PCBNEW (5.1.10)-1) date 2021-07-22 10:00:34*
%MOMM*%
%LPD*%
G01*
G04 APERTURE LIST*
%ADD10C,0.125000*%
%ADD11C,0.300000*%
%ADD12C,0.150000*%
G04 APERTURE END LIST*
D10*
X114856642Y-84010314D02*
X114820928Y-83974600D01*
X114785214Y-83867457D01*
X114785214Y-83796028D01*
X114820928Y-83688885D01*
X114892357Y-83617457D01*
X114963785Y-83581742D01*
X115106642Y-83546028D01*
X115213785Y-83546028D01*
X115356642Y-83581742D01*
X115428071Y-83617457D01*
X115499500Y-83688885D01*
X115535214Y-83796028D01*
X115535214Y-83867457D01*
X115499500Y-83974600D01*
X115463785Y-84010314D01*
X114856642Y-84760314D02*
X114820928Y-84724600D01*
X114785214Y-84617457D01*
X114785214Y-84546028D01*
X114820928Y-84438885D01*
X114892357Y-84367457D01*
X114963785Y-84331742D01*
X115106642Y-84296028D01*
X115213785Y-84296028D01*
X115356642Y-84331742D01*
X115428071Y-84367457D01*
X115499500Y-84438885D01*
X115535214Y-84546028D01*
X115535214Y-84617457D01*
X115499500Y-84724600D01*
X115463785Y-84760314D01*
X114785214Y-85653171D02*
X115535214Y-85653171D01*
X115535214Y-85938885D01*
X115499500Y-86010314D01*
X115463785Y-86046028D01*
X115392357Y-86081742D01*
X115285214Y-86081742D01*
X115213785Y-86046028D01*
X115178071Y-86010314D01*
X115142357Y-85938885D01*
X115142357Y-85653171D01*
X114785214Y-86403171D02*
X115285214Y-86403171D01*
X115142357Y-86403171D02*
X115213785Y-86438885D01*
X115249500Y-86474600D01*
X115285214Y-86546028D01*
X115285214Y-86617457D01*
X114785214Y-86974600D02*
X114820928Y-86903171D01*
X114856642Y-86867457D01*
X114928071Y-86831742D01*
X115142357Y-86831742D01*
X115213785Y-86867457D01*
X115249500Y-86903171D01*
X115285214Y-86974600D01*
X115285214Y-87081742D01*
X115249500Y-87153171D01*
X115213785Y-87188885D01*
X115142357Y-87224600D01*
X114928071Y-87224600D01*
X114856642Y-87188885D01*
X114820928Y-87153171D01*
X114785214Y-87081742D01*
X114785214Y-86974600D01*
X115285214Y-87438885D02*
X115285214Y-87724600D01*
X115535214Y-87546028D02*
X114892357Y-87546028D01*
X114820928Y-87581742D01*
X114785214Y-87653171D01*
X114785214Y-87724600D01*
X114785214Y-88081742D02*
X114820928Y-88010314D01*
X114856642Y-87974600D01*
X114928071Y-87938885D01*
X115142357Y-87938885D01*
X115213785Y-87974600D01*
X115249500Y-88010314D01*
X115285214Y-88081742D01*
X115285214Y-88188885D01*
X115249500Y-88260314D01*
X115213785Y-88296028D01*
X115142357Y-88331742D01*
X114928071Y-88331742D01*
X114856642Y-88296028D01*
X114820928Y-88260314D01*
X114785214Y-88188885D01*
X114785214Y-88081742D01*
X114785214Y-89653171D02*
X115142357Y-89403171D01*
X114785214Y-89224600D02*
X115535214Y-89224600D01*
X115535214Y-89510314D01*
X115499500Y-89581742D01*
X115463785Y-89617457D01*
X115392357Y-89653171D01*
X115285214Y-89653171D01*
X115213785Y-89617457D01*
X115178071Y-89581742D01*
X115142357Y-89510314D01*
X115142357Y-89224600D01*
X114820928Y-90260314D02*
X114785214Y-90188885D01*
X114785214Y-90046028D01*
X114820928Y-89974600D01*
X114892357Y-89938885D01*
X115178071Y-89938885D01*
X115249500Y-89974600D01*
X115285214Y-90046028D01*
X115285214Y-90188885D01*
X115249500Y-90260314D01*
X115178071Y-90296028D01*
X115106642Y-90296028D01*
X115035214Y-89938885D01*
X115285214Y-90546028D02*
X114785214Y-90724600D01*
X115285214Y-90903171D01*
X114856642Y-91188885D02*
X114820928Y-91224600D01*
X114785214Y-91188885D01*
X114820928Y-91153171D01*
X114856642Y-91188885D01*
X114785214Y-91188885D01*
X115535214Y-91474600D02*
X115535214Y-91938885D01*
X115249500Y-91688885D01*
X115249500Y-91796028D01*
X115213785Y-91867457D01*
X115178071Y-91903171D01*
X115106642Y-91938885D01*
X114928071Y-91938885D01*
X114856642Y-91903171D01*
X114820928Y-91867457D01*
X114785214Y-91796028D01*
X114785214Y-91581742D01*
X114820928Y-91510314D01*
X114856642Y-91474600D01*
X114785214Y-92831742D02*
X115535214Y-92831742D01*
X115249500Y-92831742D02*
X115285214Y-92903171D01*
X115285214Y-93046028D01*
X115249500Y-93117457D01*
X115213785Y-93153171D01*
X115142357Y-93188885D01*
X114928071Y-93188885D01*
X114856642Y-93153171D01*
X114820928Y-93117457D01*
X114785214Y-93046028D01*
X114785214Y-92903171D01*
X114820928Y-92831742D01*
X115285214Y-93438885D02*
X114785214Y-93617457D01*
X115285214Y-93796028D02*
X114785214Y-93617457D01*
X114606642Y-93546028D01*
X114570928Y-93510314D01*
X114535214Y-93438885D01*
X114856642Y-95081742D02*
X114820928Y-95046028D01*
X114785214Y-94938885D01*
X114785214Y-94867457D01*
X114820928Y-94760314D01*
X114892357Y-94688885D01*
X114963785Y-94653171D01*
X115106642Y-94617457D01*
X115213785Y-94617457D01*
X115356642Y-94653171D01*
X115428071Y-94688885D01*
X115499500Y-94760314D01*
X115535214Y-94867457D01*
X115535214Y-94938885D01*
X115499500Y-95046028D01*
X115463785Y-95081742D01*
X114785214Y-95403171D02*
X115535214Y-95403171D01*
X114785214Y-95724600D02*
X115178071Y-95724600D01*
X115249500Y-95688885D01*
X115285214Y-95617457D01*
X115285214Y-95510314D01*
X115249500Y-95438885D01*
X115213785Y-95403171D01*
X114785214Y-96081742D02*
X115285214Y-96081742D01*
X115535214Y-96081742D02*
X115499500Y-96046028D01*
X115463785Y-96081742D01*
X115499500Y-96117457D01*
X115535214Y-96081742D01*
X115463785Y-96081742D01*
X115285214Y-96438885D02*
X114785214Y-96438885D01*
X115213785Y-96438885D02*
X115249500Y-96474600D01*
X115285214Y-96546028D01*
X115285214Y-96653171D01*
X115249500Y-96724600D01*
X115178071Y-96760314D01*
X114785214Y-96760314D01*
X114785214Y-97438885D02*
X115178071Y-97438885D01*
X115249500Y-97403171D01*
X115285214Y-97331742D01*
X115285214Y-97188885D01*
X115249500Y-97117457D01*
X114820928Y-97438885D02*
X114785214Y-97367457D01*
X114785214Y-97188885D01*
X114820928Y-97117457D01*
X114892357Y-97081742D01*
X114963785Y-97081742D01*
X115035214Y-97117457D01*
X115070928Y-97188885D01*
X115070928Y-97367457D01*
X115106642Y-97438885D01*
X115285214Y-97688885D02*
X115285214Y-97974600D01*
X115535214Y-97796028D02*
X114892357Y-97796028D01*
X114820928Y-97831742D01*
X114785214Y-97903171D01*
X114785214Y-97974600D01*
X114820928Y-98188885D02*
X114785214Y-98260314D01*
X114785214Y-98403171D01*
X114820928Y-98474600D01*
X114892357Y-98510314D01*
X114928071Y-98510314D01*
X114999500Y-98474600D01*
X115035214Y-98403171D01*
X115035214Y-98296028D01*
X115070928Y-98224600D01*
X115142357Y-98188885D01*
X115178071Y-98188885D01*
X115249500Y-98224600D01*
X115285214Y-98296028D01*
X115285214Y-98403171D01*
X115249500Y-98474600D01*
X115285214Y-99153171D02*
X114785214Y-99153171D01*
X115285214Y-98831742D02*
X114892357Y-98831742D01*
X114820928Y-98867457D01*
X114785214Y-98938885D01*
X114785214Y-99046028D01*
X114820928Y-99117457D01*
X114856642Y-99153171D01*
X114856642Y-100510314D02*
X114820928Y-100474600D01*
X114785214Y-100367457D01*
X114785214Y-100296028D01*
X114820928Y-100188885D01*
X114892357Y-100117457D01*
X114963785Y-100081742D01*
X115106642Y-100046028D01*
X115213785Y-100046028D01*
X115356642Y-100081742D01*
X115428071Y-100117457D01*
X115499500Y-100188885D01*
X115535214Y-100296028D01*
X115535214Y-100367457D01*
X115499500Y-100474600D01*
X115463785Y-100510314D01*
X114785214Y-100831742D02*
X115535214Y-100831742D01*
X114785214Y-101153171D02*
X115178071Y-101153171D01*
X115249500Y-101117457D01*
X115285214Y-101046028D01*
X115285214Y-100938885D01*
X115249500Y-100867457D01*
X115213785Y-100831742D01*
X114785214Y-101510314D02*
X115285214Y-101510314D01*
X115535214Y-101510314D02*
X115499500Y-101474600D01*
X115463785Y-101510314D01*
X115499500Y-101546028D01*
X115535214Y-101510314D01*
X115463785Y-101510314D01*
X114785214Y-101867457D02*
X115535214Y-101867457D01*
X115249500Y-101867457D02*
X115285214Y-101938885D01*
X115285214Y-102081742D01*
X115249500Y-102153171D01*
X115213785Y-102188885D01*
X115142357Y-102224600D01*
X114928071Y-102224600D01*
X114856642Y-102188885D01*
X114820928Y-102153171D01*
X114785214Y-102081742D01*
X114785214Y-101938885D01*
X114820928Y-101867457D01*
X114785214Y-102867457D02*
X115178071Y-102867457D01*
X115249500Y-102831742D01*
X115285214Y-102760314D01*
X115285214Y-102617457D01*
X115249500Y-102546028D01*
X114820928Y-102867457D02*
X114785214Y-102796028D01*
X114785214Y-102617457D01*
X114820928Y-102546028D01*
X114892357Y-102510314D01*
X114963785Y-102510314D01*
X115035214Y-102546028D01*
X115070928Y-102617457D01*
X115070928Y-102796028D01*
X115106642Y-102867457D01*
X114499500Y-104010314D02*
X114535214Y-103974600D01*
X114642357Y-103903171D01*
X114713785Y-103867457D01*
X114820928Y-103831742D01*
X114999500Y-103796028D01*
X115142357Y-103796028D01*
X115320928Y-103831742D01*
X115428071Y-103867457D01*
X115499500Y-103903171D01*
X115606642Y-103974600D01*
X115642357Y-104010314D01*
X114785214Y-104617457D02*
X115178071Y-104617457D01*
X115249500Y-104581742D01*
X115285214Y-104510314D01*
X115285214Y-104367457D01*
X115249500Y-104296028D01*
X114820928Y-104617457D02*
X114785214Y-104546028D01*
X114785214Y-104367457D01*
X114820928Y-104296028D01*
X114892357Y-104260314D01*
X114963785Y-104260314D01*
X115035214Y-104296028D01*
X115070928Y-104367457D01*
X115070928Y-104546028D01*
X115106642Y-104617457D01*
X115285214Y-104903171D02*
X115285214Y-105296028D01*
X114785214Y-104903171D01*
X114785214Y-105296028D01*
X115285214Y-105903171D02*
X114785214Y-105903171D01*
X115285214Y-105581742D02*
X114892357Y-105581742D01*
X114820928Y-105617457D01*
X114785214Y-105688885D01*
X114785214Y-105796028D01*
X114820928Y-105867457D01*
X114856642Y-105903171D01*
X114785214Y-106367457D02*
X114820928Y-106296028D01*
X114892357Y-106260314D01*
X115535214Y-106260314D01*
X114820928Y-106938885D02*
X114785214Y-106867457D01*
X114785214Y-106724600D01*
X114820928Y-106653171D01*
X114892357Y-106617457D01*
X115178071Y-106617457D01*
X115249500Y-106653171D01*
X115285214Y-106724600D01*
X115285214Y-106867457D01*
X115249500Y-106938885D01*
X115178071Y-106974600D01*
X115106642Y-106974600D01*
X115035214Y-106617457D01*
X114820928Y-107581742D02*
X114785214Y-107510314D01*
X114785214Y-107367457D01*
X114820928Y-107296028D01*
X114892357Y-107260314D01*
X115178071Y-107260314D01*
X115249500Y-107296028D01*
X115285214Y-107367457D01*
X115285214Y-107510314D01*
X115249500Y-107581742D01*
X115178071Y-107617457D01*
X115106642Y-107617457D01*
X115035214Y-107260314D01*
X115570928Y-109046028D02*
X114606642Y-108403171D01*
X114785214Y-109867457D02*
X115285214Y-109867457D01*
X115213785Y-109867457D02*
X115249500Y-109903171D01*
X115285214Y-109974600D01*
X115285214Y-110081742D01*
X115249500Y-110153171D01*
X115178071Y-110188885D01*
X114785214Y-110188885D01*
X115178071Y-110188885D02*
X115249500Y-110224600D01*
X115285214Y-110296028D01*
X115285214Y-110403171D01*
X115249500Y-110474600D01*
X115178071Y-110510314D01*
X114785214Y-110510314D01*
X114785214Y-110974600D02*
X114820928Y-110903171D01*
X114856642Y-110867457D01*
X114928071Y-110831742D01*
X115142357Y-110831742D01*
X115213785Y-110867457D01*
X115249500Y-110903171D01*
X115285214Y-110974600D01*
X115285214Y-111081742D01*
X115249500Y-111153171D01*
X115213785Y-111188885D01*
X115142357Y-111224600D01*
X114928071Y-111224600D01*
X114856642Y-111188885D01*
X114820928Y-111153171D01*
X114785214Y-111081742D01*
X114785214Y-110974600D01*
X114785214Y-111546028D02*
X115535214Y-111546028D01*
X115070928Y-111617457D02*
X114785214Y-111831742D01*
X115285214Y-111831742D02*
X114999500Y-111546028D01*
X114820928Y-112438885D02*
X114785214Y-112367457D01*
X114785214Y-112224600D01*
X114820928Y-112153171D01*
X114892357Y-112117457D01*
X115178071Y-112117457D01*
X115249500Y-112153171D01*
X115285214Y-112224600D01*
X115285214Y-112367457D01*
X115249500Y-112438885D01*
X115178071Y-112474600D01*
X115106642Y-112474600D01*
X115035214Y-112117457D01*
X114820928Y-112760314D02*
X114785214Y-112831742D01*
X114785214Y-112974600D01*
X114820928Y-113046028D01*
X114892357Y-113081742D01*
X114928071Y-113081742D01*
X114999500Y-113046028D01*
X115035214Y-112974600D01*
X115035214Y-112867457D01*
X115070928Y-112796028D01*
X115142357Y-112760314D01*
X115178071Y-112760314D01*
X115249500Y-112796028D01*
X115285214Y-112867457D01*
X115285214Y-112974600D01*
X115249500Y-113046028D01*
X115285214Y-113724600D02*
X114785214Y-113724600D01*
X115285214Y-113403171D02*
X114892357Y-113403171D01*
X114820928Y-113438885D01*
X114785214Y-113510314D01*
X114785214Y-113617457D01*
X114820928Y-113688885D01*
X114856642Y-113724600D01*
X114785214Y-114081742D02*
X115285214Y-114081742D01*
X115142357Y-114081742D02*
X115213785Y-114117457D01*
X115249500Y-114153171D01*
X115285214Y-114224600D01*
X115285214Y-114296028D01*
X114785214Y-114867457D02*
X115178071Y-114867457D01*
X115249500Y-114831742D01*
X115285214Y-114760314D01*
X115285214Y-114617457D01*
X115249500Y-114546028D01*
X114820928Y-114867457D02*
X114785214Y-114796028D01*
X114785214Y-114617457D01*
X114820928Y-114546028D01*
X114892357Y-114510314D01*
X114963785Y-114510314D01*
X115035214Y-114546028D01*
X115070928Y-114617457D01*
X115070928Y-114796028D01*
X115106642Y-114867457D01*
X114499500Y-115153171D02*
X114535214Y-115188885D01*
X114642357Y-115260314D01*
X114713785Y-115296028D01*
X114820928Y-115331742D01*
X114999500Y-115367457D01*
X115142357Y-115367457D01*
X115320928Y-115331742D01*
X115428071Y-115296028D01*
X115499500Y-115260314D01*
X115606642Y-115188885D01*
X115642357Y-115153171D01*
D11*
X153945928Y-84617457D02*
X153588785Y-84617457D01*
X153731642Y-84260314D02*
X153588785Y-84617457D01*
X153731642Y-84974600D01*
X153303071Y-84403171D02*
X153588785Y-84617457D01*
X153303071Y-84831742D01*
X153945928Y-85760314D02*
X153588785Y-85760314D01*
X153731642Y-85403171D02*
X153588785Y-85760314D01*
X153731642Y-86117457D01*
X153303071Y-85546028D02*
X153588785Y-85760314D01*
X153303071Y-85974600D01*
X152445928Y-88688885D02*
X153160214Y-88188885D01*
X152445928Y-87831742D02*
X153945928Y-87831742D01*
X153945928Y-88403171D01*
X153874500Y-88546028D01*
X153803071Y-88617457D01*
X153660214Y-88688885D01*
X153445928Y-88688885D01*
X153303071Y-88617457D01*
X153231642Y-88546028D01*
X153160214Y-88403171D01*
X153160214Y-87831742D01*
X152445928Y-89331742D02*
X153445928Y-89331742D01*
X153945928Y-89331742D02*
X153874500Y-89260314D01*
X153803071Y-89331742D01*
X153874500Y-89403171D01*
X153945928Y-89331742D01*
X153803071Y-89331742D01*
X153445928Y-90688885D02*
X152231642Y-90688885D01*
X152088785Y-90617457D01*
X152017357Y-90546028D01*
X151945928Y-90403171D01*
X151945928Y-90188885D01*
X152017357Y-90046028D01*
X152517357Y-90688885D02*
X152445928Y-90546028D01*
X152445928Y-90260314D01*
X152517357Y-90117457D01*
X152588785Y-90046028D01*
X152731642Y-89974600D01*
X153160214Y-89974600D01*
X153303071Y-90046028D01*
X153374500Y-90117457D01*
X153445928Y-90260314D01*
X153445928Y-90546028D01*
X153374500Y-90688885D01*
X152445928Y-91403171D02*
X153945928Y-91403171D01*
X152445928Y-92046028D02*
X153231642Y-92046028D01*
X153374500Y-91974600D01*
X153445928Y-91831742D01*
X153445928Y-91617457D01*
X153374500Y-91474600D01*
X153303071Y-91403171D01*
X153445928Y-92546028D02*
X153445928Y-93117457D01*
X153945928Y-92760314D02*
X152660214Y-92760314D01*
X152517357Y-92831742D01*
X152445928Y-92974600D01*
X152445928Y-93117457D01*
X152445928Y-94760314D02*
X153945928Y-94760314D01*
X153231642Y-94760314D02*
X153231642Y-95617457D01*
X152445928Y-95617457D02*
X153945928Y-95617457D01*
X152445928Y-96974600D02*
X153231642Y-96974600D01*
X153374500Y-96903171D01*
X153445928Y-96760314D01*
X153445928Y-96474600D01*
X153374500Y-96331742D01*
X152517357Y-96974600D02*
X152445928Y-96831742D01*
X152445928Y-96474600D01*
X152517357Y-96331742D01*
X152660214Y-96260314D01*
X152803071Y-96260314D01*
X152945928Y-96331742D01*
X153017357Y-96474600D01*
X153017357Y-96831742D01*
X153088785Y-96974600D01*
X153445928Y-97688885D02*
X152445928Y-97688885D01*
X153303071Y-97688885D02*
X153374500Y-97760314D01*
X153445928Y-97903171D01*
X153445928Y-98117457D01*
X153374500Y-98260314D01*
X153231642Y-98331742D01*
X152445928Y-98331742D01*
X152445928Y-99688885D02*
X153945928Y-99688885D01*
X152517357Y-99688885D02*
X152445928Y-99546028D01*
X152445928Y-99260314D01*
X152517357Y-99117457D01*
X152588785Y-99046028D01*
X152731642Y-98974600D01*
X153160214Y-98974600D01*
X153303071Y-99046028D01*
X153374500Y-99117457D01*
X153445928Y-99260314D01*
X153445928Y-99546028D01*
X153374500Y-99688885D01*
X153945928Y-101760314D02*
X153588785Y-101760314D01*
X153731642Y-101403171D02*
X153588785Y-101760314D01*
X153731642Y-102117457D01*
X153303071Y-101546028D02*
X153588785Y-101760314D01*
X153303071Y-101974600D01*
X153945928Y-102903171D02*
X153588785Y-102903171D01*
X153731642Y-102546028D02*
X153588785Y-102903171D01*
X153731642Y-103260314D01*
X153303071Y-102688885D02*
X153588785Y-102903171D01*
X153303071Y-103117457D01*
X153231642Y-105474600D02*
X153160214Y-105688885D01*
X153088785Y-105760314D01*
X152945928Y-105831742D01*
X152731642Y-105831742D01*
X152588785Y-105760314D01*
X152517357Y-105688885D01*
X152445928Y-105546028D01*
X152445928Y-104974600D01*
X153945928Y-104974600D01*
X153945928Y-105474600D01*
X153874500Y-105617457D01*
X153803071Y-105688885D01*
X153660214Y-105760314D01*
X153517357Y-105760314D01*
X153374500Y-105688885D01*
X153303071Y-105617457D01*
X153231642Y-105474600D01*
X153231642Y-104974600D01*
X152445928Y-107117457D02*
X153231642Y-107117457D01*
X153374500Y-107046028D01*
X153445928Y-106903171D01*
X153445928Y-106617457D01*
X153374500Y-106474600D01*
X152517357Y-107117457D02*
X152445928Y-106974600D01*
X152445928Y-106617457D01*
X152517357Y-106474600D01*
X152660214Y-106403171D01*
X152803071Y-106403171D01*
X152945928Y-106474600D01*
X153017357Y-106617457D01*
X153017357Y-106974600D01*
X153088785Y-107117457D01*
X152517357Y-108474600D02*
X152445928Y-108331742D01*
X152445928Y-108046028D01*
X152517357Y-107903171D01*
X152588785Y-107831742D01*
X152731642Y-107760314D01*
X153160214Y-107760314D01*
X153303071Y-107831742D01*
X153374500Y-107903171D01*
X153445928Y-108046028D01*
X153445928Y-108331742D01*
X153374500Y-108474600D01*
X152445928Y-109117457D02*
X153945928Y-109117457D01*
X153017357Y-109260314D02*
X152445928Y-109688885D01*
X153445928Y-109688885D02*
X152874500Y-109117457D01*
X152517357Y-111403171D02*
X152445928Y-111617457D01*
X152445928Y-111974600D01*
X152517357Y-112117457D01*
X152588785Y-112188885D01*
X152731642Y-112260314D01*
X152874500Y-112260314D01*
X153017357Y-112188885D01*
X153088785Y-112117457D01*
X153160214Y-111974600D01*
X153231642Y-111688885D01*
X153303071Y-111546028D01*
X153374500Y-111474600D01*
X153517357Y-111403171D01*
X153660214Y-111403171D01*
X153803071Y-111474600D01*
X153874500Y-111546028D01*
X153945928Y-111688885D01*
X153945928Y-112046028D01*
X153874500Y-112260314D01*
X152445928Y-112903171D02*
X153445928Y-112903171D01*
X153945928Y-112903171D02*
X153874500Y-112831742D01*
X153803071Y-112903171D01*
X153874500Y-112974600D01*
X153945928Y-112903171D01*
X153803071Y-112903171D01*
X152445928Y-114260314D02*
X153945928Y-114260314D01*
X152517357Y-114260314D02*
X152445928Y-114117457D01*
X152445928Y-113831742D01*
X152517357Y-113688885D01*
X152588785Y-113617457D01*
X152731642Y-113546028D01*
X153160214Y-113546028D01*
X153303071Y-113617457D01*
X153374500Y-113688885D01*
X153445928Y-113831742D01*
X153445928Y-114117457D01*
X153374500Y-114260314D01*
X152517357Y-115546028D02*
X152445928Y-115403171D01*
X152445928Y-115117457D01*
X152517357Y-114974600D01*
X152660214Y-114903171D01*
X153231642Y-114903171D01*
X153374500Y-114974600D01*
X153445928Y-115117457D01*
X153445928Y-115403171D01*
X153374500Y-115546028D01*
X153231642Y-115617457D01*
X153088785Y-115617457D01*
X152945928Y-114903171D01*
D12*
X173766900Y-62752600D02*
X176306900Y-62752600D01*
X176306900Y-62752600D02*
X176306900Y-93232600D01*
X176306900Y-93232600D02*
X173766900Y-93232600D01*
X173766900Y-93232600D02*
X173766900Y-62752600D01*
X188986900Y-62752600D02*
X191526900Y-62752600D01*
X191526900Y-62752600D02*
X191526900Y-93232600D01*
X191526900Y-93232600D02*
X188986900Y-93232600D01*
X188986900Y-93232600D02*
X188986900Y-62752600D01*
X130650500Y-89054600D02*
X127040500Y-89054600D01*
X130650500Y-85100600D02*
X130650500Y-89045600D01*
X119750500Y-83146600D02*
X128375500Y-83146600D01*
X119750500Y-87054600D02*
X119750500Y-83146600D01*
X119750500Y-87100600D02*
X124800500Y-87146600D01*
X130639500Y-85030600D02*
G75*
G03*
X128375500Y-83146600I-2074000J-190000D01*
G01*
X127035500Y-89030600D02*
G75*
G03*
X124775500Y-87150600I-2070000J-190000D01*
G01*
X168750500Y-70004600D02*
X165140500Y-70004600D01*
X168750500Y-66050600D02*
X168750500Y-69995600D01*
X157850500Y-64096600D02*
X166475500Y-64096600D01*
X157850500Y-68004600D02*
X157850500Y-64096600D01*
X157850500Y-68050600D02*
X162900500Y-68096600D01*
X168739500Y-65980600D02*
G75*
G03*
X166475500Y-64096600I-2074000J-190000D01*
G01*
X165135500Y-69980600D02*
G75*
G03*
X162875500Y-68100600I-2070000J-190000D01*
G01*
X111600500Y-70004600D02*
X107990500Y-70004600D01*
X111600500Y-66050600D02*
X111600500Y-69995600D01*
X100700500Y-64096600D02*
X109325500Y-64096600D01*
X100700500Y-68004600D02*
X100700500Y-64096600D01*
X100700500Y-68050600D02*
X105750500Y-68096600D01*
X111589500Y-65980600D02*
G75*
G03*
X109325500Y-64096600I-2074000J-190000D01*
G01*
X107985500Y-69980600D02*
G75*
G03*
X105725500Y-68100600I-2070000J-190000D01*
G01*
X187800500Y-127154600D02*
X184190500Y-127154600D01*
X187800500Y-123200600D02*
X187800500Y-127145600D01*
X176900500Y-121246600D02*
X185525500Y-121246600D01*
X176900500Y-125154600D02*
X176900500Y-121246600D01*
X176900500Y-125200600D02*
X181950500Y-125246600D01*
X187789500Y-123130600D02*
G75*
G03*
X185525500Y-121246600I-2074000J-190000D01*
G01*
X184185500Y-127130600D02*
G75*
G03*
X181925500Y-125250600I-2070000J-190000D01*
G01*
X187800500Y-108104600D02*
X184190500Y-108104600D01*
X187800500Y-104150600D02*
X187800500Y-108095600D01*
X176900500Y-102196600D02*
X185525500Y-102196600D01*
X176900500Y-106104600D02*
X176900500Y-102196600D01*
X176900500Y-106150600D02*
X181950500Y-106196600D01*
X187789500Y-104080600D02*
G75*
G03*
X185525500Y-102196600I-2074000J-190000D01*
G01*
X184185500Y-108080600D02*
G75*
G03*
X181925500Y-106200600I-2070000J-190000D01*
G01*
X168750500Y-127154600D02*
X165140500Y-127154600D01*
X168750500Y-123200600D02*
X168750500Y-127145600D01*
X157850500Y-121246600D02*
X166475500Y-121246600D01*
X157850500Y-125154600D02*
X157850500Y-121246600D01*
X157850500Y-125200600D02*
X162900500Y-125246600D01*
X168739500Y-123130600D02*
G75*
G03*
X166475500Y-121246600I-2074000J-190000D01*
G01*
X165135500Y-127130600D02*
G75*
G03*
X162875500Y-125250600I-2070000J-190000D01*
G01*
X168750500Y-108104600D02*
X165140500Y-108104600D01*
X168750500Y-104150600D02*
X168750500Y-108095600D01*
X157850500Y-102196600D02*
X166475500Y-102196600D01*
X157850500Y-106104600D02*
X157850500Y-102196600D01*
X157850500Y-106150600D02*
X162900500Y-106196600D01*
X168739500Y-104080600D02*
G75*
G03*
X166475500Y-102196600I-2074000J-190000D01*
G01*
X165135500Y-108080600D02*
G75*
G03*
X162875500Y-106200600I-2070000J-190000D01*
G01*
X168750500Y-89054600D02*
X165140500Y-89054600D01*
X168750500Y-85100600D02*
X168750500Y-89045600D01*
X157850500Y-83146600D02*
X166475500Y-83146600D01*
X157850500Y-87054600D02*
X157850500Y-83146600D01*
X157850500Y-87100600D02*
X162900500Y-87146600D01*
X168739500Y-85030600D02*
G75*
G03*
X166475500Y-83146600I-2074000J-190000D01*
G01*
X165135500Y-89030600D02*
G75*
G03*
X162875500Y-87150600I-2070000J-190000D01*
G01*
X149700500Y-127154600D02*
X146090500Y-127154600D01*
X149700500Y-123200600D02*
X149700500Y-127145600D01*
X138800500Y-121246600D02*
X147425500Y-121246600D01*
X138800500Y-125154600D02*
X138800500Y-121246600D01*
X138800500Y-125200600D02*
X143850500Y-125246600D01*
X149689500Y-123130600D02*
G75*
G03*
X147425500Y-121246600I-2074000J-190000D01*
G01*
X146085500Y-127130600D02*
G75*
G03*
X143825500Y-125250600I-2070000J-190000D01*
G01*
X149700500Y-108104600D02*
X146090500Y-108104600D01*
X149700500Y-104150600D02*
X149700500Y-108095600D01*
X138800500Y-102196600D02*
X147425500Y-102196600D01*
X138800500Y-106104600D02*
X138800500Y-102196600D01*
X138800500Y-106150600D02*
X143850500Y-106196600D01*
X149689500Y-104080600D02*
G75*
G03*
X147425500Y-102196600I-2074000J-190000D01*
G01*
X146085500Y-108080600D02*
G75*
G03*
X143825500Y-106200600I-2070000J-190000D01*
G01*
X149700500Y-89054600D02*
X146090500Y-89054600D01*
X149700500Y-85100600D02*
X149700500Y-89045600D01*
X138800500Y-83146600D02*
X147425500Y-83146600D01*
X138800500Y-87054600D02*
X138800500Y-83146600D01*
X138800500Y-87100600D02*
X143850500Y-87146600D01*
X149689500Y-85030600D02*
G75*
G03*
X147425500Y-83146600I-2074000J-190000D01*
G01*
X146085500Y-89030600D02*
G75*
G03*
X143825500Y-87150600I-2070000J-190000D01*
G01*
X149700500Y-70004600D02*
X146090500Y-70004600D01*
X149700500Y-66050600D02*
X149700500Y-69995600D01*
X138800500Y-64096600D02*
X147425500Y-64096600D01*
X138800500Y-68004600D02*
X138800500Y-64096600D01*
X138800500Y-68050600D02*
X143850500Y-68096600D01*
X149689500Y-65980600D02*
G75*
G03*
X147425500Y-64096600I-2074000J-190000D01*
G01*
X146085500Y-69980600D02*
G75*
G03*
X143825500Y-68100600I-2070000J-190000D01*
G01*
X130650500Y-127154600D02*
X127040500Y-127154600D01*
X130650500Y-123200600D02*
X130650500Y-127145600D01*
X119750500Y-121246600D02*
X128375500Y-121246600D01*
X119750500Y-125154600D02*
X119750500Y-121246600D01*
X119750500Y-125200600D02*
X124800500Y-125246600D01*
X130639500Y-123130600D02*
G75*
G03*
X128375500Y-121246600I-2074000J-190000D01*
G01*
X127035500Y-127130600D02*
G75*
G03*
X124775500Y-125250600I-2070000J-190000D01*
G01*
X130650500Y-108104600D02*
X127040500Y-108104600D01*
X130650500Y-104150600D02*
X130650500Y-108095600D01*
X119750500Y-102196600D02*
X128375500Y-102196600D01*
X119750500Y-106104600D02*
X119750500Y-102196600D01*
X119750500Y-106150600D02*
X124800500Y-106196600D01*
X130639500Y-104080600D02*
G75*
G03*
X128375500Y-102196600I-2074000J-190000D01*
G01*
X127035500Y-108080600D02*
G75*
G03*
X124775500Y-106200600I-2070000J-190000D01*
G01*
X130650500Y-70004600D02*
X127040500Y-70004600D01*
X130650500Y-66050600D02*
X130650500Y-69995600D01*
X119750500Y-64096600D02*
X128375500Y-64096600D01*
X119750500Y-68004600D02*
X119750500Y-64096600D01*
X119750500Y-68050600D02*
X124800500Y-68096600D01*
X130639500Y-65980600D02*
G75*
G03*
X128375500Y-64096600I-2074000J-190000D01*
G01*
X127035500Y-69980600D02*
G75*
G03*
X124775500Y-68100600I-2070000J-190000D01*
G01*
X111600500Y-127154600D02*
X107990500Y-127154600D01*
X111600500Y-123200600D02*
X111600500Y-127145600D01*
X100700500Y-121246600D02*
X109325500Y-121246600D01*
X100700500Y-125154600D02*
X100700500Y-121246600D01*
X100700500Y-125200600D02*
X105750500Y-125246600D01*
X111589500Y-123130600D02*
G75*
G03*
X109325500Y-121246600I-2074000J-190000D01*
G01*
X107985500Y-127130600D02*
G75*
G03*
X105725500Y-125250600I-2070000J-190000D01*
G01*
X111600500Y-108104600D02*
X107990500Y-108104600D01*
X111600500Y-104150600D02*
X111600500Y-108095600D01*
X100700500Y-102196600D02*
X109325500Y-102196600D01*
X100700500Y-106104600D02*
X100700500Y-102196600D01*
X100700500Y-106150600D02*
X105750500Y-106196600D01*
X111589500Y-104080600D02*
G75*
G03*
X109325500Y-102196600I-2074000J-190000D01*
G01*
X107985500Y-108080600D02*
G75*
G03*
X105725500Y-106200600I-2070000J-190000D01*
G01*
X111600500Y-89054600D02*
X107990500Y-89054600D01*
X111600500Y-85100600D02*
X111600500Y-89045600D01*
X100700500Y-83146600D02*
X109325500Y-83146600D01*
X100700500Y-87054600D02*
X100700500Y-83146600D01*
X100700500Y-87100600D02*
X105750500Y-87146600D01*
X111589500Y-85030600D02*
G75*
G03*
X109325500Y-83146600I-2074000J-190000D01*
G01*
X107985500Y-89030600D02*
G75*
G03*
X105725500Y-87150600I-2070000J-190000D01*
G01*
D11*
X173990500Y-97163600D02*
X173990500Y-95713600D01*
X173990500Y-95713600D02*
X176040500Y-95713600D01*
X176040500Y-95713600D02*
X176040500Y-97163600D01*
X176040500Y-97163600D02*
X173990500Y-97163600D01*
D12*
X181300500Y-137050600D02*
X182200500Y-136550600D01*
X182200500Y-136550600D02*
X182200500Y-137550600D01*
X182200500Y-137550600D02*
X181300500Y-137050600D01*
X181200500Y-136550600D02*
X181200500Y-137550600D01*
X184400500Y-136300600D02*
X179000500Y-136300600D01*
X179000500Y-136300600D02*
X179000500Y-137800600D01*
X179000500Y-137800600D02*
X184400500Y-137800600D01*
X184400500Y-137800600D02*
X184400500Y-136300600D01*
X181300500Y-118525600D02*
X182200500Y-118025600D01*
X182200500Y-118025600D02*
X182200500Y-119025600D01*
X182200500Y-119025600D02*
X181300500Y-118525600D01*
X181200500Y-118025600D02*
X181200500Y-119025600D01*
X184400500Y-117775600D02*
X179000500Y-117775600D01*
X179000500Y-117775600D02*
X179000500Y-119275600D01*
X179000500Y-119275600D02*
X184400500Y-119275600D01*
X184400500Y-119275600D02*
X184400500Y-117775600D01*
X162250500Y-137050600D02*
X163150500Y-136550600D01*
X163150500Y-136550600D02*
X163150500Y-137550600D01*
X163150500Y-137550600D02*
X162250500Y-137050600D01*
X162150500Y-136550600D02*
X162150500Y-137550600D01*
X165350500Y-136300600D02*
X159950500Y-136300600D01*
X159950500Y-136300600D02*
X159950500Y-137800600D01*
X159950500Y-137800600D02*
X165350500Y-137800600D01*
X165350500Y-137800600D02*
X165350500Y-136300600D01*
X162250500Y-118525600D02*
X163150500Y-118025600D01*
X163150500Y-118025600D02*
X163150500Y-119025600D01*
X163150500Y-119025600D02*
X162250500Y-118525600D01*
X162150500Y-118025600D02*
X162150500Y-119025600D01*
X165350500Y-117775600D02*
X159950500Y-117775600D01*
X159950500Y-117775600D02*
X159950500Y-119275600D01*
X159950500Y-119275600D02*
X165350500Y-119275600D01*
X165350500Y-119275600D02*
X165350500Y-117775600D01*
X162250500Y-99475600D02*
X163150500Y-98975600D01*
X163150500Y-98975600D02*
X163150500Y-99975600D01*
X163150500Y-99975600D02*
X162250500Y-99475600D01*
X162150500Y-98975600D02*
X162150500Y-99975600D01*
X165350500Y-98725600D02*
X159950500Y-98725600D01*
X159950500Y-98725600D02*
X159950500Y-100225600D01*
X159950500Y-100225600D02*
X165350500Y-100225600D01*
X165350500Y-100225600D02*
X165350500Y-98725600D01*
X162250500Y-80425600D02*
X163150500Y-79925600D01*
X163150500Y-79925600D02*
X163150500Y-80925600D01*
X163150500Y-80925600D02*
X162250500Y-80425600D01*
X162150500Y-79925600D02*
X162150500Y-80925600D01*
X165350500Y-79675600D02*
X159950500Y-79675600D01*
X159950500Y-79675600D02*
X159950500Y-81175600D01*
X159950500Y-81175600D02*
X165350500Y-81175600D01*
X165350500Y-81175600D02*
X165350500Y-79675600D01*
X143200500Y-137050600D02*
X144100500Y-136550600D01*
X144100500Y-136550600D02*
X144100500Y-137550600D01*
X144100500Y-137550600D02*
X143200500Y-137050600D01*
X143100500Y-136550600D02*
X143100500Y-137550600D01*
X146300500Y-136300600D02*
X140900500Y-136300600D01*
X140900500Y-136300600D02*
X140900500Y-137800600D01*
X140900500Y-137800600D02*
X146300500Y-137800600D01*
X146300500Y-137800600D02*
X146300500Y-136300600D01*
X143200500Y-118525600D02*
X144100500Y-118025600D01*
X144100500Y-118025600D02*
X144100500Y-119025600D01*
X144100500Y-119025600D02*
X143200500Y-118525600D01*
X143100500Y-118025600D02*
X143100500Y-119025600D01*
X146300500Y-117775600D02*
X140900500Y-117775600D01*
X140900500Y-117775600D02*
X140900500Y-119275600D01*
X140900500Y-119275600D02*
X146300500Y-119275600D01*
X146300500Y-119275600D02*
X146300500Y-117775600D01*
X143200500Y-99475600D02*
X144100500Y-98975600D01*
X144100500Y-98975600D02*
X144100500Y-99975600D01*
X144100500Y-99975600D02*
X143200500Y-99475600D01*
X143100500Y-98975600D02*
X143100500Y-99975600D01*
X146300500Y-98725600D02*
X140900500Y-98725600D01*
X140900500Y-98725600D02*
X140900500Y-100225600D01*
X140900500Y-100225600D02*
X146300500Y-100225600D01*
X146300500Y-100225600D02*
X146300500Y-98725600D01*
X143200500Y-80425600D02*
X144100500Y-79925600D01*
X144100500Y-79925600D02*
X144100500Y-80925600D01*
X144100500Y-80925600D02*
X143200500Y-80425600D01*
X143100500Y-79925600D02*
X143100500Y-80925600D01*
X146300500Y-79675600D02*
X140900500Y-79675600D01*
X140900500Y-79675600D02*
X140900500Y-81175600D01*
X140900500Y-81175600D02*
X146300500Y-81175600D01*
X146300500Y-81175600D02*
X146300500Y-79675600D01*
X124150500Y-137050600D02*
X125050500Y-136550600D01*
X125050500Y-136550600D02*
X125050500Y-137550600D01*
X125050500Y-137550600D02*
X124150500Y-137050600D01*
X124050500Y-136550600D02*
X124050500Y-137550600D01*
X127250500Y-136300600D02*
X121850500Y-136300600D01*
X121850500Y-136300600D02*
X121850500Y-137800600D01*
X121850500Y-137800600D02*
X127250500Y-137800600D01*
X127250500Y-137800600D02*
X127250500Y-136300600D01*
X124150500Y-118525600D02*
X125050500Y-118025600D01*
X125050500Y-118025600D02*
X125050500Y-119025600D01*
X125050500Y-119025600D02*
X124150500Y-118525600D01*
X124050500Y-118025600D02*
X124050500Y-119025600D01*
X127250500Y-117775600D02*
X121850500Y-117775600D01*
X121850500Y-117775600D02*
X121850500Y-119275600D01*
X121850500Y-119275600D02*
X127250500Y-119275600D01*
X127250500Y-119275600D02*
X127250500Y-117775600D01*
X124150500Y-99475600D02*
X125050500Y-98975600D01*
X125050500Y-98975600D02*
X125050500Y-99975600D01*
X125050500Y-99975600D02*
X124150500Y-99475600D01*
X124050500Y-98975600D02*
X124050500Y-99975600D01*
X127250500Y-98725600D02*
X121850500Y-98725600D01*
X121850500Y-98725600D02*
X121850500Y-100225600D01*
X121850500Y-100225600D02*
X127250500Y-100225600D01*
X127250500Y-100225600D02*
X127250500Y-98725600D01*
X124150500Y-80425600D02*
X125050500Y-79925600D01*
X125050500Y-79925600D02*
X125050500Y-80925600D01*
X125050500Y-80925600D02*
X124150500Y-80425600D01*
X124050500Y-79925600D02*
X124050500Y-80925600D01*
X127250500Y-79675600D02*
X121850500Y-79675600D01*
X121850500Y-79675600D02*
X121850500Y-81175600D01*
X121850500Y-81175600D02*
X127250500Y-81175600D01*
X127250500Y-81175600D02*
X127250500Y-79675600D01*
X105100500Y-137050600D02*
X106000500Y-136550600D01*
X106000500Y-136550600D02*
X106000500Y-137550600D01*
X106000500Y-137550600D02*
X105100500Y-137050600D01*
X105000500Y-136550600D02*
X105000500Y-137550600D01*
X108200500Y-136300600D02*
X102800500Y-136300600D01*
X102800500Y-136300600D02*
X102800500Y-137800600D01*
X102800500Y-137800600D02*
X108200500Y-137800600D01*
X108200500Y-137800600D02*
X108200500Y-136300600D01*
X105100500Y-118525600D02*
X106000500Y-118025600D01*
X106000500Y-118025600D02*
X106000500Y-119025600D01*
X106000500Y-119025600D02*
X105100500Y-118525600D01*
X105000500Y-118025600D02*
X105000500Y-119025600D01*
X108200500Y-117775600D02*
X102800500Y-117775600D01*
X102800500Y-117775600D02*
X102800500Y-119275600D01*
X102800500Y-119275600D02*
X108200500Y-119275600D01*
X108200500Y-119275600D02*
X108200500Y-117775600D01*
X105100500Y-99475600D02*
X106000500Y-98975600D01*
X106000500Y-98975600D02*
X106000500Y-99975600D01*
X106000500Y-99975600D02*
X105100500Y-99475600D01*
X105000500Y-98975600D02*
X105000500Y-99975600D01*
X108200500Y-98725600D02*
X102800500Y-98725600D01*
X102800500Y-98725600D02*
X102800500Y-100225600D01*
X102800500Y-100225600D02*
X108200500Y-100225600D01*
X108200500Y-100225600D02*
X108200500Y-98725600D01*
X105291000Y-80475600D02*
X106191000Y-79975600D01*
X106191000Y-79975600D02*
X106191000Y-80975600D01*
X106191000Y-80975600D02*
X105291000Y-80475600D01*
X105191000Y-79975600D02*
X105191000Y-80975600D01*
X108391000Y-79725600D02*
X102991000Y-79725600D01*
X102991000Y-79725600D02*
X102991000Y-81225600D01*
X102991000Y-81225600D02*
X108391000Y-81225600D01*
X108391000Y-81225600D02*
X108391000Y-79725600D01*
X183836500Y-98809600D02*
X183836500Y-98559600D01*
X189836500Y-98809600D02*
X183836500Y-98809600D01*
X189836500Y-98809600D02*
X189836500Y-98559600D01*
X189836500Y-95309600D02*
X189836500Y-95559600D01*
X183836500Y-95309600D02*
X183836500Y-95559600D01*
X189836500Y-95309600D02*
X183836500Y-95309600D01*
D10*
X170273178Y-92311885D02*
X169844607Y-92311885D01*
X170058892Y-92311885D02*
X170058892Y-91561885D01*
X169987464Y-91669028D01*
X169916035Y-91740457D01*
X169844607Y-91776171D01*
X170737464Y-91561885D02*
X170808892Y-91561885D01*
X170880321Y-91597600D01*
X170916035Y-91633314D01*
X170951750Y-91704742D01*
X170987464Y-91847600D01*
X170987464Y-92026171D01*
X170951750Y-92169028D01*
X170916035Y-92240457D01*
X170880321Y-92276171D01*
X170808892Y-92311885D01*
X170737464Y-92311885D01*
X170666035Y-92276171D01*
X170630321Y-92240457D01*
X170594607Y-92169028D01*
X170558892Y-92026171D01*
X170558892Y-91847600D01*
X170594607Y-91704742D01*
X170630321Y-91633314D01*
X170666035Y-91597600D01*
X170737464Y-91561885D01*
X171844607Y-91526171D02*
X171201750Y-92490457D01*
X172344607Y-91919028D02*
X172451750Y-91954742D01*
X172487464Y-91990457D01*
X172523178Y-92061885D01*
X172523178Y-92169028D01*
X172487464Y-92240457D01*
X172451750Y-92276171D01*
X172380321Y-92311885D01*
X172094607Y-92311885D01*
X172094607Y-91561885D01*
X172344607Y-91561885D01*
X172416035Y-91597600D01*
X172451750Y-91633314D01*
X172487464Y-91704742D01*
X172487464Y-91776171D01*
X172451750Y-91847600D01*
X172416035Y-91883314D01*
X172344607Y-91919028D01*
X172094607Y-91919028D01*
X173166035Y-91561885D02*
X173023178Y-91561885D01*
X172951750Y-91597600D01*
X172916035Y-91633314D01*
X172844607Y-91740457D01*
X172808892Y-91883314D01*
X172808892Y-92169028D01*
X172844607Y-92240457D01*
X172880321Y-92276171D01*
X172951750Y-92311885D01*
X173094607Y-92311885D01*
X173166035Y-92276171D01*
X173201750Y-92240457D01*
X173237464Y-92169028D01*
X173237464Y-91990457D01*
X173201750Y-91919028D01*
X173166035Y-91883314D01*
X173094607Y-91847600D01*
X172951750Y-91847600D01*
X172880321Y-91883314D01*
X172844607Y-91919028D01*
X172808892Y-91990457D01*
X171858892Y-64361885D02*
X171608892Y-64004742D01*
X171430321Y-64361885D02*
X171430321Y-63611885D01*
X171716035Y-63611885D01*
X171787464Y-63647600D01*
X171823178Y-63683314D01*
X171858892Y-63754742D01*
X171858892Y-63861885D01*
X171823178Y-63933314D01*
X171787464Y-63969028D01*
X171716035Y-64004742D01*
X171430321Y-64004742D01*
X172144607Y-64147600D02*
X172501750Y-64147600D01*
X172073178Y-64361885D02*
X172323178Y-63611885D01*
X172573178Y-64361885D01*
X172751750Y-63611885D02*
X172930321Y-64361885D01*
X173073178Y-63826171D01*
X173216035Y-64361885D01*
X173394607Y-63611885D01*
D12*
D10*
X177128573Y-64336485D02*
X176878573Y-63979342D01*
X176700002Y-64336485D02*
X176700002Y-63586485D01*
X176985716Y-63586485D01*
X177057145Y-63622200D01*
X177092859Y-63657914D01*
X177128573Y-63729342D01*
X177128573Y-63836485D01*
X177092859Y-63907914D01*
X177057145Y-63943628D01*
X176985716Y-63979342D01*
X176700002Y-63979342D01*
X177414288Y-64122200D02*
X177771431Y-64122200D01*
X177342859Y-64336485D02*
X177592859Y-63586485D01*
X177842859Y-64336485D01*
X178021431Y-63586485D02*
X178200002Y-64336485D01*
X178342859Y-63800771D01*
X178485716Y-64336485D01*
X178664288Y-63586485D01*
X184490821Y-64387285D02*
X184490821Y-63637285D01*
X184669392Y-63637285D01*
X184776535Y-63673000D01*
X184847964Y-63744428D01*
X184883678Y-63815857D01*
X184919392Y-63958714D01*
X184919392Y-64065857D01*
X184883678Y-64208714D01*
X184847964Y-64280142D01*
X184776535Y-64351571D01*
X184669392Y-64387285D01*
X184490821Y-64387285D01*
X185169392Y-63637285D02*
X185633678Y-63637285D01*
X185383678Y-63923000D01*
X185490821Y-63923000D01*
X185562250Y-63958714D01*
X185597964Y-63994428D01*
X185633678Y-64065857D01*
X185633678Y-64244428D01*
X185597964Y-64315857D01*
X185562250Y-64351571D01*
X185490821Y-64387285D01*
X185276535Y-64387285D01*
X185205107Y-64351571D01*
X185169392Y-64315857D01*
X186490821Y-63601571D02*
X185847964Y-64565857D01*
X186633678Y-63637285D02*
X187062250Y-63637285D01*
X186847964Y-64387285D02*
X186847964Y-63637285D01*
X187240821Y-63637285D02*
X187740821Y-64387285D01*
X187740821Y-63637285D02*
X187240821Y-64387285D01*
X188169392Y-63637285D02*
X188240821Y-63637285D01*
X188312250Y-63673000D01*
X188347964Y-63708714D01*
X188383678Y-63780142D01*
X188419392Y-63923000D01*
X188419392Y-64101571D01*
X188383678Y-64244428D01*
X188347964Y-64315857D01*
X188312250Y-64351571D01*
X188240821Y-64387285D01*
X188169392Y-64387285D01*
X188097964Y-64351571D01*
X188062250Y-64315857D01*
X188026535Y-64244428D01*
X187990821Y-64101571D01*
X187990821Y-63923000D01*
X188026535Y-63780142D01*
X188062250Y-63708714D01*
X188097964Y-63673000D01*
X188169392Y-63637285D01*
X177092859Y-66162200D02*
X177021431Y-66126485D01*
X176914288Y-66126485D01*
X176807145Y-66162200D01*
X176735716Y-66233628D01*
X176700002Y-66305057D01*
X176664288Y-66447914D01*
X176664288Y-66555057D01*
X176700002Y-66697914D01*
X176735716Y-66769342D01*
X176807145Y-66840771D01*
X176914288Y-66876485D01*
X176985716Y-66876485D01*
X177092859Y-66840771D01*
X177128573Y-66805057D01*
X177128573Y-66555057D01*
X176985716Y-66555057D01*
X177450002Y-66876485D02*
X177450002Y-66126485D01*
X177878573Y-66876485D01*
X177878573Y-66126485D01*
X178235716Y-66876485D02*
X178235716Y-66126485D01*
X178414288Y-66126485D01*
X178521431Y-66162200D01*
X178592859Y-66233628D01*
X178628573Y-66305057D01*
X178664288Y-66447914D01*
X178664288Y-66555057D01*
X178628573Y-66697914D01*
X178592859Y-66769342D01*
X178521431Y-66840771D01*
X178414288Y-66876485D01*
X178235716Y-66876485D01*
X184312250Y-66915285D02*
X184312250Y-66165285D01*
X184490821Y-66165285D01*
X184597964Y-66201000D01*
X184669392Y-66272428D01*
X184705107Y-66343857D01*
X184740821Y-66486714D01*
X184740821Y-66593857D01*
X184705107Y-66736714D01*
X184669392Y-66808142D01*
X184597964Y-66879571D01*
X184490821Y-66915285D01*
X184312250Y-66915285D01*
X185026535Y-66236714D02*
X185062250Y-66201000D01*
X185133678Y-66165285D01*
X185312250Y-66165285D01*
X185383678Y-66201000D01*
X185419392Y-66236714D01*
X185455107Y-66308142D01*
X185455107Y-66379571D01*
X185419392Y-66486714D01*
X184990821Y-66915285D01*
X185455107Y-66915285D01*
X186312250Y-66129571D02*
X185669392Y-67093857D01*
X186990821Y-66915285D02*
X186740821Y-66558142D01*
X186562250Y-66915285D02*
X186562250Y-66165285D01*
X186847964Y-66165285D01*
X186919392Y-66201000D01*
X186955107Y-66236714D01*
X186990821Y-66308142D01*
X186990821Y-66415285D01*
X186955107Y-66486714D01*
X186919392Y-66522428D01*
X186847964Y-66558142D01*
X186562250Y-66558142D01*
X187240821Y-66165285D02*
X187740821Y-66915285D01*
X187740821Y-66165285D02*
X187240821Y-66915285D01*
X188419392Y-66915285D02*
X187990821Y-66915285D01*
X188205107Y-66915285D02*
X188205107Y-66165285D01*
X188133678Y-66272428D01*
X188062250Y-66343857D01*
X187990821Y-66379571D01*
X177128573Y-69479985D02*
X176878573Y-69122842D01*
X176700002Y-69479985D02*
X176700002Y-68729985D01*
X176985716Y-68729985D01*
X177057145Y-68765700D01*
X177092859Y-68801414D01*
X177128573Y-68872842D01*
X177128573Y-68979985D01*
X177092859Y-69051414D01*
X177057145Y-69087128D01*
X176985716Y-69122842D01*
X176700002Y-69122842D01*
X177414288Y-69444271D02*
X177521431Y-69479985D01*
X177700002Y-69479985D01*
X177771431Y-69444271D01*
X177807145Y-69408557D01*
X177842859Y-69337128D01*
X177842859Y-69265700D01*
X177807145Y-69194271D01*
X177771431Y-69158557D01*
X177700002Y-69122842D01*
X177557145Y-69087128D01*
X177485716Y-69051414D01*
X177450002Y-69015700D01*
X177414288Y-68944271D01*
X177414288Y-68872842D01*
X177450002Y-68801414D01*
X177485716Y-68765700D01*
X177557145Y-68729985D01*
X177735716Y-68729985D01*
X177842859Y-68765700D01*
X178057145Y-68729985D02*
X178485716Y-68729985D01*
X178271431Y-69479985D02*
X178271431Y-68729985D01*
X186847964Y-68816500D02*
X186776535Y-68780785D01*
X186669392Y-68780785D01*
X186562250Y-68816500D01*
X186490821Y-68887928D01*
X186455107Y-68959357D01*
X186419392Y-69102214D01*
X186419392Y-69209357D01*
X186455107Y-69352214D01*
X186490821Y-69423642D01*
X186562250Y-69495071D01*
X186669392Y-69530785D01*
X186740821Y-69530785D01*
X186847964Y-69495071D01*
X186883678Y-69459357D01*
X186883678Y-69209357D01*
X186740821Y-69209357D01*
X187205107Y-69530785D02*
X187205107Y-68780785D01*
X187633678Y-69530785D01*
X187633678Y-68780785D01*
X187990821Y-69530785D02*
X187990821Y-68780785D01*
X188169392Y-68780785D01*
X188276535Y-68816500D01*
X188347964Y-68887928D01*
X188383678Y-68959357D01*
X188419392Y-69102214D01*
X188419392Y-69209357D01*
X188383678Y-69352214D01*
X188347964Y-69423642D01*
X188276535Y-69495071D01*
X188169392Y-69530785D01*
X187990821Y-69530785D01*
X176592859Y-71206485D02*
X176842859Y-71956485D01*
X177092859Y-71206485D01*
X177771431Y-71885057D02*
X177735716Y-71920771D01*
X177628573Y-71956485D01*
X177557145Y-71956485D01*
X177450002Y-71920771D01*
X177378573Y-71849342D01*
X177342859Y-71777914D01*
X177307145Y-71635057D01*
X177307145Y-71527914D01*
X177342859Y-71385057D01*
X177378573Y-71313628D01*
X177450002Y-71242200D01*
X177557145Y-71206485D01*
X177628573Y-71206485D01*
X177735716Y-71242200D01*
X177771431Y-71277914D01*
X178521431Y-71885057D02*
X178485716Y-71920771D01*
X178378573Y-71956485D01*
X178307145Y-71956485D01*
X178200002Y-71920771D01*
X178128573Y-71849342D01*
X178092859Y-71777914D01*
X178057145Y-71635057D01*
X178057145Y-71527914D01*
X178092859Y-71385057D01*
X178128573Y-71313628D01*
X178200002Y-71242200D01*
X178307145Y-71206485D01*
X178378573Y-71206485D01*
X178485716Y-71242200D01*
X178521431Y-71277914D01*
X186847964Y-71356500D02*
X186776535Y-71320785D01*
X186669392Y-71320785D01*
X186562250Y-71356500D01*
X186490821Y-71427928D01*
X186455107Y-71499357D01*
X186419392Y-71642214D01*
X186419392Y-71749357D01*
X186455107Y-71892214D01*
X186490821Y-71963642D01*
X186562250Y-72035071D01*
X186669392Y-72070785D01*
X186740821Y-72070785D01*
X186847964Y-72035071D01*
X186883678Y-71999357D01*
X186883678Y-71749357D01*
X186740821Y-71749357D01*
X187205107Y-72070785D02*
X187205107Y-71320785D01*
X187633678Y-72070785D01*
X187633678Y-71320785D01*
X187990821Y-72070785D02*
X187990821Y-71320785D01*
X188169392Y-71320785D01*
X188276535Y-71356500D01*
X188347964Y-71427928D01*
X188383678Y-71499357D01*
X188419392Y-71642214D01*
X188419392Y-71749357D01*
X188383678Y-71892214D01*
X188347964Y-71963642D01*
X188276535Y-72035071D01*
X188169392Y-72070785D01*
X187990821Y-72070785D01*
X176664288Y-81950200D02*
X177021431Y-81950200D01*
X176592859Y-82164485D02*
X176842859Y-81414485D01*
X177092859Y-82164485D01*
X177485716Y-81414485D02*
X177557145Y-81414485D01*
X177628573Y-81450200D01*
X177664288Y-81485914D01*
X177700002Y-81557342D01*
X177735716Y-81700200D01*
X177735716Y-81878771D01*
X177700002Y-82021628D01*
X177664288Y-82093057D01*
X177628573Y-82128771D01*
X177557145Y-82164485D01*
X177485716Y-82164485D01*
X177414288Y-82128771D01*
X177378573Y-82093057D01*
X177342859Y-82021628D01*
X177307145Y-81878771D01*
X177307145Y-81700200D01*
X177342859Y-81557342D01*
X177378573Y-81485914D01*
X177414288Y-81450200D01*
X177485716Y-81414485D01*
X178592859Y-81378771D02*
X177950002Y-82343057D01*
X179092859Y-81771628D02*
X178842859Y-81771628D01*
X178842859Y-82164485D02*
X178842859Y-81414485D01*
X179200002Y-81414485D01*
X179414288Y-81414485D02*
X179914288Y-81414485D01*
X179592859Y-82164485D01*
X185776535Y-79665285D02*
X185776535Y-78915285D01*
X185955107Y-78915285D01*
X186062250Y-78951000D01*
X186133678Y-79022428D01*
X186169392Y-79093857D01*
X186205107Y-79236714D01*
X186205107Y-79343857D01*
X186169392Y-79486714D01*
X186133678Y-79558142D01*
X186062250Y-79629571D01*
X185955107Y-79665285D01*
X185776535Y-79665285D01*
X186847964Y-79165285D02*
X186847964Y-79665285D01*
X186669392Y-78879571D02*
X186490821Y-79415285D01*
X186955107Y-79415285D01*
X187776535Y-78879571D02*
X187133678Y-79843857D01*
X188347964Y-79165285D02*
X188347964Y-79665285D01*
X188169392Y-78879571D02*
X187990821Y-79415285D01*
X188455107Y-79415285D01*
X176664288Y-79362200D02*
X177021431Y-79362200D01*
X176592859Y-79576485D02*
X176842859Y-78826485D01*
X177092859Y-79576485D01*
X177735716Y-79576485D02*
X177307145Y-79576485D01*
X177521431Y-79576485D02*
X177521431Y-78826485D01*
X177450002Y-78933628D01*
X177378573Y-79005057D01*
X177307145Y-79040771D01*
X178592859Y-78790771D02*
X177950002Y-79755057D01*
X179092859Y-79183628D02*
X178842859Y-79183628D01*
X178842859Y-79576485D02*
X178842859Y-78826485D01*
X179200002Y-78826485D01*
X179807145Y-78826485D02*
X179664288Y-78826485D01*
X179592859Y-78862200D01*
X179557145Y-78897914D01*
X179485716Y-79005057D01*
X179450002Y-79147914D01*
X179450002Y-79433628D01*
X179485716Y-79505057D01*
X179521431Y-79540771D01*
X179592859Y-79576485D01*
X179735716Y-79576485D01*
X179807145Y-79540771D01*
X179842859Y-79505057D01*
X179878573Y-79433628D01*
X179878573Y-79255057D01*
X179842859Y-79183628D01*
X179807145Y-79147914D01*
X179735716Y-79112200D01*
X179592859Y-79112200D01*
X179521431Y-79147914D01*
X179485716Y-79183628D01*
X179450002Y-79255057D01*
X182883678Y-77051571D02*
X182990821Y-77087285D01*
X183169392Y-77087285D01*
X183240821Y-77051571D01*
X183276535Y-77015857D01*
X183312250Y-76944428D01*
X183312250Y-76873000D01*
X183276535Y-76801571D01*
X183240821Y-76765857D01*
X183169392Y-76730142D01*
X183026535Y-76694428D01*
X182955107Y-76658714D01*
X182919392Y-76623000D01*
X182883678Y-76551571D01*
X182883678Y-76480142D01*
X182919392Y-76408714D01*
X182955107Y-76373000D01*
X183026535Y-76337285D01*
X183205107Y-76337285D01*
X183312250Y-76373000D01*
X184062250Y-77015857D02*
X184026535Y-77051571D01*
X183919392Y-77087285D01*
X183847964Y-77087285D01*
X183740821Y-77051571D01*
X183669392Y-76980142D01*
X183633678Y-76908714D01*
X183597964Y-76765857D01*
X183597964Y-76658714D01*
X183633678Y-76515857D01*
X183669392Y-76444428D01*
X183740821Y-76373000D01*
X183847964Y-76337285D01*
X183919392Y-76337285D01*
X184026535Y-76373000D01*
X184062250Y-76408714D01*
X184740821Y-77087285D02*
X184383678Y-77087285D01*
X184383678Y-76337285D01*
X185526535Y-76301571D02*
X184883678Y-77265857D01*
X185776535Y-77087285D02*
X185776535Y-76337285D01*
X185955107Y-76337285D01*
X186062250Y-76373000D01*
X186133678Y-76444428D01*
X186169392Y-76515857D01*
X186205107Y-76658714D01*
X186205107Y-76765857D01*
X186169392Y-76908714D01*
X186133678Y-76980142D01*
X186062250Y-77051571D01*
X185955107Y-77087285D01*
X185776535Y-77087285D01*
X186669392Y-76337285D02*
X186740821Y-76337285D01*
X186812250Y-76373000D01*
X186847964Y-76408714D01*
X186883678Y-76480142D01*
X186919392Y-76623000D01*
X186919392Y-76801571D01*
X186883678Y-76944428D01*
X186847964Y-77015857D01*
X186812250Y-77051571D01*
X186740821Y-77087285D01*
X186669392Y-77087285D01*
X186597964Y-77051571D01*
X186562250Y-77015857D01*
X186526535Y-76944428D01*
X186490821Y-76801571D01*
X186490821Y-76623000D01*
X186526535Y-76480142D01*
X186562250Y-76408714D01*
X186597964Y-76373000D01*
X186669392Y-76337285D01*
X187776535Y-76301571D02*
X187133678Y-77265857D01*
X187955107Y-76337285D02*
X188419392Y-76337285D01*
X188169392Y-76623000D01*
X188276535Y-76623000D01*
X188347964Y-76658714D01*
X188383678Y-76694428D01*
X188419392Y-76765857D01*
X188419392Y-76944428D01*
X188383678Y-77015857D01*
X188347964Y-77051571D01*
X188276535Y-77087285D01*
X188062250Y-77087285D01*
X187990821Y-77051571D01*
X187955107Y-77015857D01*
X176664288Y-76822200D02*
X177021431Y-76822200D01*
X176592859Y-77036485D02*
X176842859Y-76286485D01*
X177092859Y-77036485D01*
X177307145Y-76357914D02*
X177342859Y-76322200D01*
X177414288Y-76286485D01*
X177592859Y-76286485D01*
X177664288Y-76322200D01*
X177700002Y-76357914D01*
X177735716Y-76429342D01*
X177735716Y-76500771D01*
X177700002Y-76607914D01*
X177271431Y-77036485D01*
X177735716Y-77036485D01*
X178592859Y-76250771D02*
X177950002Y-77215057D01*
X179092859Y-76643628D02*
X178842859Y-76643628D01*
X178842859Y-77036485D02*
X178842859Y-76286485D01*
X179200002Y-76286485D01*
X179842859Y-76286485D02*
X179485716Y-76286485D01*
X179450002Y-76643628D01*
X179485716Y-76607914D01*
X179557145Y-76572200D01*
X179735716Y-76572200D01*
X179807145Y-76607914D01*
X179842859Y-76643628D01*
X179878573Y-76715057D01*
X179878573Y-76893628D01*
X179842859Y-76965057D01*
X179807145Y-77000771D01*
X179735716Y-77036485D01*
X179557145Y-77036485D01*
X179485716Y-77000771D01*
X179450002Y-76965057D01*
X182847964Y-74511571D02*
X182955107Y-74547285D01*
X183133678Y-74547285D01*
X183205107Y-74511571D01*
X183240821Y-74475857D01*
X183276535Y-74404428D01*
X183276535Y-74333000D01*
X183240821Y-74261571D01*
X183205107Y-74225857D01*
X183133678Y-74190142D01*
X182990821Y-74154428D01*
X182919392Y-74118714D01*
X182883678Y-74083000D01*
X182847964Y-74011571D01*
X182847964Y-73940142D01*
X182883678Y-73868714D01*
X182919392Y-73833000D01*
X182990821Y-73797285D01*
X183169392Y-73797285D01*
X183276535Y-73833000D01*
X183597964Y-74547285D02*
X183597964Y-73797285D01*
X183776535Y-73797285D01*
X183883678Y-73833000D01*
X183955107Y-73904428D01*
X183990821Y-73975857D01*
X184026535Y-74118714D01*
X184026535Y-74225857D01*
X183990821Y-74368714D01*
X183955107Y-74440142D01*
X183883678Y-74511571D01*
X183776535Y-74547285D01*
X183597964Y-74547285D01*
X184312250Y-74333000D02*
X184669392Y-74333000D01*
X184240821Y-74547285D02*
X184490821Y-73797285D01*
X184740821Y-74547285D01*
X185526535Y-73761571D02*
X184883678Y-74725857D01*
X185776535Y-74547285D02*
X185776535Y-73797285D01*
X185955107Y-73797285D01*
X186062250Y-73833000D01*
X186133678Y-73904428D01*
X186169392Y-73975857D01*
X186205107Y-74118714D01*
X186205107Y-74225857D01*
X186169392Y-74368714D01*
X186133678Y-74440142D01*
X186062250Y-74511571D01*
X185955107Y-74547285D01*
X185776535Y-74547285D01*
X186919392Y-74547285D02*
X186490821Y-74547285D01*
X186705107Y-74547285D02*
X186705107Y-73797285D01*
X186633678Y-73904428D01*
X186562250Y-73975857D01*
X186490821Y-74011571D01*
X187776535Y-73761571D02*
X187133678Y-74725857D01*
X187990821Y-73868714D02*
X188026535Y-73833000D01*
X188097964Y-73797285D01*
X188276535Y-73797285D01*
X188347964Y-73833000D01*
X188383678Y-73868714D01*
X188419392Y-73940142D01*
X188419392Y-74011571D01*
X188383678Y-74118714D01*
X187955107Y-74547285D01*
X188419392Y-74547285D01*
X176664288Y-74300200D02*
X177021431Y-74300200D01*
X176592859Y-74514485D02*
X176842859Y-73764485D01*
X177092859Y-74514485D01*
X177271431Y-73764485D02*
X177735716Y-73764485D01*
X177485716Y-74050200D01*
X177592859Y-74050200D01*
X177664288Y-74085914D01*
X177700002Y-74121628D01*
X177735716Y-74193057D01*
X177735716Y-74371628D01*
X177700002Y-74443057D01*
X177664288Y-74478771D01*
X177592859Y-74514485D01*
X177378573Y-74514485D01*
X177307145Y-74478771D01*
X177271431Y-74443057D01*
X178592859Y-73728771D02*
X177950002Y-74693057D01*
X179092859Y-74121628D02*
X178842859Y-74121628D01*
X178842859Y-74514485D02*
X178842859Y-73764485D01*
X179200002Y-73764485D01*
X179807145Y-74014485D02*
X179807145Y-74514485D01*
X179628573Y-73728771D02*
X179450002Y-74264485D01*
X179914288Y-74264485D01*
X177092859Y-92314485D02*
X176664288Y-92314485D01*
X176878573Y-92314485D02*
X176878573Y-91564485D01*
X176807145Y-91671628D01*
X176735716Y-91743057D01*
X176664288Y-91778771D01*
X177557145Y-91564485D02*
X177628573Y-91564485D01*
X177700002Y-91600200D01*
X177735716Y-91635914D01*
X177771431Y-91707342D01*
X177807145Y-91850200D01*
X177807145Y-92028771D01*
X177771431Y-92171628D01*
X177735716Y-92243057D01*
X177700002Y-92278771D01*
X177628573Y-92314485D01*
X177557145Y-92314485D01*
X177485716Y-92278771D01*
X177450002Y-92243057D01*
X177414288Y-92171628D01*
X177378573Y-92028771D01*
X177378573Y-91850200D01*
X177414288Y-91707342D01*
X177450002Y-91635914D01*
X177485716Y-91600200D01*
X177557145Y-91564485D01*
X178664288Y-91528771D02*
X178021431Y-92493057D01*
X179164288Y-91921628D02*
X179271431Y-91957342D01*
X179307145Y-91993057D01*
X179342859Y-92064485D01*
X179342859Y-92171628D01*
X179307145Y-92243057D01*
X179271431Y-92278771D01*
X179200002Y-92314485D01*
X178914288Y-92314485D01*
X178914288Y-91564485D01*
X179164288Y-91564485D01*
X179235716Y-91600200D01*
X179271431Y-91635914D01*
X179307145Y-91707342D01*
X179307145Y-91778771D01*
X179271431Y-91850200D01*
X179235716Y-91885914D01*
X179164288Y-91921628D01*
X178914288Y-91921628D01*
X179985716Y-91564485D02*
X179842859Y-91564485D01*
X179771431Y-91600200D01*
X179735716Y-91635914D01*
X179664288Y-91743057D01*
X179628573Y-91885914D01*
X179628573Y-92171628D01*
X179664288Y-92243057D01*
X179700002Y-92278771D01*
X179771431Y-92314485D01*
X179914288Y-92314485D01*
X179985716Y-92278771D01*
X180021431Y-92243057D01*
X180057145Y-92171628D01*
X180057145Y-91993057D01*
X180021431Y-91921628D01*
X179985716Y-91885914D01*
X179914288Y-91850200D01*
X179771431Y-91850200D01*
X179700002Y-91885914D01*
X179664288Y-91921628D01*
X179628573Y-91993057D01*
X186026535Y-91997928D02*
X186133678Y-92033642D01*
X186169392Y-92069357D01*
X186205107Y-92140785D01*
X186205107Y-92247928D01*
X186169392Y-92319357D01*
X186133678Y-92355071D01*
X186062250Y-92390785D01*
X185776535Y-92390785D01*
X185776535Y-91640785D01*
X186026535Y-91640785D01*
X186097964Y-91676500D01*
X186133678Y-91712214D01*
X186169392Y-91783642D01*
X186169392Y-91855071D01*
X186133678Y-91926500D01*
X186097964Y-91962214D01*
X186026535Y-91997928D01*
X185776535Y-91997928D01*
X186883678Y-91640785D02*
X186526535Y-91640785D01*
X186490821Y-91997928D01*
X186526535Y-91962214D01*
X186597964Y-91926500D01*
X186776535Y-91926500D01*
X186847964Y-91962214D01*
X186883678Y-91997928D01*
X186919392Y-92069357D01*
X186919392Y-92247928D01*
X186883678Y-92319357D01*
X186847964Y-92355071D01*
X186776535Y-92390785D01*
X186597964Y-92390785D01*
X186526535Y-92355071D01*
X186490821Y-92319357D01*
X187776535Y-91605071D02*
X187133678Y-92569357D01*
X188062250Y-92390785D02*
X188205107Y-92390785D01*
X188276535Y-92355071D01*
X188312250Y-92319357D01*
X188383678Y-92212214D01*
X188419392Y-92069357D01*
X188419392Y-91783642D01*
X188383678Y-91712214D01*
X188347964Y-91676500D01*
X188276535Y-91640785D01*
X188133678Y-91640785D01*
X188062250Y-91676500D01*
X188026535Y-91712214D01*
X187990821Y-91783642D01*
X187990821Y-91962214D01*
X188026535Y-92033642D01*
X188062250Y-92069357D01*
X188133678Y-92105071D01*
X188276535Y-92105071D01*
X188347964Y-92069357D01*
X188383678Y-92033642D01*
X188419392Y-91962214D01*
X186026535Y-89394428D02*
X186133678Y-89430142D01*
X186169392Y-89465857D01*
X186205107Y-89537285D01*
X186205107Y-89644428D01*
X186169392Y-89715857D01*
X186133678Y-89751571D01*
X186062250Y-89787285D01*
X185776535Y-89787285D01*
X185776535Y-89037285D01*
X186026535Y-89037285D01*
X186097964Y-89073000D01*
X186133678Y-89108714D01*
X186169392Y-89180142D01*
X186169392Y-89251571D01*
X186133678Y-89323000D01*
X186097964Y-89358714D01*
X186026535Y-89394428D01*
X185776535Y-89394428D01*
X186847964Y-89287285D02*
X186847964Y-89787285D01*
X186669392Y-89001571D02*
X186490821Y-89537285D01*
X186955107Y-89537285D01*
X187776535Y-89001571D02*
X187133678Y-89965857D01*
X188133678Y-89358714D02*
X188062250Y-89323000D01*
X188026535Y-89287285D01*
X187990821Y-89215857D01*
X187990821Y-89180142D01*
X188026535Y-89108714D01*
X188062250Y-89073000D01*
X188133678Y-89037285D01*
X188276535Y-89037285D01*
X188347964Y-89073000D01*
X188383678Y-89108714D01*
X188419392Y-89180142D01*
X188419392Y-89215857D01*
X188383678Y-89287285D01*
X188347964Y-89323000D01*
X188276535Y-89358714D01*
X188133678Y-89358714D01*
X188062250Y-89394428D01*
X188026535Y-89430142D01*
X187990821Y-89501571D01*
X187990821Y-89644428D01*
X188026535Y-89715857D01*
X188062250Y-89751571D01*
X188133678Y-89787285D01*
X188276535Y-89787285D01*
X188347964Y-89751571D01*
X188383678Y-89715857D01*
X188419392Y-89644428D01*
X188419392Y-89501571D01*
X188383678Y-89430142D01*
X188347964Y-89394428D01*
X188276535Y-89358714D01*
X177092859Y-89764485D02*
X176664288Y-89764485D01*
X176878573Y-89764485D02*
X176878573Y-89014485D01*
X176807145Y-89121628D01*
X176735716Y-89193057D01*
X176664288Y-89228771D01*
X177735716Y-89014485D02*
X177592859Y-89014485D01*
X177521431Y-89050200D01*
X177485716Y-89085914D01*
X177414288Y-89193057D01*
X177378573Y-89335914D01*
X177378573Y-89621628D01*
X177414288Y-89693057D01*
X177450002Y-89728771D01*
X177521431Y-89764485D01*
X177664288Y-89764485D01*
X177735716Y-89728771D01*
X177771431Y-89693057D01*
X177807145Y-89621628D01*
X177807145Y-89443057D01*
X177771431Y-89371628D01*
X177735716Y-89335914D01*
X177664288Y-89300200D01*
X177521431Y-89300200D01*
X177450002Y-89335914D01*
X177414288Y-89371628D01*
X177378573Y-89443057D01*
X178664288Y-88978771D02*
X178021431Y-89943057D01*
X179164288Y-89371628D02*
X179271431Y-89407342D01*
X179307145Y-89443057D01*
X179342859Y-89514485D01*
X179342859Y-89621628D01*
X179307145Y-89693057D01*
X179271431Y-89728771D01*
X179200002Y-89764485D01*
X178914288Y-89764485D01*
X178914288Y-89014485D01*
X179164288Y-89014485D01*
X179235716Y-89050200D01*
X179271431Y-89085914D01*
X179307145Y-89157342D01*
X179307145Y-89228771D01*
X179271431Y-89300200D01*
X179235716Y-89335914D01*
X179164288Y-89371628D01*
X178914288Y-89371628D01*
X179628573Y-89085914D02*
X179664288Y-89050200D01*
X179735716Y-89014485D01*
X179914288Y-89014485D01*
X179985716Y-89050200D01*
X180021431Y-89085914D01*
X180057145Y-89157342D01*
X180057145Y-89228771D01*
X180021431Y-89335914D01*
X179592859Y-89764485D01*
X180057145Y-89764485D01*
X185847964Y-86917928D02*
X186097964Y-86917928D01*
X186205107Y-87310785D02*
X185847964Y-87310785D01*
X185847964Y-86560785D01*
X186205107Y-86560785D01*
X186847964Y-86560785D02*
X186705107Y-86560785D01*
X186633678Y-86596500D01*
X186597964Y-86632214D01*
X186526535Y-86739357D01*
X186490821Y-86882214D01*
X186490821Y-87167928D01*
X186526535Y-87239357D01*
X186562250Y-87275071D01*
X186633678Y-87310785D01*
X186776535Y-87310785D01*
X186847964Y-87275071D01*
X186883678Y-87239357D01*
X186919392Y-87167928D01*
X186919392Y-86989357D01*
X186883678Y-86917928D01*
X186847964Y-86882214D01*
X186776535Y-86846500D01*
X186633678Y-86846500D01*
X186562250Y-86882214D01*
X186526535Y-86917928D01*
X186490821Y-86989357D01*
X187776535Y-86525071D02*
X187133678Y-87489357D01*
X187955107Y-86560785D02*
X188455107Y-86560785D01*
X188133678Y-87310785D01*
X177092859Y-87259985D02*
X176664288Y-87259985D01*
X176878573Y-87259985D02*
X176878573Y-86509985D01*
X176807145Y-86617128D01*
X176735716Y-86688557D01*
X176664288Y-86724271D01*
X177735716Y-86759985D02*
X177735716Y-87259985D01*
X177557145Y-86474271D02*
X177378573Y-87009985D01*
X177842859Y-87009985D01*
X178664288Y-86474271D02*
X178021431Y-87438557D01*
X179164288Y-86867128D02*
X179271431Y-86902842D01*
X179307145Y-86938557D01*
X179342859Y-87009985D01*
X179342859Y-87117128D01*
X179307145Y-87188557D01*
X179271431Y-87224271D01*
X179200002Y-87259985D01*
X178914288Y-87259985D01*
X178914288Y-86509985D01*
X179164288Y-86509985D01*
X179235716Y-86545700D01*
X179271431Y-86581414D01*
X179307145Y-86652842D01*
X179307145Y-86724271D01*
X179271431Y-86795700D01*
X179235716Y-86831414D01*
X179164288Y-86867128D01*
X178914288Y-86867128D01*
X179592859Y-86509985D02*
X180057145Y-86509985D01*
X179807145Y-86795700D01*
X179914288Y-86795700D01*
X179985716Y-86831414D01*
X180021431Y-86867128D01*
X180057145Y-86938557D01*
X180057145Y-87117128D01*
X180021431Y-87188557D01*
X179985716Y-87224271D01*
X179914288Y-87259985D01*
X179700002Y-87259985D01*
X179628573Y-87224271D01*
X179592859Y-87188557D01*
X185776535Y-84715285D02*
X185776535Y-83965285D01*
X185955107Y-83965285D01*
X186062250Y-84001000D01*
X186133678Y-84072428D01*
X186169392Y-84143857D01*
X186205107Y-84286714D01*
X186205107Y-84393857D01*
X186169392Y-84536714D01*
X186133678Y-84608142D01*
X186062250Y-84679571D01*
X185955107Y-84715285D01*
X185776535Y-84715285D01*
X186455107Y-83965285D02*
X186955107Y-83965285D01*
X186633678Y-84715285D01*
X187776535Y-83929571D02*
X187133678Y-84893857D01*
X188347964Y-83965285D02*
X188205107Y-83965285D01*
X188133678Y-84001000D01*
X188097964Y-84036714D01*
X188026535Y-84143857D01*
X187990821Y-84286714D01*
X187990821Y-84572428D01*
X188026535Y-84643857D01*
X188062250Y-84679571D01*
X188133678Y-84715285D01*
X188276535Y-84715285D01*
X188347964Y-84679571D01*
X188383678Y-84643857D01*
X188419392Y-84572428D01*
X188419392Y-84393857D01*
X188383678Y-84322428D01*
X188347964Y-84286714D01*
X188276535Y-84251000D01*
X188133678Y-84251000D01*
X188062250Y-84286714D01*
X188026535Y-84322428D01*
X187990821Y-84393857D01*
X177092859Y-84664485D02*
X176664288Y-84664485D01*
X176878573Y-84664485D02*
X176878573Y-83914485D01*
X176807145Y-84021628D01*
X176735716Y-84093057D01*
X176664288Y-84128771D01*
X177771431Y-83914485D02*
X177414288Y-83914485D01*
X177378573Y-84271628D01*
X177414288Y-84235914D01*
X177485716Y-84200200D01*
X177664288Y-84200200D01*
X177735716Y-84235914D01*
X177771431Y-84271628D01*
X177807145Y-84343057D01*
X177807145Y-84521628D01*
X177771431Y-84593057D01*
X177735716Y-84628771D01*
X177664288Y-84664485D01*
X177485716Y-84664485D01*
X177414288Y-84628771D01*
X177378573Y-84593057D01*
X178664288Y-83878771D02*
X178021431Y-84843057D01*
X179164288Y-84271628D02*
X179271431Y-84307342D01*
X179307145Y-84343057D01*
X179342859Y-84414485D01*
X179342859Y-84521628D01*
X179307145Y-84593057D01*
X179271431Y-84628771D01*
X179200002Y-84664485D01*
X178914288Y-84664485D01*
X178914288Y-83914485D01*
X179164288Y-83914485D01*
X179235716Y-83950200D01*
X179271431Y-83985914D01*
X179307145Y-84057342D01*
X179307145Y-84128771D01*
X179271431Y-84200200D01*
X179235716Y-84235914D01*
X179164288Y-84271628D01*
X178914288Y-84271628D01*
X180057145Y-84664485D02*
X179628573Y-84664485D01*
X179842859Y-84664485D02*
X179842859Y-83914485D01*
X179771431Y-84021628D01*
X179700002Y-84093057D01*
X179628573Y-84128771D01*
X186205107Y-82095857D02*
X186169392Y-82131571D01*
X186062250Y-82167285D01*
X185990821Y-82167285D01*
X185883678Y-82131571D01*
X185812250Y-82060142D01*
X185776535Y-81988714D01*
X185740821Y-81845857D01*
X185740821Y-81738714D01*
X185776535Y-81595857D01*
X185812250Y-81524428D01*
X185883678Y-81453000D01*
X185990821Y-81417285D01*
X186062250Y-81417285D01*
X186169392Y-81453000D01*
X186205107Y-81488714D01*
X186847964Y-81417285D02*
X186705107Y-81417285D01*
X186633678Y-81453000D01*
X186597964Y-81488714D01*
X186526535Y-81595857D01*
X186490821Y-81738714D01*
X186490821Y-82024428D01*
X186526535Y-82095857D01*
X186562250Y-82131571D01*
X186633678Y-82167285D01*
X186776535Y-82167285D01*
X186847964Y-82131571D01*
X186883678Y-82095857D01*
X186919392Y-82024428D01*
X186919392Y-81845857D01*
X186883678Y-81774428D01*
X186847964Y-81738714D01*
X186776535Y-81703000D01*
X186633678Y-81703000D01*
X186562250Y-81738714D01*
X186526535Y-81774428D01*
X186490821Y-81845857D01*
X187776535Y-81381571D02*
X187133678Y-82345857D01*
X188383678Y-81417285D02*
X188026535Y-81417285D01*
X187990821Y-81774428D01*
X188026535Y-81738714D01*
X188097964Y-81703000D01*
X188276535Y-81703000D01*
X188347964Y-81738714D01*
X188383678Y-81774428D01*
X188419392Y-81845857D01*
X188419392Y-82024428D01*
X188383678Y-82095857D01*
X188347964Y-82131571D01*
X188276535Y-82167285D01*
X188097964Y-82167285D01*
X188026535Y-82131571D01*
X187990821Y-82095857D01*
D12*
X128613476Y-96355361D02*
X128756333Y-96402980D01*
X128994428Y-96402980D01*
X129089666Y-96355361D01*
X129137285Y-96307742D01*
X129184904Y-96212504D01*
X129184904Y-96117266D01*
X129137285Y-96022028D01*
X129089666Y-95974409D01*
X128994428Y-95926790D01*
X128803952Y-95879171D01*
X128708714Y-95831552D01*
X128661095Y-95783933D01*
X128613476Y-95688695D01*
X128613476Y-95593457D01*
X128661095Y-95498219D01*
X128708714Y-95450600D01*
X128803952Y-95402980D01*
X129042047Y-95402980D01*
X129184904Y-95450600D01*
X129518238Y-95402980D02*
X129756333Y-96402980D01*
X129946809Y-95688695D01*
X130137285Y-96402980D01*
X130375380Y-95402980D01*
X131184904Y-95402980D02*
X130994428Y-95402980D01*
X130899190Y-95450600D01*
X130851571Y-95498219D01*
X130756333Y-95641076D01*
X130708714Y-95831552D01*
X130708714Y-96212504D01*
X130756333Y-96307742D01*
X130803952Y-96355361D01*
X130899190Y-96402980D01*
X131089666Y-96402980D01*
X131184904Y-96355361D01*
X131232523Y-96307742D01*
X131280142Y-96212504D01*
X131280142Y-95974409D01*
X131232523Y-95879171D01*
X131184904Y-95831552D01*
X131089666Y-95783933D01*
X130899190Y-95783933D01*
X130803952Y-95831552D01*
X130756333Y-95879171D01*
X130708714Y-95974409D01*
X166713476Y-77305361D02*
X166856333Y-77352980D01*
X167094428Y-77352980D01*
X167189666Y-77305361D01*
X167237285Y-77257742D01*
X167284904Y-77162504D01*
X167284904Y-77067266D01*
X167237285Y-76972028D01*
X167189666Y-76924409D01*
X167094428Y-76876790D01*
X166903952Y-76829171D01*
X166808714Y-76781552D01*
X166761095Y-76733933D01*
X166713476Y-76638695D01*
X166713476Y-76543457D01*
X166761095Y-76448219D01*
X166808714Y-76400600D01*
X166903952Y-76352980D01*
X167142047Y-76352980D01*
X167284904Y-76400600D01*
X167618238Y-76352980D02*
X167856333Y-77352980D01*
X168046809Y-76638695D01*
X168237285Y-77352980D01*
X168475380Y-76352980D01*
X169380142Y-77352980D02*
X168808714Y-77352980D01*
X169094428Y-77352980D02*
X169094428Y-76352980D01*
X168999190Y-76495838D01*
X168903952Y-76591076D01*
X168808714Y-76638695D01*
X169713476Y-76352980D02*
X170332523Y-76352980D01*
X169999190Y-76733933D01*
X170142047Y-76733933D01*
X170237285Y-76781552D01*
X170284904Y-76829171D01*
X170332523Y-76924409D01*
X170332523Y-77162504D01*
X170284904Y-77257742D01*
X170237285Y-77305361D01*
X170142047Y-77352980D01*
X169856333Y-77352980D01*
X169761095Y-77305361D01*
X169713476Y-77257742D01*
X109563476Y-77305361D02*
X109706333Y-77352980D01*
X109944428Y-77352980D01*
X110039666Y-77305361D01*
X110087285Y-77257742D01*
X110134904Y-77162504D01*
X110134904Y-77067266D01*
X110087285Y-76972028D01*
X110039666Y-76924409D01*
X109944428Y-76876790D01*
X109753952Y-76829171D01*
X109658714Y-76781552D01*
X109611095Y-76733933D01*
X109563476Y-76638695D01*
X109563476Y-76543457D01*
X109611095Y-76448219D01*
X109658714Y-76400600D01*
X109753952Y-76352980D01*
X109992047Y-76352980D01*
X110134904Y-76400600D01*
X110468238Y-76352980D02*
X110706333Y-77352980D01*
X110896809Y-76638695D01*
X111087285Y-77352980D01*
X111325380Y-76352980D01*
X112230142Y-77352980D02*
X111658714Y-77352980D01*
X111944428Y-77352980D02*
X111944428Y-76352980D01*
X111849190Y-76495838D01*
X111753952Y-76591076D01*
X111658714Y-76638695D01*
X185763476Y-134455361D02*
X185906333Y-134502980D01*
X186144428Y-134502980D01*
X186239666Y-134455361D01*
X186287285Y-134407742D01*
X186334904Y-134312504D01*
X186334904Y-134217266D01*
X186287285Y-134122028D01*
X186239666Y-134074409D01*
X186144428Y-134026790D01*
X185953952Y-133979171D01*
X185858714Y-133931552D01*
X185811095Y-133883933D01*
X185763476Y-133788695D01*
X185763476Y-133693457D01*
X185811095Y-133598219D01*
X185858714Y-133550600D01*
X185953952Y-133502980D01*
X186192047Y-133502980D01*
X186334904Y-133550600D01*
X186668238Y-133502980D02*
X186906333Y-134502980D01*
X187096809Y-133788695D01*
X187287285Y-134502980D01*
X187525380Y-133502980D01*
X188430142Y-134502980D02*
X187858714Y-134502980D01*
X188144428Y-134502980D02*
X188144428Y-133502980D01*
X188049190Y-133645838D01*
X187953952Y-133741076D01*
X187858714Y-133788695D01*
X189001571Y-133931552D02*
X188906333Y-133883933D01*
X188858714Y-133836314D01*
X188811095Y-133741076D01*
X188811095Y-133693457D01*
X188858714Y-133598219D01*
X188906333Y-133550600D01*
X189001571Y-133502980D01*
X189192047Y-133502980D01*
X189287285Y-133550600D01*
X189334904Y-133598219D01*
X189382523Y-133693457D01*
X189382523Y-133741076D01*
X189334904Y-133836314D01*
X189287285Y-133883933D01*
X189192047Y-133931552D01*
X189001571Y-133931552D01*
X188906333Y-133979171D01*
X188858714Y-134026790D01*
X188811095Y-134122028D01*
X188811095Y-134312504D01*
X188858714Y-134407742D01*
X188906333Y-134455361D01*
X189001571Y-134502980D01*
X189192047Y-134502980D01*
X189287285Y-134455361D01*
X189334904Y-134407742D01*
X189382523Y-134312504D01*
X189382523Y-134122028D01*
X189334904Y-134026790D01*
X189287285Y-133979171D01*
X189192047Y-133931552D01*
X185763476Y-115405361D02*
X185906333Y-115452980D01*
X186144428Y-115452980D01*
X186239666Y-115405361D01*
X186287285Y-115357742D01*
X186334904Y-115262504D01*
X186334904Y-115167266D01*
X186287285Y-115072028D01*
X186239666Y-115024409D01*
X186144428Y-114976790D01*
X185953952Y-114929171D01*
X185858714Y-114881552D01*
X185811095Y-114833933D01*
X185763476Y-114738695D01*
X185763476Y-114643457D01*
X185811095Y-114548219D01*
X185858714Y-114500600D01*
X185953952Y-114452980D01*
X186192047Y-114452980D01*
X186334904Y-114500600D01*
X186668238Y-114452980D02*
X186906333Y-115452980D01*
X187096809Y-114738695D01*
X187287285Y-115452980D01*
X187525380Y-114452980D01*
X188430142Y-115452980D02*
X187858714Y-115452980D01*
X188144428Y-115452980D02*
X188144428Y-114452980D01*
X188049190Y-114595838D01*
X187953952Y-114691076D01*
X187858714Y-114738695D01*
X188763476Y-114452980D02*
X189430142Y-114452980D01*
X189001571Y-115452980D01*
X166713476Y-134455361D02*
X166856333Y-134502980D01*
X167094428Y-134502980D01*
X167189666Y-134455361D01*
X167237285Y-134407742D01*
X167284904Y-134312504D01*
X167284904Y-134217266D01*
X167237285Y-134122028D01*
X167189666Y-134074409D01*
X167094428Y-134026790D01*
X166903952Y-133979171D01*
X166808714Y-133931552D01*
X166761095Y-133883933D01*
X166713476Y-133788695D01*
X166713476Y-133693457D01*
X166761095Y-133598219D01*
X166808714Y-133550600D01*
X166903952Y-133502980D01*
X167142047Y-133502980D01*
X167284904Y-133550600D01*
X167618238Y-133502980D02*
X167856333Y-134502980D01*
X168046809Y-133788695D01*
X168237285Y-134502980D01*
X168475380Y-133502980D01*
X169380142Y-134502980D02*
X168808714Y-134502980D01*
X169094428Y-134502980D02*
X169094428Y-133502980D01*
X168999190Y-133645838D01*
X168903952Y-133741076D01*
X168808714Y-133788695D01*
X170237285Y-133502980D02*
X170046809Y-133502980D01*
X169951571Y-133550600D01*
X169903952Y-133598219D01*
X169808714Y-133741076D01*
X169761095Y-133931552D01*
X169761095Y-134312504D01*
X169808714Y-134407742D01*
X169856333Y-134455361D01*
X169951571Y-134502980D01*
X170142047Y-134502980D01*
X170237285Y-134455361D01*
X170284904Y-134407742D01*
X170332523Y-134312504D01*
X170332523Y-134074409D01*
X170284904Y-133979171D01*
X170237285Y-133931552D01*
X170142047Y-133883933D01*
X169951571Y-133883933D01*
X169856333Y-133931552D01*
X169808714Y-133979171D01*
X169761095Y-134074409D01*
X166713476Y-115405361D02*
X166856333Y-115452980D01*
X167094428Y-115452980D01*
X167189666Y-115405361D01*
X167237285Y-115357742D01*
X167284904Y-115262504D01*
X167284904Y-115167266D01*
X167237285Y-115072028D01*
X167189666Y-115024409D01*
X167094428Y-114976790D01*
X166903952Y-114929171D01*
X166808714Y-114881552D01*
X166761095Y-114833933D01*
X166713476Y-114738695D01*
X166713476Y-114643457D01*
X166761095Y-114548219D01*
X166808714Y-114500600D01*
X166903952Y-114452980D01*
X167142047Y-114452980D01*
X167284904Y-114500600D01*
X167618238Y-114452980D02*
X167856333Y-115452980D01*
X168046809Y-114738695D01*
X168237285Y-115452980D01*
X168475380Y-114452980D01*
X169380142Y-115452980D02*
X168808714Y-115452980D01*
X169094428Y-115452980D02*
X169094428Y-114452980D01*
X168999190Y-114595838D01*
X168903952Y-114691076D01*
X168808714Y-114738695D01*
X170284904Y-114452980D02*
X169808714Y-114452980D01*
X169761095Y-114929171D01*
X169808714Y-114881552D01*
X169903952Y-114833933D01*
X170142047Y-114833933D01*
X170237285Y-114881552D01*
X170284904Y-114929171D01*
X170332523Y-115024409D01*
X170332523Y-115262504D01*
X170284904Y-115357742D01*
X170237285Y-115405361D01*
X170142047Y-115452980D01*
X169903952Y-115452980D01*
X169808714Y-115405361D01*
X169761095Y-115357742D01*
X166713476Y-96355361D02*
X166856333Y-96402980D01*
X167094428Y-96402980D01*
X167189666Y-96355361D01*
X167237285Y-96307742D01*
X167284904Y-96212504D01*
X167284904Y-96117266D01*
X167237285Y-96022028D01*
X167189666Y-95974409D01*
X167094428Y-95926790D01*
X166903952Y-95879171D01*
X166808714Y-95831552D01*
X166761095Y-95783933D01*
X166713476Y-95688695D01*
X166713476Y-95593457D01*
X166761095Y-95498219D01*
X166808714Y-95450600D01*
X166903952Y-95402980D01*
X167142047Y-95402980D01*
X167284904Y-95450600D01*
X167618238Y-95402980D02*
X167856333Y-96402980D01*
X168046809Y-95688695D01*
X168237285Y-96402980D01*
X168475380Y-95402980D01*
X169380142Y-96402980D02*
X168808714Y-96402980D01*
X169094428Y-96402980D02*
X169094428Y-95402980D01*
X168999190Y-95545838D01*
X168903952Y-95641076D01*
X168808714Y-95688695D01*
X170237285Y-95736314D02*
X170237285Y-96402980D01*
X169999190Y-95355361D02*
X169761095Y-96069647D01*
X170380142Y-96069647D01*
X147663476Y-134455361D02*
X147806333Y-134502980D01*
X148044428Y-134502980D01*
X148139666Y-134455361D01*
X148187285Y-134407742D01*
X148234904Y-134312504D01*
X148234904Y-134217266D01*
X148187285Y-134122028D01*
X148139666Y-134074409D01*
X148044428Y-134026790D01*
X147853952Y-133979171D01*
X147758714Y-133931552D01*
X147711095Y-133883933D01*
X147663476Y-133788695D01*
X147663476Y-133693457D01*
X147711095Y-133598219D01*
X147758714Y-133550600D01*
X147853952Y-133502980D01*
X148092047Y-133502980D01*
X148234904Y-133550600D01*
X148568238Y-133502980D02*
X148806333Y-134502980D01*
X148996809Y-133788695D01*
X149187285Y-134502980D01*
X149425380Y-133502980D01*
X150330142Y-134502980D02*
X149758714Y-134502980D01*
X150044428Y-134502980D02*
X150044428Y-133502980D01*
X149949190Y-133645838D01*
X149853952Y-133741076D01*
X149758714Y-133788695D01*
X150711095Y-133598219D02*
X150758714Y-133550600D01*
X150853952Y-133502980D01*
X151092047Y-133502980D01*
X151187285Y-133550600D01*
X151234904Y-133598219D01*
X151282523Y-133693457D01*
X151282523Y-133788695D01*
X151234904Y-133931552D01*
X150663476Y-134502980D01*
X151282523Y-134502980D01*
X147663476Y-115405361D02*
X147806333Y-115452980D01*
X148044428Y-115452980D01*
X148139666Y-115405361D01*
X148187285Y-115357742D01*
X148234904Y-115262504D01*
X148234904Y-115167266D01*
X148187285Y-115072028D01*
X148139666Y-115024409D01*
X148044428Y-114976790D01*
X147853952Y-114929171D01*
X147758714Y-114881552D01*
X147711095Y-114833933D01*
X147663476Y-114738695D01*
X147663476Y-114643457D01*
X147711095Y-114548219D01*
X147758714Y-114500600D01*
X147853952Y-114452980D01*
X148092047Y-114452980D01*
X148234904Y-114500600D01*
X148568238Y-114452980D02*
X148806333Y-115452980D01*
X148996809Y-114738695D01*
X149187285Y-115452980D01*
X149425380Y-114452980D01*
X150330142Y-115452980D02*
X149758714Y-115452980D01*
X150044428Y-115452980D02*
X150044428Y-114452980D01*
X149949190Y-114595838D01*
X149853952Y-114691076D01*
X149758714Y-114738695D01*
X151282523Y-115452980D02*
X150711095Y-115452980D01*
X150996809Y-115452980D02*
X150996809Y-114452980D01*
X150901571Y-114595838D01*
X150806333Y-114691076D01*
X150711095Y-114738695D01*
X147663476Y-96355361D02*
X147806333Y-96402980D01*
X148044428Y-96402980D01*
X148139666Y-96355361D01*
X148187285Y-96307742D01*
X148234904Y-96212504D01*
X148234904Y-96117266D01*
X148187285Y-96022028D01*
X148139666Y-95974409D01*
X148044428Y-95926790D01*
X147853952Y-95879171D01*
X147758714Y-95831552D01*
X147711095Y-95783933D01*
X147663476Y-95688695D01*
X147663476Y-95593457D01*
X147711095Y-95498219D01*
X147758714Y-95450600D01*
X147853952Y-95402980D01*
X148092047Y-95402980D01*
X148234904Y-95450600D01*
X148568238Y-95402980D02*
X148806333Y-96402980D01*
X148996809Y-95688695D01*
X149187285Y-96402980D01*
X149425380Y-95402980D01*
X150330142Y-96402980D02*
X149758714Y-96402980D01*
X150044428Y-96402980D02*
X150044428Y-95402980D01*
X149949190Y-95545838D01*
X149853952Y-95641076D01*
X149758714Y-95688695D01*
X150949190Y-95402980D02*
X151044428Y-95402980D01*
X151139666Y-95450600D01*
X151187285Y-95498219D01*
X151234904Y-95593457D01*
X151282523Y-95783933D01*
X151282523Y-96022028D01*
X151234904Y-96212504D01*
X151187285Y-96307742D01*
X151139666Y-96355361D01*
X151044428Y-96402980D01*
X150949190Y-96402980D01*
X150853952Y-96355361D01*
X150806333Y-96307742D01*
X150758714Y-96212504D01*
X150711095Y-96022028D01*
X150711095Y-95783933D01*
X150758714Y-95593457D01*
X150806333Y-95498219D01*
X150853952Y-95450600D01*
X150949190Y-95402980D01*
X147663476Y-77305361D02*
X147806333Y-77352980D01*
X148044428Y-77352980D01*
X148139666Y-77305361D01*
X148187285Y-77257742D01*
X148234904Y-77162504D01*
X148234904Y-77067266D01*
X148187285Y-76972028D01*
X148139666Y-76924409D01*
X148044428Y-76876790D01*
X147853952Y-76829171D01*
X147758714Y-76781552D01*
X147711095Y-76733933D01*
X147663476Y-76638695D01*
X147663476Y-76543457D01*
X147711095Y-76448219D01*
X147758714Y-76400600D01*
X147853952Y-76352980D01*
X148092047Y-76352980D01*
X148234904Y-76400600D01*
X148568238Y-76352980D02*
X148806333Y-77352980D01*
X148996809Y-76638695D01*
X149187285Y-77352980D01*
X149425380Y-76352980D01*
X149853952Y-77352980D02*
X150044428Y-77352980D01*
X150139666Y-77305361D01*
X150187285Y-77257742D01*
X150282523Y-77114885D01*
X150330142Y-76924409D01*
X150330142Y-76543457D01*
X150282523Y-76448219D01*
X150234904Y-76400600D01*
X150139666Y-76352980D01*
X149949190Y-76352980D01*
X149853952Y-76400600D01*
X149806333Y-76448219D01*
X149758714Y-76543457D01*
X149758714Y-76781552D01*
X149806333Y-76876790D01*
X149853952Y-76924409D01*
X149949190Y-76972028D01*
X150139666Y-76972028D01*
X150234904Y-76924409D01*
X150282523Y-76876790D01*
X150330142Y-76781552D01*
X128613476Y-134455361D02*
X128756333Y-134502980D01*
X128994428Y-134502980D01*
X129089666Y-134455361D01*
X129137285Y-134407742D01*
X129184904Y-134312504D01*
X129184904Y-134217266D01*
X129137285Y-134122028D01*
X129089666Y-134074409D01*
X128994428Y-134026790D01*
X128803952Y-133979171D01*
X128708714Y-133931552D01*
X128661095Y-133883933D01*
X128613476Y-133788695D01*
X128613476Y-133693457D01*
X128661095Y-133598219D01*
X128708714Y-133550600D01*
X128803952Y-133502980D01*
X129042047Y-133502980D01*
X129184904Y-133550600D01*
X129518238Y-133502980D02*
X129756333Y-134502980D01*
X129946809Y-133788695D01*
X130137285Y-134502980D01*
X130375380Y-133502980D01*
X130899190Y-133931552D02*
X130803952Y-133883933D01*
X130756333Y-133836314D01*
X130708714Y-133741076D01*
X130708714Y-133693457D01*
X130756333Y-133598219D01*
X130803952Y-133550600D01*
X130899190Y-133502980D01*
X131089666Y-133502980D01*
X131184904Y-133550600D01*
X131232523Y-133598219D01*
X131280142Y-133693457D01*
X131280142Y-133741076D01*
X131232523Y-133836314D01*
X131184904Y-133883933D01*
X131089666Y-133931552D01*
X130899190Y-133931552D01*
X130803952Y-133979171D01*
X130756333Y-134026790D01*
X130708714Y-134122028D01*
X130708714Y-134312504D01*
X130756333Y-134407742D01*
X130803952Y-134455361D01*
X130899190Y-134502980D01*
X131089666Y-134502980D01*
X131184904Y-134455361D01*
X131232523Y-134407742D01*
X131280142Y-134312504D01*
X131280142Y-134122028D01*
X131232523Y-134026790D01*
X131184904Y-133979171D01*
X131089666Y-133931552D01*
X128613476Y-115405361D02*
X128756333Y-115452980D01*
X128994428Y-115452980D01*
X129089666Y-115405361D01*
X129137285Y-115357742D01*
X129184904Y-115262504D01*
X129184904Y-115167266D01*
X129137285Y-115072028D01*
X129089666Y-115024409D01*
X128994428Y-114976790D01*
X128803952Y-114929171D01*
X128708714Y-114881552D01*
X128661095Y-114833933D01*
X128613476Y-114738695D01*
X128613476Y-114643457D01*
X128661095Y-114548219D01*
X128708714Y-114500600D01*
X128803952Y-114452980D01*
X129042047Y-114452980D01*
X129184904Y-114500600D01*
X129518238Y-114452980D02*
X129756333Y-115452980D01*
X129946809Y-114738695D01*
X130137285Y-115452980D01*
X130375380Y-114452980D01*
X130661095Y-114452980D02*
X131327761Y-114452980D01*
X130899190Y-115452980D01*
X128613476Y-77305361D02*
X128756333Y-77352980D01*
X128994428Y-77352980D01*
X129089666Y-77305361D01*
X129137285Y-77257742D01*
X129184904Y-77162504D01*
X129184904Y-77067266D01*
X129137285Y-76972028D01*
X129089666Y-76924409D01*
X128994428Y-76876790D01*
X128803952Y-76829171D01*
X128708714Y-76781552D01*
X128661095Y-76733933D01*
X128613476Y-76638695D01*
X128613476Y-76543457D01*
X128661095Y-76448219D01*
X128708714Y-76400600D01*
X128803952Y-76352980D01*
X129042047Y-76352980D01*
X129184904Y-76400600D01*
X129518238Y-76352980D02*
X129756333Y-77352980D01*
X129946809Y-76638695D01*
X130137285Y-77352980D01*
X130375380Y-76352980D01*
X131232523Y-76352980D02*
X130756333Y-76352980D01*
X130708714Y-76829171D01*
X130756333Y-76781552D01*
X130851571Y-76733933D01*
X131089666Y-76733933D01*
X131184904Y-76781552D01*
X131232523Y-76829171D01*
X131280142Y-76924409D01*
X131280142Y-77162504D01*
X131232523Y-77257742D01*
X131184904Y-77305361D01*
X131089666Y-77352980D01*
X130851571Y-77352980D01*
X130756333Y-77305361D01*
X130708714Y-77257742D01*
X109563476Y-134455361D02*
X109706333Y-134502980D01*
X109944428Y-134502980D01*
X110039666Y-134455361D01*
X110087285Y-134407742D01*
X110134904Y-134312504D01*
X110134904Y-134217266D01*
X110087285Y-134122028D01*
X110039666Y-134074409D01*
X109944428Y-134026790D01*
X109753952Y-133979171D01*
X109658714Y-133931552D01*
X109611095Y-133883933D01*
X109563476Y-133788695D01*
X109563476Y-133693457D01*
X109611095Y-133598219D01*
X109658714Y-133550600D01*
X109753952Y-133502980D01*
X109992047Y-133502980D01*
X110134904Y-133550600D01*
X110468238Y-133502980D02*
X110706333Y-134502980D01*
X110896809Y-133788695D01*
X111087285Y-134502980D01*
X111325380Y-133502980D01*
X112134904Y-133836314D02*
X112134904Y-134502980D01*
X111896809Y-133455361D02*
X111658714Y-134169647D01*
X112277761Y-134169647D01*
X109563476Y-115405361D02*
X109706333Y-115452980D01*
X109944428Y-115452980D01*
X110039666Y-115405361D01*
X110087285Y-115357742D01*
X110134904Y-115262504D01*
X110134904Y-115167266D01*
X110087285Y-115072028D01*
X110039666Y-115024409D01*
X109944428Y-114976790D01*
X109753952Y-114929171D01*
X109658714Y-114881552D01*
X109611095Y-114833933D01*
X109563476Y-114738695D01*
X109563476Y-114643457D01*
X109611095Y-114548219D01*
X109658714Y-114500600D01*
X109753952Y-114452980D01*
X109992047Y-114452980D01*
X110134904Y-114500600D01*
X110468238Y-114452980D02*
X110706333Y-115452980D01*
X110896809Y-114738695D01*
X111087285Y-115452980D01*
X111325380Y-114452980D01*
X111611095Y-114452980D02*
X112230142Y-114452980D01*
X111896809Y-114833933D01*
X112039666Y-114833933D01*
X112134904Y-114881552D01*
X112182523Y-114929171D01*
X112230142Y-115024409D01*
X112230142Y-115262504D01*
X112182523Y-115357742D01*
X112134904Y-115405361D01*
X112039666Y-115452980D01*
X111753952Y-115452980D01*
X111658714Y-115405361D01*
X111611095Y-115357742D01*
X109563476Y-96355361D02*
X109706333Y-96402980D01*
X109944428Y-96402980D01*
X110039666Y-96355361D01*
X110087285Y-96307742D01*
X110134904Y-96212504D01*
X110134904Y-96117266D01*
X110087285Y-96022028D01*
X110039666Y-95974409D01*
X109944428Y-95926790D01*
X109753952Y-95879171D01*
X109658714Y-95831552D01*
X109611095Y-95783933D01*
X109563476Y-95688695D01*
X109563476Y-95593457D01*
X109611095Y-95498219D01*
X109658714Y-95450600D01*
X109753952Y-95402980D01*
X109992047Y-95402980D01*
X110134904Y-95450600D01*
X110468238Y-95402980D02*
X110706333Y-96402980D01*
X110896809Y-95688695D01*
X111087285Y-96402980D01*
X111325380Y-95402980D01*
X111658714Y-95498219D02*
X111706333Y-95450600D01*
X111801571Y-95402980D01*
X112039666Y-95402980D01*
X112134904Y-95450600D01*
X112182523Y-95498219D01*
X112230142Y-95593457D01*
X112230142Y-95688695D01*
X112182523Y-95831552D01*
X111611095Y-96402980D01*
X112230142Y-96402980D01*
X176301452Y-100965980D02*
X175825261Y-100965980D01*
X175825261Y-99965980D01*
X176634785Y-100442171D02*
X176968119Y-100442171D01*
X177110976Y-100965980D02*
X176634785Y-100965980D01*
X176634785Y-99965980D01*
X177110976Y-99965980D01*
X177539547Y-100965980D02*
X177539547Y-99965980D01*
X177777642Y-99965980D01*
X177920500Y-100013600D01*
X178015738Y-100108838D01*
X178063357Y-100204076D01*
X178110976Y-100394552D01*
X178110976Y-100537409D01*
X178063357Y-100727885D01*
X178015738Y-100823123D01*
X177920500Y-100918361D01*
X177777642Y-100965980D01*
X177539547Y-100965980D01*
X179063357Y-100965980D02*
X178491928Y-100965980D01*
X178777642Y-100965980D02*
X178777642Y-99965980D01*
X178682404Y-100108838D01*
X178587166Y-100204076D01*
X178491928Y-100251695D01*
D10*
X176052583Y-136002980D02*
X176052583Y-135002980D01*
X176290678Y-135002980D01*
X176433535Y-135050600D01*
X176528773Y-135145838D01*
X176576392Y-135241076D01*
X176624011Y-135431552D01*
X176624011Y-135574409D01*
X176576392Y-135764885D01*
X176528773Y-135860123D01*
X176433535Y-135955361D01*
X176290678Y-136002980D01*
X176052583Y-136002980D01*
X177576392Y-136002980D02*
X177004964Y-136002980D01*
X177290678Y-136002980D02*
X177290678Y-135002980D01*
X177195440Y-135145838D01*
X177100202Y-135241076D01*
X177004964Y-135288695D01*
X178147821Y-135431552D02*
X178052583Y-135383933D01*
X178004964Y-135336314D01*
X177957345Y-135241076D01*
X177957345Y-135193457D01*
X178004964Y-135098219D01*
X178052583Y-135050600D01*
X178147821Y-135002980D01*
X178338297Y-135002980D01*
X178433535Y-135050600D01*
X178481154Y-135098219D01*
X178528773Y-135193457D01*
X178528773Y-135241076D01*
X178481154Y-135336314D01*
X178433535Y-135383933D01*
X178338297Y-135431552D01*
X178147821Y-135431552D01*
X178052583Y-135479171D01*
X178004964Y-135526790D01*
X177957345Y-135622028D01*
X177957345Y-135812504D01*
X178004964Y-135907742D01*
X178052583Y-135955361D01*
X178147821Y-136002980D01*
X178338297Y-136002980D01*
X178433535Y-135955361D01*
X178481154Y-135907742D01*
X178528773Y-135812504D01*
X178528773Y-135622028D01*
X178481154Y-135526790D01*
X178433535Y-135479171D01*
X178338297Y-135431552D01*
X176052583Y-117477980D02*
X176052583Y-116477980D01*
X176290678Y-116477980D01*
X176433535Y-116525600D01*
X176528773Y-116620838D01*
X176576392Y-116716076D01*
X176624011Y-116906552D01*
X176624011Y-117049409D01*
X176576392Y-117239885D01*
X176528773Y-117335123D01*
X176433535Y-117430361D01*
X176290678Y-117477980D01*
X176052583Y-117477980D01*
X177576392Y-117477980D02*
X177004964Y-117477980D01*
X177290678Y-117477980D02*
X177290678Y-116477980D01*
X177195440Y-116620838D01*
X177100202Y-116716076D01*
X177004964Y-116763695D01*
X177909726Y-116477980D02*
X178576392Y-116477980D01*
X178147821Y-117477980D01*
X157002583Y-136002980D02*
X157002583Y-135002980D01*
X157240678Y-135002980D01*
X157383535Y-135050600D01*
X157478773Y-135145838D01*
X157526392Y-135241076D01*
X157574011Y-135431552D01*
X157574011Y-135574409D01*
X157526392Y-135764885D01*
X157478773Y-135860123D01*
X157383535Y-135955361D01*
X157240678Y-136002980D01*
X157002583Y-136002980D01*
X158526392Y-136002980D02*
X157954964Y-136002980D01*
X158240678Y-136002980D02*
X158240678Y-135002980D01*
X158145440Y-135145838D01*
X158050202Y-135241076D01*
X157954964Y-135288695D01*
X159383535Y-135002980D02*
X159193059Y-135002980D01*
X159097821Y-135050600D01*
X159050202Y-135098219D01*
X158954964Y-135241076D01*
X158907345Y-135431552D01*
X158907345Y-135812504D01*
X158954964Y-135907742D01*
X159002583Y-135955361D01*
X159097821Y-136002980D01*
X159288297Y-136002980D01*
X159383535Y-135955361D01*
X159431154Y-135907742D01*
X159478773Y-135812504D01*
X159478773Y-135574409D01*
X159431154Y-135479171D01*
X159383535Y-135431552D01*
X159288297Y-135383933D01*
X159097821Y-135383933D01*
X159002583Y-135431552D01*
X158954964Y-135479171D01*
X158907345Y-135574409D01*
X157002583Y-117477980D02*
X157002583Y-116477980D01*
X157240678Y-116477980D01*
X157383535Y-116525600D01*
X157478773Y-116620838D01*
X157526392Y-116716076D01*
X157574011Y-116906552D01*
X157574011Y-117049409D01*
X157526392Y-117239885D01*
X157478773Y-117335123D01*
X157383535Y-117430361D01*
X157240678Y-117477980D01*
X157002583Y-117477980D01*
X158526392Y-117477980D02*
X157954964Y-117477980D01*
X158240678Y-117477980D02*
X158240678Y-116477980D01*
X158145440Y-116620838D01*
X158050202Y-116716076D01*
X157954964Y-116763695D01*
X159431154Y-116477980D02*
X158954964Y-116477980D01*
X158907345Y-116954171D01*
X158954964Y-116906552D01*
X159050202Y-116858933D01*
X159288297Y-116858933D01*
X159383535Y-116906552D01*
X159431154Y-116954171D01*
X159478773Y-117049409D01*
X159478773Y-117287504D01*
X159431154Y-117382742D01*
X159383535Y-117430361D01*
X159288297Y-117477980D01*
X159050202Y-117477980D01*
X158954964Y-117430361D01*
X158907345Y-117382742D01*
X157002583Y-98427980D02*
X157002583Y-97427980D01*
X157240678Y-97427980D01*
X157383535Y-97475600D01*
X157478773Y-97570838D01*
X157526392Y-97666076D01*
X157574011Y-97856552D01*
X157574011Y-97999409D01*
X157526392Y-98189885D01*
X157478773Y-98285123D01*
X157383535Y-98380361D01*
X157240678Y-98427980D01*
X157002583Y-98427980D01*
X158526392Y-98427980D02*
X157954964Y-98427980D01*
X158240678Y-98427980D02*
X158240678Y-97427980D01*
X158145440Y-97570838D01*
X158050202Y-97666076D01*
X157954964Y-97713695D01*
X159383535Y-97761314D02*
X159383535Y-98427980D01*
X159145440Y-97380361D02*
X158907345Y-98094647D01*
X159526392Y-98094647D01*
X157002583Y-79377980D02*
X157002583Y-78377980D01*
X157240678Y-78377980D01*
X157383535Y-78425600D01*
X157478773Y-78520838D01*
X157526392Y-78616076D01*
X157574011Y-78806552D01*
X157574011Y-78949409D01*
X157526392Y-79139885D01*
X157478773Y-79235123D01*
X157383535Y-79330361D01*
X157240678Y-79377980D01*
X157002583Y-79377980D01*
X158526392Y-79377980D02*
X157954964Y-79377980D01*
X158240678Y-79377980D02*
X158240678Y-78377980D01*
X158145440Y-78520838D01*
X158050202Y-78616076D01*
X157954964Y-78663695D01*
X158859726Y-78377980D02*
X159478773Y-78377980D01*
X159145440Y-78758933D01*
X159288297Y-78758933D01*
X159383535Y-78806552D01*
X159431154Y-78854171D01*
X159478773Y-78949409D01*
X159478773Y-79187504D01*
X159431154Y-79282742D01*
X159383535Y-79330361D01*
X159288297Y-79377980D01*
X159002583Y-79377980D01*
X158907345Y-79330361D01*
X158859726Y-79282742D01*
X137952583Y-136002980D02*
X137952583Y-135002980D01*
X138190678Y-135002980D01*
X138333535Y-135050600D01*
X138428773Y-135145838D01*
X138476392Y-135241076D01*
X138524011Y-135431552D01*
X138524011Y-135574409D01*
X138476392Y-135764885D01*
X138428773Y-135860123D01*
X138333535Y-135955361D01*
X138190678Y-136002980D01*
X137952583Y-136002980D01*
X139476392Y-136002980D02*
X138904964Y-136002980D01*
X139190678Y-136002980D02*
X139190678Y-135002980D01*
X139095440Y-135145838D01*
X139000202Y-135241076D01*
X138904964Y-135288695D01*
X139857345Y-135098219D02*
X139904964Y-135050600D01*
X140000202Y-135002980D01*
X140238297Y-135002980D01*
X140333535Y-135050600D01*
X140381154Y-135098219D01*
X140428773Y-135193457D01*
X140428773Y-135288695D01*
X140381154Y-135431552D01*
X139809726Y-136002980D01*
X140428773Y-136002980D01*
X137952583Y-117477980D02*
X137952583Y-116477980D01*
X138190678Y-116477980D01*
X138333535Y-116525600D01*
X138428773Y-116620838D01*
X138476392Y-116716076D01*
X138524011Y-116906552D01*
X138524011Y-117049409D01*
X138476392Y-117239885D01*
X138428773Y-117335123D01*
X138333535Y-117430361D01*
X138190678Y-117477980D01*
X137952583Y-117477980D01*
X139476392Y-117477980D02*
X138904964Y-117477980D01*
X139190678Y-117477980D02*
X139190678Y-116477980D01*
X139095440Y-116620838D01*
X139000202Y-116716076D01*
X138904964Y-116763695D01*
X140428773Y-117477980D02*
X139857345Y-117477980D01*
X140143059Y-117477980D02*
X140143059Y-116477980D01*
X140047821Y-116620838D01*
X139952583Y-116716076D01*
X139857345Y-116763695D01*
X137952583Y-98427980D02*
X137952583Y-97427980D01*
X138190678Y-97427980D01*
X138333535Y-97475600D01*
X138428773Y-97570838D01*
X138476392Y-97666076D01*
X138524011Y-97856552D01*
X138524011Y-97999409D01*
X138476392Y-98189885D01*
X138428773Y-98285123D01*
X138333535Y-98380361D01*
X138190678Y-98427980D01*
X137952583Y-98427980D01*
X139476392Y-98427980D02*
X138904964Y-98427980D01*
X139190678Y-98427980D02*
X139190678Y-97427980D01*
X139095440Y-97570838D01*
X139000202Y-97666076D01*
X138904964Y-97713695D01*
X140095440Y-97427980D02*
X140190678Y-97427980D01*
X140285916Y-97475600D01*
X140333535Y-97523219D01*
X140381154Y-97618457D01*
X140428773Y-97808933D01*
X140428773Y-98047028D01*
X140381154Y-98237504D01*
X140333535Y-98332742D01*
X140285916Y-98380361D01*
X140190678Y-98427980D01*
X140095440Y-98427980D01*
X140000202Y-98380361D01*
X139952583Y-98332742D01*
X139904964Y-98237504D01*
X139857345Y-98047028D01*
X139857345Y-97808933D01*
X139904964Y-97618457D01*
X139952583Y-97523219D01*
X140000202Y-97475600D01*
X140095440Y-97427980D01*
X138904964Y-79377980D02*
X138904964Y-78377980D01*
X139143059Y-78377980D01*
X139285916Y-78425600D01*
X139381154Y-78520838D01*
X139428773Y-78616076D01*
X139476392Y-78806552D01*
X139476392Y-78949409D01*
X139428773Y-79139885D01*
X139381154Y-79235123D01*
X139285916Y-79330361D01*
X139143059Y-79377980D01*
X138904964Y-79377980D01*
X139952583Y-79377980D02*
X140143059Y-79377980D01*
X140238297Y-79330361D01*
X140285916Y-79282742D01*
X140381154Y-79139885D01*
X140428773Y-78949409D01*
X140428773Y-78568457D01*
X140381154Y-78473219D01*
X140333535Y-78425600D01*
X140238297Y-78377980D01*
X140047821Y-78377980D01*
X139952583Y-78425600D01*
X139904964Y-78473219D01*
X139857345Y-78568457D01*
X139857345Y-78806552D01*
X139904964Y-78901790D01*
X139952583Y-78949409D01*
X140047821Y-78997028D01*
X140238297Y-78997028D01*
X140333535Y-78949409D01*
X140381154Y-78901790D01*
X140428773Y-78806552D01*
X119854964Y-136002980D02*
X119854964Y-135002980D01*
X120093059Y-135002980D01*
X120235916Y-135050600D01*
X120331154Y-135145838D01*
X120378773Y-135241076D01*
X120426392Y-135431552D01*
X120426392Y-135574409D01*
X120378773Y-135764885D01*
X120331154Y-135860123D01*
X120235916Y-135955361D01*
X120093059Y-136002980D01*
X119854964Y-136002980D01*
X120997821Y-135431552D02*
X120902583Y-135383933D01*
X120854964Y-135336314D01*
X120807345Y-135241076D01*
X120807345Y-135193457D01*
X120854964Y-135098219D01*
X120902583Y-135050600D01*
X120997821Y-135002980D01*
X121188297Y-135002980D01*
X121283535Y-135050600D01*
X121331154Y-135098219D01*
X121378773Y-135193457D01*
X121378773Y-135241076D01*
X121331154Y-135336314D01*
X121283535Y-135383933D01*
X121188297Y-135431552D01*
X120997821Y-135431552D01*
X120902583Y-135479171D01*
X120854964Y-135526790D01*
X120807345Y-135622028D01*
X120807345Y-135812504D01*
X120854964Y-135907742D01*
X120902583Y-135955361D01*
X120997821Y-136002980D01*
X121188297Y-136002980D01*
X121283535Y-135955361D01*
X121331154Y-135907742D01*
X121378773Y-135812504D01*
X121378773Y-135622028D01*
X121331154Y-135526790D01*
X121283535Y-135479171D01*
X121188297Y-135431552D01*
X119854964Y-117477980D02*
X119854964Y-116477980D01*
X120093059Y-116477980D01*
X120235916Y-116525600D01*
X120331154Y-116620838D01*
X120378773Y-116716076D01*
X120426392Y-116906552D01*
X120426392Y-117049409D01*
X120378773Y-117239885D01*
X120331154Y-117335123D01*
X120235916Y-117430361D01*
X120093059Y-117477980D01*
X119854964Y-117477980D01*
X120759726Y-116477980D02*
X121426392Y-116477980D01*
X120997821Y-117477980D01*
X119854964Y-98427980D02*
X119854964Y-97427980D01*
X120093059Y-97427980D01*
X120235916Y-97475600D01*
X120331154Y-97570838D01*
X120378773Y-97666076D01*
X120426392Y-97856552D01*
X120426392Y-97999409D01*
X120378773Y-98189885D01*
X120331154Y-98285123D01*
X120235916Y-98380361D01*
X120093059Y-98427980D01*
X119854964Y-98427980D01*
X121283535Y-97427980D02*
X121093059Y-97427980D01*
X120997821Y-97475600D01*
X120950202Y-97523219D01*
X120854964Y-97666076D01*
X120807345Y-97856552D01*
X120807345Y-98237504D01*
X120854964Y-98332742D01*
X120902583Y-98380361D01*
X120997821Y-98427980D01*
X121188297Y-98427980D01*
X121283535Y-98380361D01*
X121331154Y-98332742D01*
X121378773Y-98237504D01*
X121378773Y-97999409D01*
X121331154Y-97904171D01*
X121283535Y-97856552D01*
X121188297Y-97808933D01*
X120997821Y-97808933D01*
X120902583Y-97856552D01*
X120854964Y-97904171D01*
X120807345Y-97999409D01*
X119854964Y-79377980D02*
X119854964Y-78377980D01*
X120093059Y-78377980D01*
X120235916Y-78425600D01*
X120331154Y-78520838D01*
X120378773Y-78616076D01*
X120426392Y-78806552D01*
X120426392Y-78949409D01*
X120378773Y-79139885D01*
X120331154Y-79235123D01*
X120235916Y-79330361D01*
X120093059Y-79377980D01*
X119854964Y-79377980D01*
X121331154Y-78377980D02*
X120854964Y-78377980D01*
X120807345Y-78854171D01*
X120854964Y-78806552D01*
X120950202Y-78758933D01*
X121188297Y-78758933D01*
X121283535Y-78806552D01*
X121331154Y-78854171D01*
X121378773Y-78949409D01*
X121378773Y-79187504D01*
X121331154Y-79282742D01*
X121283535Y-79330361D01*
X121188297Y-79377980D01*
X120950202Y-79377980D01*
X120854964Y-79330361D01*
X120807345Y-79282742D01*
X100804964Y-136002980D02*
X100804964Y-135002980D01*
X101043059Y-135002980D01*
X101185916Y-135050600D01*
X101281154Y-135145838D01*
X101328773Y-135241076D01*
X101376392Y-135431552D01*
X101376392Y-135574409D01*
X101328773Y-135764885D01*
X101281154Y-135860123D01*
X101185916Y-135955361D01*
X101043059Y-136002980D01*
X100804964Y-136002980D01*
X102233535Y-135336314D02*
X102233535Y-136002980D01*
X101995440Y-134955361D02*
X101757345Y-135669647D01*
X102376392Y-135669647D01*
X100804964Y-117477980D02*
X100804964Y-116477980D01*
X101043059Y-116477980D01*
X101185916Y-116525600D01*
X101281154Y-116620838D01*
X101328773Y-116716076D01*
X101376392Y-116906552D01*
X101376392Y-117049409D01*
X101328773Y-117239885D01*
X101281154Y-117335123D01*
X101185916Y-117430361D01*
X101043059Y-117477980D01*
X100804964Y-117477980D01*
X101709726Y-116477980D02*
X102328773Y-116477980D01*
X101995440Y-116858933D01*
X102138297Y-116858933D01*
X102233535Y-116906552D01*
X102281154Y-116954171D01*
X102328773Y-117049409D01*
X102328773Y-117287504D01*
X102281154Y-117382742D01*
X102233535Y-117430361D01*
X102138297Y-117477980D01*
X101852583Y-117477980D01*
X101757345Y-117430361D01*
X101709726Y-117382742D01*
X100804964Y-98427980D02*
X100804964Y-97427980D01*
X101043059Y-97427980D01*
X101185916Y-97475600D01*
X101281154Y-97570838D01*
X101328773Y-97666076D01*
X101376392Y-97856552D01*
X101376392Y-97999409D01*
X101328773Y-98189885D01*
X101281154Y-98285123D01*
X101185916Y-98380361D01*
X101043059Y-98427980D01*
X100804964Y-98427980D01*
X101757345Y-97523219D02*
X101804964Y-97475600D01*
X101900202Y-97427980D01*
X102138297Y-97427980D01*
X102233535Y-97475600D01*
X102281154Y-97523219D01*
X102328773Y-97618457D01*
X102328773Y-97713695D01*
X102281154Y-97856552D01*
X101709726Y-98427980D01*
X102328773Y-98427980D01*
X100995464Y-79427980D02*
X100995464Y-78427980D01*
X101233559Y-78427980D01*
X101376416Y-78475600D01*
X101471654Y-78570838D01*
X101519273Y-78666076D01*
X101566892Y-78856552D01*
X101566892Y-78999409D01*
X101519273Y-79189885D01*
X101471654Y-79285123D01*
X101376416Y-79380361D01*
X101233559Y-79427980D01*
X100995464Y-79427980D01*
X102519273Y-79427980D02*
X101947845Y-79427980D01*
X102233559Y-79427980D02*
X102233559Y-78427980D01*
X102138321Y-78570838D01*
X102043083Y-78666076D01*
X101947845Y-78713695D01*
D12*
X185384119Y-97511980D02*
X185050785Y-97035790D01*
X184812690Y-97511980D02*
X184812690Y-96511980D01*
X185193642Y-96511980D01*
X185288880Y-96559600D01*
X185336500Y-96607219D01*
X185384119Y-96702457D01*
X185384119Y-96845314D01*
X185336500Y-96940552D01*
X185288880Y-96988171D01*
X185193642Y-97035790D01*
X184812690Y-97035790D01*
X185812690Y-96988171D02*
X186146023Y-96988171D01*
X186288880Y-97511980D02*
X185812690Y-97511980D01*
X185812690Y-96511980D01*
X186288880Y-96511980D01*
X186669833Y-97464361D02*
X186812690Y-97511980D01*
X187050785Y-97511980D01*
X187146023Y-97464361D01*
X187193642Y-97416742D01*
X187241261Y-97321504D01*
X187241261Y-97226266D01*
X187193642Y-97131028D01*
X187146023Y-97083409D01*
X187050785Y-97035790D01*
X186860309Y-96988171D01*
X186765071Y-96940552D01*
X186717452Y-96892933D01*
X186669833Y-96797695D01*
X186669833Y-96702457D01*
X186717452Y-96607219D01*
X186765071Y-96559600D01*
X186860309Y-96511980D01*
X187098404Y-96511980D01*
X187241261Y-96559600D01*
X187669833Y-96988171D02*
X188003166Y-96988171D01*
X188146023Y-97511980D02*
X187669833Y-97511980D01*
X187669833Y-96511980D01*
X188146023Y-96511980D01*
X188431738Y-96511980D02*
X189003166Y-96511980D01*
X188717452Y-97511980D02*
X188717452Y-96511980D01*
M02*
