G04 #@! TF.GenerationSoftware,KiCad,Pcbnew,(5.1.10)-1*
G04 #@! TF.CreationDate,2021-08-15T11:08:44+09:00*
G04 #@! TF.ProjectId,cc_proto,63635f70-726f-4746-9f2e-6b696361645f,3*
G04 #@! TF.SameCoordinates,Original*
G04 #@! TF.FileFunction,Legend,Top*
G04 #@! TF.FilePolarity,Positive*
%FSLAX46Y46*%
G04 Gerber Fmt 4.6, Leading zero omitted, Abs format (unit mm)*
G04 Created by KiCad (PCBNEW (5.1.10)-1) date 2021-08-15 11:08:44*
%MOMM*%
%LPD*%
G01*
G04 APERTURE LIST*
%ADD10C,0.125000*%
%ADD11C,0.300000*%
%ADD12C,0.150000*%
G04 APERTURE END LIST*
D10*
X114856642Y-84010314D02*
X114820928Y-83974600D01*
X114785214Y-83867457D01*
X114785214Y-83796028D01*
X114820928Y-83688885D01*
X114892357Y-83617457D01*
X114963785Y-83581742D01*
X115106642Y-83546028D01*
X115213785Y-83546028D01*
X115356642Y-83581742D01*
X115428071Y-83617457D01*
X115499500Y-83688885D01*
X115535214Y-83796028D01*
X115535214Y-83867457D01*
X115499500Y-83974600D01*
X115463785Y-84010314D01*
X114856642Y-84760314D02*
X114820928Y-84724600D01*
X114785214Y-84617457D01*
X114785214Y-84546028D01*
X114820928Y-84438885D01*
X114892357Y-84367457D01*
X114963785Y-84331742D01*
X115106642Y-84296028D01*
X115213785Y-84296028D01*
X115356642Y-84331742D01*
X115428071Y-84367457D01*
X115499500Y-84438885D01*
X115535214Y-84546028D01*
X115535214Y-84617457D01*
X115499500Y-84724600D01*
X115463785Y-84760314D01*
X114785214Y-85653171D02*
X115535214Y-85653171D01*
X115535214Y-85938885D01*
X115499500Y-86010314D01*
X115463785Y-86046028D01*
X115392357Y-86081742D01*
X115285214Y-86081742D01*
X115213785Y-86046028D01*
X115178071Y-86010314D01*
X115142357Y-85938885D01*
X115142357Y-85653171D01*
X114785214Y-86403171D02*
X115285214Y-86403171D01*
X115142357Y-86403171D02*
X115213785Y-86438885D01*
X115249500Y-86474600D01*
X115285214Y-86546028D01*
X115285214Y-86617457D01*
X114785214Y-86974600D02*
X114820928Y-86903171D01*
X114856642Y-86867457D01*
X114928071Y-86831742D01*
X115142357Y-86831742D01*
X115213785Y-86867457D01*
X115249500Y-86903171D01*
X115285214Y-86974600D01*
X115285214Y-87081742D01*
X115249500Y-87153171D01*
X115213785Y-87188885D01*
X115142357Y-87224600D01*
X114928071Y-87224600D01*
X114856642Y-87188885D01*
X114820928Y-87153171D01*
X114785214Y-87081742D01*
X114785214Y-86974600D01*
X115285214Y-87438885D02*
X115285214Y-87724600D01*
X115535214Y-87546028D02*
X114892357Y-87546028D01*
X114820928Y-87581742D01*
X114785214Y-87653171D01*
X114785214Y-87724600D01*
X114785214Y-88081742D02*
X114820928Y-88010314D01*
X114856642Y-87974600D01*
X114928071Y-87938885D01*
X115142357Y-87938885D01*
X115213785Y-87974600D01*
X115249500Y-88010314D01*
X115285214Y-88081742D01*
X115285214Y-88188885D01*
X115249500Y-88260314D01*
X115213785Y-88296028D01*
X115142357Y-88331742D01*
X114928071Y-88331742D01*
X114856642Y-88296028D01*
X114820928Y-88260314D01*
X114785214Y-88188885D01*
X114785214Y-88081742D01*
X114785214Y-89653171D02*
X115142357Y-89403171D01*
X114785214Y-89224600D02*
X115535214Y-89224600D01*
X115535214Y-89510314D01*
X115499500Y-89581742D01*
X115463785Y-89617457D01*
X115392357Y-89653171D01*
X115285214Y-89653171D01*
X115213785Y-89617457D01*
X115178071Y-89581742D01*
X115142357Y-89510314D01*
X115142357Y-89224600D01*
X114820928Y-90260314D02*
X114785214Y-90188885D01*
X114785214Y-90046028D01*
X114820928Y-89974600D01*
X114892357Y-89938885D01*
X115178071Y-89938885D01*
X115249500Y-89974600D01*
X115285214Y-90046028D01*
X115285214Y-90188885D01*
X115249500Y-90260314D01*
X115178071Y-90296028D01*
X115106642Y-90296028D01*
X115035214Y-89938885D01*
X115285214Y-90546028D02*
X114785214Y-90724600D01*
X115285214Y-90903171D01*
X114856642Y-91188885D02*
X114820928Y-91224600D01*
X114785214Y-91188885D01*
X114820928Y-91153171D01*
X114856642Y-91188885D01*
X114785214Y-91188885D01*
X115285214Y-91867457D02*
X114785214Y-91867457D01*
X115570928Y-91688885D02*
X115035214Y-91510314D01*
X115035214Y-91974600D01*
X114785214Y-92831742D02*
X115535214Y-92831742D01*
X115249500Y-92831742D02*
X115285214Y-92903171D01*
X115285214Y-93046028D01*
X115249500Y-93117457D01*
X115213785Y-93153171D01*
X115142357Y-93188885D01*
X114928071Y-93188885D01*
X114856642Y-93153171D01*
X114820928Y-93117457D01*
X114785214Y-93046028D01*
X114785214Y-92903171D01*
X114820928Y-92831742D01*
X115285214Y-93438885D02*
X114785214Y-93617457D01*
X115285214Y-93796028D02*
X114785214Y-93617457D01*
X114606642Y-93546028D01*
X114570928Y-93510314D01*
X114535214Y-93438885D01*
X114856642Y-95081742D02*
X114820928Y-95046028D01*
X114785214Y-94938885D01*
X114785214Y-94867457D01*
X114820928Y-94760314D01*
X114892357Y-94688885D01*
X114963785Y-94653171D01*
X115106642Y-94617457D01*
X115213785Y-94617457D01*
X115356642Y-94653171D01*
X115428071Y-94688885D01*
X115499500Y-94760314D01*
X115535214Y-94867457D01*
X115535214Y-94938885D01*
X115499500Y-95046028D01*
X115463785Y-95081742D01*
X114785214Y-95403171D02*
X115535214Y-95403171D01*
X114785214Y-95724600D02*
X115178071Y-95724600D01*
X115249500Y-95688885D01*
X115285214Y-95617457D01*
X115285214Y-95510314D01*
X115249500Y-95438885D01*
X115213785Y-95403171D01*
X114785214Y-96081742D02*
X115285214Y-96081742D01*
X115535214Y-96081742D02*
X115499500Y-96046028D01*
X115463785Y-96081742D01*
X115499500Y-96117457D01*
X115535214Y-96081742D01*
X115463785Y-96081742D01*
X115285214Y-96438885D02*
X114785214Y-96438885D01*
X115213785Y-96438885D02*
X115249500Y-96474600D01*
X115285214Y-96546028D01*
X115285214Y-96653171D01*
X115249500Y-96724600D01*
X115178071Y-96760314D01*
X114785214Y-96760314D01*
X114785214Y-97438885D02*
X115178071Y-97438885D01*
X115249500Y-97403171D01*
X115285214Y-97331742D01*
X115285214Y-97188885D01*
X115249500Y-97117457D01*
X114820928Y-97438885D02*
X114785214Y-97367457D01*
X114785214Y-97188885D01*
X114820928Y-97117457D01*
X114892357Y-97081742D01*
X114963785Y-97081742D01*
X115035214Y-97117457D01*
X115070928Y-97188885D01*
X115070928Y-97367457D01*
X115106642Y-97438885D01*
X115285214Y-97688885D02*
X115285214Y-97974600D01*
X115535214Y-97796028D02*
X114892357Y-97796028D01*
X114820928Y-97831742D01*
X114785214Y-97903171D01*
X114785214Y-97974600D01*
X114820928Y-98188885D02*
X114785214Y-98260314D01*
X114785214Y-98403171D01*
X114820928Y-98474600D01*
X114892357Y-98510314D01*
X114928071Y-98510314D01*
X114999500Y-98474600D01*
X115035214Y-98403171D01*
X115035214Y-98296028D01*
X115070928Y-98224600D01*
X115142357Y-98188885D01*
X115178071Y-98188885D01*
X115249500Y-98224600D01*
X115285214Y-98296028D01*
X115285214Y-98403171D01*
X115249500Y-98474600D01*
X115285214Y-99153171D02*
X114785214Y-99153171D01*
X115285214Y-98831742D02*
X114892357Y-98831742D01*
X114820928Y-98867457D01*
X114785214Y-98938885D01*
X114785214Y-99046028D01*
X114820928Y-99117457D01*
X114856642Y-99153171D01*
X114856642Y-100510314D02*
X114820928Y-100474600D01*
X114785214Y-100367457D01*
X114785214Y-100296028D01*
X114820928Y-100188885D01*
X114892357Y-100117457D01*
X114963785Y-100081742D01*
X115106642Y-100046028D01*
X115213785Y-100046028D01*
X115356642Y-100081742D01*
X115428071Y-100117457D01*
X115499500Y-100188885D01*
X115535214Y-100296028D01*
X115535214Y-100367457D01*
X115499500Y-100474600D01*
X115463785Y-100510314D01*
X114785214Y-100831742D02*
X115535214Y-100831742D01*
X114785214Y-101153171D02*
X115178071Y-101153171D01*
X115249500Y-101117457D01*
X115285214Y-101046028D01*
X115285214Y-100938885D01*
X115249500Y-100867457D01*
X115213785Y-100831742D01*
X114785214Y-101510314D02*
X115285214Y-101510314D01*
X115535214Y-101510314D02*
X115499500Y-101474600D01*
X115463785Y-101510314D01*
X115499500Y-101546028D01*
X115535214Y-101510314D01*
X115463785Y-101510314D01*
X114785214Y-101867457D02*
X115535214Y-101867457D01*
X115249500Y-101867457D02*
X115285214Y-101938885D01*
X115285214Y-102081742D01*
X115249500Y-102153171D01*
X115213785Y-102188885D01*
X115142357Y-102224600D01*
X114928071Y-102224600D01*
X114856642Y-102188885D01*
X114820928Y-102153171D01*
X114785214Y-102081742D01*
X114785214Y-101938885D01*
X114820928Y-101867457D01*
X114785214Y-102867457D02*
X115178071Y-102867457D01*
X115249500Y-102831742D01*
X115285214Y-102760314D01*
X115285214Y-102617457D01*
X115249500Y-102546028D01*
X114820928Y-102867457D02*
X114785214Y-102796028D01*
X114785214Y-102617457D01*
X114820928Y-102546028D01*
X114892357Y-102510314D01*
X114963785Y-102510314D01*
X115035214Y-102546028D01*
X115070928Y-102617457D01*
X115070928Y-102796028D01*
X115106642Y-102867457D01*
X114499500Y-104010314D02*
X114535214Y-103974600D01*
X114642357Y-103903171D01*
X114713785Y-103867457D01*
X114820928Y-103831742D01*
X114999500Y-103796028D01*
X115142357Y-103796028D01*
X115320928Y-103831742D01*
X115428071Y-103867457D01*
X115499500Y-103903171D01*
X115606642Y-103974600D01*
X115642357Y-104010314D01*
X114785214Y-104617457D02*
X115178071Y-104617457D01*
X115249500Y-104581742D01*
X115285214Y-104510314D01*
X115285214Y-104367457D01*
X115249500Y-104296028D01*
X114820928Y-104617457D02*
X114785214Y-104546028D01*
X114785214Y-104367457D01*
X114820928Y-104296028D01*
X114892357Y-104260314D01*
X114963785Y-104260314D01*
X115035214Y-104296028D01*
X115070928Y-104367457D01*
X115070928Y-104546028D01*
X115106642Y-104617457D01*
X115285214Y-104903171D02*
X115285214Y-105296028D01*
X114785214Y-104903171D01*
X114785214Y-105296028D01*
X115285214Y-105903171D02*
X114785214Y-105903171D01*
X115285214Y-105581742D02*
X114892357Y-105581742D01*
X114820928Y-105617457D01*
X114785214Y-105688885D01*
X114785214Y-105796028D01*
X114820928Y-105867457D01*
X114856642Y-105903171D01*
X114785214Y-106367457D02*
X114820928Y-106296028D01*
X114892357Y-106260314D01*
X115535214Y-106260314D01*
X114820928Y-106938885D02*
X114785214Y-106867457D01*
X114785214Y-106724600D01*
X114820928Y-106653171D01*
X114892357Y-106617457D01*
X115178071Y-106617457D01*
X115249500Y-106653171D01*
X115285214Y-106724600D01*
X115285214Y-106867457D01*
X115249500Y-106938885D01*
X115178071Y-106974600D01*
X115106642Y-106974600D01*
X115035214Y-106617457D01*
X114820928Y-107581742D02*
X114785214Y-107510314D01*
X114785214Y-107367457D01*
X114820928Y-107296028D01*
X114892357Y-107260314D01*
X115178071Y-107260314D01*
X115249500Y-107296028D01*
X115285214Y-107367457D01*
X115285214Y-107510314D01*
X115249500Y-107581742D01*
X115178071Y-107617457D01*
X115106642Y-107617457D01*
X115035214Y-107260314D01*
X115570928Y-109046028D02*
X114606642Y-108403171D01*
X114785214Y-109867457D02*
X115285214Y-109867457D01*
X115213785Y-109867457D02*
X115249500Y-109903171D01*
X115285214Y-109974600D01*
X115285214Y-110081742D01*
X115249500Y-110153171D01*
X115178071Y-110188885D01*
X114785214Y-110188885D01*
X115178071Y-110188885D02*
X115249500Y-110224600D01*
X115285214Y-110296028D01*
X115285214Y-110403171D01*
X115249500Y-110474600D01*
X115178071Y-110510314D01*
X114785214Y-110510314D01*
X114785214Y-110974600D02*
X114820928Y-110903171D01*
X114856642Y-110867457D01*
X114928071Y-110831742D01*
X115142357Y-110831742D01*
X115213785Y-110867457D01*
X115249500Y-110903171D01*
X115285214Y-110974600D01*
X115285214Y-111081742D01*
X115249500Y-111153171D01*
X115213785Y-111188885D01*
X115142357Y-111224600D01*
X114928071Y-111224600D01*
X114856642Y-111188885D01*
X114820928Y-111153171D01*
X114785214Y-111081742D01*
X114785214Y-110974600D01*
X114785214Y-111546028D02*
X115535214Y-111546028D01*
X115070928Y-111617457D02*
X114785214Y-111831742D01*
X115285214Y-111831742D02*
X114999500Y-111546028D01*
X114820928Y-112438885D02*
X114785214Y-112367457D01*
X114785214Y-112224600D01*
X114820928Y-112153171D01*
X114892357Y-112117457D01*
X115178071Y-112117457D01*
X115249500Y-112153171D01*
X115285214Y-112224600D01*
X115285214Y-112367457D01*
X115249500Y-112438885D01*
X115178071Y-112474600D01*
X115106642Y-112474600D01*
X115035214Y-112117457D01*
X114820928Y-112760314D02*
X114785214Y-112831742D01*
X114785214Y-112974600D01*
X114820928Y-113046028D01*
X114892357Y-113081742D01*
X114928071Y-113081742D01*
X114999500Y-113046028D01*
X115035214Y-112974600D01*
X115035214Y-112867457D01*
X115070928Y-112796028D01*
X115142357Y-112760314D01*
X115178071Y-112760314D01*
X115249500Y-112796028D01*
X115285214Y-112867457D01*
X115285214Y-112974600D01*
X115249500Y-113046028D01*
X115285214Y-113724600D02*
X114785214Y-113724600D01*
X115285214Y-113403171D02*
X114892357Y-113403171D01*
X114820928Y-113438885D01*
X114785214Y-113510314D01*
X114785214Y-113617457D01*
X114820928Y-113688885D01*
X114856642Y-113724600D01*
X114785214Y-114081742D02*
X115285214Y-114081742D01*
X115142357Y-114081742D02*
X115213785Y-114117457D01*
X115249500Y-114153171D01*
X115285214Y-114224600D01*
X115285214Y-114296028D01*
X114785214Y-114867457D02*
X115178071Y-114867457D01*
X115249500Y-114831742D01*
X115285214Y-114760314D01*
X115285214Y-114617457D01*
X115249500Y-114546028D01*
X114820928Y-114867457D02*
X114785214Y-114796028D01*
X114785214Y-114617457D01*
X114820928Y-114546028D01*
X114892357Y-114510314D01*
X114963785Y-114510314D01*
X115035214Y-114546028D01*
X115070928Y-114617457D01*
X115070928Y-114796028D01*
X115106642Y-114867457D01*
X114499500Y-115153171D02*
X114535214Y-115188885D01*
X114642357Y-115260314D01*
X114713785Y-115296028D01*
X114820928Y-115331742D01*
X114999500Y-115367457D01*
X115142357Y-115367457D01*
X115320928Y-115331742D01*
X115428071Y-115296028D01*
X115499500Y-115260314D01*
X115606642Y-115188885D01*
X115642357Y-115153171D01*
D11*
X153875928Y-84254742D02*
X153518785Y-84254742D01*
X153661642Y-83897600D02*
X153518785Y-84254742D01*
X153661642Y-84611885D01*
X153233071Y-84040457D02*
X153518785Y-84254742D01*
X153233071Y-84469028D01*
X153875928Y-85397600D02*
X153518785Y-85397600D01*
X153661642Y-85040457D02*
X153518785Y-85397600D01*
X153661642Y-85754742D01*
X153233071Y-85183314D02*
X153518785Y-85397600D01*
X153233071Y-85611885D01*
X152375928Y-88326171D02*
X153090214Y-87826171D01*
X152375928Y-87469028D02*
X153875928Y-87469028D01*
X153875928Y-88040457D01*
X153804500Y-88183314D01*
X153733071Y-88254742D01*
X153590214Y-88326171D01*
X153375928Y-88326171D01*
X153233071Y-88254742D01*
X153161642Y-88183314D01*
X153090214Y-88040457D01*
X153090214Y-87469028D01*
X152375928Y-88969028D02*
X153375928Y-88969028D01*
X153875928Y-88969028D02*
X153804500Y-88897600D01*
X153733071Y-88969028D01*
X153804500Y-89040457D01*
X153875928Y-88969028D01*
X153733071Y-88969028D01*
X153375928Y-90326171D02*
X152161642Y-90326171D01*
X152018785Y-90254742D01*
X151947357Y-90183314D01*
X151875928Y-90040457D01*
X151875928Y-89826171D01*
X151947357Y-89683314D01*
X152447357Y-90326171D02*
X152375928Y-90183314D01*
X152375928Y-89897600D01*
X152447357Y-89754742D01*
X152518785Y-89683314D01*
X152661642Y-89611885D01*
X153090214Y-89611885D01*
X153233071Y-89683314D01*
X153304500Y-89754742D01*
X153375928Y-89897600D01*
X153375928Y-90183314D01*
X153304500Y-90326171D01*
X152375928Y-91040457D02*
X153875928Y-91040457D01*
X152375928Y-91683314D02*
X153161642Y-91683314D01*
X153304500Y-91611885D01*
X153375928Y-91469028D01*
X153375928Y-91254742D01*
X153304500Y-91111885D01*
X153233071Y-91040457D01*
X153375928Y-92183314D02*
X153375928Y-92754742D01*
X153875928Y-92397600D02*
X152590214Y-92397600D01*
X152447357Y-92469028D01*
X152375928Y-92611885D01*
X152375928Y-92754742D01*
X152375928Y-94397600D02*
X153875928Y-94397600D01*
X153161642Y-94397600D02*
X153161642Y-95254742D01*
X152375928Y-95254742D02*
X153875928Y-95254742D01*
X152375928Y-96611885D02*
X153161642Y-96611885D01*
X153304500Y-96540457D01*
X153375928Y-96397600D01*
X153375928Y-96111885D01*
X153304500Y-95969028D01*
X152447357Y-96611885D02*
X152375928Y-96469028D01*
X152375928Y-96111885D01*
X152447357Y-95969028D01*
X152590214Y-95897600D01*
X152733071Y-95897600D01*
X152875928Y-95969028D01*
X152947357Y-96111885D01*
X152947357Y-96469028D01*
X153018785Y-96611885D01*
X153375928Y-97326171D02*
X152375928Y-97326171D01*
X153233071Y-97326171D02*
X153304500Y-97397600D01*
X153375928Y-97540457D01*
X153375928Y-97754742D01*
X153304500Y-97897600D01*
X153161642Y-97969028D01*
X152375928Y-97969028D01*
X152375928Y-99326171D02*
X153875928Y-99326171D01*
X152447357Y-99326171D02*
X152375928Y-99183314D01*
X152375928Y-98897600D01*
X152447357Y-98754742D01*
X152518785Y-98683314D01*
X152661642Y-98611885D01*
X153090214Y-98611885D01*
X153233071Y-98683314D01*
X153304500Y-98754742D01*
X153375928Y-98897600D01*
X153375928Y-99183314D01*
X153304500Y-99326171D01*
X153875928Y-100969028D02*
X153875928Y-101826171D01*
X152375928Y-101397600D02*
X153875928Y-101397600D01*
X153375928Y-102183314D02*
X152375928Y-102540457D01*
X153375928Y-102897600D02*
X152375928Y-102540457D01*
X152018785Y-102397600D01*
X151947357Y-102326171D01*
X151875928Y-102183314D01*
X153375928Y-103469028D02*
X151875928Y-103469028D01*
X153304500Y-103469028D02*
X153375928Y-103611885D01*
X153375928Y-103897600D01*
X153304500Y-104040457D01*
X153233071Y-104111885D01*
X153090214Y-104183314D01*
X152661642Y-104183314D01*
X152518785Y-104111885D01*
X152447357Y-104040457D01*
X152375928Y-103897600D01*
X152375928Y-103611885D01*
X152447357Y-103469028D01*
X152447357Y-105397600D02*
X152375928Y-105254742D01*
X152375928Y-104969028D01*
X152447357Y-104826171D01*
X152590214Y-104754742D01*
X153161642Y-104754742D01*
X153304500Y-104826171D01*
X153375928Y-104969028D01*
X153375928Y-105254742D01*
X153304500Y-105397600D01*
X153161642Y-105469028D01*
X153018785Y-105469028D01*
X152875928Y-104754742D01*
X153875928Y-107469028D02*
X153518785Y-107469028D01*
X153661642Y-107111885D02*
X153518785Y-107469028D01*
X153661642Y-107826171D01*
X153233071Y-107254742D02*
X153518785Y-107469028D01*
X153233071Y-107683314D01*
X153875928Y-108611885D02*
X153518785Y-108611885D01*
X153661642Y-108254742D02*
X153518785Y-108611885D01*
X153661642Y-108969028D01*
X153233071Y-108397600D02*
X153518785Y-108611885D01*
X153233071Y-108826171D01*
X153161642Y-111183314D02*
X153090214Y-111397600D01*
X153018785Y-111469028D01*
X152875928Y-111540457D01*
X152661642Y-111540457D01*
X152518785Y-111469028D01*
X152447357Y-111397600D01*
X152375928Y-111254742D01*
X152375928Y-110683314D01*
X153875928Y-110683314D01*
X153875928Y-111183314D01*
X153804500Y-111326171D01*
X153733071Y-111397600D01*
X153590214Y-111469028D01*
X153447357Y-111469028D01*
X153304500Y-111397600D01*
X153233071Y-111326171D01*
X153161642Y-111183314D01*
X153161642Y-110683314D01*
X152375928Y-112826171D02*
X153161642Y-112826171D01*
X153304500Y-112754742D01*
X153375928Y-112611885D01*
X153375928Y-112326171D01*
X153304500Y-112183314D01*
X152447357Y-112826171D02*
X152375928Y-112683314D01*
X152375928Y-112326171D01*
X152447357Y-112183314D01*
X152590214Y-112111885D01*
X152733071Y-112111885D01*
X152875928Y-112183314D01*
X152947357Y-112326171D01*
X152947357Y-112683314D01*
X153018785Y-112826171D01*
X152447357Y-114183314D02*
X152375928Y-114040457D01*
X152375928Y-113754742D01*
X152447357Y-113611885D01*
X152518785Y-113540457D01*
X152661642Y-113469028D01*
X153090214Y-113469028D01*
X153233071Y-113540457D01*
X153304500Y-113611885D01*
X153375928Y-113754742D01*
X153375928Y-114040457D01*
X153304500Y-114183314D01*
X152375928Y-114826171D02*
X153875928Y-114826171D01*
X152947357Y-114969028D02*
X152375928Y-115397600D01*
X153375928Y-115397600D02*
X152804500Y-114826171D01*
X152447357Y-117111885D02*
X152375928Y-117326171D01*
X152375928Y-117683314D01*
X152447357Y-117826171D01*
X152518785Y-117897600D01*
X152661642Y-117969028D01*
X152804500Y-117969028D01*
X152947357Y-117897600D01*
X153018785Y-117826171D01*
X153090214Y-117683314D01*
X153161642Y-117397600D01*
X153233071Y-117254742D01*
X153304500Y-117183314D01*
X153447357Y-117111885D01*
X153590214Y-117111885D01*
X153733071Y-117183314D01*
X153804500Y-117254742D01*
X153875928Y-117397600D01*
X153875928Y-117754742D01*
X153804500Y-117969028D01*
X152375928Y-118611885D02*
X153375928Y-118611885D01*
X153875928Y-118611885D02*
X153804500Y-118540457D01*
X153733071Y-118611885D01*
X153804500Y-118683314D01*
X153875928Y-118611885D01*
X153733071Y-118611885D01*
X152375928Y-119969028D02*
X153875928Y-119969028D01*
X152447357Y-119969028D02*
X152375928Y-119826171D01*
X152375928Y-119540457D01*
X152447357Y-119397600D01*
X152518785Y-119326171D01*
X152661642Y-119254742D01*
X153090214Y-119254742D01*
X153233071Y-119326171D01*
X153304500Y-119397600D01*
X153375928Y-119540457D01*
X153375928Y-119826171D01*
X153304500Y-119969028D01*
X152447357Y-121254742D02*
X152375928Y-121111885D01*
X152375928Y-120826171D01*
X152447357Y-120683314D01*
X152590214Y-120611885D01*
X153161642Y-120611885D01*
X153304500Y-120683314D01*
X153375928Y-120826171D01*
X153375928Y-121111885D01*
X153304500Y-121254742D01*
X153161642Y-121326171D01*
X153018785Y-121326171D01*
X152875928Y-120611885D01*
D12*
X176900500Y-125200600D02*
X181950500Y-125246600D01*
X176900500Y-125154600D02*
X176900500Y-121246600D01*
X176900500Y-121246600D02*
X185525500Y-121246600D01*
X187800500Y-123200600D02*
X187800500Y-127145600D01*
X187800500Y-127154600D02*
X184190500Y-127154600D01*
X187789500Y-123130600D02*
G75*
G03*
X185525500Y-121246600I-2074000J-190000D01*
G01*
X184185500Y-127130600D02*
G75*
G03*
X181925500Y-125250600I-2070000J-190000D01*
G01*
X176900500Y-106150600D02*
X181950500Y-106196600D01*
X176900500Y-106104600D02*
X176900500Y-102196600D01*
X176900500Y-102196600D02*
X185525500Y-102196600D01*
X187800500Y-104150600D02*
X187800500Y-108095600D01*
X187800500Y-108104600D02*
X184190500Y-108104600D01*
X187789500Y-104080600D02*
G75*
G03*
X185525500Y-102196600I-2074000J-190000D01*
G01*
X184185500Y-108080600D02*
G75*
G03*
X181925500Y-106200600I-2070000J-190000D01*
G01*
X157850500Y-125200600D02*
X162900500Y-125246600D01*
X157850500Y-125154600D02*
X157850500Y-121246600D01*
X157850500Y-121246600D02*
X166475500Y-121246600D01*
X168750500Y-123200600D02*
X168750500Y-127145600D01*
X168750500Y-127154600D02*
X165140500Y-127154600D01*
X168739500Y-123130600D02*
G75*
G03*
X166475500Y-121246600I-2074000J-190000D01*
G01*
X165135500Y-127130600D02*
G75*
G03*
X162875500Y-125250600I-2070000J-190000D01*
G01*
X157850500Y-106150600D02*
X162900500Y-106196600D01*
X157850500Y-106104600D02*
X157850500Y-102196600D01*
X157850500Y-102196600D02*
X166475500Y-102196600D01*
X168750500Y-104150600D02*
X168750500Y-108095600D01*
X168750500Y-108104600D02*
X165140500Y-108104600D01*
X168739500Y-104080600D02*
G75*
G03*
X166475500Y-102196600I-2074000J-190000D01*
G01*
X165135500Y-108080600D02*
G75*
G03*
X162875500Y-106200600I-2070000J-190000D01*
G01*
X157850500Y-87100600D02*
X162900500Y-87146600D01*
X157850500Y-87054600D02*
X157850500Y-83146600D01*
X157850500Y-83146600D02*
X166475500Y-83146600D01*
X168750500Y-85100600D02*
X168750500Y-89045600D01*
X168750500Y-89054600D02*
X165140500Y-89054600D01*
X168739500Y-85030600D02*
G75*
G03*
X166475500Y-83146600I-2074000J-190000D01*
G01*
X165135500Y-89030600D02*
G75*
G03*
X162875500Y-87150600I-2070000J-190000D01*
G01*
X157850500Y-68050600D02*
X162900500Y-68096600D01*
X157850500Y-68004600D02*
X157850500Y-64096600D01*
X157850500Y-64096600D02*
X166475500Y-64096600D01*
X168750500Y-66050600D02*
X168750500Y-69995600D01*
X168750500Y-70004600D02*
X165140500Y-70004600D01*
X168739500Y-65980600D02*
G75*
G03*
X166475500Y-64096600I-2074000J-190000D01*
G01*
X165135500Y-69980600D02*
G75*
G03*
X162875500Y-68100600I-2070000J-190000D01*
G01*
X138800500Y-125200600D02*
X143850500Y-125246600D01*
X138800500Y-125154600D02*
X138800500Y-121246600D01*
X138800500Y-121246600D02*
X147425500Y-121246600D01*
X149700500Y-123200600D02*
X149700500Y-127145600D01*
X149700500Y-127154600D02*
X146090500Y-127154600D01*
X149689500Y-123130600D02*
G75*
G03*
X147425500Y-121246600I-2074000J-190000D01*
G01*
X146085500Y-127130600D02*
G75*
G03*
X143825500Y-125250600I-2070000J-190000D01*
G01*
X138800500Y-106150600D02*
X143850500Y-106196600D01*
X138800500Y-106104600D02*
X138800500Y-102196600D01*
X138800500Y-102196600D02*
X147425500Y-102196600D01*
X149700500Y-104150600D02*
X149700500Y-108095600D01*
X149700500Y-108104600D02*
X146090500Y-108104600D01*
X149689500Y-104080600D02*
G75*
G03*
X147425500Y-102196600I-2074000J-190000D01*
G01*
X146085500Y-108080600D02*
G75*
G03*
X143825500Y-106200600I-2070000J-190000D01*
G01*
X138800500Y-87100600D02*
X143850500Y-87146600D01*
X138800500Y-87054600D02*
X138800500Y-83146600D01*
X138800500Y-83146600D02*
X147425500Y-83146600D01*
X149700500Y-85100600D02*
X149700500Y-89045600D01*
X149700500Y-89054600D02*
X146090500Y-89054600D01*
X149689500Y-85030600D02*
G75*
G03*
X147425500Y-83146600I-2074000J-190000D01*
G01*
X146085500Y-89030600D02*
G75*
G03*
X143825500Y-87150600I-2070000J-190000D01*
G01*
X138800500Y-68050600D02*
X143850500Y-68096600D01*
X138800500Y-68004600D02*
X138800500Y-64096600D01*
X138800500Y-64096600D02*
X147425500Y-64096600D01*
X149700500Y-66050600D02*
X149700500Y-69995600D01*
X149700500Y-70004600D02*
X146090500Y-70004600D01*
X149689500Y-65980600D02*
G75*
G03*
X147425500Y-64096600I-2074000J-190000D01*
G01*
X146085500Y-69980600D02*
G75*
G03*
X143825500Y-68100600I-2070000J-190000D01*
G01*
X119750500Y-125200600D02*
X124800500Y-125246600D01*
X119750500Y-125154600D02*
X119750500Y-121246600D01*
X119750500Y-121246600D02*
X128375500Y-121246600D01*
X130650500Y-123200600D02*
X130650500Y-127145600D01*
X130650500Y-127154600D02*
X127040500Y-127154600D01*
X130639500Y-123130600D02*
G75*
G03*
X128375500Y-121246600I-2074000J-190000D01*
G01*
X127035500Y-127130600D02*
G75*
G03*
X124775500Y-125250600I-2070000J-190000D01*
G01*
X119750500Y-106150600D02*
X124800500Y-106196600D01*
X119750500Y-106104600D02*
X119750500Y-102196600D01*
X119750500Y-102196600D02*
X128375500Y-102196600D01*
X130650500Y-104150600D02*
X130650500Y-108095600D01*
X130650500Y-108104600D02*
X127040500Y-108104600D01*
X130639500Y-104080600D02*
G75*
G03*
X128375500Y-102196600I-2074000J-190000D01*
G01*
X127035500Y-108080600D02*
G75*
G03*
X124775500Y-106200600I-2070000J-190000D01*
G01*
X119750500Y-87100600D02*
X124800500Y-87146600D01*
X119750500Y-87054600D02*
X119750500Y-83146600D01*
X119750500Y-83146600D02*
X128375500Y-83146600D01*
X130650500Y-85100600D02*
X130650500Y-89045600D01*
X130650500Y-89054600D02*
X127040500Y-89054600D01*
X130639500Y-85030600D02*
G75*
G03*
X128375500Y-83146600I-2074000J-190000D01*
G01*
X127035500Y-89030600D02*
G75*
G03*
X124775500Y-87150600I-2070000J-190000D01*
G01*
X119750500Y-68050600D02*
X124800500Y-68096600D01*
X119750500Y-68004600D02*
X119750500Y-64096600D01*
X119750500Y-64096600D02*
X128375500Y-64096600D01*
X130650500Y-66050600D02*
X130650500Y-69995600D01*
X130650500Y-70004600D02*
X127040500Y-70004600D01*
X130639500Y-65980600D02*
G75*
G03*
X128375500Y-64096600I-2074000J-190000D01*
G01*
X127035500Y-69980600D02*
G75*
G03*
X124775500Y-68100600I-2070000J-190000D01*
G01*
X100700500Y-125200600D02*
X105750500Y-125246600D01*
X100700500Y-125154600D02*
X100700500Y-121246600D01*
X100700500Y-121246600D02*
X109325500Y-121246600D01*
X111600500Y-123200600D02*
X111600500Y-127145600D01*
X111600500Y-127154600D02*
X107990500Y-127154600D01*
X111589500Y-123130600D02*
G75*
G03*
X109325500Y-121246600I-2074000J-190000D01*
G01*
X107985500Y-127130600D02*
G75*
G03*
X105725500Y-125250600I-2070000J-190000D01*
G01*
X100700500Y-106150600D02*
X105750500Y-106196600D01*
X100700500Y-106104600D02*
X100700500Y-102196600D01*
X100700500Y-102196600D02*
X109325500Y-102196600D01*
X111600500Y-104150600D02*
X111600500Y-108095600D01*
X111600500Y-108104600D02*
X107990500Y-108104600D01*
X111589500Y-104080600D02*
G75*
G03*
X109325500Y-102196600I-2074000J-190000D01*
G01*
X107985500Y-108080600D02*
G75*
G03*
X105725500Y-106200600I-2070000J-190000D01*
G01*
X100700500Y-87100600D02*
X105750500Y-87146600D01*
X100700500Y-87054600D02*
X100700500Y-83146600D01*
X100700500Y-83146600D02*
X109325500Y-83146600D01*
X111600500Y-85100600D02*
X111600500Y-89045600D01*
X111600500Y-89054600D02*
X107990500Y-89054600D01*
X111589500Y-85030600D02*
G75*
G03*
X109325500Y-83146600I-2074000J-190000D01*
G01*
X107985500Y-89030600D02*
G75*
G03*
X105725500Y-87150600I-2070000J-190000D01*
G01*
X100700500Y-68050600D02*
X105750500Y-68096600D01*
X100700500Y-68004600D02*
X100700500Y-64096600D01*
X100700500Y-64096600D02*
X109325500Y-64096600D01*
X111600500Y-66050600D02*
X111600500Y-69995600D01*
X111600500Y-70004600D02*
X107990500Y-70004600D01*
X111589500Y-65980600D02*
G75*
G03*
X109325500Y-64096600I-2074000J-190000D01*
G01*
X107985500Y-69980600D02*
G75*
G03*
X105725500Y-68100600I-2070000J-190000D01*
G01*
X173766900Y-62752600D02*
X176306900Y-62752600D01*
X176306900Y-62752600D02*
X176306900Y-93232600D01*
X176306900Y-93232600D02*
X173766900Y-93232600D01*
X173766900Y-93232600D02*
X173766900Y-62752600D01*
X188986900Y-62752600D02*
X191526900Y-62752600D01*
X191526900Y-62752600D02*
X191526900Y-93232600D01*
X191526900Y-93232600D02*
X188986900Y-93232600D01*
X188986900Y-93232600D02*
X188986900Y-62752600D01*
D11*
X173990500Y-97163600D02*
X173990500Y-95713600D01*
X173990500Y-95713600D02*
X176040500Y-95713600D01*
X176040500Y-95713600D02*
X176040500Y-97163600D01*
X176040500Y-97163600D02*
X173990500Y-97163600D01*
D12*
X184400500Y-137800600D02*
X184400500Y-136300600D01*
X179000500Y-137800600D02*
X184400500Y-137800600D01*
X179000500Y-136300600D02*
X179000500Y-137800600D01*
X184400500Y-136300600D02*
X179000500Y-136300600D01*
X181200500Y-136550600D02*
X181200500Y-137550600D01*
X182200500Y-137550600D02*
X181300500Y-137050600D01*
X182200500Y-136550600D02*
X182200500Y-137550600D01*
X181300500Y-137050600D02*
X182200500Y-136550600D01*
X184400500Y-119275600D02*
X184400500Y-117775600D01*
X179000500Y-119275600D02*
X184400500Y-119275600D01*
X179000500Y-117775600D02*
X179000500Y-119275600D01*
X184400500Y-117775600D02*
X179000500Y-117775600D01*
X181200500Y-118025600D02*
X181200500Y-119025600D01*
X182200500Y-119025600D02*
X181300500Y-118525600D01*
X182200500Y-118025600D02*
X182200500Y-119025600D01*
X181300500Y-118525600D02*
X182200500Y-118025600D01*
X165350500Y-137800600D02*
X165350500Y-136300600D01*
X159950500Y-137800600D02*
X165350500Y-137800600D01*
X159950500Y-136300600D02*
X159950500Y-137800600D01*
X165350500Y-136300600D02*
X159950500Y-136300600D01*
X162150500Y-136550600D02*
X162150500Y-137550600D01*
X163150500Y-137550600D02*
X162250500Y-137050600D01*
X163150500Y-136550600D02*
X163150500Y-137550600D01*
X162250500Y-137050600D02*
X163150500Y-136550600D01*
X165350500Y-119275600D02*
X165350500Y-117775600D01*
X159950500Y-119275600D02*
X165350500Y-119275600D01*
X159950500Y-117775600D02*
X159950500Y-119275600D01*
X165350500Y-117775600D02*
X159950500Y-117775600D01*
X162150500Y-118025600D02*
X162150500Y-119025600D01*
X163150500Y-119025600D02*
X162250500Y-118525600D01*
X163150500Y-118025600D02*
X163150500Y-119025600D01*
X162250500Y-118525600D02*
X163150500Y-118025600D01*
X165350500Y-100225600D02*
X165350500Y-98725600D01*
X159950500Y-100225600D02*
X165350500Y-100225600D01*
X159950500Y-98725600D02*
X159950500Y-100225600D01*
X165350500Y-98725600D02*
X159950500Y-98725600D01*
X162150500Y-98975600D02*
X162150500Y-99975600D01*
X163150500Y-99975600D02*
X162250500Y-99475600D01*
X163150500Y-98975600D02*
X163150500Y-99975600D01*
X162250500Y-99475600D02*
X163150500Y-98975600D01*
X165350500Y-81175600D02*
X165350500Y-79675600D01*
X159950500Y-81175600D02*
X165350500Y-81175600D01*
X159950500Y-79675600D02*
X159950500Y-81175600D01*
X165350500Y-79675600D02*
X159950500Y-79675600D01*
X162150500Y-79925600D02*
X162150500Y-80925600D01*
X163150500Y-80925600D02*
X162250500Y-80425600D01*
X163150500Y-79925600D02*
X163150500Y-80925600D01*
X162250500Y-80425600D02*
X163150500Y-79925600D01*
X146300500Y-137800600D02*
X146300500Y-136300600D01*
X140900500Y-137800600D02*
X146300500Y-137800600D01*
X140900500Y-136300600D02*
X140900500Y-137800600D01*
X146300500Y-136300600D02*
X140900500Y-136300600D01*
X143100500Y-136550600D02*
X143100500Y-137550600D01*
X144100500Y-137550600D02*
X143200500Y-137050600D01*
X144100500Y-136550600D02*
X144100500Y-137550600D01*
X143200500Y-137050600D02*
X144100500Y-136550600D01*
X146300500Y-119275600D02*
X146300500Y-117775600D01*
X140900500Y-119275600D02*
X146300500Y-119275600D01*
X140900500Y-117775600D02*
X140900500Y-119275600D01*
X146300500Y-117775600D02*
X140900500Y-117775600D01*
X143100500Y-118025600D02*
X143100500Y-119025600D01*
X144100500Y-119025600D02*
X143200500Y-118525600D01*
X144100500Y-118025600D02*
X144100500Y-119025600D01*
X143200500Y-118525600D02*
X144100500Y-118025600D01*
X146300500Y-100225600D02*
X146300500Y-98725600D01*
X140900500Y-100225600D02*
X146300500Y-100225600D01*
X140900500Y-98725600D02*
X140900500Y-100225600D01*
X146300500Y-98725600D02*
X140900500Y-98725600D01*
X143100500Y-98975600D02*
X143100500Y-99975600D01*
X144100500Y-99975600D02*
X143200500Y-99475600D01*
X144100500Y-98975600D02*
X144100500Y-99975600D01*
X143200500Y-99475600D02*
X144100500Y-98975600D01*
X146300500Y-81175600D02*
X146300500Y-79675600D01*
X140900500Y-81175600D02*
X146300500Y-81175600D01*
X140900500Y-79675600D02*
X140900500Y-81175600D01*
X146300500Y-79675600D02*
X140900500Y-79675600D01*
X143100500Y-79925600D02*
X143100500Y-80925600D01*
X144100500Y-80925600D02*
X143200500Y-80425600D01*
X144100500Y-79925600D02*
X144100500Y-80925600D01*
X143200500Y-80425600D02*
X144100500Y-79925600D01*
X127250500Y-137800600D02*
X127250500Y-136300600D01*
X121850500Y-137800600D02*
X127250500Y-137800600D01*
X121850500Y-136300600D02*
X121850500Y-137800600D01*
X127250500Y-136300600D02*
X121850500Y-136300600D01*
X124050500Y-136550600D02*
X124050500Y-137550600D01*
X125050500Y-137550600D02*
X124150500Y-137050600D01*
X125050500Y-136550600D02*
X125050500Y-137550600D01*
X124150500Y-137050600D02*
X125050500Y-136550600D01*
X127250500Y-119275600D02*
X127250500Y-117775600D01*
X121850500Y-119275600D02*
X127250500Y-119275600D01*
X121850500Y-117775600D02*
X121850500Y-119275600D01*
X127250500Y-117775600D02*
X121850500Y-117775600D01*
X124050500Y-118025600D02*
X124050500Y-119025600D01*
X125050500Y-119025600D02*
X124150500Y-118525600D01*
X125050500Y-118025600D02*
X125050500Y-119025600D01*
X124150500Y-118525600D02*
X125050500Y-118025600D01*
X127250500Y-100225600D02*
X127250500Y-98725600D01*
X121850500Y-100225600D02*
X127250500Y-100225600D01*
X121850500Y-98725600D02*
X121850500Y-100225600D01*
X127250500Y-98725600D02*
X121850500Y-98725600D01*
X124050500Y-98975600D02*
X124050500Y-99975600D01*
X125050500Y-99975600D02*
X124150500Y-99475600D01*
X125050500Y-98975600D02*
X125050500Y-99975600D01*
X124150500Y-99475600D02*
X125050500Y-98975600D01*
X127250500Y-81175600D02*
X127250500Y-79675600D01*
X121850500Y-81175600D02*
X127250500Y-81175600D01*
X121850500Y-79675600D02*
X121850500Y-81175600D01*
X127250500Y-79675600D02*
X121850500Y-79675600D01*
X124050500Y-79925600D02*
X124050500Y-80925600D01*
X125050500Y-80925600D02*
X124150500Y-80425600D01*
X125050500Y-79925600D02*
X125050500Y-80925600D01*
X124150500Y-80425600D02*
X125050500Y-79925600D01*
X108200500Y-137800600D02*
X108200500Y-136300600D01*
X102800500Y-137800600D02*
X108200500Y-137800600D01*
X102800500Y-136300600D02*
X102800500Y-137800600D01*
X108200500Y-136300600D02*
X102800500Y-136300600D01*
X105000500Y-136550600D02*
X105000500Y-137550600D01*
X106000500Y-137550600D02*
X105100500Y-137050600D01*
X106000500Y-136550600D02*
X106000500Y-137550600D01*
X105100500Y-137050600D02*
X106000500Y-136550600D01*
X108200500Y-119275600D02*
X108200500Y-117775600D01*
X102800500Y-119275600D02*
X108200500Y-119275600D01*
X102800500Y-117775600D02*
X102800500Y-119275600D01*
X108200500Y-117775600D02*
X102800500Y-117775600D01*
X105000500Y-118025600D02*
X105000500Y-119025600D01*
X106000500Y-119025600D02*
X105100500Y-118525600D01*
X106000500Y-118025600D02*
X106000500Y-119025600D01*
X105100500Y-118525600D02*
X106000500Y-118025600D01*
X108200500Y-100225600D02*
X108200500Y-98725600D01*
X102800500Y-100225600D02*
X108200500Y-100225600D01*
X102800500Y-98725600D02*
X102800500Y-100225600D01*
X108200500Y-98725600D02*
X102800500Y-98725600D01*
X105000500Y-98975600D02*
X105000500Y-99975600D01*
X106000500Y-99975600D02*
X105100500Y-99475600D01*
X106000500Y-98975600D02*
X106000500Y-99975600D01*
X105100500Y-99475600D02*
X106000500Y-98975600D01*
X108391000Y-81225600D02*
X108391000Y-79725600D01*
X102991000Y-81225600D02*
X108391000Y-81225600D01*
X102991000Y-79725600D02*
X102991000Y-81225600D01*
X108391000Y-79725600D02*
X102991000Y-79725600D01*
X105191000Y-79975600D02*
X105191000Y-80975600D01*
X106191000Y-80975600D02*
X105291000Y-80475600D01*
X106191000Y-79975600D02*
X106191000Y-80975600D01*
X105291000Y-80475600D02*
X106191000Y-79975600D01*
X189836500Y-95309600D02*
X183836500Y-95309600D01*
X183836500Y-95309600D02*
X183836500Y-95559600D01*
X189836500Y-95309600D02*
X189836500Y-95559600D01*
X189836500Y-98809600D02*
X189836500Y-98559600D01*
X189836500Y-98809600D02*
X183836500Y-98809600D01*
X183836500Y-98809600D02*
X183836500Y-98559600D01*
X185763476Y-134455361D02*
X185906333Y-134502980D01*
X186144428Y-134502980D01*
X186239666Y-134455361D01*
X186287285Y-134407742D01*
X186334904Y-134312504D01*
X186334904Y-134217266D01*
X186287285Y-134122028D01*
X186239666Y-134074409D01*
X186144428Y-134026790D01*
X185953952Y-133979171D01*
X185858714Y-133931552D01*
X185811095Y-133883933D01*
X185763476Y-133788695D01*
X185763476Y-133693457D01*
X185811095Y-133598219D01*
X185858714Y-133550600D01*
X185953952Y-133502980D01*
X186192047Y-133502980D01*
X186334904Y-133550600D01*
X186668238Y-133502980D02*
X186906333Y-134502980D01*
X187096809Y-133788695D01*
X187287285Y-134502980D01*
X187525380Y-133502980D01*
X188430142Y-134502980D02*
X187858714Y-134502980D01*
X188144428Y-134502980D02*
X188144428Y-133502980D01*
X188049190Y-133645838D01*
X187953952Y-133741076D01*
X187858714Y-133788695D01*
X189001571Y-133931552D02*
X188906333Y-133883933D01*
X188858714Y-133836314D01*
X188811095Y-133741076D01*
X188811095Y-133693457D01*
X188858714Y-133598219D01*
X188906333Y-133550600D01*
X189001571Y-133502980D01*
X189192047Y-133502980D01*
X189287285Y-133550600D01*
X189334904Y-133598219D01*
X189382523Y-133693457D01*
X189382523Y-133741076D01*
X189334904Y-133836314D01*
X189287285Y-133883933D01*
X189192047Y-133931552D01*
X189001571Y-133931552D01*
X188906333Y-133979171D01*
X188858714Y-134026790D01*
X188811095Y-134122028D01*
X188811095Y-134312504D01*
X188858714Y-134407742D01*
X188906333Y-134455361D01*
X189001571Y-134502980D01*
X189192047Y-134502980D01*
X189287285Y-134455361D01*
X189334904Y-134407742D01*
X189382523Y-134312504D01*
X189382523Y-134122028D01*
X189334904Y-134026790D01*
X189287285Y-133979171D01*
X189192047Y-133931552D01*
X185763476Y-115405361D02*
X185906333Y-115452980D01*
X186144428Y-115452980D01*
X186239666Y-115405361D01*
X186287285Y-115357742D01*
X186334904Y-115262504D01*
X186334904Y-115167266D01*
X186287285Y-115072028D01*
X186239666Y-115024409D01*
X186144428Y-114976790D01*
X185953952Y-114929171D01*
X185858714Y-114881552D01*
X185811095Y-114833933D01*
X185763476Y-114738695D01*
X185763476Y-114643457D01*
X185811095Y-114548219D01*
X185858714Y-114500600D01*
X185953952Y-114452980D01*
X186192047Y-114452980D01*
X186334904Y-114500600D01*
X186668238Y-114452980D02*
X186906333Y-115452980D01*
X187096809Y-114738695D01*
X187287285Y-115452980D01*
X187525380Y-114452980D01*
X188430142Y-115452980D02*
X187858714Y-115452980D01*
X188144428Y-115452980D02*
X188144428Y-114452980D01*
X188049190Y-114595838D01*
X187953952Y-114691076D01*
X187858714Y-114738695D01*
X188763476Y-114452980D02*
X189430142Y-114452980D01*
X189001571Y-115452980D01*
X166713476Y-134455361D02*
X166856333Y-134502980D01*
X167094428Y-134502980D01*
X167189666Y-134455361D01*
X167237285Y-134407742D01*
X167284904Y-134312504D01*
X167284904Y-134217266D01*
X167237285Y-134122028D01*
X167189666Y-134074409D01*
X167094428Y-134026790D01*
X166903952Y-133979171D01*
X166808714Y-133931552D01*
X166761095Y-133883933D01*
X166713476Y-133788695D01*
X166713476Y-133693457D01*
X166761095Y-133598219D01*
X166808714Y-133550600D01*
X166903952Y-133502980D01*
X167142047Y-133502980D01*
X167284904Y-133550600D01*
X167618238Y-133502980D02*
X167856333Y-134502980D01*
X168046809Y-133788695D01*
X168237285Y-134502980D01*
X168475380Y-133502980D01*
X169380142Y-134502980D02*
X168808714Y-134502980D01*
X169094428Y-134502980D02*
X169094428Y-133502980D01*
X168999190Y-133645838D01*
X168903952Y-133741076D01*
X168808714Y-133788695D01*
X170237285Y-133502980D02*
X170046809Y-133502980D01*
X169951571Y-133550600D01*
X169903952Y-133598219D01*
X169808714Y-133741076D01*
X169761095Y-133931552D01*
X169761095Y-134312504D01*
X169808714Y-134407742D01*
X169856333Y-134455361D01*
X169951571Y-134502980D01*
X170142047Y-134502980D01*
X170237285Y-134455361D01*
X170284904Y-134407742D01*
X170332523Y-134312504D01*
X170332523Y-134074409D01*
X170284904Y-133979171D01*
X170237285Y-133931552D01*
X170142047Y-133883933D01*
X169951571Y-133883933D01*
X169856333Y-133931552D01*
X169808714Y-133979171D01*
X169761095Y-134074409D01*
X166713476Y-115405361D02*
X166856333Y-115452980D01*
X167094428Y-115452980D01*
X167189666Y-115405361D01*
X167237285Y-115357742D01*
X167284904Y-115262504D01*
X167284904Y-115167266D01*
X167237285Y-115072028D01*
X167189666Y-115024409D01*
X167094428Y-114976790D01*
X166903952Y-114929171D01*
X166808714Y-114881552D01*
X166761095Y-114833933D01*
X166713476Y-114738695D01*
X166713476Y-114643457D01*
X166761095Y-114548219D01*
X166808714Y-114500600D01*
X166903952Y-114452980D01*
X167142047Y-114452980D01*
X167284904Y-114500600D01*
X167618238Y-114452980D02*
X167856333Y-115452980D01*
X168046809Y-114738695D01*
X168237285Y-115452980D01*
X168475380Y-114452980D01*
X169380142Y-115452980D02*
X168808714Y-115452980D01*
X169094428Y-115452980D02*
X169094428Y-114452980D01*
X168999190Y-114595838D01*
X168903952Y-114691076D01*
X168808714Y-114738695D01*
X170284904Y-114452980D02*
X169808714Y-114452980D01*
X169761095Y-114929171D01*
X169808714Y-114881552D01*
X169903952Y-114833933D01*
X170142047Y-114833933D01*
X170237285Y-114881552D01*
X170284904Y-114929171D01*
X170332523Y-115024409D01*
X170332523Y-115262504D01*
X170284904Y-115357742D01*
X170237285Y-115405361D01*
X170142047Y-115452980D01*
X169903952Y-115452980D01*
X169808714Y-115405361D01*
X169761095Y-115357742D01*
X166713476Y-96355361D02*
X166856333Y-96402980D01*
X167094428Y-96402980D01*
X167189666Y-96355361D01*
X167237285Y-96307742D01*
X167284904Y-96212504D01*
X167284904Y-96117266D01*
X167237285Y-96022028D01*
X167189666Y-95974409D01*
X167094428Y-95926790D01*
X166903952Y-95879171D01*
X166808714Y-95831552D01*
X166761095Y-95783933D01*
X166713476Y-95688695D01*
X166713476Y-95593457D01*
X166761095Y-95498219D01*
X166808714Y-95450600D01*
X166903952Y-95402980D01*
X167142047Y-95402980D01*
X167284904Y-95450600D01*
X167618238Y-95402980D02*
X167856333Y-96402980D01*
X168046809Y-95688695D01*
X168237285Y-96402980D01*
X168475380Y-95402980D01*
X169380142Y-96402980D02*
X168808714Y-96402980D01*
X169094428Y-96402980D02*
X169094428Y-95402980D01*
X168999190Y-95545838D01*
X168903952Y-95641076D01*
X168808714Y-95688695D01*
X170237285Y-95736314D02*
X170237285Y-96402980D01*
X169999190Y-95355361D02*
X169761095Y-96069647D01*
X170380142Y-96069647D01*
X166713476Y-77305361D02*
X166856333Y-77352980D01*
X167094428Y-77352980D01*
X167189666Y-77305361D01*
X167237285Y-77257742D01*
X167284904Y-77162504D01*
X167284904Y-77067266D01*
X167237285Y-76972028D01*
X167189666Y-76924409D01*
X167094428Y-76876790D01*
X166903952Y-76829171D01*
X166808714Y-76781552D01*
X166761095Y-76733933D01*
X166713476Y-76638695D01*
X166713476Y-76543457D01*
X166761095Y-76448219D01*
X166808714Y-76400600D01*
X166903952Y-76352980D01*
X167142047Y-76352980D01*
X167284904Y-76400600D01*
X167618238Y-76352980D02*
X167856333Y-77352980D01*
X168046809Y-76638695D01*
X168237285Y-77352980D01*
X168475380Y-76352980D01*
X169380142Y-77352980D02*
X168808714Y-77352980D01*
X169094428Y-77352980D02*
X169094428Y-76352980D01*
X168999190Y-76495838D01*
X168903952Y-76591076D01*
X168808714Y-76638695D01*
X169713476Y-76352980D02*
X170332523Y-76352980D01*
X169999190Y-76733933D01*
X170142047Y-76733933D01*
X170237285Y-76781552D01*
X170284904Y-76829171D01*
X170332523Y-76924409D01*
X170332523Y-77162504D01*
X170284904Y-77257742D01*
X170237285Y-77305361D01*
X170142047Y-77352980D01*
X169856333Y-77352980D01*
X169761095Y-77305361D01*
X169713476Y-77257742D01*
X147663476Y-134455361D02*
X147806333Y-134502980D01*
X148044428Y-134502980D01*
X148139666Y-134455361D01*
X148187285Y-134407742D01*
X148234904Y-134312504D01*
X148234904Y-134217266D01*
X148187285Y-134122028D01*
X148139666Y-134074409D01*
X148044428Y-134026790D01*
X147853952Y-133979171D01*
X147758714Y-133931552D01*
X147711095Y-133883933D01*
X147663476Y-133788695D01*
X147663476Y-133693457D01*
X147711095Y-133598219D01*
X147758714Y-133550600D01*
X147853952Y-133502980D01*
X148092047Y-133502980D01*
X148234904Y-133550600D01*
X148568238Y-133502980D02*
X148806333Y-134502980D01*
X148996809Y-133788695D01*
X149187285Y-134502980D01*
X149425380Y-133502980D01*
X150330142Y-134502980D02*
X149758714Y-134502980D01*
X150044428Y-134502980D02*
X150044428Y-133502980D01*
X149949190Y-133645838D01*
X149853952Y-133741076D01*
X149758714Y-133788695D01*
X150711095Y-133598219D02*
X150758714Y-133550600D01*
X150853952Y-133502980D01*
X151092047Y-133502980D01*
X151187285Y-133550600D01*
X151234904Y-133598219D01*
X151282523Y-133693457D01*
X151282523Y-133788695D01*
X151234904Y-133931552D01*
X150663476Y-134502980D01*
X151282523Y-134502980D01*
X147663476Y-115405361D02*
X147806333Y-115452980D01*
X148044428Y-115452980D01*
X148139666Y-115405361D01*
X148187285Y-115357742D01*
X148234904Y-115262504D01*
X148234904Y-115167266D01*
X148187285Y-115072028D01*
X148139666Y-115024409D01*
X148044428Y-114976790D01*
X147853952Y-114929171D01*
X147758714Y-114881552D01*
X147711095Y-114833933D01*
X147663476Y-114738695D01*
X147663476Y-114643457D01*
X147711095Y-114548219D01*
X147758714Y-114500600D01*
X147853952Y-114452980D01*
X148092047Y-114452980D01*
X148234904Y-114500600D01*
X148568238Y-114452980D02*
X148806333Y-115452980D01*
X148996809Y-114738695D01*
X149187285Y-115452980D01*
X149425380Y-114452980D01*
X150330142Y-115452980D02*
X149758714Y-115452980D01*
X150044428Y-115452980D02*
X150044428Y-114452980D01*
X149949190Y-114595838D01*
X149853952Y-114691076D01*
X149758714Y-114738695D01*
X151282523Y-115452980D02*
X150711095Y-115452980D01*
X150996809Y-115452980D02*
X150996809Y-114452980D01*
X150901571Y-114595838D01*
X150806333Y-114691076D01*
X150711095Y-114738695D01*
X147663476Y-96355361D02*
X147806333Y-96402980D01*
X148044428Y-96402980D01*
X148139666Y-96355361D01*
X148187285Y-96307742D01*
X148234904Y-96212504D01*
X148234904Y-96117266D01*
X148187285Y-96022028D01*
X148139666Y-95974409D01*
X148044428Y-95926790D01*
X147853952Y-95879171D01*
X147758714Y-95831552D01*
X147711095Y-95783933D01*
X147663476Y-95688695D01*
X147663476Y-95593457D01*
X147711095Y-95498219D01*
X147758714Y-95450600D01*
X147853952Y-95402980D01*
X148092047Y-95402980D01*
X148234904Y-95450600D01*
X148568238Y-95402980D02*
X148806333Y-96402980D01*
X148996809Y-95688695D01*
X149187285Y-96402980D01*
X149425380Y-95402980D01*
X150330142Y-96402980D02*
X149758714Y-96402980D01*
X150044428Y-96402980D02*
X150044428Y-95402980D01*
X149949190Y-95545838D01*
X149853952Y-95641076D01*
X149758714Y-95688695D01*
X150949190Y-95402980D02*
X151044428Y-95402980D01*
X151139666Y-95450600D01*
X151187285Y-95498219D01*
X151234904Y-95593457D01*
X151282523Y-95783933D01*
X151282523Y-96022028D01*
X151234904Y-96212504D01*
X151187285Y-96307742D01*
X151139666Y-96355361D01*
X151044428Y-96402980D01*
X150949190Y-96402980D01*
X150853952Y-96355361D01*
X150806333Y-96307742D01*
X150758714Y-96212504D01*
X150711095Y-96022028D01*
X150711095Y-95783933D01*
X150758714Y-95593457D01*
X150806333Y-95498219D01*
X150853952Y-95450600D01*
X150949190Y-95402980D01*
X147663476Y-77305361D02*
X147806333Y-77352980D01*
X148044428Y-77352980D01*
X148139666Y-77305361D01*
X148187285Y-77257742D01*
X148234904Y-77162504D01*
X148234904Y-77067266D01*
X148187285Y-76972028D01*
X148139666Y-76924409D01*
X148044428Y-76876790D01*
X147853952Y-76829171D01*
X147758714Y-76781552D01*
X147711095Y-76733933D01*
X147663476Y-76638695D01*
X147663476Y-76543457D01*
X147711095Y-76448219D01*
X147758714Y-76400600D01*
X147853952Y-76352980D01*
X148092047Y-76352980D01*
X148234904Y-76400600D01*
X148568238Y-76352980D02*
X148806333Y-77352980D01*
X148996809Y-76638695D01*
X149187285Y-77352980D01*
X149425380Y-76352980D01*
X149853952Y-77352980D02*
X150044428Y-77352980D01*
X150139666Y-77305361D01*
X150187285Y-77257742D01*
X150282523Y-77114885D01*
X150330142Y-76924409D01*
X150330142Y-76543457D01*
X150282523Y-76448219D01*
X150234904Y-76400600D01*
X150139666Y-76352980D01*
X149949190Y-76352980D01*
X149853952Y-76400600D01*
X149806333Y-76448219D01*
X149758714Y-76543457D01*
X149758714Y-76781552D01*
X149806333Y-76876790D01*
X149853952Y-76924409D01*
X149949190Y-76972028D01*
X150139666Y-76972028D01*
X150234904Y-76924409D01*
X150282523Y-76876790D01*
X150330142Y-76781552D01*
X128613476Y-134455361D02*
X128756333Y-134502980D01*
X128994428Y-134502980D01*
X129089666Y-134455361D01*
X129137285Y-134407742D01*
X129184904Y-134312504D01*
X129184904Y-134217266D01*
X129137285Y-134122028D01*
X129089666Y-134074409D01*
X128994428Y-134026790D01*
X128803952Y-133979171D01*
X128708714Y-133931552D01*
X128661095Y-133883933D01*
X128613476Y-133788695D01*
X128613476Y-133693457D01*
X128661095Y-133598219D01*
X128708714Y-133550600D01*
X128803952Y-133502980D01*
X129042047Y-133502980D01*
X129184904Y-133550600D01*
X129518238Y-133502980D02*
X129756333Y-134502980D01*
X129946809Y-133788695D01*
X130137285Y-134502980D01*
X130375380Y-133502980D01*
X130899190Y-133931552D02*
X130803952Y-133883933D01*
X130756333Y-133836314D01*
X130708714Y-133741076D01*
X130708714Y-133693457D01*
X130756333Y-133598219D01*
X130803952Y-133550600D01*
X130899190Y-133502980D01*
X131089666Y-133502980D01*
X131184904Y-133550600D01*
X131232523Y-133598219D01*
X131280142Y-133693457D01*
X131280142Y-133741076D01*
X131232523Y-133836314D01*
X131184904Y-133883933D01*
X131089666Y-133931552D01*
X130899190Y-133931552D01*
X130803952Y-133979171D01*
X130756333Y-134026790D01*
X130708714Y-134122028D01*
X130708714Y-134312504D01*
X130756333Y-134407742D01*
X130803952Y-134455361D01*
X130899190Y-134502980D01*
X131089666Y-134502980D01*
X131184904Y-134455361D01*
X131232523Y-134407742D01*
X131280142Y-134312504D01*
X131280142Y-134122028D01*
X131232523Y-134026790D01*
X131184904Y-133979171D01*
X131089666Y-133931552D01*
X128613476Y-115405361D02*
X128756333Y-115452980D01*
X128994428Y-115452980D01*
X129089666Y-115405361D01*
X129137285Y-115357742D01*
X129184904Y-115262504D01*
X129184904Y-115167266D01*
X129137285Y-115072028D01*
X129089666Y-115024409D01*
X128994428Y-114976790D01*
X128803952Y-114929171D01*
X128708714Y-114881552D01*
X128661095Y-114833933D01*
X128613476Y-114738695D01*
X128613476Y-114643457D01*
X128661095Y-114548219D01*
X128708714Y-114500600D01*
X128803952Y-114452980D01*
X129042047Y-114452980D01*
X129184904Y-114500600D01*
X129518238Y-114452980D02*
X129756333Y-115452980D01*
X129946809Y-114738695D01*
X130137285Y-115452980D01*
X130375380Y-114452980D01*
X130661095Y-114452980D02*
X131327761Y-114452980D01*
X130899190Y-115452980D01*
X128613476Y-96355361D02*
X128756333Y-96402980D01*
X128994428Y-96402980D01*
X129089666Y-96355361D01*
X129137285Y-96307742D01*
X129184904Y-96212504D01*
X129184904Y-96117266D01*
X129137285Y-96022028D01*
X129089666Y-95974409D01*
X128994428Y-95926790D01*
X128803952Y-95879171D01*
X128708714Y-95831552D01*
X128661095Y-95783933D01*
X128613476Y-95688695D01*
X128613476Y-95593457D01*
X128661095Y-95498219D01*
X128708714Y-95450600D01*
X128803952Y-95402980D01*
X129042047Y-95402980D01*
X129184904Y-95450600D01*
X129518238Y-95402980D02*
X129756333Y-96402980D01*
X129946809Y-95688695D01*
X130137285Y-96402980D01*
X130375380Y-95402980D01*
X131184904Y-95402980D02*
X130994428Y-95402980D01*
X130899190Y-95450600D01*
X130851571Y-95498219D01*
X130756333Y-95641076D01*
X130708714Y-95831552D01*
X130708714Y-96212504D01*
X130756333Y-96307742D01*
X130803952Y-96355361D01*
X130899190Y-96402980D01*
X131089666Y-96402980D01*
X131184904Y-96355361D01*
X131232523Y-96307742D01*
X131280142Y-96212504D01*
X131280142Y-95974409D01*
X131232523Y-95879171D01*
X131184904Y-95831552D01*
X131089666Y-95783933D01*
X130899190Y-95783933D01*
X130803952Y-95831552D01*
X130756333Y-95879171D01*
X130708714Y-95974409D01*
X128613476Y-77305361D02*
X128756333Y-77352980D01*
X128994428Y-77352980D01*
X129089666Y-77305361D01*
X129137285Y-77257742D01*
X129184904Y-77162504D01*
X129184904Y-77067266D01*
X129137285Y-76972028D01*
X129089666Y-76924409D01*
X128994428Y-76876790D01*
X128803952Y-76829171D01*
X128708714Y-76781552D01*
X128661095Y-76733933D01*
X128613476Y-76638695D01*
X128613476Y-76543457D01*
X128661095Y-76448219D01*
X128708714Y-76400600D01*
X128803952Y-76352980D01*
X129042047Y-76352980D01*
X129184904Y-76400600D01*
X129518238Y-76352980D02*
X129756333Y-77352980D01*
X129946809Y-76638695D01*
X130137285Y-77352980D01*
X130375380Y-76352980D01*
X131232523Y-76352980D02*
X130756333Y-76352980D01*
X130708714Y-76829171D01*
X130756333Y-76781552D01*
X130851571Y-76733933D01*
X131089666Y-76733933D01*
X131184904Y-76781552D01*
X131232523Y-76829171D01*
X131280142Y-76924409D01*
X131280142Y-77162504D01*
X131232523Y-77257742D01*
X131184904Y-77305361D01*
X131089666Y-77352980D01*
X130851571Y-77352980D01*
X130756333Y-77305361D01*
X130708714Y-77257742D01*
X109563476Y-134455361D02*
X109706333Y-134502980D01*
X109944428Y-134502980D01*
X110039666Y-134455361D01*
X110087285Y-134407742D01*
X110134904Y-134312504D01*
X110134904Y-134217266D01*
X110087285Y-134122028D01*
X110039666Y-134074409D01*
X109944428Y-134026790D01*
X109753952Y-133979171D01*
X109658714Y-133931552D01*
X109611095Y-133883933D01*
X109563476Y-133788695D01*
X109563476Y-133693457D01*
X109611095Y-133598219D01*
X109658714Y-133550600D01*
X109753952Y-133502980D01*
X109992047Y-133502980D01*
X110134904Y-133550600D01*
X110468238Y-133502980D02*
X110706333Y-134502980D01*
X110896809Y-133788695D01*
X111087285Y-134502980D01*
X111325380Y-133502980D01*
X112134904Y-133836314D02*
X112134904Y-134502980D01*
X111896809Y-133455361D02*
X111658714Y-134169647D01*
X112277761Y-134169647D01*
X109563476Y-115405361D02*
X109706333Y-115452980D01*
X109944428Y-115452980D01*
X110039666Y-115405361D01*
X110087285Y-115357742D01*
X110134904Y-115262504D01*
X110134904Y-115167266D01*
X110087285Y-115072028D01*
X110039666Y-115024409D01*
X109944428Y-114976790D01*
X109753952Y-114929171D01*
X109658714Y-114881552D01*
X109611095Y-114833933D01*
X109563476Y-114738695D01*
X109563476Y-114643457D01*
X109611095Y-114548219D01*
X109658714Y-114500600D01*
X109753952Y-114452980D01*
X109992047Y-114452980D01*
X110134904Y-114500600D01*
X110468238Y-114452980D02*
X110706333Y-115452980D01*
X110896809Y-114738695D01*
X111087285Y-115452980D01*
X111325380Y-114452980D01*
X111611095Y-114452980D02*
X112230142Y-114452980D01*
X111896809Y-114833933D01*
X112039666Y-114833933D01*
X112134904Y-114881552D01*
X112182523Y-114929171D01*
X112230142Y-115024409D01*
X112230142Y-115262504D01*
X112182523Y-115357742D01*
X112134904Y-115405361D01*
X112039666Y-115452980D01*
X111753952Y-115452980D01*
X111658714Y-115405361D01*
X111611095Y-115357742D01*
X109563476Y-96355361D02*
X109706333Y-96402980D01*
X109944428Y-96402980D01*
X110039666Y-96355361D01*
X110087285Y-96307742D01*
X110134904Y-96212504D01*
X110134904Y-96117266D01*
X110087285Y-96022028D01*
X110039666Y-95974409D01*
X109944428Y-95926790D01*
X109753952Y-95879171D01*
X109658714Y-95831552D01*
X109611095Y-95783933D01*
X109563476Y-95688695D01*
X109563476Y-95593457D01*
X109611095Y-95498219D01*
X109658714Y-95450600D01*
X109753952Y-95402980D01*
X109992047Y-95402980D01*
X110134904Y-95450600D01*
X110468238Y-95402980D02*
X110706333Y-96402980D01*
X110896809Y-95688695D01*
X111087285Y-96402980D01*
X111325380Y-95402980D01*
X111658714Y-95498219D02*
X111706333Y-95450600D01*
X111801571Y-95402980D01*
X112039666Y-95402980D01*
X112134904Y-95450600D01*
X112182523Y-95498219D01*
X112230142Y-95593457D01*
X112230142Y-95688695D01*
X112182523Y-95831552D01*
X111611095Y-96402980D01*
X112230142Y-96402980D01*
X109563476Y-77305361D02*
X109706333Y-77352980D01*
X109944428Y-77352980D01*
X110039666Y-77305361D01*
X110087285Y-77257742D01*
X110134904Y-77162504D01*
X110134904Y-77067266D01*
X110087285Y-76972028D01*
X110039666Y-76924409D01*
X109944428Y-76876790D01*
X109753952Y-76829171D01*
X109658714Y-76781552D01*
X109611095Y-76733933D01*
X109563476Y-76638695D01*
X109563476Y-76543457D01*
X109611095Y-76448219D01*
X109658714Y-76400600D01*
X109753952Y-76352980D01*
X109992047Y-76352980D01*
X110134904Y-76400600D01*
X110468238Y-76352980D02*
X110706333Y-77352980D01*
X110896809Y-76638695D01*
X111087285Y-77352980D01*
X111325380Y-76352980D01*
X112230142Y-77352980D02*
X111658714Y-77352980D01*
X111944428Y-77352980D02*
X111944428Y-76352980D01*
X111849190Y-76495838D01*
X111753952Y-76591076D01*
X111658714Y-76638695D01*
D10*
X170197007Y-92428885D02*
X169768436Y-92428885D01*
X169982721Y-92428885D02*
X169982721Y-91678885D01*
X169911293Y-91786028D01*
X169839864Y-91857457D01*
X169768436Y-91893171D01*
X170661293Y-91678885D02*
X170732721Y-91678885D01*
X170804150Y-91714600D01*
X170839864Y-91750314D01*
X170875579Y-91821742D01*
X170911293Y-91964600D01*
X170911293Y-92143171D01*
X170875579Y-92286028D01*
X170839864Y-92357457D01*
X170804150Y-92393171D01*
X170732721Y-92428885D01*
X170661293Y-92428885D01*
X170589864Y-92393171D01*
X170554150Y-92357457D01*
X170518436Y-92286028D01*
X170482721Y-92143171D01*
X170482721Y-91964600D01*
X170518436Y-91821742D01*
X170554150Y-91750314D01*
X170589864Y-91714600D01*
X170661293Y-91678885D01*
X171768436Y-91643171D02*
X171125579Y-92607457D01*
X172268436Y-92036028D02*
X172375579Y-92071742D01*
X172411293Y-92107457D01*
X172447007Y-92178885D01*
X172447007Y-92286028D01*
X172411293Y-92357457D01*
X172375579Y-92393171D01*
X172304150Y-92428885D01*
X172018436Y-92428885D01*
X172018436Y-91678885D01*
X172268436Y-91678885D01*
X172339864Y-91714600D01*
X172375579Y-91750314D01*
X172411293Y-91821742D01*
X172411293Y-91893171D01*
X172375579Y-91964600D01*
X172339864Y-92000314D01*
X172268436Y-92036028D01*
X172018436Y-92036028D01*
X173089864Y-91678885D02*
X172947007Y-91678885D01*
X172875579Y-91714600D01*
X172839864Y-91750314D01*
X172768436Y-91857457D01*
X172732721Y-92000314D01*
X172732721Y-92286028D01*
X172768436Y-92357457D01*
X172804150Y-92393171D01*
X172875579Y-92428885D01*
X173018436Y-92428885D01*
X173089864Y-92393171D01*
X173125579Y-92357457D01*
X173161293Y-92286028D01*
X173161293Y-92107457D01*
X173125579Y-92036028D01*
X173089864Y-92000314D01*
X173018436Y-91964600D01*
X172875579Y-91964600D01*
X172804150Y-92000314D01*
X172768436Y-92036028D01*
X172732721Y-92107457D01*
X171661292Y-63625285D02*
X171411292Y-63268142D01*
X171232721Y-63625285D02*
X171232721Y-62875285D01*
X171518435Y-62875285D01*
X171589864Y-62911000D01*
X171625578Y-62946714D01*
X171661292Y-63018142D01*
X171661292Y-63125285D01*
X171625578Y-63196714D01*
X171589864Y-63232428D01*
X171518435Y-63268142D01*
X171232721Y-63268142D01*
X171947007Y-63411000D02*
X172304150Y-63411000D01*
X171875578Y-63625285D02*
X172125578Y-62875285D01*
X172375578Y-63625285D01*
X172554150Y-62875285D02*
X172732721Y-63625285D01*
X172875578Y-63089571D01*
X173018435Y-63625285D01*
X173197007Y-62875285D01*
D12*
D10*
X177128573Y-64336485D02*
X176878573Y-63979342D01*
X176700002Y-64336485D02*
X176700002Y-63586485D01*
X176985716Y-63586485D01*
X177057145Y-63622200D01*
X177092859Y-63657914D01*
X177128573Y-63729342D01*
X177128573Y-63836485D01*
X177092859Y-63907914D01*
X177057145Y-63943628D01*
X176985716Y-63979342D01*
X176700002Y-63979342D01*
X177414288Y-64122200D02*
X177771431Y-64122200D01*
X177342859Y-64336485D02*
X177592859Y-63586485D01*
X177842859Y-64336485D01*
X178021431Y-63586485D02*
X178200002Y-64336485D01*
X178342859Y-63800771D01*
X178485716Y-64336485D01*
X178664288Y-63586485D01*
X184282821Y-64387285D02*
X184282821Y-63637285D01*
X184461392Y-63637285D01*
X184568535Y-63673000D01*
X184639964Y-63744428D01*
X184675678Y-63815857D01*
X184711392Y-63958714D01*
X184711392Y-64065857D01*
X184675678Y-64208714D01*
X184639964Y-64280142D01*
X184568535Y-64351571D01*
X184461392Y-64387285D01*
X184282821Y-64387285D01*
X184961392Y-63637285D02*
X185425678Y-63637285D01*
X185175678Y-63923000D01*
X185282821Y-63923000D01*
X185354250Y-63958714D01*
X185389964Y-63994428D01*
X185425678Y-64065857D01*
X185425678Y-64244428D01*
X185389964Y-64315857D01*
X185354250Y-64351571D01*
X185282821Y-64387285D01*
X185068535Y-64387285D01*
X184997107Y-64351571D01*
X184961392Y-64315857D01*
X186282821Y-63601571D02*
X185639964Y-64565857D01*
X186425678Y-63637285D02*
X186854250Y-63637285D01*
X186639964Y-64387285D02*
X186639964Y-63637285D01*
X187032821Y-63637285D02*
X187532821Y-64387285D01*
X187532821Y-63637285D02*
X187032821Y-64387285D01*
X187961392Y-63637285D02*
X188032821Y-63637285D01*
X188104250Y-63673000D01*
X188139964Y-63708714D01*
X188175678Y-63780142D01*
X188211392Y-63923000D01*
X188211392Y-64101571D01*
X188175678Y-64244428D01*
X188139964Y-64315857D01*
X188104250Y-64351571D01*
X188032821Y-64387285D01*
X187961392Y-64387285D01*
X187889964Y-64351571D01*
X187854250Y-64315857D01*
X187818535Y-64244428D01*
X187782821Y-64101571D01*
X187782821Y-63923000D01*
X187818535Y-63780142D01*
X187854250Y-63708714D01*
X187889964Y-63673000D01*
X187961392Y-63637285D01*
X177092859Y-66162200D02*
X177021431Y-66126485D01*
X176914288Y-66126485D01*
X176807145Y-66162200D01*
X176735716Y-66233628D01*
X176700002Y-66305057D01*
X176664288Y-66447914D01*
X176664288Y-66555057D01*
X176700002Y-66697914D01*
X176735716Y-66769342D01*
X176807145Y-66840771D01*
X176914288Y-66876485D01*
X176985716Y-66876485D01*
X177092859Y-66840771D01*
X177128573Y-66805057D01*
X177128573Y-66555057D01*
X176985716Y-66555057D01*
X177450002Y-66876485D02*
X177450002Y-66126485D01*
X177878573Y-66876485D01*
X177878573Y-66126485D01*
X178235716Y-66876485D02*
X178235716Y-66126485D01*
X178414288Y-66126485D01*
X178521431Y-66162200D01*
X178592859Y-66233628D01*
X178628573Y-66305057D01*
X178664288Y-66447914D01*
X178664288Y-66555057D01*
X178628573Y-66697914D01*
X178592859Y-66769342D01*
X178521431Y-66840771D01*
X178414288Y-66876485D01*
X178235716Y-66876485D01*
X184104250Y-66915285D02*
X184104250Y-66165285D01*
X184282821Y-66165285D01*
X184389964Y-66201000D01*
X184461392Y-66272428D01*
X184497107Y-66343857D01*
X184532821Y-66486714D01*
X184532821Y-66593857D01*
X184497107Y-66736714D01*
X184461392Y-66808142D01*
X184389964Y-66879571D01*
X184282821Y-66915285D01*
X184104250Y-66915285D01*
X184818535Y-66236714D02*
X184854250Y-66201000D01*
X184925678Y-66165285D01*
X185104250Y-66165285D01*
X185175678Y-66201000D01*
X185211392Y-66236714D01*
X185247107Y-66308142D01*
X185247107Y-66379571D01*
X185211392Y-66486714D01*
X184782821Y-66915285D01*
X185247107Y-66915285D01*
X186104250Y-66129571D02*
X185461392Y-67093857D01*
X186782821Y-66915285D02*
X186532821Y-66558142D01*
X186354250Y-66915285D02*
X186354250Y-66165285D01*
X186639964Y-66165285D01*
X186711392Y-66201000D01*
X186747107Y-66236714D01*
X186782821Y-66308142D01*
X186782821Y-66415285D01*
X186747107Y-66486714D01*
X186711392Y-66522428D01*
X186639964Y-66558142D01*
X186354250Y-66558142D01*
X187032821Y-66165285D02*
X187532821Y-66915285D01*
X187532821Y-66165285D02*
X187032821Y-66915285D01*
X188211392Y-66915285D02*
X187782821Y-66915285D01*
X187997107Y-66915285D02*
X187997107Y-66165285D01*
X187925678Y-66272428D01*
X187854250Y-66343857D01*
X187782821Y-66379571D01*
X177128573Y-69479985D02*
X176878573Y-69122842D01*
X176700002Y-69479985D02*
X176700002Y-68729985D01*
X176985716Y-68729985D01*
X177057145Y-68765700D01*
X177092859Y-68801414D01*
X177128573Y-68872842D01*
X177128573Y-68979985D01*
X177092859Y-69051414D01*
X177057145Y-69087128D01*
X176985716Y-69122842D01*
X176700002Y-69122842D01*
X177414288Y-69444271D02*
X177521431Y-69479985D01*
X177700002Y-69479985D01*
X177771431Y-69444271D01*
X177807145Y-69408557D01*
X177842859Y-69337128D01*
X177842859Y-69265700D01*
X177807145Y-69194271D01*
X177771431Y-69158557D01*
X177700002Y-69122842D01*
X177557145Y-69087128D01*
X177485716Y-69051414D01*
X177450002Y-69015700D01*
X177414288Y-68944271D01*
X177414288Y-68872842D01*
X177450002Y-68801414D01*
X177485716Y-68765700D01*
X177557145Y-68729985D01*
X177735716Y-68729985D01*
X177842859Y-68765700D01*
X178057145Y-68729985D02*
X178485716Y-68729985D01*
X178271431Y-69479985D02*
X178271431Y-68729985D01*
X186639964Y-68816500D02*
X186568535Y-68780785D01*
X186461392Y-68780785D01*
X186354250Y-68816500D01*
X186282821Y-68887928D01*
X186247107Y-68959357D01*
X186211392Y-69102214D01*
X186211392Y-69209357D01*
X186247107Y-69352214D01*
X186282821Y-69423642D01*
X186354250Y-69495071D01*
X186461392Y-69530785D01*
X186532821Y-69530785D01*
X186639964Y-69495071D01*
X186675678Y-69459357D01*
X186675678Y-69209357D01*
X186532821Y-69209357D01*
X186997107Y-69530785D02*
X186997107Y-68780785D01*
X187425678Y-69530785D01*
X187425678Y-68780785D01*
X187782821Y-69530785D02*
X187782821Y-68780785D01*
X187961392Y-68780785D01*
X188068535Y-68816500D01*
X188139964Y-68887928D01*
X188175678Y-68959357D01*
X188211392Y-69102214D01*
X188211392Y-69209357D01*
X188175678Y-69352214D01*
X188139964Y-69423642D01*
X188068535Y-69495071D01*
X187961392Y-69530785D01*
X187782821Y-69530785D01*
X176592859Y-71206485D02*
X176842859Y-71956485D01*
X177092859Y-71206485D01*
X177771431Y-71885057D02*
X177735716Y-71920771D01*
X177628573Y-71956485D01*
X177557145Y-71956485D01*
X177450002Y-71920771D01*
X177378573Y-71849342D01*
X177342859Y-71777914D01*
X177307145Y-71635057D01*
X177307145Y-71527914D01*
X177342859Y-71385057D01*
X177378573Y-71313628D01*
X177450002Y-71242200D01*
X177557145Y-71206485D01*
X177628573Y-71206485D01*
X177735716Y-71242200D01*
X177771431Y-71277914D01*
X178521431Y-71885057D02*
X178485716Y-71920771D01*
X178378573Y-71956485D01*
X178307145Y-71956485D01*
X178200002Y-71920771D01*
X178128573Y-71849342D01*
X178092859Y-71777914D01*
X178057145Y-71635057D01*
X178057145Y-71527914D01*
X178092859Y-71385057D01*
X178128573Y-71313628D01*
X178200002Y-71242200D01*
X178307145Y-71206485D01*
X178378573Y-71206485D01*
X178485716Y-71242200D01*
X178521431Y-71277914D01*
X186639964Y-71356500D02*
X186568535Y-71320785D01*
X186461392Y-71320785D01*
X186354250Y-71356500D01*
X186282821Y-71427928D01*
X186247107Y-71499357D01*
X186211392Y-71642214D01*
X186211392Y-71749357D01*
X186247107Y-71892214D01*
X186282821Y-71963642D01*
X186354250Y-72035071D01*
X186461392Y-72070785D01*
X186532821Y-72070785D01*
X186639964Y-72035071D01*
X186675678Y-71999357D01*
X186675678Y-71749357D01*
X186532821Y-71749357D01*
X186997107Y-72070785D02*
X186997107Y-71320785D01*
X187425678Y-72070785D01*
X187425678Y-71320785D01*
X187782821Y-72070785D02*
X187782821Y-71320785D01*
X187961392Y-71320785D01*
X188068535Y-71356500D01*
X188139964Y-71427928D01*
X188175678Y-71499357D01*
X188211392Y-71642214D01*
X188211392Y-71749357D01*
X188175678Y-71892214D01*
X188139964Y-71963642D01*
X188068535Y-72035071D01*
X187961392Y-72070785D01*
X187782821Y-72070785D01*
X176664288Y-81950200D02*
X177021431Y-81950200D01*
X176592859Y-82164485D02*
X176842859Y-81414485D01*
X177092859Y-82164485D01*
X177485716Y-81414485D02*
X177557145Y-81414485D01*
X177628573Y-81450200D01*
X177664288Y-81485914D01*
X177700002Y-81557342D01*
X177735716Y-81700200D01*
X177735716Y-81878771D01*
X177700002Y-82021628D01*
X177664288Y-82093057D01*
X177628573Y-82128771D01*
X177557145Y-82164485D01*
X177485716Y-82164485D01*
X177414288Y-82128771D01*
X177378573Y-82093057D01*
X177342859Y-82021628D01*
X177307145Y-81878771D01*
X177307145Y-81700200D01*
X177342859Y-81557342D01*
X177378573Y-81485914D01*
X177414288Y-81450200D01*
X177485716Y-81414485D01*
X178592859Y-81378771D02*
X177950002Y-82343057D01*
X179092859Y-81771628D02*
X178842859Y-81771628D01*
X178842859Y-82164485D02*
X178842859Y-81414485D01*
X179200002Y-81414485D01*
X179414288Y-81414485D02*
X179914288Y-81414485D01*
X179592859Y-82164485D01*
X185568535Y-79665285D02*
X185568535Y-78915285D01*
X185747107Y-78915285D01*
X185854250Y-78951000D01*
X185925678Y-79022428D01*
X185961392Y-79093857D01*
X185997107Y-79236714D01*
X185997107Y-79343857D01*
X185961392Y-79486714D01*
X185925678Y-79558142D01*
X185854250Y-79629571D01*
X185747107Y-79665285D01*
X185568535Y-79665285D01*
X186639964Y-79165285D02*
X186639964Y-79665285D01*
X186461392Y-78879571D02*
X186282821Y-79415285D01*
X186747107Y-79415285D01*
X187568535Y-78879571D02*
X186925678Y-79843857D01*
X188139964Y-79165285D02*
X188139964Y-79665285D01*
X187961392Y-78879571D02*
X187782821Y-79415285D01*
X188247107Y-79415285D01*
X176664288Y-79362200D02*
X177021431Y-79362200D01*
X176592859Y-79576485D02*
X176842859Y-78826485D01*
X177092859Y-79576485D01*
X177735716Y-79576485D02*
X177307145Y-79576485D01*
X177521431Y-79576485D02*
X177521431Y-78826485D01*
X177450002Y-78933628D01*
X177378573Y-79005057D01*
X177307145Y-79040771D01*
X178592859Y-78790771D02*
X177950002Y-79755057D01*
X179092859Y-79183628D02*
X178842859Y-79183628D01*
X178842859Y-79576485D02*
X178842859Y-78826485D01*
X179200002Y-78826485D01*
X179807145Y-78826485D02*
X179664288Y-78826485D01*
X179592859Y-78862200D01*
X179557145Y-78897914D01*
X179485716Y-79005057D01*
X179450002Y-79147914D01*
X179450002Y-79433628D01*
X179485716Y-79505057D01*
X179521431Y-79540771D01*
X179592859Y-79576485D01*
X179735716Y-79576485D01*
X179807145Y-79540771D01*
X179842859Y-79505057D01*
X179878573Y-79433628D01*
X179878573Y-79255057D01*
X179842859Y-79183628D01*
X179807145Y-79147914D01*
X179735716Y-79112200D01*
X179592859Y-79112200D01*
X179521431Y-79147914D01*
X179485716Y-79183628D01*
X179450002Y-79255057D01*
X182675678Y-77051571D02*
X182782821Y-77087285D01*
X182961392Y-77087285D01*
X183032821Y-77051571D01*
X183068535Y-77015857D01*
X183104250Y-76944428D01*
X183104250Y-76873000D01*
X183068535Y-76801571D01*
X183032821Y-76765857D01*
X182961392Y-76730142D01*
X182818535Y-76694428D01*
X182747107Y-76658714D01*
X182711392Y-76623000D01*
X182675678Y-76551571D01*
X182675678Y-76480142D01*
X182711392Y-76408714D01*
X182747107Y-76373000D01*
X182818535Y-76337285D01*
X182997107Y-76337285D01*
X183104250Y-76373000D01*
X183854250Y-77015857D02*
X183818535Y-77051571D01*
X183711392Y-77087285D01*
X183639964Y-77087285D01*
X183532821Y-77051571D01*
X183461392Y-76980142D01*
X183425678Y-76908714D01*
X183389964Y-76765857D01*
X183389964Y-76658714D01*
X183425678Y-76515857D01*
X183461392Y-76444428D01*
X183532821Y-76373000D01*
X183639964Y-76337285D01*
X183711392Y-76337285D01*
X183818535Y-76373000D01*
X183854250Y-76408714D01*
X184532821Y-77087285D02*
X184175678Y-77087285D01*
X184175678Y-76337285D01*
X185318535Y-76301571D02*
X184675678Y-77265857D01*
X185568535Y-77087285D02*
X185568535Y-76337285D01*
X185747107Y-76337285D01*
X185854250Y-76373000D01*
X185925678Y-76444428D01*
X185961392Y-76515857D01*
X185997107Y-76658714D01*
X185997107Y-76765857D01*
X185961392Y-76908714D01*
X185925678Y-76980142D01*
X185854250Y-77051571D01*
X185747107Y-77087285D01*
X185568535Y-77087285D01*
X186461392Y-76337285D02*
X186532821Y-76337285D01*
X186604250Y-76373000D01*
X186639964Y-76408714D01*
X186675678Y-76480142D01*
X186711392Y-76623000D01*
X186711392Y-76801571D01*
X186675678Y-76944428D01*
X186639964Y-77015857D01*
X186604250Y-77051571D01*
X186532821Y-77087285D01*
X186461392Y-77087285D01*
X186389964Y-77051571D01*
X186354250Y-77015857D01*
X186318535Y-76944428D01*
X186282821Y-76801571D01*
X186282821Y-76623000D01*
X186318535Y-76480142D01*
X186354250Y-76408714D01*
X186389964Y-76373000D01*
X186461392Y-76337285D01*
X187568535Y-76301571D02*
X186925678Y-77265857D01*
X187747107Y-76337285D02*
X188211392Y-76337285D01*
X187961392Y-76623000D01*
X188068535Y-76623000D01*
X188139964Y-76658714D01*
X188175678Y-76694428D01*
X188211392Y-76765857D01*
X188211392Y-76944428D01*
X188175678Y-77015857D01*
X188139964Y-77051571D01*
X188068535Y-77087285D01*
X187854250Y-77087285D01*
X187782821Y-77051571D01*
X187747107Y-77015857D01*
X176664288Y-76822200D02*
X177021431Y-76822200D01*
X176592859Y-77036485D02*
X176842859Y-76286485D01*
X177092859Y-77036485D01*
X177307145Y-76357914D02*
X177342859Y-76322200D01*
X177414288Y-76286485D01*
X177592859Y-76286485D01*
X177664288Y-76322200D01*
X177700002Y-76357914D01*
X177735716Y-76429342D01*
X177735716Y-76500771D01*
X177700002Y-76607914D01*
X177271431Y-77036485D01*
X177735716Y-77036485D01*
X178592859Y-76250771D02*
X177950002Y-77215057D01*
X179092859Y-76643628D02*
X178842859Y-76643628D01*
X178842859Y-77036485D02*
X178842859Y-76286485D01*
X179200002Y-76286485D01*
X179842859Y-76286485D02*
X179485716Y-76286485D01*
X179450002Y-76643628D01*
X179485716Y-76607914D01*
X179557145Y-76572200D01*
X179735716Y-76572200D01*
X179807145Y-76607914D01*
X179842859Y-76643628D01*
X179878573Y-76715057D01*
X179878573Y-76893628D01*
X179842859Y-76965057D01*
X179807145Y-77000771D01*
X179735716Y-77036485D01*
X179557145Y-77036485D01*
X179485716Y-77000771D01*
X179450002Y-76965057D01*
X182639964Y-74511571D02*
X182747107Y-74547285D01*
X182925678Y-74547285D01*
X182997107Y-74511571D01*
X183032821Y-74475857D01*
X183068535Y-74404428D01*
X183068535Y-74333000D01*
X183032821Y-74261571D01*
X182997107Y-74225857D01*
X182925678Y-74190142D01*
X182782821Y-74154428D01*
X182711392Y-74118714D01*
X182675678Y-74083000D01*
X182639964Y-74011571D01*
X182639964Y-73940142D01*
X182675678Y-73868714D01*
X182711392Y-73833000D01*
X182782821Y-73797285D01*
X182961392Y-73797285D01*
X183068535Y-73833000D01*
X183389964Y-74547285D02*
X183389964Y-73797285D01*
X183568535Y-73797285D01*
X183675678Y-73833000D01*
X183747107Y-73904428D01*
X183782821Y-73975857D01*
X183818535Y-74118714D01*
X183818535Y-74225857D01*
X183782821Y-74368714D01*
X183747107Y-74440142D01*
X183675678Y-74511571D01*
X183568535Y-74547285D01*
X183389964Y-74547285D01*
X184104250Y-74333000D02*
X184461392Y-74333000D01*
X184032821Y-74547285D02*
X184282821Y-73797285D01*
X184532821Y-74547285D01*
X185318535Y-73761571D02*
X184675678Y-74725857D01*
X185568535Y-74547285D02*
X185568535Y-73797285D01*
X185747107Y-73797285D01*
X185854250Y-73833000D01*
X185925678Y-73904428D01*
X185961392Y-73975857D01*
X185997107Y-74118714D01*
X185997107Y-74225857D01*
X185961392Y-74368714D01*
X185925678Y-74440142D01*
X185854250Y-74511571D01*
X185747107Y-74547285D01*
X185568535Y-74547285D01*
X186711392Y-74547285D02*
X186282821Y-74547285D01*
X186497107Y-74547285D02*
X186497107Y-73797285D01*
X186425678Y-73904428D01*
X186354250Y-73975857D01*
X186282821Y-74011571D01*
X187568535Y-73761571D02*
X186925678Y-74725857D01*
X187782821Y-73868714D02*
X187818535Y-73833000D01*
X187889964Y-73797285D01*
X188068535Y-73797285D01*
X188139964Y-73833000D01*
X188175678Y-73868714D01*
X188211392Y-73940142D01*
X188211392Y-74011571D01*
X188175678Y-74118714D01*
X187747107Y-74547285D01*
X188211392Y-74547285D01*
X176664288Y-74300200D02*
X177021431Y-74300200D01*
X176592859Y-74514485D02*
X176842859Y-73764485D01*
X177092859Y-74514485D01*
X177271431Y-73764485D02*
X177735716Y-73764485D01*
X177485716Y-74050200D01*
X177592859Y-74050200D01*
X177664288Y-74085914D01*
X177700002Y-74121628D01*
X177735716Y-74193057D01*
X177735716Y-74371628D01*
X177700002Y-74443057D01*
X177664288Y-74478771D01*
X177592859Y-74514485D01*
X177378573Y-74514485D01*
X177307145Y-74478771D01*
X177271431Y-74443057D01*
X178592859Y-73728771D02*
X177950002Y-74693057D01*
X179092859Y-74121628D02*
X178842859Y-74121628D01*
X178842859Y-74514485D02*
X178842859Y-73764485D01*
X179200002Y-73764485D01*
X179807145Y-74014485D02*
X179807145Y-74514485D01*
X179628573Y-73728771D02*
X179450002Y-74264485D01*
X179914288Y-74264485D01*
X177092859Y-92314485D02*
X176664288Y-92314485D01*
X176878573Y-92314485D02*
X176878573Y-91564485D01*
X176807145Y-91671628D01*
X176735716Y-91743057D01*
X176664288Y-91778771D01*
X177557145Y-91564485D02*
X177628573Y-91564485D01*
X177700002Y-91600200D01*
X177735716Y-91635914D01*
X177771431Y-91707342D01*
X177807145Y-91850200D01*
X177807145Y-92028771D01*
X177771431Y-92171628D01*
X177735716Y-92243057D01*
X177700002Y-92278771D01*
X177628573Y-92314485D01*
X177557145Y-92314485D01*
X177485716Y-92278771D01*
X177450002Y-92243057D01*
X177414288Y-92171628D01*
X177378573Y-92028771D01*
X177378573Y-91850200D01*
X177414288Y-91707342D01*
X177450002Y-91635914D01*
X177485716Y-91600200D01*
X177557145Y-91564485D01*
X178664288Y-91528771D02*
X178021431Y-92493057D01*
X179164288Y-91921628D02*
X179271431Y-91957342D01*
X179307145Y-91993057D01*
X179342859Y-92064485D01*
X179342859Y-92171628D01*
X179307145Y-92243057D01*
X179271431Y-92278771D01*
X179200002Y-92314485D01*
X178914288Y-92314485D01*
X178914288Y-91564485D01*
X179164288Y-91564485D01*
X179235716Y-91600200D01*
X179271431Y-91635914D01*
X179307145Y-91707342D01*
X179307145Y-91778771D01*
X179271431Y-91850200D01*
X179235716Y-91885914D01*
X179164288Y-91921628D01*
X178914288Y-91921628D01*
X179985716Y-91564485D02*
X179842859Y-91564485D01*
X179771431Y-91600200D01*
X179735716Y-91635914D01*
X179664288Y-91743057D01*
X179628573Y-91885914D01*
X179628573Y-92171628D01*
X179664288Y-92243057D01*
X179700002Y-92278771D01*
X179771431Y-92314485D01*
X179914288Y-92314485D01*
X179985716Y-92278771D01*
X180021431Y-92243057D01*
X180057145Y-92171628D01*
X180057145Y-91993057D01*
X180021431Y-91921628D01*
X179985716Y-91885914D01*
X179914288Y-91850200D01*
X179771431Y-91850200D01*
X179700002Y-91885914D01*
X179664288Y-91921628D01*
X179628573Y-91993057D01*
X185818535Y-91997928D02*
X185925678Y-92033642D01*
X185961392Y-92069357D01*
X185997107Y-92140785D01*
X185997107Y-92247928D01*
X185961392Y-92319357D01*
X185925678Y-92355071D01*
X185854250Y-92390785D01*
X185568535Y-92390785D01*
X185568535Y-91640785D01*
X185818535Y-91640785D01*
X185889964Y-91676500D01*
X185925678Y-91712214D01*
X185961392Y-91783642D01*
X185961392Y-91855071D01*
X185925678Y-91926500D01*
X185889964Y-91962214D01*
X185818535Y-91997928D01*
X185568535Y-91997928D01*
X186675678Y-91640785D02*
X186318535Y-91640785D01*
X186282821Y-91997928D01*
X186318535Y-91962214D01*
X186389964Y-91926500D01*
X186568535Y-91926500D01*
X186639964Y-91962214D01*
X186675678Y-91997928D01*
X186711392Y-92069357D01*
X186711392Y-92247928D01*
X186675678Y-92319357D01*
X186639964Y-92355071D01*
X186568535Y-92390785D01*
X186389964Y-92390785D01*
X186318535Y-92355071D01*
X186282821Y-92319357D01*
X187568535Y-91605071D02*
X186925678Y-92569357D01*
X187854250Y-92390785D02*
X187997107Y-92390785D01*
X188068535Y-92355071D01*
X188104250Y-92319357D01*
X188175678Y-92212214D01*
X188211392Y-92069357D01*
X188211392Y-91783642D01*
X188175678Y-91712214D01*
X188139964Y-91676500D01*
X188068535Y-91640785D01*
X187925678Y-91640785D01*
X187854250Y-91676500D01*
X187818535Y-91712214D01*
X187782821Y-91783642D01*
X187782821Y-91962214D01*
X187818535Y-92033642D01*
X187854250Y-92069357D01*
X187925678Y-92105071D01*
X188068535Y-92105071D01*
X188139964Y-92069357D01*
X188175678Y-92033642D01*
X188211392Y-91962214D01*
X185818535Y-89394428D02*
X185925678Y-89430142D01*
X185961392Y-89465857D01*
X185997107Y-89537285D01*
X185997107Y-89644428D01*
X185961392Y-89715857D01*
X185925678Y-89751571D01*
X185854250Y-89787285D01*
X185568535Y-89787285D01*
X185568535Y-89037285D01*
X185818535Y-89037285D01*
X185889964Y-89073000D01*
X185925678Y-89108714D01*
X185961392Y-89180142D01*
X185961392Y-89251571D01*
X185925678Y-89323000D01*
X185889964Y-89358714D01*
X185818535Y-89394428D01*
X185568535Y-89394428D01*
X186639964Y-89287285D02*
X186639964Y-89787285D01*
X186461392Y-89001571D02*
X186282821Y-89537285D01*
X186747107Y-89537285D01*
X187568535Y-89001571D02*
X186925678Y-89965857D01*
X187925678Y-89358714D02*
X187854250Y-89323000D01*
X187818535Y-89287285D01*
X187782821Y-89215857D01*
X187782821Y-89180142D01*
X187818535Y-89108714D01*
X187854250Y-89073000D01*
X187925678Y-89037285D01*
X188068535Y-89037285D01*
X188139964Y-89073000D01*
X188175678Y-89108714D01*
X188211392Y-89180142D01*
X188211392Y-89215857D01*
X188175678Y-89287285D01*
X188139964Y-89323000D01*
X188068535Y-89358714D01*
X187925678Y-89358714D01*
X187854250Y-89394428D01*
X187818535Y-89430142D01*
X187782821Y-89501571D01*
X187782821Y-89644428D01*
X187818535Y-89715857D01*
X187854250Y-89751571D01*
X187925678Y-89787285D01*
X188068535Y-89787285D01*
X188139964Y-89751571D01*
X188175678Y-89715857D01*
X188211392Y-89644428D01*
X188211392Y-89501571D01*
X188175678Y-89430142D01*
X188139964Y-89394428D01*
X188068535Y-89358714D01*
X177092859Y-89764485D02*
X176664288Y-89764485D01*
X176878573Y-89764485D02*
X176878573Y-89014485D01*
X176807145Y-89121628D01*
X176735716Y-89193057D01*
X176664288Y-89228771D01*
X177735716Y-89014485D02*
X177592859Y-89014485D01*
X177521431Y-89050200D01*
X177485716Y-89085914D01*
X177414288Y-89193057D01*
X177378573Y-89335914D01*
X177378573Y-89621628D01*
X177414288Y-89693057D01*
X177450002Y-89728771D01*
X177521431Y-89764485D01*
X177664288Y-89764485D01*
X177735716Y-89728771D01*
X177771431Y-89693057D01*
X177807145Y-89621628D01*
X177807145Y-89443057D01*
X177771431Y-89371628D01*
X177735716Y-89335914D01*
X177664288Y-89300200D01*
X177521431Y-89300200D01*
X177450002Y-89335914D01*
X177414288Y-89371628D01*
X177378573Y-89443057D01*
X178664288Y-88978771D02*
X178021431Y-89943057D01*
X179164288Y-89371628D02*
X179271431Y-89407342D01*
X179307145Y-89443057D01*
X179342859Y-89514485D01*
X179342859Y-89621628D01*
X179307145Y-89693057D01*
X179271431Y-89728771D01*
X179200002Y-89764485D01*
X178914288Y-89764485D01*
X178914288Y-89014485D01*
X179164288Y-89014485D01*
X179235716Y-89050200D01*
X179271431Y-89085914D01*
X179307145Y-89157342D01*
X179307145Y-89228771D01*
X179271431Y-89300200D01*
X179235716Y-89335914D01*
X179164288Y-89371628D01*
X178914288Y-89371628D01*
X179628573Y-89085914D02*
X179664288Y-89050200D01*
X179735716Y-89014485D01*
X179914288Y-89014485D01*
X179985716Y-89050200D01*
X180021431Y-89085914D01*
X180057145Y-89157342D01*
X180057145Y-89228771D01*
X180021431Y-89335914D01*
X179592859Y-89764485D01*
X180057145Y-89764485D01*
X185639964Y-86917928D02*
X185889964Y-86917928D01*
X185997107Y-87310785D02*
X185639964Y-87310785D01*
X185639964Y-86560785D01*
X185997107Y-86560785D01*
X186639964Y-86560785D02*
X186497107Y-86560785D01*
X186425678Y-86596500D01*
X186389964Y-86632214D01*
X186318535Y-86739357D01*
X186282821Y-86882214D01*
X186282821Y-87167928D01*
X186318535Y-87239357D01*
X186354250Y-87275071D01*
X186425678Y-87310785D01*
X186568535Y-87310785D01*
X186639964Y-87275071D01*
X186675678Y-87239357D01*
X186711392Y-87167928D01*
X186711392Y-86989357D01*
X186675678Y-86917928D01*
X186639964Y-86882214D01*
X186568535Y-86846500D01*
X186425678Y-86846500D01*
X186354250Y-86882214D01*
X186318535Y-86917928D01*
X186282821Y-86989357D01*
X187568535Y-86525071D02*
X186925678Y-87489357D01*
X187747107Y-86560785D02*
X188247107Y-86560785D01*
X187925678Y-87310785D01*
X177092859Y-87259985D02*
X176664288Y-87259985D01*
X176878573Y-87259985D02*
X176878573Y-86509985D01*
X176807145Y-86617128D01*
X176735716Y-86688557D01*
X176664288Y-86724271D01*
X177735716Y-86759985D02*
X177735716Y-87259985D01*
X177557145Y-86474271D02*
X177378573Y-87009985D01*
X177842859Y-87009985D01*
X178664288Y-86474271D02*
X178021431Y-87438557D01*
X179164288Y-86867128D02*
X179271431Y-86902842D01*
X179307145Y-86938557D01*
X179342859Y-87009985D01*
X179342859Y-87117128D01*
X179307145Y-87188557D01*
X179271431Y-87224271D01*
X179200002Y-87259985D01*
X178914288Y-87259985D01*
X178914288Y-86509985D01*
X179164288Y-86509985D01*
X179235716Y-86545700D01*
X179271431Y-86581414D01*
X179307145Y-86652842D01*
X179307145Y-86724271D01*
X179271431Y-86795700D01*
X179235716Y-86831414D01*
X179164288Y-86867128D01*
X178914288Y-86867128D01*
X179592859Y-86509985D02*
X180057145Y-86509985D01*
X179807145Y-86795700D01*
X179914288Y-86795700D01*
X179985716Y-86831414D01*
X180021431Y-86867128D01*
X180057145Y-86938557D01*
X180057145Y-87117128D01*
X180021431Y-87188557D01*
X179985716Y-87224271D01*
X179914288Y-87259985D01*
X179700002Y-87259985D01*
X179628573Y-87224271D01*
X179592859Y-87188557D01*
X185568535Y-84715285D02*
X185568535Y-83965285D01*
X185747107Y-83965285D01*
X185854250Y-84001000D01*
X185925678Y-84072428D01*
X185961392Y-84143857D01*
X185997107Y-84286714D01*
X185997107Y-84393857D01*
X185961392Y-84536714D01*
X185925678Y-84608142D01*
X185854250Y-84679571D01*
X185747107Y-84715285D01*
X185568535Y-84715285D01*
X186247107Y-83965285D02*
X186747107Y-83965285D01*
X186425678Y-84715285D01*
X187568535Y-83929571D02*
X186925678Y-84893857D01*
X188139964Y-83965285D02*
X187997107Y-83965285D01*
X187925678Y-84001000D01*
X187889964Y-84036714D01*
X187818535Y-84143857D01*
X187782821Y-84286714D01*
X187782821Y-84572428D01*
X187818535Y-84643857D01*
X187854250Y-84679571D01*
X187925678Y-84715285D01*
X188068535Y-84715285D01*
X188139964Y-84679571D01*
X188175678Y-84643857D01*
X188211392Y-84572428D01*
X188211392Y-84393857D01*
X188175678Y-84322428D01*
X188139964Y-84286714D01*
X188068535Y-84251000D01*
X187925678Y-84251000D01*
X187854250Y-84286714D01*
X187818535Y-84322428D01*
X187782821Y-84393857D01*
X177092859Y-84664485D02*
X176664288Y-84664485D01*
X176878573Y-84664485D02*
X176878573Y-83914485D01*
X176807145Y-84021628D01*
X176735716Y-84093057D01*
X176664288Y-84128771D01*
X177771431Y-83914485D02*
X177414288Y-83914485D01*
X177378573Y-84271628D01*
X177414288Y-84235914D01*
X177485716Y-84200200D01*
X177664288Y-84200200D01*
X177735716Y-84235914D01*
X177771431Y-84271628D01*
X177807145Y-84343057D01*
X177807145Y-84521628D01*
X177771431Y-84593057D01*
X177735716Y-84628771D01*
X177664288Y-84664485D01*
X177485716Y-84664485D01*
X177414288Y-84628771D01*
X177378573Y-84593057D01*
X178664288Y-83878771D02*
X178021431Y-84843057D01*
X179164288Y-84271628D02*
X179271431Y-84307342D01*
X179307145Y-84343057D01*
X179342859Y-84414485D01*
X179342859Y-84521628D01*
X179307145Y-84593057D01*
X179271431Y-84628771D01*
X179200002Y-84664485D01*
X178914288Y-84664485D01*
X178914288Y-83914485D01*
X179164288Y-83914485D01*
X179235716Y-83950200D01*
X179271431Y-83985914D01*
X179307145Y-84057342D01*
X179307145Y-84128771D01*
X179271431Y-84200200D01*
X179235716Y-84235914D01*
X179164288Y-84271628D01*
X178914288Y-84271628D01*
X180057145Y-84664485D02*
X179628573Y-84664485D01*
X179842859Y-84664485D02*
X179842859Y-83914485D01*
X179771431Y-84021628D01*
X179700002Y-84093057D01*
X179628573Y-84128771D01*
X185997107Y-82095857D02*
X185961392Y-82131571D01*
X185854250Y-82167285D01*
X185782821Y-82167285D01*
X185675678Y-82131571D01*
X185604250Y-82060142D01*
X185568535Y-81988714D01*
X185532821Y-81845857D01*
X185532821Y-81738714D01*
X185568535Y-81595857D01*
X185604250Y-81524428D01*
X185675678Y-81453000D01*
X185782821Y-81417285D01*
X185854250Y-81417285D01*
X185961392Y-81453000D01*
X185997107Y-81488714D01*
X186639964Y-81417285D02*
X186497107Y-81417285D01*
X186425678Y-81453000D01*
X186389964Y-81488714D01*
X186318535Y-81595857D01*
X186282821Y-81738714D01*
X186282821Y-82024428D01*
X186318535Y-82095857D01*
X186354250Y-82131571D01*
X186425678Y-82167285D01*
X186568535Y-82167285D01*
X186639964Y-82131571D01*
X186675678Y-82095857D01*
X186711392Y-82024428D01*
X186711392Y-81845857D01*
X186675678Y-81774428D01*
X186639964Y-81738714D01*
X186568535Y-81703000D01*
X186425678Y-81703000D01*
X186354250Y-81738714D01*
X186318535Y-81774428D01*
X186282821Y-81845857D01*
X187568535Y-81381571D02*
X186925678Y-82345857D01*
X188175678Y-81417285D02*
X187818535Y-81417285D01*
X187782821Y-81774428D01*
X187818535Y-81738714D01*
X187889964Y-81703000D01*
X188068535Y-81703000D01*
X188139964Y-81738714D01*
X188175678Y-81774428D01*
X188211392Y-81845857D01*
X188211392Y-82024428D01*
X188175678Y-82095857D01*
X188139964Y-82131571D01*
X188068535Y-82167285D01*
X187889964Y-82167285D01*
X187818535Y-82131571D01*
X187782821Y-82095857D01*
D12*
X176301452Y-100965980D02*
X175825261Y-100965980D01*
X175825261Y-99965980D01*
X176634785Y-100442171D02*
X176968119Y-100442171D01*
X177110976Y-100965980D02*
X176634785Y-100965980D01*
X176634785Y-99965980D01*
X177110976Y-99965980D01*
X177539547Y-100965980D02*
X177539547Y-99965980D01*
X177777642Y-99965980D01*
X177920500Y-100013600D01*
X178015738Y-100108838D01*
X178063357Y-100204076D01*
X178110976Y-100394552D01*
X178110976Y-100537409D01*
X178063357Y-100727885D01*
X178015738Y-100823123D01*
X177920500Y-100918361D01*
X177777642Y-100965980D01*
X177539547Y-100965980D01*
X179063357Y-100965980D02*
X178491928Y-100965980D01*
X178777642Y-100965980D02*
X178777642Y-99965980D01*
X178682404Y-100108838D01*
X178587166Y-100204076D01*
X178491928Y-100251695D01*
D10*
X177269845Y-136002980D02*
X177269845Y-135002980D01*
X177507940Y-135002980D01*
X177650797Y-135050600D01*
X177746035Y-135145838D01*
X177793654Y-135241076D01*
X177841273Y-135431552D01*
X177841273Y-135574409D01*
X177793654Y-135764885D01*
X177746035Y-135860123D01*
X177650797Y-135955361D01*
X177507940Y-136002980D01*
X177269845Y-136002980D01*
X178793654Y-136002980D02*
X178222226Y-136002980D01*
X178507940Y-136002980D02*
X178507940Y-135002980D01*
X178412702Y-135145838D01*
X178317464Y-135241076D01*
X178222226Y-135288695D01*
X179365083Y-135431552D02*
X179269845Y-135383933D01*
X179222226Y-135336314D01*
X179174607Y-135241076D01*
X179174607Y-135193457D01*
X179222226Y-135098219D01*
X179269845Y-135050600D01*
X179365083Y-135002980D01*
X179555559Y-135002980D01*
X179650797Y-135050600D01*
X179698416Y-135098219D01*
X179746035Y-135193457D01*
X179746035Y-135241076D01*
X179698416Y-135336314D01*
X179650797Y-135383933D01*
X179555559Y-135431552D01*
X179365083Y-135431552D01*
X179269845Y-135479171D01*
X179222226Y-135526790D01*
X179174607Y-135622028D01*
X179174607Y-135812504D01*
X179222226Y-135907742D01*
X179269845Y-135955361D01*
X179365083Y-136002980D01*
X179555559Y-136002980D01*
X179650797Y-135955361D01*
X179698416Y-135907742D01*
X179746035Y-135812504D01*
X179746035Y-135622028D01*
X179698416Y-135526790D01*
X179650797Y-135479171D01*
X179555559Y-135431552D01*
X177269845Y-117477980D02*
X177269845Y-116477980D01*
X177507940Y-116477980D01*
X177650797Y-116525600D01*
X177746035Y-116620838D01*
X177793654Y-116716076D01*
X177841273Y-116906552D01*
X177841273Y-117049409D01*
X177793654Y-117239885D01*
X177746035Y-117335123D01*
X177650797Y-117430361D01*
X177507940Y-117477980D01*
X177269845Y-117477980D01*
X178793654Y-117477980D02*
X178222226Y-117477980D01*
X178507940Y-117477980D02*
X178507940Y-116477980D01*
X178412702Y-116620838D01*
X178317464Y-116716076D01*
X178222226Y-116763695D01*
X179126988Y-116477980D02*
X179793654Y-116477980D01*
X179365083Y-117477980D01*
X158219845Y-136002980D02*
X158219845Y-135002980D01*
X158457940Y-135002980D01*
X158600797Y-135050600D01*
X158696035Y-135145838D01*
X158743654Y-135241076D01*
X158791273Y-135431552D01*
X158791273Y-135574409D01*
X158743654Y-135764885D01*
X158696035Y-135860123D01*
X158600797Y-135955361D01*
X158457940Y-136002980D01*
X158219845Y-136002980D01*
X159743654Y-136002980D02*
X159172226Y-136002980D01*
X159457940Y-136002980D02*
X159457940Y-135002980D01*
X159362702Y-135145838D01*
X159267464Y-135241076D01*
X159172226Y-135288695D01*
X160600797Y-135002980D02*
X160410321Y-135002980D01*
X160315083Y-135050600D01*
X160267464Y-135098219D01*
X160172226Y-135241076D01*
X160124607Y-135431552D01*
X160124607Y-135812504D01*
X160172226Y-135907742D01*
X160219845Y-135955361D01*
X160315083Y-136002980D01*
X160505559Y-136002980D01*
X160600797Y-135955361D01*
X160648416Y-135907742D01*
X160696035Y-135812504D01*
X160696035Y-135574409D01*
X160648416Y-135479171D01*
X160600797Y-135431552D01*
X160505559Y-135383933D01*
X160315083Y-135383933D01*
X160219845Y-135431552D01*
X160172226Y-135479171D01*
X160124607Y-135574409D01*
X158219845Y-117477980D02*
X158219845Y-116477980D01*
X158457940Y-116477980D01*
X158600797Y-116525600D01*
X158696035Y-116620838D01*
X158743654Y-116716076D01*
X158791273Y-116906552D01*
X158791273Y-117049409D01*
X158743654Y-117239885D01*
X158696035Y-117335123D01*
X158600797Y-117430361D01*
X158457940Y-117477980D01*
X158219845Y-117477980D01*
X159743654Y-117477980D02*
X159172226Y-117477980D01*
X159457940Y-117477980D02*
X159457940Y-116477980D01*
X159362702Y-116620838D01*
X159267464Y-116716076D01*
X159172226Y-116763695D01*
X160648416Y-116477980D02*
X160172226Y-116477980D01*
X160124607Y-116954171D01*
X160172226Y-116906552D01*
X160267464Y-116858933D01*
X160505559Y-116858933D01*
X160600797Y-116906552D01*
X160648416Y-116954171D01*
X160696035Y-117049409D01*
X160696035Y-117287504D01*
X160648416Y-117382742D01*
X160600797Y-117430361D01*
X160505559Y-117477980D01*
X160267464Y-117477980D01*
X160172226Y-117430361D01*
X160124607Y-117382742D01*
X158219845Y-98427980D02*
X158219845Y-97427980D01*
X158457940Y-97427980D01*
X158600797Y-97475600D01*
X158696035Y-97570838D01*
X158743654Y-97666076D01*
X158791273Y-97856552D01*
X158791273Y-97999409D01*
X158743654Y-98189885D01*
X158696035Y-98285123D01*
X158600797Y-98380361D01*
X158457940Y-98427980D01*
X158219845Y-98427980D01*
X159743654Y-98427980D02*
X159172226Y-98427980D01*
X159457940Y-98427980D02*
X159457940Y-97427980D01*
X159362702Y-97570838D01*
X159267464Y-97666076D01*
X159172226Y-97713695D01*
X160600797Y-97761314D02*
X160600797Y-98427980D01*
X160362702Y-97380361D02*
X160124607Y-98094647D01*
X160743654Y-98094647D01*
X158219845Y-79377980D02*
X158219845Y-78377980D01*
X158457940Y-78377980D01*
X158600797Y-78425600D01*
X158696035Y-78520838D01*
X158743654Y-78616076D01*
X158791273Y-78806552D01*
X158791273Y-78949409D01*
X158743654Y-79139885D01*
X158696035Y-79235123D01*
X158600797Y-79330361D01*
X158457940Y-79377980D01*
X158219845Y-79377980D01*
X159743654Y-79377980D02*
X159172226Y-79377980D01*
X159457940Y-79377980D02*
X159457940Y-78377980D01*
X159362702Y-78520838D01*
X159267464Y-78616076D01*
X159172226Y-78663695D01*
X160076988Y-78377980D02*
X160696035Y-78377980D01*
X160362702Y-78758933D01*
X160505559Y-78758933D01*
X160600797Y-78806552D01*
X160648416Y-78854171D01*
X160696035Y-78949409D01*
X160696035Y-79187504D01*
X160648416Y-79282742D01*
X160600797Y-79330361D01*
X160505559Y-79377980D01*
X160219845Y-79377980D01*
X160124607Y-79330361D01*
X160076988Y-79282742D01*
X139169845Y-136002980D02*
X139169845Y-135002980D01*
X139407940Y-135002980D01*
X139550797Y-135050600D01*
X139646035Y-135145838D01*
X139693654Y-135241076D01*
X139741273Y-135431552D01*
X139741273Y-135574409D01*
X139693654Y-135764885D01*
X139646035Y-135860123D01*
X139550797Y-135955361D01*
X139407940Y-136002980D01*
X139169845Y-136002980D01*
X140693654Y-136002980D02*
X140122226Y-136002980D01*
X140407940Y-136002980D02*
X140407940Y-135002980D01*
X140312702Y-135145838D01*
X140217464Y-135241076D01*
X140122226Y-135288695D01*
X141074607Y-135098219D02*
X141122226Y-135050600D01*
X141217464Y-135002980D01*
X141455559Y-135002980D01*
X141550797Y-135050600D01*
X141598416Y-135098219D01*
X141646035Y-135193457D01*
X141646035Y-135288695D01*
X141598416Y-135431552D01*
X141026988Y-136002980D01*
X141646035Y-136002980D01*
X139169845Y-117477980D02*
X139169845Y-116477980D01*
X139407940Y-116477980D01*
X139550797Y-116525600D01*
X139646035Y-116620838D01*
X139693654Y-116716076D01*
X139741273Y-116906552D01*
X139741273Y-117049409D01*
X139693654Y-117239885D01*
X139646035Y-117335123D01*
X139550797Y-117430361D01*
X139407940Y-117477980D01*
X139169845Y-117477980D01*
X140693654Y-117477980D02*
X140122226Y-117477980D01*
X140407940Y-117477980D02*
X140407940Y-116477980D01*
X140312702Y-116620838D01*
X140217464Y-116716076D01*
X140122226Y-116763695D01*
X141646035Y-117477980D02*
X141074607Y-117477980D01*
X141360321Y-117477980D02*
X141360321Y-116477980D01*
X141265083Y-116620838D01*
X141169845Y-116716076D01*
X141074607Y-116763695D01*
X139169845Y-98427980D02*
X139169845Y-97427980D01*
X139407940Y-97427980D01*
X139550797Y-97475600D01*
X139646035Y-97570838D01*
X139693654Y-97666076D01*
X139741273Y-97856552D01*
X139741273Y-97999409D01*
X139693654Y-98189885D01*
X139646035Y-98285123D01*
X139550797Y-98380361D01*
X139407940Y-98427980D01*
X139169845Y-98427980D01*
X140693654Y-98427980D02*
X140122226Y-98427980D01*
X140407940Y-98427980D02*
X140407940Y-97427980D01*
X140312702Y-97570838D01*
X140217464Y-97666076D01*
X140122226Y-97713695D01*
X141312702Y-97427980D02*
X141407940Y-97427980D01*
X141503178Y-97475600D01*
X141550797Y-97523219D01*
X141598416Y-97618457D01*
X141646035Y-97808933D01*
X141646035Y-98047028D01*
X141598416Y-98237504D01*
X141550797Y-98332742D01*
X141503178Y-98380361D01*
X141407940Y-98427980D01*
X141312702Y-98427980D01*
X141217464Y-98380361D01*
X141169845Y-98332742D01*
X141122226Y-98237504D01*
X141074607Y-98047028D01*
X141074607Y-97808933D01*
X141122226Y-97618457D01*
X141169845Y-97523219D01*
X141217464Y-97475600D01*
X141312702Y-97427980D01*
X139169845Y-79377980D02*
X139169845Y-78377980D01*
X139407940Y-78377980D01*
X139550797Y-78425600D01*
X139646035Y-78520838D01*
X139693654Y-78616076D01*
X139741273Y-78806552D01*
X139741273Y-78949409D01*
X139693654Y-79139885D01*
X139646035Y-79235123D01*
X139550797Y-79330361D01*
X139407940Y-79377980D01*
X139169845Y-79377980D01*
X140217464Y-79377980D02*
X140407940Y-79377980D01*
X140503178Y-79330361D01*
X140550797Y-79282742D01*
X140646035Y-79139885D01*
X140693654Y-78949409D01*
X140693654Y-78568457D01*
X140646035Y-78473219D01*
X140598416Y-78425600D01*
X140503178Y-78377980D01*
X140312702Y-78377980D01*
X140217464Y-78425600D01*
X140169845Y-78473219D01*
X140122226Y-78568457D01*
X140122226Y-78806552D01*
X140169845Y-78901790D01*
X140217464Y-78949409D01*
X140312702Y-78997028D01*
X140503178Y-78997028D01*
X140598416Y-78949409D01*
X140646035Y-78901790D01*
X140693654Y-78806552D01*
X120119845Y-136002980D02*
X120119845Y-135002980D01*
X120357940Y-135002980D01*
X120500797Y-135050600D01*
X120596035Y-135145838D01*
X120643654Y-135241076D01*
X120691273Y-135431552D01*
X120691273Y-135574409D01*
X120643654Y-135764885D01*
X120596035Y-135860123D01*
X120500797Y-135955361D01*
X120357940Y-136002980D01*
X120119845Y-136002980D01*
X121262702Y-135431552D02*
X121167464Y-135383933D01*
X121119845Y-135336314D01*
X121072226Y-135241076D01*
X121072226Y-135193457D01*
X121119845Y-135098219D01*
X121167464Y-135050600D01*
X121262702Y-135002980D01*
X121453178Y-135002980D01*
X121548416Y-135050600D01*
X121596035Y-135098219D01*
X121643654Y-135193457D01*
X121643654Y-135241076D01*
X121596035Y-135336314D01*
X121548416Y-135383933D01*
X121453178Y-135431552D01*
X121262702Y-135431552D01*
X121167464Y-135479171D01*
X121119845Y-135526790D01*
X121072226Y-135622028D01*
X121072226Y-135812504D01*
X121119845Y-135907742D01*
X121167464Y-135955361D01*
X121262702Y-136002980D01*
X121453178Y-136002980D01*
X121548416Y-135955361D01*
X121596035Y-135907742D01*
X121643654Y-135812504D01*
X121643654Y-135622028D01*
X121596035Y-135526790D01*
X121548416Y-135479171D01*
X121453178Y-135431552D01*
X120119845Y-117477980D02*
X120119845Y-116477980D01*
X120357940Y-116477980D01*
X120500797Y-116525600D01*
X120596035Y-116620838D01*
X120643654Y-116716076D01*
X120691273Y-116906552D01*
X120691273Y-117049409D01*
X120643654Y-117239885D01*
X120596035Y-117335123D01*
X120500797Y-117430361D01*
X120357940Y-117477980D01*
X120119845Y-117477980D01*
X121024607Y-116477980D02*
X121691273Y-116477980D01*
X121262702Y-117477980D01*
X120119845Y-98427980D02*
X120119845Y-97427980D01*
X120357940Y-97427980D01*
X120500797Y-97475600D01*
X120596035Y-97570838D01*
X120643654Y-97666076D01*
X120691273Y-97856552D01*
X120691273Y-97999409D01*
X120643654Y-98189885D01*
X120596035Y-98285123D01*
X120500797Y-98380361D01*
X120357940Y-98427980D01*
X120119845Y-98427980D01*
X121548416Y-97427980D02*
X121357940Y-97427980D01*
X121262702Y-97475600D01*
X121215083Y-97523219D01*
X121119845Y-97666076D01*
X121072226Y-97856552D01*
X121072226Y-98237504D01*
X121119845Y-98332742D01*
X121167464Y-98380361D01*
X121262702Y-98427980D01*
X121453178Y-98427980D01*
X121548416Y-98380361D01*
X121596035Y-98332742D01*
X121643654Y-98237504D01*
X121643654Y-97999409D01*
X121596035Y-97904171D01*
X121548416Y-97856552D01*
X121453178Y-97808933D01*
X121262702Y-97808933D01*
X121167464Y-97856552D01*
X121119845Y-97904171D01*
X121072226Y-97999409D01*
X120119845Y-79377980D02*
X120119845Y-78377980D01*
X120357940Y-78377980D01*
X120500797Y-78425600D01*
X120596035Y-78520838D01*
X120643654Y-78616076D01*
X120691273Y-78806552D01*
X120691273Y-78949409D01*
X120643654Y-79139885D01*
X120596035Y-79235123D01*
X120500797Y-79330361D01*
X120357940Y-79377980D01*
X120119845Y-79377980D01*
X121596035Y-78377980D02*
X121119845Y-78377980D01*
X121072226Y-78854171D01*
X121119845Y-78806552D01*
X121215083Y-78758933D01*
X121453178Y-78758933D01*
X121548416Y-78806552D01*
X121596035Y-78854171D01*
X121643654Y-78949409D01*
X121643654Y-79187504D01*
X121596035Y-79282742D01*
X121548416Y-79330361D01*
X121453178Y-79377980D01*
X121215083Y-79377980D01*
X121119845Y-79330361D01*
X121072226Y-79282742D01*
X101069845Y-136002980D02*
X101069845Y-135002980D01*
X101307940Y-135002980D01*
X101450797Y-135050600D01*
X101546035Y-135145838D01*
X101593654Y-135241076D01*
X101641273Y-135431552D01*
X101641273Y-135574409D01*
X101593654Y-135764885D01*
X101546035Y-135860123D01*
X101450797Y-135955361D01*
X101307940Y-136002980D01*
X101069845Y-136002980D01*
X102498416Y-135336314D02*
X102498416Y-136002980D01*
X102260321Y-134955361D02*
X102022226Y-135669647D01*
X102641273Y-135669647D01*
X101069845Y-117477980D02*
X101069845Y-116477980D01*
X101307940Y-116477980D01*
X101450797Y-116525600D01*
X101546035Y-116620838D01*
X101593654Y-116716076D01*
X101641273Y-116906552D01*
X101641273Y-117049409D01*
X101593654Y-117239885D01*
X101546035Y-117335123D01*
X101450797Y-117430361D01*
X101307940Y-117477980D01*
X101069845Y-117477980D01*
X101974607Y-116477980D02*
X102593654Y-116477980D01*
X102260321Y-116858933D01*
X102403178Y-116858933D01*
X102498416Y-116906552D01*
X102546035Y-116954171D01*
X102593654Y-117049409D01*
X102593654Y-117287504D01*
X102546035Y-117382742D01*
X102498416Y-117430361D01*
X102403178Y-117477980D01*
X102117464Y-117477980D01*
X102022226Y-117430361D01*
X101974607Y-117382742D01*
X101069845Y-98427980D02*
X101069845Y-97427980D01*
X101307940Y-97427980D01*
X101450797Y-97475600D01*
X101546035Y-97570838D01*
X101593654Y-97666076D01*
X101641273Y-97856552D01*
X101641273Y-97999409D01*
X101593654Y-98189885D01*
X101546035Y-98285123D01*
X101450797Y-98380361D01*
X101307940Y-98427980D01*
X101069845Y-98427980D01*
X102022226Y-97523219D02*
X102069845Y-97475600D01*
X102165083Y-97427980D01*
X102403178Y-97427980D01*
X102498416Y-97475600D01*
X102546035Y-97523219D01*
X102593654Y-97618457D01*
X102593654Y-97713695D01*
X102546035Y-97856552D01*
X101974607Y-98427980D01*
X102593654Y-98427980D01*
X101260345Y-79427980D02*
X101260345Y-78427980D01*
X101498440Y-78427980D01*
X101641297Y-78475600D01*
X101736535Y-78570838D01*
X101784154Y-78666076D01*
X101831773Y-78856552D01*
X101831773Y-78999409D01*
X101784154Y-79189885D01*
X101736535Y-79285123D01*
X101641297Y-79380361D01*
X101498440Y-79427980D01*
X101260345Y-79427980D01*
X102784154Y-79427980D02*
X102212726Y-79427980D01*
X102498440Y-79427980D02*
X102498440Y-78427980D01*
X102403202Y-78570838D01*
X102307964Y-78666076D01*
X102212726Y-78713695D01*
D12*
X185384119Y-97511980D02*
X185050785Y-97035790D01*
X184812690Y-97511980D02*
X184812690Y-96511980D01*
X185193642Y-96511980D01*
X185288880Y-96559600D01*
X185336500Y-96607219D01*
X185384119Y-96702457D01*
X185384119Y-96845314D01*
X185336500Y-96940552D01*
X185288880Y-96988171D01*
X185193642Y-97035790D01*
X184812690Y-97035790D01*
X185812690Y-96988171D02*
X186146023Y-96988171D01*
X186288880Y-97511980D02*
X185812690Y-97511980D01*
X185812690Y-96511980D01*
X186288880Y-96511980D01*
X186669833Y-97464361D02*
X186812690Y-97511980D01*
X187050785Y-97511980D01*
X187146023Y-97464361D01*
X187193642Y-97416742D01*
X187241261Y-97321504D01*
X187241261Y-97226266D01*
X187193642Y-97131028D01*
X187146023Y-97083409D01*
X187050785Y-97035790D01*
X186860309Y-96988171D01*
X186765071Y-96940552D01*
X186717452Y-96892933D01*
X186669833Y-96797695D01*
X186669833Y-96702457D01*
X186717452Y-96607219D01*
X186765071Y-96559600D01*
X186860309Y-96511980D01*
X187098404Y-96511980D01*
X187241261Y-96559600D01*
X187669833Y-96988171D02*
X188003166Y-96988171D01*
X188146023Y-97511980D02*
X187669833Y-97511980D01*
X187669833Y-96511980D01*
X188146023Y-96511980D01*
X188431738Y-96511980D02*
X189003166Y-96511980D01*
X188717452Y-97511980D02*
X188717452Y-96511980D01*
M02*
