M48
; DRILL file {KiCad (5.1.10)-1} date 08/15/21 11:08:55
; FORMAT={-:-/ absolute / inch / decimal}
; #@! TF.CreationDate,2021-08-15T11:08:55+09:00
; #@! TF.GenerationSoftware,Kicad,Pcbnew,(5.1.10)-1
; #@! TF.FileFunction,Plated,1,2,PTH
FMAT,2
INCH
T1C0.0157
T2C0.0320
T3C0.0472
T4C0.0512
T5C0.0591
T6C0.0906
%
G90
G05
T1
X4.448Y-2.5929
X4.4558Y-3.3488
X4.4558Y-4.841
X4.4598Y-4.0929
X5.1967Y-4.0922
X5.2039Y-2.5929
X5.2078Y-4.841
X5.2196Y-3.3449
X5.9514Y-3.3449
X5.9535Y-4.0914
X5.9637Y-2.589
X5.9637Y-4.841
X6.6955Y-3.3414
X6.7039Y-2.5969
X6.7039Y-4.8607
X6.7133Y-4.0914
X6.7275Y-3.2229
X6.7743Y-3.7458
X6.8084Y-3.8253
X6.8332Y-3.7239
X7.0744Y-3.3529
X7.1251Y-3.9827
X7.1331Y-3.9434
X7.1374Y-3.4557
X7.1684Y-2.9197
X7.1684Y-3.0221
X7.2157Y-3.3213
X7.2213Y-3.4557
X7.2236Y-3.1205
X7.2393Y-3.2072
X7.2787Y-3.5221
X7.448Y-4.1087
X7.4515Y-4.8414
T2
X4.0036Y-3.9164
X4.0036Y-4.6664
X4.0036Y-5.3957
X4.0111Y-3.1683
X4.3036Y-3.9164
X4.3036Y-4.6664
X4.3036Y-5.3957
X4.3111Y-3.1683
X4.7536Y-3.1664
X4.7536Y-3.9164
X4.7536Y-4.6664
X4.7536Y-5.3957
X5.0536Y-3.1664
X5.0536Y-3.9164
X5.0536Y-4.6664
X5.0536Y-5.3957
X5.5036Y-3.1664
X5.5036Y-3.9164
X5.5036Y-4.6664
X5.5036Y-5.3957
X5.8036Y-3.1664
X5.8036Y-3.9164
X5.8036Y-4.6664
X5.8036Y-5.3957
X6.2536Y-3.1664
X6.2536Y-3.9164
X6.2536Y-4.6664
X6.2536Y-5.3957
X6.5536Y-3.1664
X6.5536Y-3.9164
X6.5536Y-4.6664
X6.5536Y-5.3957
X6.839Y-2.5706
X6.839Y-2.6706
X6.839Y-2.7706
X6.839Y-2.8706
X6.839Y-2.9706
X6.839Y-3.0706
X6.839Y-3.1706
X6.839Y-3.2706
X6.839Y-3.3706
X6.839Y-3.4706
X6.839Y-3.5706
X6.839Y-3.6706
X6.8912Y-2.5206
X6.8912Y-2.6206
X6.8912Y-2.7206
X6.8912Y-2.8206
X6.8912Y-2.9206
X6.8912Y-3.0206
X6.8912Y-3.1206
X6.8912Y-3.2206
X6.8912Y-3.3206
X6.8912Y-3.4206
X6.8912Y-3.5206
X6.8912Y-3.6206
X7.0036Y-4.6664
X7.0036Y-5.3957
X7.3036Y-4.6664
X7.3036Y-5.3957
X7.439Y-2.5706
X7.439Y-2.6706
X7.439Y-2.7706
X7.439Y-2.8706
X7.439Y-2.9706
X7.439Y-3.0706
X7.439Y-3.1706
X7.439Y-3.2706
X7.439Y-3.3706
X7.439Y-3.4706
X7.439Y-3.5706
X7.439Y-3.6706
X7.4904Y-2.5206
X7.4904Y-2.6206
X7.4904Y-2.7206
X7.4904Y-2.8206
X7.4904Y-2.9206
X7.4904Y-3.0206
X7.4904Y-3.1206
X7.4904Y-3.2206
X7.4904Y-3.3206
X7.4904Y-3.4206
X7.4904Y-3.5206
X7.4904Y-3.6206
T3
X3.9528Y-2.9449
X3.9528Y-3.6949
X3.9528Y-4.4449
X3.9528Y-5.1949
X4.1536Y-3.0236
X4.1536Y-3.7736
X4.1536Y-4.5236
X4.1536Y-5.2736
X4.3544Y-2.9449
X4.3544Y-3.6949
X4.3544Y-4.4449
X4.3544Y-5.1949
X4.7028Y-2.9449
X4.7028Y-3.6949
X4.7028Y-4.4449
X4.7028Y-5.1949
X4.9036Y-3.0236
X4.9036Y-3.7736
X4.9036Y-4.5236
X4.9036Y-5.2736
X5.1044Y-2.9449
X5.1044Y-3.6949
X5.1044Y-4.4449
X5.1044Y-5.1949
X5.4528Y-2.9449
X5.4528Y-3.6949
X5.4528Y-4.4449
X5.4528Y-5.1949
X5.6536Y-3.0236
X5.6536Y-3.7736
X5.6536Y-4.5236
X5.6536Y-5.2736
X5.8544Y-2.9449
X5.8544Y-3.6949
X5.8544Y-4.4449
X5.8544Y-5.1949
X6.2028Y-2.9449
X6.2028Y-3.6949
X6.2028Y-4.4449
X6.2028Y-5.1949
X6.4036Y-3.0236
X6.4036Y-3.7736
X6.4036Y-4.5236
X6.4036Y-5.2736
X6.6044Y-2.9449
X6.6044Y-3.6949
X6.6044Y-4.4449
X6.6044Y-5.1949
X6.9528Y-4.4449
X6.9528Y-5.1949
X7.1536Y-4.5236
X7.1536Y-5.2736
X7.3544Y-4.4449
X7.3544Y-5.1949
T4
X7.2278Y-3.8212
X7.4837Y-3.8212
T5
X4.0036Y-2.8914
X4.0036Y-3.6414
X4.0036Y-4.3914
X4.0036Y-5.1414
X4.0536Y-2.9488
X4.0536Y-2.9685
X4.0536Y-2.9914
X4.0536Y-3.6988
X4.0536Y-3.7185
X4.0536Y-3.7414
X4.0536Y-4.4488
X4.0536Y-4.4685
X4.0536Y-4.4914
X4.0536Y-5.1988
X4.0536Y-5.2185
X4.0536Y-5.2414
X4.2536Y-2.9488
X4.2536Y-2.9685
X4.2536Y-2.9914
X4.2536Y-3.6988
X4.2536Y-3.7185
X4.2536Y-3.7414
X4.2536Y-4.4488
X4.2536Y-4.4685
X4.2536Y-4.4914
X4.2536Y-5.1988
X4.2536Y-5.2185
X4.2536Y-5.2414
X4.3036Y-2.8914
X4.3036Y-3.6414
X4.3036Y-4.3914
X4.3036Y-5.1414
X4.7536Y-2.8914
X4.7536Y-3.6414
X4.7536Y-4.3914
X4.7536Y-5.1414
X4.8036Y-2.9488
X4.8036Y-2.9685
X4.8036Y-2.9914
X4.8036Y-3.6988
X4.8036Y-3.7185
X4.8036Y-3.7414
X4.8036Y-4.4488
X4.8036Y-4.4685
X4.8036Y-4.4914
X4.8036Y-5.1988
X4.8036Y-5.2185
X4.8036Y-5.2414
X5.0036Y-2.9488
X5.0036Y-2.9685
X5.0036Y-2.9914
X5.0036Y-3.6988
X5.0036Y-3.7185
X5.0036Y-3.7414
X5.0036Y-4.4488
X5.0036Y-4.4685
X5.0036Y-4.4914
X5.0036Y-5.1988
X5.0036Y-5.2185
X5.0036Y-5.2414
X5.0536Y-2.8914
X5.0536Y-3.6414
X5.0536Y-4.3914
X5.0536Y-5.1414
X5.5036Y-2.8914
X5.5036Y-3.6414
X5.5036Y-4.3914
X5.5036Y-5.1414
X5.5536Y-2.9488
X5.5536Y-2.9685
X5.5536Y-2.9914
X5.5536Y-3.6988
X5.5536Y-3.7185
X5.5536Y-3.7414
X5.5536Y-4.4488
X5.5536Y-4.4685
X5.5536Y-4.4914
X5.5536Y-5.1988
X5.5536Y-5.2185
X5.5536Y-5.2414
X5.7536Y-2.9488
X5.7536Y-2.9685
X5.7536Y-2.9914
X5.7536Y-3.6988
X5.7536Y-3.7185
X5.7536Y-3.7414
X5.7536Y-4.4488
X5.7536Y-4.4685
X5.7536Y-4.4914
X5.7536Y-5.1988
X5.7536Y-5.2185
X5.7536Y-5.2414
X5.8036Y-2.8914
X5.8036Y-3.6414
X5.8036Y-4.3914
X5.8036Y-5.1414
X6.2536Y-2.8914
X6.2536Y-3.6414
X6.2536Y-4.3914
X6.2536Y-5.1414
X6.3036Y-2.9488
X6.3036Y-2.9685
X6.3036Y-2.9914
X6.3036Y-3.6988
X6.3036Y-3.7185
X6.3036Y-3.7414
X6.3036Y-4.4488
X6.3036Y-4.4685
X6.3036Y-4.4914
X6.3036Y-5.1988
X6.3036Y-5.2185
X6.3036Y-5.2414
X6.5036Y-2.9488
X6.5036Y-2.9685
X6.5036Y-2.9914
X6.5036Y-3.6988
X6.5036Y-3.7185
X6.5036Y-3.7414
X6.5036Y-4.4488
X6.5036Y-4.4685
X6.5036Y-4.4914
X6.5036Y-5.1988
X6.5036Y-5.2185
X6.5036Y-5.2414
X6.5536Y-2.8914
X6.5536Y-3.6414
X6.5536Y-4.3914
X6.5536Y-5.1414
X7.0036Y-4.3914
X7.0036Y-5.1414
X7.0536Y-4.4488
X7.0536Y-4.4685
X7.0536Y-4.4914
X7.0536Y-5.1988
X7.0536Y-5.2185
X7.0536Y-5.2414
X7.2536Y-4.4488
X7.2536Y-4.4685
X7.2536Y-4.4914
X7.2536Y-5.1988
X7.2536Y-5.2185
X7.2536Y-5.2414
X7.3036Y-4.3914
X7.3036Y-5.1414
T6
X4.5305Y-3.1683
X4.5305Y-4.6683
X5.2805Y-3.9183
X6.0305Y-3.1683
X6.7805Y-4.6683
T0
M30
