M48
; DRILL file {KiCad (5.1.10)-1} date 07/22/21 10:00:54
; FORMAT={-:-/ absolute / metric / decimal}
; #@! TF.CreationDate,2021-07-22T10:00:54+09:00
; #@! TF.GenerationSoftware,Kicad,Pcbnew,(5.1.10)-1
; #@! TF.FileFunction,NonPlated,1,2,NPTH
FMAT,2
METRIC
T1C1.000
T2C1.700
T3C1.900
T4C3.000
T5C4.900
%
G90
G05
T1
X100.28Y-66.701
X100.28Y-85.751
X100.28Y-104.801
X100.28Y-123.851
X110.721Y-66.701
X110.721Y-85.751
X110.721Y-104.801
X110.721Y-123.851
X119.331Y-66.701
X119.331Y-85.751
X119.331Y-104.801
X119.331Y-123.851
X129.77Y-66.701
X129.77Y-85.751
X129.77Y-104.801
X129.77Y-123.851
X138.38Y-66.701
X138.38Y-85.751
X138.38Y-104.801
X138.38Y-123.851
X148.82Y-66.701
X148.82Y-85.751
X148.82Y-104.801
X148.82Y-123.851
X157.43Y-66.701
X157.43Y-85.751
X157.43Y-104.801
X157.43Y-123.851
X167.87Y-66.701
X167.87Y-85.751
X167.87Y-104.801
X167.87Y-123.851
X176.48Y-104.801
X176.48Y-123.851
X186.921Y-104.801
X186.921Y-123.851
T2
X100.42Y-70.901
X100.42Y-89.951
X100.42Y-109.001
X100.42Y-128.051
X101.001Y-70.901
X101.001Y-89.951
X101.001Y-109.001
X101.001Y-128.051
X110.0Y-70.901
X110.0Y-89.951
X110.0Y-109.001
X110.0Y-128.051
X110.581Y-70.901
X110.581Y-89.951
X110.581Y-109.001
X110.581Y-128.051
X119.471Y-70.901
X119.471Y-89.951
X119.471Y-109.001
X119.471Y-128.051
X120.05Y-70.901
X120.05Y-89.951
X120.05Y-109.001
X120.05Y-128.051
X129.05Y-70.901
X129.05Y-89.951
X129.05Y-109.001
X129.05Y-128.051
X129.63Y-70.901
X129.63Y-89.951
X129.63Y-109.001
X129.63Y-128.051
X138.52Y-70.901
X138.52Y-89.951
X138.52Y-109.001
X138.52Y-128.051
X139.1Y-70.901
X139.1Y-89.951
X139.1Y-109.001
X139.1Y-128.051
X148.1Y-70.901
X148.1Y-89.951
X148.1Y-109.001
X148.1Y-128.051
X148.68Y-70.901
X148.68Y-89.951
X148.68Y-109.001
X148.68Y-128.051
X157.57Y-70.901
X157.57Y-89.951
X157.57Y-109.001
X157.57Y-128.051
X158.15Y-70.901
X158.15Y-89.951
X158.15Y-109.001
X158.15Y-128.051
X167.15Y-70.901
X167.15Y-89.951
X167.15Y-109.001
X167.15Y-128.051
X167.731Y-70.901
X167.731Y-89.951
X167.731Y-109.001
X167.731Y-128.051
X176.62Y-109.001
X176.62Y-128.051
X177.201Y-109.001
X177.201Y-128.051
X186.201Y-109.001
X186.201Y-128.051
X186.78Y-109.001
X186.78Y-128.051
T3
X100.001Y-70.901
X100.001Y-89.951
X100.001Y-109.001
X100.001Y-128.051
X111.0Y-70.901
X111.0Y-89.951
X111.0Y-109.001
X111.0Y-128.051
X119.05Y-70.901
X119.05Y-89.951
X119.05Y-109.001
X119.05Y-128.051
X130.05Y-70.901
X130.05Y-89.951
X130.05Y-109.001
X130.05Y-128.051
X138.1Y-70.901
X138.1Y-89.951
X138.1Y-109.001
X138.1Y-128.051
X149.1Y-70.901
X149.1Y-89.951
X149.1Y-109.001
X149.1Y-128.051
X157.15Y-70.901
X157.15Y-89.951
X157.15Y-109.001
X157.15Y-128.051
X168.15Y-70.901
X168.15Y-89.951
X168.15Y-109.001
X168.15Y-128.051
X176.201Y-109.001
X176.201Y-128.051
X187.201Y-109.001
X187.201Y-128.051
T4
X101.691Y-68.361
X101.691Y-87.411
X101.691Y-106.461
X101.691Y-125.511
X102.96Y-65.821
X102.96Y-84.871
X102.96Y-103.921
X102.96Y-122.971
X108.04Y-65.821
X108.04Y-84.871
X108.04Y-103.921
X108.04Y-122.971
X109.31Y-68.361
X109.31Y-87.411
X109.31Y-106.461
X109.31Y-125.511
X120.74Y-68.361
X120.74Y-87.411
X120.74Y-106.461
X120.74Y-125.511
X122.01Y-65.821
X122.01Y-84.871
X122.01Y-103.921
X122.01Y-122.971
X127.09Y-65.821
X127.09Y-84.871
X127.09Y-103.921
X127.09Y-122.971
X128.361Y-68.361
X128.361Y-87.411
X128.361Y-106.461
X128.361Y-125.511
X139.79Y-68.361
X139.79Y-87.411
X139.79Y-106.461
X139.79Y-125.511
X141.06Y-65.821
X141.06Y-84.871
X141.06Y-103.921
X141.06Y-122.971
X146.141Y-65.821
X146.141Y-84.871
X146.141Y-103.921
X146.141Y-122.971
X147.41Y-68.361
X147.41Y-87.411
X147.41Y-106.461
X147.41Y-125.511
X158.84Y-68.361
X158.84Y-87.411
X158.84Y-106.461
X158.84Y-125.511
X160.111Y-65.821
X160.111Y-84.871
X160.111Y-103.921
X160.111Y-122.971
X165.19Y-65.821
X165.19Y-84.871
X165.19Y-103.921
X165.19Y-122.971
X166.46Y-68.361
X166.46Y-87.411
X166.46Y-106.461
X166.46Y-125.511
X177.891Y-106.461
X177.891Y-125.511
X179.16Y-103.921
X179.16Y-122.971
X184.24Y-103.921
X184.24Y-122.971
X185.51Y-106.461
X185.51Y-125.511
T5
X105.5Y-70.901
X105.5Y-89.951
X105.5Y-109.001
X105.5Y-128.051
X124.55Y-70.901
X124.55Y-89.951
X124.55Y-109.001
X124.55Y-128.051
X143.6Y-70.901
X143.6Y-89.951
X143.6Y-109.001
X143.6Y-128.051
X162.65Y-70.901
X162.65Y-89.951
X162.65Y-109.001
X162.65Y-128.051
X181.701Y-109.001
X181.701Y-128.051
T0
M30
