M48
; DRILL file {KiCad (5.1.10)-1} date 08/15/21 11:08:55
; FORMAT={-:-/ absolute / inch / decimal}
; #@! TF.CreationDate,2021-08-15T11:08:55+09:00
; #@! TF.GenerationSoftware,Kicad,Pcbnew,(5.1.10)-1
; #@! TF.FileFunction,NonPlated,1,2,NPTH
FMAT,2
INCH
T1C0.0394
T2C0.0661
T3C0.0748
T4C0.1181
T5C0.1929
%
G90
G05
T1
X3.9481Y-2.626
X3.9481Y-3.376
X3.9481Y-4.126
X3.9481Y-4.876
X3.9567Y-2.5886
X3.9567Y-3.3386
X3.9567Y-4.0886
X3.9567Y-4.8386
X4.3504Y-2.5886
X4.3504Y-3.3386
X4.3504Y-4.0886
X4.3504Y-4.8386
X4.3591Y-2.626
X4.3591Y-3.376
X4.3591Y-4.126
X4.3591Y-4.876
X4.6981Y-2.626
X4.6981Y-3.376
X4.6981Y-4.126
X4.6981Y-4.876
X4.7067Y-2.5886
X4.7067Y-3.3386
X4.7067Y-4.0886
X4.7067Y-4.8386
X5.1004Y-2.5886
X5.1004Y-3.3386
X5.1004Y-4.0886
X5.1004Y-4.8386
X5.1091Y-2.626
X5.1091Y-3.376
X5.1091Y-4.126
X5.1091Y-4.876
X5.4481Y-2.626
X5.4481Y-3.376
X5.4481Y-4.126
X5.4481Y-4.876
X5.4567Y-2.5886
X5.4567Y-3.3386
X5.4567Y-4.0886
X5.4567Y-4.8386
X5.8504Y-2.5886
X5.8504Y-3.3386
X5.8504Y-4.0886
X5.8504Y-4.8386
X5.8591Y-2.626
X5.8591Y-3.376
X5.8591Y-4.126
X5.8591Y-4.876
X6.1981Y-2.626
X6.1981Y-3.376
X6.1981Y-4.126
X6.1981Y-4.876
X6.2067Y-2.5886
X6.2067Y-3.3386
X6.2067Y-4.0886
X6.2067Y-4.8386
X6.6004Y-2.5886
X6.6004Y-3.3386
X6.6004Y-4.0886
X6.6004Y-4.8386
X6.6091Y-2.626
X6.6091Y-3.376
X6.6091Y-4.126
X6.6091Y-4.876
X6.9481Y-4.126
X6.9481Y-4.876
X6.9567Y-4.0886
X6.9567Y-4.8386
X7.3504Y-4.0886
X7.3504Y-4.8386
X7.3591Y-4.126
X7.3591Y-4.876
T2
X3.9536Y-2.7914
X3.9536Y-3.5414
X3.9536Y-4.2914
X3.9536Y-5.0414
X3.9764Y-2.7914
X3.9764Y-3.5414
X3.9764Y-4.2914
X3.9764Y-5.0414
X4.3307Y-2.7914
X4.3307Y-3.5414
X4.3307Y-4.2914
X4.3307Y-5.0414
X4.3536Y-2.7914
X4.3536Y-3.5414
X4.3536Y-4.2914
X4.3536Y-5.0414
X4.7036Y-2.7914
X4.7036Y-3.5414
X4.7036Y-4.2914
X4.7036Y-5.0414
X4.7264Y-2.7914
X4.7264Y-3.5414
X4.7264Y-4.2914
X4.7264Y-5.0414
X5.0807Y-2.7914
X5.0807Y-3.5414
X5.0807Y-4.2914
X5.0807Y-5.0414
X5.1036Y-2.7914
X5.1036Y-3.5414
X5.1036Y-4.2914
X5.1036Y-5.0414
X5.4536Y-2.7914
X5.4536Y-3.5414
X5.4536Y-4.2914
X5.4536Y-5.0414
X5.4764Y-2.7914
X5.4764Y-3.5414
X5.4764Y-4.2914
X5.4764Y-5.0414
X5.8307Y-2.7914
X5.8307Y-3.5414
X5.8307Y-4.2914
X5.8307Y-5.0414
X5.8536Y-2.7914
X5.8536Y-3.5414
X5.8536Y-4.2914
X5.8536Y-5.0414
X6.2036Y-2.7914
X6.2036Y-3.5414
X6.2036Y-4.2914
X6.2036Y-5.0414
X6.2264Y-2.7914
X6.2264Y-3.5414
X6.2264Y-4.2914
X6.2264Y-5.0414
X6.5807Y-2.7914
X6.5807Y-3.5414
X6.5807Y-4.2914
X6.5807Y-5.0414
X6.6036Y-2.7914
X6.6036Y-3.5414
X6.6036Y-4.2914
X6.6036Y-5.0414
X6.9536Y-4.2914
X6.9536Y-5.0414
X6.9764Y-4.2914
X6.9764Y-5.0414
X7.3307Y-4.2914
X7.3307Y-5.0414
X7.3536Y-4.2914
X7.3536Y-5.0414
T3
X3.937Y-2.7914
X3.937Y-3.5414
X3.937Y-4.2914
X3.937Y-5.0414
X4.3701Y-2.7914
X4.3701Y-3.5414
X4.3701Y-4.2914
X4.3701Y-5.0414
X4.687Y-2.7914
X4.687Y-3.5414
X4.687Y-4.2914
X4.687Y-5.0414
X5.1201Y-2.7914
X5.1201Y-3.5414
X5.1201Y-4.2914
X5.1201Y-5.0414
X5.437Y-2.7914
X5.437Y-3.5414
X5.437Y-4.2914
X5.437Y-5.0414
X5.8701Y-2.7914
X5.8701Y-3.5414
X5.8701Y-4.2914
X5.8701Y-5.0414
X6.187Y-2.7914
X6.187Y-3.5414
X6.187Y-4.2914
X6.187Y-5.0414
X6.6201Y-2.7914
X6.6201Y-3.5414
X6.6201Y-4.2914
X6.6201Y-5.0414
X6.937Y-4.2914
X6.937Y-5.0414
X7.3701Y-4.2914
X7.3701Y-5.0414
T4
X4.0036Y-2.6914
X4.0036Y-3.4414
X4.0036Y-4.1914
X4.0036Y-4.9414
X4.0536Y-2.5914
X4.0536Y-3.3414
X4.0536Y-4.0914
X4.0536Y-4.8414
X4.2536Y-2.5914
X4.2536Y-3.3414
X4.2536Y-4.0914
X4.2536Y-4.8414
X4.3036Y-2.6914
X4.3036Y-3.4414
X4.3036Y-4.1914
X4.3036Y-4.9414
X4.7536Y-2.6914
X4.7536Y-3.4414
X4.7536Y-4.1914
X4.7536Y-4.9414
X4.8036Y-2.5914
X4.8036Y-3.3414
X4.8036Y-4.0914
X4.8036Y-4.8414
X5.0036Y-2.5914
X5.0036Y-3.3414
X5.0036Y-4.0914
X5.0036Y-4.8414
X5.0536Y-2.6914
X5.0536Y-3.4414
X5.0536Y-4.1914
X5.0536Y-4.9414
X5.5036Y-2.6914
X5.5036Y-3.4414
X5.5036Y-4.1914
X5.5036Y-4.9414
X5.5536Y-2.5914
X5.5536Y-3.3414
X5.5536Y-4.0914
X5.5536Y-4.8414
X5.7536Y-2.5914
X5.7536Y-3.3414
X5.7536Y-4.0914
X5.7536Y-4.8414
X5.8036Y-2.6914
X5.8036Y-3.4414
X5.8036Y-4.1914
X5.8036Y-4.9414
X6.2536Y-2.6914
X6.2536Y-3.4414
X6.2536Y-4.1914
X6.2536Y-4.9414
X6.3036Y-2.5914
X6.3036Y-3.3414
X6.3036Y-4.0914
X6.3036Y-4.8414
X6.5036Y-2.5914
X6.5036Y-3.3414
X6.5036Y-4.0914
X6.5036Y-4.8414
X6.5536Y-2.6914
X6.5536Y-3.4414
X6.5536Y-4.1914
X6.5536Y-4.9414
X7.0036Y-4.1914
X7.0036Y-4.9414
X7.0536Y-4.0914
X7.0536Y-4.8414
X7.2536Y-4.0914
X7.2536Y-4.8414
X7.3036Y-4.1914
X7.3036Y-4.9414
T5
X4.1536Y-2.7914
X4.1536Y-3.5414
X4.1536Y-4.2914
X4.1536Y-5.0414
X4.9036Y-2.7914
X4.9036Y-3.5414
X4.9036Y-4.2914
X4.9036Y-5.0414
X5.6536Y-2.7914
X5.6536Y-3.5414
X5.6536Y-4.2914
X5.6536Y-5.0414
X6.4036Y-2.7914
X6.4036Y-3.5414
X6.4036Y-4.2914
X6.4036Y-5.0414
X7.1536Y-4.2914
X7.1536Y-5.0414
T0
M30
